<svg width="118" height="158" viewBox="0 0 118 158" fill="none" xmlns="http://www.w3.org/2000/svg">
<path d="M117.238 51.983C117.238 52.2404 117.238 52.4977 117.238 52.7551C117.238 54.3719 117.225 55.9822 117.205 57.5924C117.205 57.7244 117.205 57.8498 117.205 57.9818C117.146 62.9643 117.014 67.9468 116.849 72.9293C116.849 72.9623 116.849 72.9953 116.849 73.0217C116.849 73.1536 116.843 73.2856 116.836 73.411C116.817 73.9258 116.803 74.4471 116.784 74.9619C116.659 78.5585 116.514 82.1485 116.363 85.7452C116.343 86.1411 116.33 86.5371 116.316 86.933C116.29 87.5138 116.27 88.1011 116.244 88.6819C116.244 88.8139 116.231 88.9392 116.224 89.0712C116.053 93.1496 115.876 97.2214 115.711 101.3C115.711 101.432 115.698 101.557 115.698 101.689C115.626 103.484 115.553 105.286 115.487 107.081C115.487 107.186 115.481 107.299 115.474 107.411C115.474 107.417 115.474 107.431 115.474 107.437C115.474 107.45 115.474 107.464 115.474 107.47C115.369 110.413 115.27 113.357 115.191 116.3C115.145 117.943 115.106 119.58 115.073 121.223C115.06 121.804 115.053 122.385 115.04 122.965C115.04 123.097 115.04 123.223 115.04 123.348C115.02 124.642 115 125.935 114.987 127.222C114.987 127.354 114.987 127.486 114.987 127.618C114.987 127.987 114.981 128.357 114.974 128.727C114.948 129.182 114.928 129.637 114.908 130.093C114.908 130.218 114.895 130.337 114.895 130.462C114.823 132.066 114.777 133.67 114.711 135.273C114.645 136.824 114.573 138.368 114.454 139.912C114.454 140.005 114.454 140.104 114.454 140.196C114.454 140.322 114.448 140.454 114.441 140.579C114.415 141.43 114.375 142.242 114.316 143.001C114.303 143.14 114.296 143.278 114.283 143.41C114.184 144.565 114.04 145.621 113.849 146.584C113.822 146.73 113.79 146.868 113.763 147.007C113.625 147.64 113.474 148.234 113.289 148.782C113.105 149.35 112.901 149.877 112.677 150.366C111.473 152.959 109.618 154.517 106.972 155.461C106.202 155.738 105.373 155.962 104.465 156.14C103.004 156.437 101.359 156.629 99.5165 156.754C98.207 156.846 96.7987 156.906 95.2852 156.945C93.8309 156.972 92.3832 156.992 90.9355 157.018C90.0866 157.031 89.2378 157.044 88.3889 157.051C88.2178 157.051 88.0533 157.051 87.8822 157.051C86.2502 157.071 84.6248 157.084 82.9929 157.097C81.8215 157.104 80.6502 157.117 79.4789 157.124C78.8274 157.124 78.176 157.13 77.5245 157.137C69.0751 157.176 60.6587 157.15 52.2488 157.104C51.9132 157.104 51.5776 157.104 51.2486 157.104C51.1302 157.104 51.0117 157.104 50.8933 157.104C50.2747 157.104 49.6496 157.097 49.031 157.091C48.6164 157.091 48.2018 157.091 47.7807 157.084C47.5701 157.084 47.3595 157.084 47.149 157.084C46.8726 157.084 46.6028 157.084 46.3264 157.084C46.1553 157.084 45.9908 157.084 45.8197 157.084C44.5365 157.077 43.2533 157.064 41.9701 157.058C41.7135 157.058 41.4568 157.058 41.2002 157.058C38.6667 157.038 36.1267 157.025 33.5932 157.005C32.7838 157.005 31.9678 156.992 31.1518 156.985C30.7899 156.985 30.4214 156.985 30.0595 156.978C29.6844 156.978 29.3027 156.978 28.9276 156.972C25.5847 156.952 22.2353 156.932 18.8858 156.919C18.7739 156.919 18.6686 156.919 18.5568 156.919C16.1549 156.873 14.0623 156.688 12.2329 156.378C11.2524 156.213 10.3575 156.008 9.52177 155.764C8.54128 155.48 7.65948 155.144 6.86325 154.761C6.22494 154.451 5.64586 154.114 5.11942 153.738C4.38241 153.217 3.7441 152.629 3.2045 151.983C2.92154 151.646 2.65832 151.29 2.42142 150.92C2.07923 150.379 1.78969 149.811 1.53964 149.204C1.38829 148.828 1.2501 148.439 1.12507 148.043C1.03295 147.739 0.947396 147.429 0.875011 147.112C0.828948 146.928 0.789463 146.736 0.74998 146.545C0.717078 146.4 0.690753 146.254 0.664431 146.109C0.24328 143.74 0.21696 141.015 0.368311 137.952C0.368311 137.82 0.381471 137.682 0.388052 137.55C0.486759 135.795 0.631533 133.927 0.802625 131.96C0.828947 131.657 0.855269 131.353 0.875011 131.05C0.881591 130.964 0.888171 130.871 0.894752 130.786C0.907913 130.654 0.914495 130.522 0.927656 130.383C0.927656 130.317 0.934229 130.244 0.94081 130.178C1.19087 127.05 1.41461 124.021 1.61202 121.071C1.6186 120.939 1.63177 120.814 1.63835 120.682C1.7897 118.478 1.92131 116.32 2.04634 114.215C2.17795 112.011 2.28981 109.853 2.40168 107.754C2.40168 107.622 2.41484 107.49 2.42142 107.358C2.44116 106.949 2.46091 106.54 2.48065 106.131C2.49381 105.873 2.50697 105.622 2.51356 105.372C2.55304 104.494 2.59252 103.623 2.632 102.758C2.632 102.626 2.64516 102.501 2.65174 102.369C2.72413 100.679 2.78993 99.0296 2.85573 97.4128C3.10579 90.8728 3.26372 84.9203 3.40191 79.5088C3.46114 77.2056 3.51378 74.9949 3.573 72.8831C3.57958 72.5861 3.58617 72.2825 3.59933 71.9922C3.7441 66.5873 3.90862 61.816 4.17842 57.5924C4.2179 56.9457 4.26396 56.3121 4.31002 55.6984C4.44163 53.976 4.59298 52.3525 4.77723 50.8281C4.79039 50.6961 4.81014 50.5641 4.8233 50.4387C4.84962 50.2078 4.88253 49.9834 4.90885 49.759C4.92201 49.6468 4.94175 49.5346 4.95491 49.4224C5.00097 49.0859 5.04704 48.7625 5.09968 48.4325C5.11284 48.327 5.13258 48.2148 5.15233 48.1092C5.19839 47.7924 5.25103 47.4888 5.30367 47.1787C7.42917 34.8841 12.4172 29.6706 25.4268 27.7502C25.5584 27.7304 25.69 27.7106 25.8216 27.6908C27.7695 27.4137 29.9015 27.2157 32.2244 27.0705C32.2968 27.0705 32.3626 27.0639 32.435 27.0573C32.4942 27.0573 32.5535 27.0507 32.6193 27.0441C32.6917 27.0441 32.7575 27.0375 32.8299 27.0309C33.1786 27.0111 33.534 26.9913 33.8893 26.9781C34.0604 26.9715 34.2315 26.9583 34.4026 26.9517C35.4094 26.9055 36.4557 26.8725 37.5349 26.8461C38.0548 26.8329 38.5746 26.8197 39.1142 26.8131C41.0818 26.7801 43.1612 26.7735 45.3591 26.7801C45.4907 26.7801 45.6157 26.7801 45.7473 26.7801C49.8075 26.8065 54.2691 26.9055 59.1649 27.0441C59.2966 27.0441 59.4216 27.0441 59.5532 27.0573C63.6199 27.1695 67.9894 27.3147 72.6813 27.4665C72.8129 27.4665 72.9379 27.4731 73.0695 27.4797C75.728 27.5655 78.4852 27.6578 81.3543 27.7436C81.5189 27.7436 81.6834 27.7502 81.8545 27.7568C83.1311 27.7964 84.4208 27.836 85.7435 27.8756C85.8751 27.8756 86.0002 27.8822 86.1318 27.8888C90.4288 28.0142 94.9562 28.1396 99.7205 28.2452C99.8521 28.2452 99.9771 28.2452 100.109 28.2518C100.773 28.265 101.445 28.2848 102.116 28.298C105.742 28.2716 110.341 29.1625 113.5 31.4129C113.625 31.5053 113.75 31.5976 113.875 31.69C116.007 33.3465 117.389 35.676 117.178 38.8371C117.073 39.992 117.06 41.1469 117.086 42.3018C117.086 42.4337 117.086 42.5591 117.093 42.6911C117.119 43.6744 117.172 44.6643 117.211 45.641C117.231 47.1391 117.244 48.6437 117.251 50.1418C117.251 50.7555 117.251 51.3626 117.251 51.9764L117.238 51.983Z" fill="#336137"/>
<path d="M53.3017 70.6459C53.453 68.191 53.8676 64.9903 51.5513 63.3603C50.3931 62.5486 48.9191 62.4826 47.5569 62.4496C46.8989 62.4298 46.2408 62.4166 45.5828 62.3968C44.5365 62.3704 43.4968 62.344 42.4505 62.3176C39.3905 62.2384 36.324 62.1592 33.2641 62.08C32.6982 62.08 32.1257 62.0734 31.5598 62.0668C31.211 62.0668 30.8622 62.0668 30.5135 62.0602C28.5985 62.047 26.6902 62.0272 24.7753 62.014L21.439 61.9876C20.4519 61.981 19.4385 61.9018 18.458 62.014C17.5631 62.113 16.6945 62.41 16.1154 63.1359C15.5758 63.8222 15.431 64.6801 15.352 65.5249C15.148 67.7422 15.0098 69.9728 14.8388 72.1902C14.4966 76.6579 14.1544 81.1257 13.8122 85.5934C13.6411 87.8042 13.47 90.0216 13.2989 92.2324C13.1607 94.0538 12.7922 96.093 13.5819 97.8088C14.3584 99.5048 16.1417 100.046 17.8724 100.119C19.0897 100.171 20.3071 100.152 21.5311 100.119C21.9457 100.112 22.3603 100.099 22.7682 100.086L42.7861 100.858C44.3391 100.904 45.925 101.049 47.478 100.957C48.8138 100.877 50.143 100.482 50.9524 99.3398C51.2091 98.9769 51.3933 98.5743 51.5249 98.152C51.8342 97.1819 51.8869 96.0996 51.9922 95.1163C52.0975 94.1132 52.1896 93.1035 52.2685 92.1004C52.3212 91.381 52.3673 90.6749 52.4067 89.9622C52.5384 87.5864 52.591 85.2041 52.5581 82.8217C52.8081 78.7565 53.0582 74.7045 53.3017 70.6459ZM18.6752 98.4489C17.8921 98.4489 17.0827 98.4489 16.3391 98.185C14.7203 97.6174 14.7137 95.8092 14.8059 94.3639C14.9375 92.305 15.1217 90.246 15.2796 88.1936C15.6021 84.003 15.9245 79.8124 16.247 75.6218L16.7274 69.3327C16.8129 68.2636 16.8919 67.1945 16.9708 66.132C17.0235 65.4655 16.9972 64.5482 17.5236 64.0532C18.0698 63.5319 19.0832 63.6375 19.7675 63.6441C20.8007 63.6507 21.8338 63.6639 22.8604 63.6705C24.9661 63.6903 27.0653 63.7034 29.171 63.7232C30.5332 63.7364 31.8888 63.743 33.2509 63.7562C35.6791 63.8222 38.1139 63.8816 40.5421 63.9476L45.5301 64.0796C46.8989 64.1126 48.3926 63.9938 49.7219 64.3568C52.2883 65.0629 51.7882 68.356 51.6368 70.448C51.6368 70.5206 51.6237 70.5865 51.6237 70.6525C51.4789 73.0019 51.3341 75.3579 51.1894 77.7072C51.1367 78.6113 51.0775 79.522 51.0248 80.4262C50.9788 81.2247 50.9261 82.0232 50.8735 82.8217V82.8349C50.8998 84.6233 50.8735 86.4184 50.8077 88.2068C50.7616 89.4738 50.6827 90.7409 50.5905 92.008C50.5905 92.0344 50.5905 92.0542 50.5905 92.0806C50.5642 92.3973 50.5445 92.7075 50.5181 93.0243C50.3931 94.4695 50.3668 96.027 49.9851 97.4392C49.9785 97.4788 49.9654 97.5118 49.9522 97.5514C49.5903 98.8185 48.6164 99.2343 47.3792 99.2937C45.8921 99.3662 44.3851 99.2408 42.8914 99.1947C39.634 99.0957 36.3767 98.9967 33.1193 98.8977C29.8093 98.7987 26.4994 98.6997 23.1828 98.5941C22.7617 98.5809 22.3405 98.5677 21.9128 98.5545C21.8601 98.5545 21.8075 98.5545 21.7483 98.5545C20.6427 98.5083 19.3266 98.4423 18.6554 98.4489H18.6752Z" fill="#8AB946"/>
<path d="M47.0239 70.679C46.9515 69.9266 46.708 69.2007 46.1355 68.686C45.517 68.1382 44.6813 67.9996 43.885 67.9666C41.7135 67.8742 39.5287 67.9138 37.3572 67.894C35.1395 67.8676 30.4608 67.8478 30.3621 67.894C28.9868 67.8808 27.6049 67.8676 26.2296 67.861C25.2096 67.8544 24.1765 67.7884 23.1565 67.8478C22.2944 67.9006 21.4456 68.1844 20.9981 68.9763C20.5375 69.7946 20.5901 70.8703 20.5243 71.7744C20.4388 72.8369 20.3532 73.906 20.2742 74.9685C19.932 79.3043 19.5899 83.64 19.2411 87.9758C19.1556 89.0383 19.07 90.1074 18.991 91.1699C18.9252 92.0278 18.8792 92.9517 19.3925 93.6908C19.8991 94.4168 20.7415 94.6543 21.5838 94.6873C22.5906 94.7269 23.6105 94.6675 24.6239 94.6543C28.2893 94.6081 31.9546 94.5553 35.6199 94.5091C37.3506 94.5289 39.0747 94.5553 40.8054 94.5751C42.2728 94.5949 44.3654 94.9381 45.313 93.4862C45.767 92.7933 45.7999 91.942 45.8855 91.1435C45.9908 90.114 46.0895 89.0845 46.1816 88.055C46.5304 84.168 46.7804 80.2744 46.9318 76.3742C46.9713 75.4173 46.9976 74.467 47.0239 73.5101C47.0502 72.5796 47.1358 71.6227 47.0371 70.6922L47.0239 70.679ZM45.3525 72.7841C45.3327 73.6619 45.3064 74.533 45.2735 75.4107C45.1485 78.9941 44.9445 82.5709 44.6484 86.1412C44.5036 87.9626 44.3522 89.7972 44.1416 91.612C44.0693 92.2192 43.9706 92.7273 43.3059 92.8527C42.5755 92.9913 41.7661 92.8857 41.0225 92.8791C40.5619 92.8791 40.1012 92.8659 39.6406 92.8593C38.41 92.8461 37.1729 92.8263 35.9424 92.8131L28.4933 92.9121L27.4404 92.9253C25.5189 92.9517 23.5776 93.0507 21.6627 92.9979C20.8402 92.9715 20.5901 92.6481 20.6098 91.8364C20.6296 90.8993 20.748 89.9622 20.8204 89.0251C21.1363 85.0457 21.4521 81.0663 21.768 77.0803C21.9259 75.1071 22.0839 73.1405 22.2352 71.1673C22.2879 70.4678 22.1892 69.6099 23.0578 69.5109C23.9725 69.4119 24.9464 69.5109 25.8676 69.5175C25.8676 69.5175 40.7856 69.6033 41.391 69.6099C42.2201 69.6165 43.0559 69.6099 43.885 69.6429C44.5562 69.6759 45.1682 69.788 45.3261 70.5404C45.4775 71.2531 45.3722 72.0516 45.3525 72.7709V72.7841Z" fill="#8AB946"/>
<path d="M32.7838 73.4703C32.3758 78.8026 31.9678 84.1348 31.5598 89.4671C31.4743 90.5428 33.1523 90.5362 33.2313 89.4671C33.6392 84.1348 34.0472 78.8026 34.4552 73.4703C34.5408 72.3946 32.8627 72.4012 32.7838 73.4703Z" fill="#8AB946"/>
<path d="M115.06 121.236C115.046 121.817 115.04 122.398 115.027 122.979C115.027 123.104 115.027 123.229 115.027 123.361C115.007 124.655 114.987 125.948 114.974 127.235C114.974 127.367 114.974 127.499 114.974 127.631C114.974 128.001 114.967 128.37 114.961 128.74C114.935 129.195 114.915 129.65 114.895 130.106C114.895 130.231 114.882 130.35 114.882 130.475C114.809 132.079 114.763 133.683 114.698 135.286C114.632 136.837 114.559 138.381 114.441 139.926C114.441 140.018 114.441 140.117 114.441 140.209C114.441 140.335 114.434 140.467 114.428 140.592C114.402 141.443 114.362 142.255 114.303 143.014C114.29 143.153 114.283 143.291 114.27 143.423C114.171 144.578 114.026 145.634 113.836 146.598C113.809 146.743 113.776 146.881 113.75 147.02C113.474 148.3 113.112 149.415 112.664 150.386C106.643 146.756 100.655 143.06 94.7061 139.325C89.8695 141.74 84.3287 142.671 78.959 141.912C73.2011 141.1 67.9104 138.408 63.0145 135.379C60.3889 133.755 57.8357 132.02 55.2364 130.363C52.6437 128.713 49.9851 127.209 47.2345 125.843C45.9316 125.203 44.6286 124.556 43.3783 123.81C42.0754 123.038 40.8646 122.14 39.6669 121.21C38.4759 120.286 37.298 119.336 36.0477 118.498C34.8171 117.679 33.5142 116.986 32.2376 116.247C31.0136 115.541 29.6054 114.795 28.7433 113.641C28.0063 112.657 27.7826 111.212 28.592 110.189C29.0066 109.661 29.5593 109.417 30.1516 109.318C29.737 109.021 29.3158 108.724 28.8947 108.434C27.4536 107.444 25.9466 106.625 24.4134 105.794C23.0775 105.068 21.7417 104.118 21.1758 102.646C20.7151 101.452 20.8073 99.9667 21.6233 98.9438C22.3274 98.0661 23.4263 97.8417 24.5384 97.8417H24.6305C24.1107 97.5183 23.5908 97.195 23.071 96.8716C21.7285 96.0401 20.1887 95.1624 19.5833 93.6115C18.9582 92.0145 19.807 90.3845 21.1758 89.5068C21.9918 88.9854 22.9065 88.8006 23.8343 88.8006C24.6898 88.8006 25.565 88.9524 26.3941 89.1438C26.2625 88.5762 26.2625 87.9559 26.4468 87.296C26.7889 86.0619 27.8089 85.171 28.9737 84.7222C30.4016 84.1745 31.9678 84.3725 33.4286 84.6496C36.528 85.237 39.5353 86.2467 42.5031 87.3026C45.4117 88.3387 48.3071 89.4276 51.2815 90.2525C54.2098 91.0642 57.2171 91.5459 60.2244 91.9683C63.2646 92.3907 66.3311 92.7734 69.3383 93.4004C67.226 89.7971 65.9033 85.7451 65.4953 81.5677C65.2321 78.8752 65.0347 74.5131 68.3776 73.6156C69.7661 73.246 71.2072 73.9059 72.1285 74.9486C73.155 76.1167 73.5104 77.6345 73.8328 79.1194C75.07 84.808 78.6497 89.5859 83.8746 92.1861C86.6713 93.5719 89.6589 94.575 91.8962 96.865C94.0744 99.089 95.43 101.966 96.7395 104.758C98.6412 108.816 100.352 112.961 101.866 117.178C103.333 117.594 104.801 118.022 106.261 118.458C109.21 119.342 112.151 120.273 115.073 121.243L115.06 121.236Z" fill="white"/>
<path d="M106.248 118.451C104.787 118.016 103.32 117.587 101.852 117.171C100.339 112.954 98.628 108.81 96.7263 104.751C95.4168 101.966 94.0612 99.0824 91.8831 96.8585C89.6457 94.5751 86.6581 93.572 83.8614 92.1795C78.63 89.586 75.0568 84.8015 73.8196 79.1128C73.4972 77.628 73.1418 76.1101 72.1153 74.9421C71.194 73.8994 69.7529 73.2328 68.3644 73.609C65.0215 74.5065 65.2189 78.8687 65.4822 81.5612C65.8901 85.7386 67.2128 89.7972 69.3252 93.3938C66.3179 92.7669 63.2514 92.3841 60.2112 91.9618C57.2039 91.5394 54.1966 91.0576 51.2683 90.2459C48.2939 89.421 45.3985 88.3321 42.4899 87.296C39.5221 86.2401 36.5149 85.2304 33.4155 84.6431C31.9546 84.3659 30.3884 84.1679 28.9605 84.7157C27.8023 85.1644 26.7757 86.0553 26.4336 87.2894C26.2493 87.956 26.2493 88.5697 26.3809 89.1372C24.6502 88.7479 22.7288 88.4971 21.1626 89.5002C19.7939 90.3779 18.9516 92.0013 19.5701 93.605C20.1755 95.1558 21.7153 96.0269 23.0578 96.865C23.5776 97.1884 24.0975 97.5118 24.6173 97.8351C23.4789 97.822 22.3339 98.0331 21.6101 98.9372C20.8007 99.9601 20.7085 101.445 21.1626 102.639C21.7285 104.111 23.0709 105.061 24.4002 105.787C25.9334 106.625 27.4404 107.437 28.8815 108.427C29.3027 108.717 29.7238 109.014 30.1384 109.311C29.5395 109.41 28.9934 109.655 28.5788 110.183C27.776 111.205 27.9931 112.651 28.7302 113.634C29.5922 114.789 31.0004 115.535 32.2244 116.241C33.501 116.98 34.8039 117.673 36.0345 118.491C37.2914 119.329 38.4627 120.273 39.6538 121.203C40.8514 122.134 42.0622 123.031 43.3651 123.804C44.6154 124.543 45.9184 125.189 47.2213 125.836C49.972 127.202 52.6305 128.707 55.2232 130.357C57.8291 132.013 60.3823 133.749 63.0013 135.372C67.8906 138.401 73.1879 141.094 78.9458 141.905C84.3155 142.664 89.8563 141.741 94.6929 139.319C100.648 143.06 106.637 146.749 112.651 150.379C112.881 149.891 113.085 149.363 113.263 148.795C108.729 146.056 104.215 143.291 99.7204 140.493C98.6017 139.8 97.4896 139.101 96.3709 138.401C95.8314 138.065 95.2983 137.728 94.7587 137.392C94.1862 137.708 93.6005 137.999 93.0017 138.263C89.3693 139.893 85.375 140.665 81.374 140.467C75.9583 140.203 70.8716 138.018 66.2192 135.352C61.2904 132.528 56.7235 129.109 51.7618 126.324C49.281 124.932 46.6488 123.817 44.1943 122.365C41.8385 120.966 39.7985 119.125 37.5743 117.547C36.2516 116.61 34.8434 115.832 33.4418 115.026C32.7706 114.644 32.0993 114.248 31.4545 113.819C30.9083 113.456 30.2963 113.06 29.9475 112.486C29.7106 112.09 29.5659 111.417 30.0199 111.1C30.4806 110.783 31.2373 110.941 31.744 111.007C32.0335 111.047 32.3297 111.08 32.6258 111.12C32.8758 111.298 33.1259 111.469 33.376 111.648C36.4754 113.779 39.9301 115.211 43.2533 116.94C47.0897 118.94 50.7879 121.197 54.3348 123.678C55.2232 124.298 56.0589 122.84 55.1771 122.233C52.3014 120.22 49.3271 118.359 46.2606 116.663C43.2664 115.007 40.1078 113.667 37.1137 112.017C36.8899 111.892 36.6728 111.766 36.4556 111.641C35.3567 110.994 34.3104 110.281 33.2773 109.542C31.8032 108.493 30.3555 107.398 28.8354 106.408C27.5391 105.563 26.1572 104.903 24.8279 104.124C23.8014 103.524 22.7024 102.719 22.5642 101.438C22.5116 100.937 22.584 100.343 22.9327 99.9601C23.446 99.3992 24.4528 99.5444 25.1372 99.5708C26.1111 99.6104 27.0785 99.7424 28.0326 99.9601C33.2312 103.121 38.5087 106.15 44.0627 108.638C48.0439 110.42 52.2422 111.806 55.9141 114.221C56.8157 114.815 57.658 113.363 56.7564 112.776C53.7623 110.809 50.4063 109.523 47.1226 108.15C43.76 106.744 40.4895 105.141 37.2914 103.398C35.5344 102.441 33.7971 101.452 32.073 100.435L28.7236 98.4225C28.3485 98.1981 27.98 97.9671 27.6115 97.7428C26.098 96.8123 24.5779 95.8884 23.0775 94.9314C22.1168 94.3177 20.544 93.2618 21.1494 91.9023C21.9786 90.0413 24.4989 90.4505 26.0519 90.8069C26.5257 90.9191 26.9995 91.0246 27.4733 91.1368C28.3945 92.1399 29.7106 92.8922 30.8885 93.3872C33.7182 94.5883 36.7057 95.2878 39.6208 96.2381C43.0559 97.36 46.1618 99.1616 49.406 100.712C52.7423 102.303 56.1642 103.715 59.5926 105.101C60.0138 105.273 60.5073 104.916 60.6192 104.514C60.7574 104.039 60.4547 103.649 60.0335 103.484C57.171 102.329 54.3151 101.148 51.5052 99.8545C48.7611 98.5875 46.1224 97.0894 43.352 95.8751C40.6606 94.7005 37.831 93.9745 35.0342 93.1034C34.2841 92.8725 33.5339 92.6283 32.7969 92.3577L28.4011 89.6388C28.3222 89.5134 28.2498 89.3748 28.1905 89.2362C27.7168 88.1341 28.1116 87.0716 29.1381 86.4909C30.3555 85.8046 31.8822 86.0685 33.1786 86.3259C36.0608 86.8935 38.8575 87.8108 41.6213 88.7875C44.3917 89.7708 47.1423 90.8135 49.9654 91.645C52.6963 92.4501 55.4798 92.978 58.2897 93.3938C62.363 93.9943 66.5548 94.4101 70.5754 95.3934C71.4836 95.6178 72.3785 95.8686 73.2669 96.1589C74.3987 96.5285 75.5174 96.964 76.6032 97.4788C77.5705 97.9341 78.4194 96.4889 77.4455 96.0335C75.5569 95.1426 73.609 94.4761 71.6152 93.9613C69.5357 90.8663 68.1012 87.3488 67.4234 83.6532C67.1667 82.2739 67.0351 80.8749 67.0154 79.4758C66.9891 78.1295 67.0154 76.4269 68.2065 75.536C69.2988 74.7309 70.5886 75.569 71.2072 76.5589C71.9771 77.7996 72.0955 79.3438 72.4575 80.7297C73.7999 85.8904 77.3139 90.4769 81.9531 93.0968C84.5063 94.5421 87.4676 95.334 89.7641 97.2148C91.9949 99.0428 93.3768 101.663 94.614 104.223C96.5749 108.275 98.3253 112.42 99.8783 116.643C100.115 117.283 100.346 117.93 100.576 118.577C101.326 120.708 102.017 122.853 102.668 125.011C102.978 126.041 104.59 125.605 104.281 124.562C103.735 122.741 103.155 120.926 102.537 119.131C106.729 120.339 110.894 121.632 115.033 123.012C115.046 122.424 115.053 121.837 115.066 121.256C112.144 120.286 109.203 119.356 106.255 118.471L106.248 118.451Z" fill="#336137"/>
<path d="M73.1813 51.1712C73.1682 51.1316 73.1353 51.092 73.076 51.059C72.8984 50.9534 72.5299 50.8478 71.9903 50.762C71.8784 50.7422 71.7534 50.7224 71.6218 50.7026C71.3256 50.663 70.99 50.6168 70.6281 50.5838C69.4041 50.4584 67.8117 50.3661 66.0086 50.3199C65.3045 50.3001 64.5609 50.2935 63.7976 50.2935H63.3896C62.6262 50.2935 61.8892 50.3067 61.1785 50.3199C59.3689 50.3661 57.7567 50.4584 56.5064 50.5838C56.1774 50.6168 55.8812 50.6498 55.6049 50.6894C55.4732 50.7092 55.3482 50.7224 55.2232 50.7422C54.6046 50.8412 54.1637 50.9468 53.9597 51.059C53.8939 51.0986 53.8479 51.1382 53.8281 51.1712C53.8281 51.1844 53.8216 51.191 53.8216 51.2042C53.8216 51.2174 53.8216 51.2306 53.8216 51.2372C53.6899 52.6758 53.5715 54.1145 53.4728 55.5531V55.5993C53.3938 56.7014 53.328 57.8101 53.2754 58.9122C53.2754 58.9848 53.2688 59.0574 53.2622 59.13C53.2688 59.4995 53.407 59.8229 53.6307 60.0671C53.6636 60.1001 53.6965 60.1331 53.7294 60.1595C53.9137 60.3376 54.0979 60.5092 54.2888 60.6874C54.7494 61.1164 55.21 61.5321 55.6772 61.9479C56.151 62.3636 56.6248 62.7662 57.1118 63.1688C57.2368 63.2743 57.3684 63.3799 57.4935 63.4789C57.5066 63.4921 57.5198 63.4987 57.5329 63.5119C57.8159 63.7495 57.9936 64.1059 58.0067 64.515C58.0067 64.5216 58.0067 64.5282 58.0067 64.5348C58.0067 64.581 58.1713 67.4979 58.1647 67.8609C58.1647 67.9137 58.1647 67.9665 58.1647 68.0127C58.1713 68.303 58.2634 68.567 58.4147 68.7848C58.4608 68.8376 58.5069 68.8904 58.5463 68.9498C58.6187 69.0356 58.6911 69.1214 58.7569 69.2071C59.0794 69.5965 59.4084 69.9925 59.7308 70.3818C59.7506 70.4016 59.7637 70.4214 59.7835 70.4478C59.7835 70.461 59.7901 70.4676 59.8098 70.4742C59.8493 70.5006 59.9217 70.5204 60.0335 70.5402C60.0533 70.5402 60.073 70.5402 60.0928 70.5468C60.0993 70.5468 60.1059 70.5468 60.1125 70.5468C60.1257 70.5468 60.1388 70.5468 60.152 70.5468C60.1586 70.5468 60.1717 70.5468 60.1783 70.5468C60.1915 70.5468 60.2046 70.5468 60.2178 70.5468C60.2309 70.5468 60.2375 70.5468 60.2507 70.5468C60.2638 70.5468 60.277 70.5468 60.2902 70.5468C60.3033 70.5468 60.3165 70.5468 60.3296 70.5468C60.3428 70.5468 60.356 70.5468 60.3691 70.5468C60.3823 70.5468 60.3954 70.5468 60.4086 70.5468C60.4218 70.5468 60.4349 70.5468 60.4481 70.5468C60.4612 70.5468 60.481 70.5468 60.4942 70.5468C60.5073 70.5468 60.5205 70.5468 60.5271 70.5468C60.5468 70.5468 60.56 70.5468 60.5797 70.5468C60.6587 70.5468 60.7376 70.56 60.8298 70.56H60.8495C60.8495 70.56 60.9021 70.56 60.9219 70.56C60.9285 70.56 60.9416 70.56 60.9482 70.56C60.9745 70.56 61.0008 70.56 61.0272 70.56C61.0338 70.56 61.0469 70.56 61.0535 70.56C61.0798 70.56 61.1061 70.56 61.1325 70.56C61.139 70.56 61.1456 70.56 61.1588 70.56C61.1851 70.56 61.218 70.56 61.2443 70.56C61.2443 70.56 61.2575 70.56 61.2641 70.56C61.297 70.56 61.3233 70.56 61.3562 70.56C61.3957 70.56 61.4286 70.56 61.4681 70.56C61.4878 70.56 61.5076 70.56 61.5273 70.56H61.5734C61.5734 70.56 61.6128 70.56 61.6326 70.56C61.6721 70.56 61.705 70.56 61.7444 70.56C61.7444 70.56 61.8103 70.56 61.8366 70.56C61.8366 70.56 61.8497 70.56 61.8563 70.56C61.8826 70.56 61.9155 70.56 61.9419 70.56C61.9484 70.56 61.955 70.56 61.9682 70.56C61.9945 70.56 62.0208 70.56 62.0472 70.56C62.0537 70.56 62.0669 70.56 62.0735 70.56C62.0998 70.56 62.1261 70.56 62.1524 70.56C62.159 70.56 62.1722 70.56 62.1788 70.56C62.2051 70.56 62.2314 70.56 62.2512 70.56C62.2577 70.56 62.2643 70.56 62.2709 70.56C62.3564 70.56 62.442 70.5534 62.521 70.5468C62.521 70.5468 62.5604 70.5468 62.5736 70.5468C62.5868 70.5468 62.5999 70.5468 62.6065 70.5468C62.6197 70.5468 62.6394 70.5468 62.6526 70.5468C62.6657 70.5468 62.6789 70.5468 62.692 70.5468C62.7052 70.5468 62.7184 70.5468 62.7315 70.5468C62.7447 70.5468 62.7579 70.5468 62.771 70.5468C62.7842 70.5468 62.7973 70.5468 62.8105 70.5468C62.8237 70.5468 62.8368 70.5468 62.85 70.5468C62.8631 70.5468 62.8697 70.5468 62.8829 70.5468C62.896 70.5468 62.9092 70.5468 62.9224 70.5468C62.9289 70.5468 62.9421 70.5468 62.9487 70.5468C62.9618 70.5468 62.975 70.5468 62.9947 70.5468C63.0013 70.5468 63.0079 70.5468 63.0145 70.5468C63.0342 70.5468 63.054 70.5468 63.0737 70.5402C63.1856 70.5204 63.2645 70.5006 63.3106 70.4742C63.3106 70.4742 63.3369 70.4544 63.3435 70.4478L63.4093 70.3818C63.8107 69.9925 64.2187 69.6031 64.6201 69.2071C64.7057 69.1214 64.7978 69.0356 64.8833 68.9498C64.9426 68.897 64.9952 68.8442 65.0544 68.7848C65.2518 68.567 65.3966 68.303 65.4624 68.0127C65.469 67.9599 65.4822 67.9071 65.4887 67.8609C65.5545 67.4913 66.2521 64.581 66.2587 64.5348C66.2587 64.5282 66.2587 64.5216 66.2587 64.515C66.3574 64.1059 66.6074 63.7495 66.9365 63.5119C66.9496 63.4987 66.9628 63.4921 66.9825 63.4789C66.9825 63.4789 66.9825 63.4789 66.9891 63.4789C67.1404 63.3733 67.2852 63.2677 67.43 63.1688C67.9959 62.7662 68.5552 62.3636 69.108 61.9479C69.6608 61.5321 70.2069 61.1164 70.7531 60.6874C70.9769 60.5158 71.2006 60.3376 71.4178 60.1595C71.4572 60.1265 71.4967 60.1001 71.5362 60.0671C71.8126 59.8295 72.0166 59.4995 72.0956 59.13C72.1087 59.0574 72.1153 58.9848 72.1284 58.9122C72.2995 57.8101 72.4575 56.7014 72.6088 55.5993C72.8062 54.1475 72.9839 52.6956 73.1418 51.2372C73.1418 51.224 73.1484 51.2108 73.155 51.2042C73.155 51.191 73.155 51.1844 73.155 51.1712H73.1813Z" fill="#0B0016"/>
<path d="M83.4074 34.1846C82.3216 38.8173 79.7487 43.3907 76.1163 46.5715C75.1094 47.4691 73.8328 47.7726 72.7602 48.5249C72.0956 49.0859 72.1021 49.9834 71.9903 50.7621C71.8718 50.7423 71.7468 50.7225 71.6218 50.7093C69.2594 50.3794 66.489 50.3134 63.7976 50.2936H63.3896C60.5863 50.3134 57.6777 50.386 55.2166 50.7423C55.3088 49.825 55.3417 49.1915 55.0258 48.7031C54.8284 48.3996 54.4928 48.1488 53.9532 47.9244C52.4133 47.2381 51.2289 46.0106 50.3405 44.5785C43.9903 35.4781 47.4187 21.0519 58.3753 16.1882C60.8824 14.9409 63.5015 14.2744 66.0613 14.1358C75.0173 13.6343 83.2956 19.4879 83.901 28.7533C84.0128 30.456 83.868 32.2708 83.4206 34.1846H83.4074Z" fill="#8AB946"/>
<path d="M66.9496 37.6229C66.8378 40.2825 66.4232 42.909 65.798 45.4827C65.5348 46.5584 65.2321 47.6209 64.8965 48.6768C64.5609 48.3798 64.2253 48.0697 63.9029 47.7595C61.751 45.7071 59.8427 43.4039 58.2371 40.8962C56.2498 37.7879 54.2888 33.9603 54.3875 30.1525C54.4072 29.4991 54.4862 28.8392 54.6375 28.1859C54.6836 27.9747 54.7428 27.7701 54.8021 27.5655C55.3417 25.8035 56.3879 24.1801 57.9607 23.2166C58.1384 23.1044 58.3292 23.0054 58.5266 22.913C58.8425 22.7612 59.1781 22.6292 59.5268 22.5302C60.3033 22.3059 61.1325 22.2399 61.9024 22.4445C62.7645 22.6754 63.4554 23.2562 64.0016 23.9425C65.3506 25.6385 65.9297 27.9351 66.3574 30.0205C66.8707 32.5216 67.0484 35.0756 66.9431 37.6229H66.9496Z" fill="#336137"/>
<path d="M75.2016 31.8285C74.5106 33.3596 73.6091 34.8114 72.6418 36.1841C71.7073 37.5105 70.6874 38.771 69.6082 39.9853C69.3186 40.3218 69.0159 40.6518 68.7198 40.9752C68.5619 40.1437 68.4171 39.3122 68.2986 38.474C68.121 37.1938 67.9959 35.9069 67.9433 34.62C67.8183 31.6305 68.1473 28.3969 69.9964 25.9287C70.7729 24.886 71.9903 23.8631 73.3722 24.2063H73.3853C73.9315 24.3449 74.4185 24.6418 74.8199 25.0312C75.3529 25.5459 75.7478 26.2191 75.932 26.912C76.3795 28.542 75.8662 30.3239 75.195 31.8153L75.2016 31.8285Z" fill="#336137"/>
<path d="M74.8264 25.0444C73.9578 26.2719 73.2274 27.6049 72.6878 29.004C71.9376 30.9376 71.5033 32.9768 71.0163 34.983C70.6084 36.6658 70.1411 38.3354 69.6147 39.9853C69.5226 40.2822 69.4239 40.5858 69.3186 40.8828C68.3183 43.8657 67.1141 46.7826 65.7256 49.6005C65.7388 49.8381 65.7585 50.0756 65.7651 50.3132C65.2255 50.3 64.6728 50.2934 64.1068 50.2934C64.0937 49.9437 64.0674 49.5939 64.041 49.2507C64.0279 49.033 64.0081 48.8152 63.9884 48.5974C63.9621 48.3136 63.9292 48.0365 63.8963 47.7527C63.3632 43.2321 62.0142 38.8502 60.7376 34.5012C60.7047 34.3956 60.6784 34.2966 60.6455 34.1911C58.4345 33.056 56.3353 31.6965 54.3875 30.1457C54.4072 29.4857 54.4862 28.8324 54.6375 28.1791C56.309 29.5979 58.1054 30.8584 60.0006 31.9407C59.5795 30.4558 59.1846 28.971 58.8425 27.4663C58.5266 26.0541 58.2634 24.6286 57.9606 23.2098C58.1383 23.0976 58.3292 22.9986 58.5266 22.9062C58.8424 22.7544 59.1846 22.6224 59.5334 22.5234C59.9348 24.3976 60.2704 26.2851 60.7245 28.1527C61.1193 29.7761 61.5733 31.3995 62.0406 33.0296C62.2446 33.7357 62.4485 34.4418 62.6591 35.148C63.7449 38.8766 64.8109 42.625 65.3834 46.4196C65.5216 46.1028 65.6598 45.7927 65.798 45.4759C65.8901 45.2647 65.9757 45.0536 66.0612 44.8424C66.9233 42.7504 67.6603 40.6254 68.3052 38.474C68.8448 36.6724 69.3251 34.851 69.766 33.0164C70.2464 30.997 70.7992 29.004 71.681 27.1166C72.1613 26.1003 72.7273 25.1236 73.3722 24.2063H73.3853C73.9315 24.3449 74.4184 24.6418 74.8264 25.0312V25.0444Z" fill="#0B0016"/>
<path d="M69.4107 53.3952C64.9952 53.0454 60.5534 53.0718 56.1379 53.4612C55.0718 53.5535 55.0653 55.2364 56.1379 55.1374C60.5534 54.748 64.9886 54.7216 69.4107 55.0714C70.4833 55.1572 70.4768 53.481 69.4107 53.3952Z" fill="#8AB946"/>
<path d="M66.976 58.292C63.9555 58.2392 60.9285 58.259 57.9081 58.3514C56.8355 58.3844 56.8289 60.0606 57.9081 60.0276C60.9285 59.9352 63.9555 59.9154 66.976 59.9682C68.0552 59.988 68.0552 58.3118 66.976 58.292Z" fill="#8AB946"/>
<path d="M67.2392 0.745758L66.489 10.559C66.4035 11.6347 68.0749 11.7666 68.1539 10.6844L68.904 0.871145C68.9896 -0.204546 67.3181 -0.336533 67.2392 0.745758Z" fill="#336137"/>
<path d="M79.5052 6.11111C78.2155 8.1899 77.0178 10.3215 75.9189 12.5059C75.4319 13.4694 76.8796 14.3141 77.36 13.3506C78.4589 11.1662 79.6566 9.03461 80.9464 6.95582C81.5189 6.03852 80.0712 5.1938 79.5052 6.11111Z" fill="#336137"/>
<path d="M87.1978 14.9672C85.8554 16.1221 84.513 17.277 83.1705 18.4319C82.3546 19.138 83.539 20.3193 84.355 19.6197C85.6974 18.4649 87.0399 17.31 88.3823 16.1551C89.1983 15.449 88.0138 14.2677 87.1978 14.9672Z" fill="#336137"/>
<path d="M54.6967 4.77786C55.9865 6.85665 57.1842 8.98823 58.2831 11.1726C58.7701 12.1361 57.3224 12.9808 56.842 12.0173C55.7431 9.83295 54.5454 7.70136 53.2556 5.62257C52.6831 4.70527 54.1308 3.86055 54.6967 4.77786Z" fill="#336137"/>
<path d="M46.9976 13.6276C48.34 14.7825 49.6825 15.9374 51.0249 17.0923C51.8408 17.7984 50.6563 18.9797 49.8404 18.2801C48.498 17.1253 47.1555 15.9704 45.8131 14.8155C44.9971 14.1094 46.1816 12.9281 46.9976 13.6276Z" fill="#336137"/>
<path d="M46.4843 136.184C46.0698 138.164 44.9379 139.959 43.5231 141.378C40.3447 144.565 35.7845 145.68 31.5598 146.716C26.6771 147.911 21.7614 148.967 16.8195 149.871C12.2921 150.696 7.7516 151.402 3.19132 151.983C2.90836 151.646 2.64514 151.29 2.40824 150.92C2.06606 150.379 1.77652 149.812 1.52646 149.204C1.37511 148.828 1.23692 148.439 1.11189 148.043C1.01976 147.739 0.93421 147.429 0.861825 147.112C0.815761 146.928 0.776277 146.736 0.736794 146.545C0.703891 146.4 0.677576 146.254 0.651254 146.109C0.230103 143.74 0.203773 141.015 0.355124 137.953C0.355124 137.821 0.368295 137.682 0.374875 137.55C0.473582 135.795 0.618346 133.927 0.789439 131.96C0.815761 131.657 0.842083 131.353 0.861825 131.05C1.76993 130.284 2.77675 129.637 3.87569 129.149C6.22492 128.106 8.96898 127.757 11.3906 128.766C13.832 129.789 15.6284 132.277 15.9575 134.871C18.0171 132.125 20.6296 129.802 23.5908 128.08C27.1311 126.021 31.2966 124.688 35.416 124.807C39.5288 124.919 43.6876 126.773 45.6618 130.561C46.5699 132.303 46.8726 134.263 46.4646 136.191L46.4843 136.184Z" fill="white"/>
<path d="M117.238 52.7551C117.238 54.3654 117.225 55.9822 117.205 57.5924C117.205 57.7244 117.205 57.8498 117.205 57.9818C117.146 62.9643 117.014 67.9468 116.849 72.9293C115.849 73.1207 114.849 73.312 113.849 73.4968C108.519 74.4735 103.162 75.2852 97.7858 75.9452C95.1141 76.2751 92.4359 76.5589 89.7576 76.8097C87.586 77.0077 85.3355 77.1924 83.2034 76.6315C81.249 76.1168 79.5381 74.8827 78.7616 72.9689C78.6958 72.8039 78.6366 72.6389 78.5905 72.4739C78.2352 71.7612 78.0114 70.9825 77.9522 70.184C77.7877 67.96 79.1762 66 80.999 64.8715C83.5588 63.3009 86.9477 63.413 89.5141 64.9045C90.5867 62.0866 91.7449 59.2687 93.4493 56.7741C95.0878 54.372 97.233 52.3196 99.9113 51.1317C102.445 50.0098 105.406 49.627 108.018 50.7225C110.651 51.8246 112.592 54.5105 112.941 57.3021C114.198 55.6258 115.652 54.0948 117.251 52.7419L117.238 52.7551Z" fill="white"/>
</svg>
