<svg width="119" height="135" viewBox="0 0 119 135" fill="none" xmlns="http://www.w3.org/2000/svg">
<path d="M117.844 92.7589C117.245 91.4391 116.277 90.3634 115.369 89.2547C115.257 89.1161 115.152 88.9841 115.04 88.8455C115.086 87.3607 115.139 85.8758 115.192 84.3844C115.192 84.2524 115.198 84.127 115.205 83.995C115.271 82.2 115.343 80.3984 115.415 78.6034C115.415 78.4714 115.429 78.346 115.429 78.214C115.521 75.9636 115.613 73.7067 115.712 71.4563C115.784 69.7867 115.856 68.1104 115.922 66.4408C115.922 66.289 115.935 66.1372 115.942 65.9854C115.942 65.8534 115.955 65.7215 115.962 65.5961C116.001 64.6194 116.047 63.6361 116.087 62.6594C116.238 59.0627 116.376 55.4661 116.508 51.8761C116.528 51.3547 116.541 50.84 116.56 50.3252C116.56 50.1932 116.567 50.0612 116.574 49.9359C116.738 45.0128 116.863 40.0963 116.929 35.1732C116.929 35.0808 116.929 34.9818 116.929 34.8894C116.929 34.7574 116.929 34.6254 116.929 34.5C116.975 30.745 116.975 26.9966 116.929 23.2416C116.929 23.0172 116.929 22.7862 116.922 22.5552C116.909 22.3177 116.903 22.0735 116.889 21.8359C116.857 21.0968 116.824 20.351 116.804 19.6053C116.804 19.4733 116.804 19.348 116.797 19.216C116.771 18.0611 116.784 16.9062 116.889 15.7513C117.1 12.5902 115.725 10.2607 113.586 8.60424C113.461 8.51185 113.336 8.41946 113.211 8.32707C110.052 6.0767 105.453 5.18579 101.827 5.21218C101.149 5.19898 100.484 5.17919 99.8197 5.16599C99.6881 5.16599 99.563 5.16599 99.4314 5.15939C95.641 5.0736 92.0086 4.98121 88.5144 4.88222C88.3433 4.88222 88.1722 4.87562 88.0077 4.86902C87.2773 4.84922 86.56 4.82942 85.8493 4.80962C85.7177 4.80962 85.5927 4.80302 85.461 4.79642C80.9929 4.66444 76.7748 4.53245 72.787 4.40046C72.6554 4.40046 72.5304 4.39387 72.3988 4.38727C67.7069 4.23548 63.3375 4.0969 59.2707 3.97811C59.1391 3.97811 59.0075 3.97151 58.8825 3.96491C57.4084 3.92531 55.9805 3.88572 54.5854 3.85272C54.4143 3.85272 54.2432 3.84612 54.0721 3.83952C51.0188 3.76693 48.1497 3.72073 45.4583 3.70093C45.3267 3.70093 45.1951 3.70093 45.07 3.70093C43.1354 3.68774 41.2994 3.69434 39.549 3.72073C38.4567 3.73393 37.4038 3.76033 36.3772 3.78673C35.6731 3.80652 34.9822 3.83292 34.3044 3.85932C33.7055 3.88572 33.1199 3.91212 32.5474 3.94511C32.4158 3.95171 32.2842 3.95831 32.1526 3.97151C29.7507 4.11669 27.5528 4.32127 25.5457 4.60505C25.4141 4.62484 25.2825 4.64464 25.1509 4.66444C5.32391 7.58794 4.13285 18.1733 3.29713 49.7973C3.24448 51.9091 3.18525 54.1198 3.12603 56.423C3.12603 56.4428 3.12603 56.4626 3.12603 56.4824C3.07996 58.2906 3.0339 60.1648 2.98126 62.0984C2.92861 64.0518 2.8694 66.0646 2.80359 68.1434C2.69172 71.6675 2.55352 75.3697 2.38243 79.2765C2.38243 79.4085 2.36927 79.5339 2.36269 79.6659C2.32321 80.5238 2.28373 81.4015 2.24425 82.2792C2.23109 82.53 2.21793 82.7873 2.21135 83.0381C2.19161 83.4473 2.17185 83.8564 2.15211 84.2656C2.15211 84.3976 2.13895 84.5296 2.13237 84.6615C1.92837 88.7663 1.67832 93.0691 1.37562 97.5896C1.36904 97.7216 1.35587 97.847 1.34929 97.979C1.14529 100.988 0.914986 104.09 0.658347 107.284C0.651766 107.416 0.638613 107.548 0.625452 107.687C0.59255 108.076 0.559632 108.465 0.526729 108.861C0.355636 110.828 0.210883 112.696 0.112175 114.451C0.105595 114.583 0.0990153 114.722 0.0924348 114.853C-0.0589164 117.916 -0.0326065 120.648 0.388545 123.01C0.414866 123.155 0.441192 123.301 0.474094 123.446C0.664928 124.396 0.921575 125.28 1.26376 126.105C1.51382 126.712 1.80336 127.287 2.14554 127.821C2.82991 128.903 3.7117 129.841 4.83696 130.639C5.3634 131.009 5.94248 131.352 6.58078 131.662C7.70605 132.21 9.01556 132.658 10.5291 133.002C10.687 133.035 10.8449 133.074 11.0095 133.107C13.0494 133.53 15.4578 133.774 18.2743 133.827C18.3862 133.827 18.4915 133.827 18.6033 133.827C19.1166 133.827 19.6299 133.827 20.1432 133.833C22.9794 133.846 25.8155 133.86 28.6451 133.879C29.0202 133.879 29.3953 133.879 29.777 133.886C30.1455 133.886 30.5074 133.886 30.8694 133.893C34.4755 133.912 38.0816 133.945 41.6877 133.965C42.6155 133.972 43.5499 133.978 44.4778 133.985C44.6489 133.985 44.82 133.985 44.9911 133.985C45.6162 133.985 46.2414 133.992 46.8665 133.998C47.0771 133.998 47.2877 133.998 47.4982 133.998C47.9128 133.998 48.334 133.998 48.7485 134.005C49.2487 134.005 49.7488 134.005 50.2555 134.011C50.3739 134.011 50.4924 134.011 50.6108 134.011C50.7293 134.011 50.8477 134.011 50.9662 134.011C51.3018 134.011 51.6374 134.011 51.9664 134.011C53.3088 134.018 54.6512 134.025 55.9937 134.031C57.7507 134.038 59.5076 134.044 61.2646 134.051C65.1668 134.064 69.0756 134.064 72.991 134.058C73.3858 134.058 73.7741 134.058 74.169 134.058C75.1955 134.058 76.2155 134.058 77.242 134.044C77.854 134.044 78.466 134.038 79.078 134.031C79.1175 134.031 79.1635 134.031 79.203 134.031C79.3346 134.031 79.4662 134.031 79.5979 134.031C84.7241 133.998 89.8568 133.945 95.0159 133.853C96.5294 133.807 97.9377 133.747 99.2472 133.662C99.4709 133.648 99.6947 133.629 99.9184 133.609C101.491 133.483 102.913 133.305 104.196 133.048C107.242 132.434 109.493 131.352 111.085 129.405C112.198 128.046 112.987 126.257 113.494 123.908C113.52 123.769 113.553 123.631 113.579 123.485C113.764 122.522 113.908 121.466 114.014 120.311C114.027 120.173 114.034 120.041 114.047 119.902C114.06 119.724 114.073 119.546 114.086 119.361C114.126 118.76 114.159 118.133 114.172 117.473C114.172 117.348 114.178 117.223 114.185 117.091C114.185 116.998 114.185 116.906 114.185 116.813C114.303 115.269 114.376 113.725 114.441 112.174C114.455 111.791 114.474 111.415 114.488 111.032C114.534 109.805 114.58 108.584 114.632 107.363C114.632 107.238 114.639 107.119 114.646 106.994C114.665 106.538 114.685 106.083 114.711 105.628C114.711 105.476 114.711 105.324 114.711 105.172C114.711 104.954 114.711 104.737 114.718 104.519C114.718 104.387 114.718 104.255 114.718 104.123C114.731 102.83 114.751 101.536 114.771 100.243C114.771 100.19 114.771 100.144 114.771 100.091C114.81 100.058 114.85 100.025 114.889 99.9918C115.475 99.4836 116.047 98.9623 116.587 98.408C117.113 97.8668 117.653 97.3125 117.982 96.6261C118.594 95.3591 118.429 93.9864 117.857 92.7391L117.844 92.7589Z" fill="#8AB946"/>
<path d="M106.4 64.1375C106.301 64.9954 105.874 65.7609 105.439 66.4934C104.985 67.2457 104.492 67.9783 103.985 68.691C103.854 68.8758 103.722 69.054 103.59 69.2321C103.531 69.1463 103.465 69.0606 103.406 68.9748C101.577 66.5264 98.7273 65.2527 96.0951 63.8669C94.937 63.2531 93.7854 62.5998 92.6733 61.8937C92.897 61.2733 93.1273 60.653 93.3642 60.0327C93.6932 59.1814 94.0288 58.33 94.371 57.4853C94.7066 56.6538 95.0291 55.8223 95.391 54.9974C95.5621 54.6014 95.7464 54.2187 95.9569 53.8425C96.1543 53.4927 96.3649 53.1232 96.6479 52.8328C96.9111 52.5688 97.273 52.3774 97.6547 52.4104C98.0693 52.4434 98.3983 52.714 98.5102 53.1166C98.6089 53.4861 98.5299 53.8821 98.4838 54.2583C98.4246 54.7268 98.3588 55.202 98.2996 55.6705C98.2535 56.0533 98.2009 56.436 98.1482 56.8188C98.6878 56.3172 99.5565 56.1919 100.07 56.8254C100.557 57.4193 100.491 58.1387 100.28 58.8118C100.701 58.8118 101.129 59.0032 101.399 59.3199C101.675 59.6433 101.794 60.0459 101.8 60.455C102.143 60.3296 102.537 60.3296 102.873 60.4682C103.452 60.7124 103.748 61.2931 103.84 61.8937C103.873 61.8739 103.906 61.8607 103.939 61.8475C104.551 61.5769 105.268 61.6957 105.755 62.1577C106.275 62.646 106.473 63.4247 106.4 64.1243V64.1375Z" fill="white"/>
<path d="M105.762 62.1708C105.275 61.7089 104.551 61.5901 103.946 61.8607C103.913 61.8739 103.88 61.8937 103.847 61.9069C103.755 61.3063 103.452 60.7256 102.88 60.4814C102.544 60.3428 102.149 60.3362 101.807 60.4682C101.8 60.0591 101.675 59.6565 101.406 59.3331C101.136 59.0098 100.708 58.8184 100.287 58.825C100.497 58.1452 100.563 57.4325 100.076 56.8386C99.5565 56.205 98.6944 56.3238 98.1548 56.832C98.2009 56.4492 98.2535 56.0665 98.3062 55.6837C98.3654 55.2151 98.4312 54.74 98.4904 54.2714C98.5365 53.8953 98.6155 53.5059 98.5168 53.1298C98.4115 52.7272 98.0824 52.45 97.6613 52.4236C97.2796 52.3906 96.9177 52.582 96.6545 52.846C96.3715 53.1364 96.1609 53.4993 95.9635 53.8557C95.753 54.2318 95.5687 54.6212 95.3976 55.0106C95.0357 55.8289 94.7132 56.667 94.3776 57.4985C94.0354 58.3432 93.6998 59.1945 93.3708 60.0458C93.1339 60.6596 92.9036 61.2799 92.6799 61.9069C92.851 62.0191 93.022 62.1246 93.1931 62.2302C93.2853 61.9729 93.3774 61.7155 93.4695 61.4581C94.0486 59.8743 94.6803 58.3036 95.3186 56.7396C95.6213 55.9939 95.9174 55.2415 96.2794 54.5222C96.457 54.1724 96.6479 53.8293 96.8716 53.5059C97.0296 53.2815 97.2533 53.0374 97.5428 53.0176C97.8258 52.9978 97.9442 53.2089 97.9508 53.4663C97.964 53.8491 97.8784 54.245 97.8324 54.6212C97.7205 55.4857 97.6086 56.3502 97.4967 57.2147L97.3388 58.4554C97.3257 58.5346 97.3651 58.6072 97.4178 58.66C97.5362 58.8646 97.8982 58.8976 97.9706 58.6072C98.0693 58.1848 98.168 57.7295 98.4509 57.3863C98.6615 57.1289 99.0432 56.898 99.3854 57.0498C99.6749 57.1751 99.8328 57.5183 99.8592 57.8219C99.8986 58.297 99.7012 58.7656 99.5301 59.2011C99.4314 59.4453 99.7604 59.6697 99.971 59.5377C100.3 59.3265 100.754 59.4717 100.991 59.7753C101.294 60.158 101.254 60.7058 101.123 61.1479C101.109 61.1875 101.096 61.2205 101.083 61.2601C100.991 61.6363 101.531 61.7815 101.662 61.4185C101.715 61.2139 101.86 61.0885 102.064 61.0226C102.274 60.9566 102.518 60.9632 102.702 61.0621C103.242 61.3591 103.34 62.0653 103.268 62.6196C103.228 62.9166 103.696 63.0222 103.827 62.7714C104.044 62.3424 104.584 62.2302 105.025 62.3952C105.538 62.5866 105.801 63.2069 105.828 63.7349C105.867 64.4674 105.538 65.1537 105.189 65.7741C104.781 66.4934 104.327 67.1863 103.854 67.8727C103.65 68.1696 103.439 68.46 103.228 68.7504C103.294 68.8296 103.353 68.9088 103.419 68.9945C103.485 69.0803 103.544 69.1661 103.603 69.2519C103.735 69.0737 103.867 68.889 103.998 68.7108C104.512 67.9914 105.005 67.2655 105.453 66.5132C105.893 65.7807 106.321 65.0218 106.413 64.1572C106.492 63.4643 106.288 62.6856 105.768 62.1906L105.762 62.1708Z" fill="#0B0016"/>
<path d="M70.7932 43.9238C69.8653 45.567 68.3058 46.7945 66.6014 47.5402C62.6005 49.2824 58.2442 48.2727 54.2761 46.9001C54.0853 47.1244 53.8813 47.329 53.6444 47.5072C52.1506 48.6687 50.1041 48.7677 48.3077 48.4641C46.0571 48.0813 44.0303 46.9199 41.8259 46.3721C40.6809 46.0883 39.5293 46.0289 38.358 46.2071C37.3511 46.3655 36.3707 46.6427 35.377 46.8473C35.2454 46.8737 35.1138 46.9001 34.9756 46.9265C34.8177 46.9595 34.6597 46.9859 34.4952 47.0122C33.8569 47.1112 33.1989 47.164 32.554 47.1112C32.3039 47.0914 32.0539 47.0518 31.8038 46.9925C31.7512 46.9793 31.6985 46.9661 31.6524 46.9529C30.6917 46.6955 29.8362 46.1345 29.2242 45.3558C28.5859 44.5441 28.1977 43.6004 28.0332 42.6105C27.8687 41.6206 27.9213 40.5911 28.1714 39.6078C28.3096 38.4727 28.9084 37.3904 29.5072 36.3147C31.2774 33.543 33.9688 31.2794 34.5479 28.2965C34.5939 28.059 34.6268 27.8148 34.6466 27.564C34.6663 27.3 34.515 27.3264 34.2781 27.5442C33.5674 28.1844 32.0144 30.4479 31.3366 31.4246C29.7638 33.6882 26.5197 34.9157 23.644 35.1994C24.4666 35.47 25.1114 36.1168 25.4339 36.9351C25.7892 37.8326 25.7234 38.8753 25.276 39.7266C24.4534 41.2906 22.5187 42.1221 20.8144 41.7724C18.9719 41.3896 17.5439 39.786 17.0504 38.0108C16.4713 35.9122 17.1359 33.6288 18.3533 31.8932C19.6233 30.0916 21.4329 28.7783 23.315 27.6894C25.3154 26.5279 27.4212 25.5578 29.3493 24.271C31.0536 23.1359 32.6461 21.7962 33.9622 20.219C34.6137 19.4336 35.1927 18.5823 35.6731 17.6848C35.989 17.0909 36.2654 16.4705 36.5088 15.8436C36.8379 14.7217 37.213 13.6196 37.6538 12.5439C38.1408 11.1053 38.6804 9.68643 39.4964 8.39956C39.9636 7.66703 40.5164 6.9741 41.1547 6.38676C41.3323 6.15578 41.51 5.93141 41.6943 5.70703C43.3197 3.84602 45.2609 2.36117 47.518 1.42406C49.7751 0.486957 52.3546 0.104198 55.2632 0.453962C56.2898 0.592548 57.2966 0.935714 58.1915 1.45706C58.9878 1.92561 59.6853 2.53935 60.2183 3.28508C60.2841 3.37747 60.3499 3.46986 60.4092 3.56885C60.4881 3.54245 60.5671 3.51605 60.6526 3.49625C60.6987 3.48306 60.7448 3.46986 60.7908 3.46326C62.6136 3.0145 64.5878 3.44346 66.1803 4.40036C67.9504 5.46286 69.1744 7.21168 69.8917 9.11888C71.6421 13.7318 70.372 18.6879 69.6679 23.3668C69.2862 25.8746 69.0559 28.4681 69.5429 30.9759C69.9838 33.2658 70.9248 35.4172 71.4249 37.6874C71.8855 39.786 71.8855 41.9968 70.7998 43.9106L70.7932 43.9238Z" fill="#F49B62"/>
<path d="M67.7661 21.143C67.7464 22.8522 67.6016 24.5614 67.4503 26.2508C67.141 29.6759 66.6474 33.1405 65.3642 36.3478C64.2192 39.2053 62.3372 41.9111 59.376 43.0593C58.5271 43.3893 57.6387 43.5411 56.7438 43.5345C56.7767 44.5046 56.8096 45.4681 56.8425 46.4382L56.9675 50.0612C57.0004 51.0049 57.0005 52.041 57.5071 52.8792C58.0007 53.7041 58.9417 54.1066 59.784 54.4762C60.8434 54.9381 61.9095 55.3935 62.9821 55.8357C63.9692 56.2448 64.9563 56.6408 65.9499 57.0235C66.1408 57.0961 66.3316 57.1753 66.529 57.2479C66.4039 57.4129 66.2789 57.5779 66.1473 57.7363C65.463 58.5876 64.6996 59.3861 63.8771 60.1054C62.7649 61.0821 61.5344 61.9202 60.2249 62.6C59.9156 62.0984 59.6392 61.5705 59.4089 61.0227C59.0141 60.079 58.7179 59.1023 58.4416 58.119C58.3889 57.9276 58.3297 57.7363 58.2771 57.5449C58.2507 57.4459 58.2178 57.3469 58.1915 57.2479C58.1323 57.0499 58.0796 56.8519 58.0138 56.654C57.8361 56.7662 57.6651 56.8717 57.4808 56.9707C56.5595 57.4921 55.5725 57.9012 54.5788 58.2576C53.0851 58.7987 51.5584 59.2277 50.0251 59.6435C47.518 60.3298 44.9121 60.9897 42.5892 62.204C41.1217 61.3527 39.7727 60.2968 38.5817 59.0759C37.9105 58.3896 37.2919 57.6439 36.726 56.8585C36.6075 56.6936 36.4957 56.5286 36.3838 56.3636C36.5615 56.2712 36.7391 56.1788 36.9168 56.0864C37.5288 55.7697 38.1408 55.4529 38.7528 55.1295C39.7859 54.5884 40.8322 54.067 41.8522 53.5127C42.6747 53.0639 43.5236 52.5426 44.0895 51.7705C44.6884 50.9521 44.9121 49.9424 45.0305 48.9525C45.1753 47.7779 45.2674 46.6032 45.3661 45.4285C45.4649 44.2208 45.557 43.0131 45.6359 41.8055C45.7347 40.248 45.8136 38.6906 45.8794 37.1331C45.1687 36.0773 44.5436 34.9686 44.0172 33.8137C43.4118 32.4806 42.9314 31.0948 42.5826 29.6693C42.0891 29.5703 41.6087 29.4119 41.1546 29.1875C40.0623 28.653 39.1476 27.7489 38.5817 26.6732C38.0157 25.6107 37.6538 24.2182 38.1737 23.07C38.5817 22.1725 39.4964 21.7567 40.4308 21.7435C40.2992 20.7272 40.2268 19.6977 40.2334 18.6682C40.2334 18.5494 40.2334 18.4306 40.2399 18.3118C40.2531 17.8895 40.2729 17.4737 40.3123 17.0514C40.5492 14.57 41.306 12.1349 42.7668 10.0957C43.6618 8.84181 44.7936 7.73972 46.1032 6.9346C47.4982 5.85231 49.0907 5.04719 50.8082 4.57864C53.6312 3.81312 56.7043 3.9517 59.3957 5.13298C62.1069 6.32086 64.2521 8.59103 65.634 11.1846C66.3316 12.4978 66.8251 13.8705 67.1541 15.2894C67.1936 15.4411 67.2331 15.5995 67.266 15.7579C67.6345 17.3813 67.7661 19.0312 67.7727 20.6876C67.7727 20.7272 67.7727 20.7602 67.7727 20.7998C67.7727 20.912 67.8319 21.0902 67.7727 21.1364L67.7661 21.143Z" fill="white"/>
<path d="M61.1001 28.1118C59.7116 28.9896 57.8823 28.917 56.5727 27.9271C56.2042 27.6499 55.8949 27.3133 55.6383 26.9306C55.4211 26.6072 54.9342 26.957 55.1513 27.2737C56.2042 28.8444 58.152 29.6297 59.9946 29.2073C60.5144 29.0886 61.0014 28.884 61.4489 28.6002C61.7779 28.3956 61.4291 27.9073 61.1067 28.1118H61.1001Z" fill="#0B0016"/>
<path d="M67.7727 20.813C67.7727 20.7734 67.7727 20.7404 67.7727 20.7008C67.7727 19.0444 67.6345 17.3879 67.266 15.7711C67.2331 15.6127 67.1936 15.4609 67.1541 15.3025C66.8251 13.8837 66.3316 12.511 65.634 11.1978C64.2521 8.60422 62.1069 6.34065 59.3957 5.14617C56.7043 3.96489 53.6312 3.8263 50.8082 4.59182C49.0907 5.06038 47.4982 5.86549 46.1032 6.94778C44.7936 7.7529 43.6618 8.85499 42.7668 10.1089C41.306 12.1481 40.5492 14.5832 40.3123 17.0646C40.2729 17.4803 40.2465 17.9027 40.2399 18.325C40.2399 18.4438 40.24 18.5626 40.2334 18.6814C40.2268 19.7109 40.2992 20.7338 40.4308 21.7567C39.4964 21.7699 38.5817 22.179 38.1737 23.0832C37.6538 24.2314 38.0157 25.6239 38.5817 26.6864C39.1542 27.7555 40.0623 28.6662 41.1546 29.2007C41.6087 29.4251 42.0891 29.5835 42.5826 29.6825C42.9314 31.1013 43.4117 32.4938 44.0172 33.8269C44.5436 34.9817 45.1687 36.0904 45.8794 37.1463C45.8202 38.7038 45.7347 40.2612 45.6359 41.8187C45.557 43.0263 45.4714 44.234 45.3661 45.4417C45.2674 46.6164 45.1753 47.7977 45.0305 48.9657C44.9121 49.9556 44.6884 50.9653 44.0895 51.7836C43.5236 52.5558 42.6747 53.0771 41.8522 53.5259C40.8322 54.0868 39.7859 54.6082 38.7528 55.1427C38.1408 55.4595 37.5288 55.7762 36.9168 56.0996C36.7391 56.192 36.5615 56.2844 36.3838 56.3768C36.4957 56.5418 36.6075 56.7067 36.726 56.8717C37.2853 57.6571 37.9039 58.3962 38.5817 59.0891C39.7727 60.31 41.1217 61.3659 42.5892 62.2172C42.7998 62.105 43.0169 61.9994 43.2341 61.8938C41.9706 61.2009 40.7927 60.3496 39.7267 59.3729C38.812 58.5348 37.9828 57.6043 37.2656 56.5946C38.7264 55.8356 40.1873 55.0767 41.6482 54.3178C42.53 53.8558 43.4249 53.3675 44.129 52.6548C44.8792 51.9024 45.2872 50.9323 45.4846 49.9028C45.7017 48.781 45.7675 47.6195 45.8728 46.4778C45.9847 45.2503 46.0768 44.0228 46.1624 42.7954C46.2742 41.1785 46.3664 39.5617 46.4388 37.9448C46.4519 37.6215 46.4651 37.2981 46.4782 36.9747C46.2808 36.691 46.0966 36.4006 45.9123 36.1102C45.9123 36.1102 45.8794 36.064 45.8663 36.0376C44.9845 34.6122 44.2672 33.0943 43.7276 31.5105C43.5302 30.9364 43.3591 30.3622 43.2143 29.7749C44.0106 29.8475 44.82 29.7617 45.5833 29.5109C45.9452 29.3921 45.7939 28.8114 45.4254 28.9302C44.662 29.1809 43.8526 29.2535 43.063 29.1545C42.8458 29.1281 42.6352 29.0885 42.4247 29.0357C42.2404 28.9896 42.0627 28.9368 41.8851 28.8708C40.8651 28.4946 39.9767 27.7753 39.3779 26.8778C39.0752 26.429 38.8383 25.9341 38.687 25.4127C38.5356 24.898 38.4501 24.3304 38.5553 23.7959C38.654 23.3075 38.9107 22.8786 39.345 22.6278C39.6938 22.4232 40.1017 22.3506 40.5032 22.3572C40.569 22.3572 40.6348 22.3572 40.7006 22.3638C40.8454 22.377 40.9835 22.3968 41.1217 22.4364C42.2141 22.707 43.0696 23.6243 43.8263 24.4096C44.0961 24.6868 44.5173 24.2644 44.2475 23.9873C43.3723 23.0831 42.3984 22.08 41.1152 21.8227C41.0888 21.8227 41.0559 21.8095 41.0296 21.8095C40.819 20.2652 40.7532 18.6946 40.898 17.1438C41.2665 14.7614 42.1878 12.4582 43.5631 10.485C44.3659 9.33014 45.3398 8.29405 46.4454 7.43613C47.3403 6.7366 48.3208 6.15586 49.3737 5.71371C49.5711 5.62792 49.7751 5.55532 49.9725 5.48273C52.6178 4.53903 55.5725 4.44004 58.2442 5.34415C60.3499 6.05687 62.1464 7.42294 63.5414 9.12556C63.9297 9.60072 64.2916 10.1089 64.6141 10.6302C65.5748 12.1811 66.2066 13.8441 66.6014 15.5731C66.8975 16.86 67.062 18.1798 67.1475 19.5261C67.1475 19.5327 67.1475 19.5459 67.1475 19.5525C67.2199 21.3475 67.1015 23.1623 66.9567 24.9442C66.6935 28.2636 66.3184 31.6095 65.2853 34.7904C64.364 37.6215 62.8636 40.4724 60.2051 42.0034C59.1325 42.6238 57.9415 42.9471 56.7241 42.9471C56.5267 42.9471 56.3226 42.9405 56.1252 42.9207C56.0857 42.9207 56.0397 42.9141 56.0002 42.9075C54.4604 42.736 53.0061 42.0826 51.69 41.2973C51.361 41.0993 51.0319 40.8881 50.7161 40.6704C50.4002 40.4526 50.0975 40.9739 50.4134 41.1851C51.7492 42.0892 53.2035 42.8811 54.7762 43.2837C55.2303 43.3959 55.6909 43.4751 56.1516 43.5147C56.1779 44.234 56.1976 44.9467 56.2239 45.6661C56.2634 46.8935 56.3095 48.121 56.349 49.3485C56.3819 50.3912 56.349 51.5065 56.6846 52.503C56.8491 52.9913 57.1123 53.4401 57.4808 53.803C57.8296 54.1462 58.2573 54.4102 58.6916 54.6346C59.1654 54.8721 59.6524 55.0767 60.1393 55.2879C60.6921 55.5255 61.2448 55.763 61.8042 55.994C63.0479 56.5154 64.2982 57.0235 65.5551 57.5185C65.1537 58.0068 64.7259 58.4754 64.2719 58.9241C62.9821 60.1912 61.5146 61.2669 59.9156 62.0984C60.0143 62.2766 60.113 62.4416 60.2183 62.6131C61.5278 61.9334 62.7518 61.1019 63.8705 60.1186C64.693 59.3993 65.4564 58.6008 66.1407 57.7494C66.2723 57.5845 66.3974 57.4261 66.5224 57.2611C66.3316 57.1885 66.1407 57.1093 65.9433 57.0367C64.9497 56.654 63.956 56.2514 62.9755 55.8488C61.9029 55.4067 60.8435 54.9579 59.7774 54.4894C58.9351 54.1198 58.0007 53.7173 57.5006 52.8923C57.0004 52.0542 56.9939 51.0181 56.961 50.0744L56.8359 46.4514C56.803 45.4813 56.7701 44.5178 56.7372 43.5477C57.6322 43.5477 58.5206 43.4025 59.3694 43.0725C62.3307 41.9176 64.2127 39.2185 65.3577 36.361C66.6409 33.1471 67.1344 29.6825 67.4437 26.264C67.595 24.5746 67.7398 22.8654 67.7596 21.1561C67.8254 21.11 67.7661 20.9318 67.7596 20.8196L67.7727 20.813Z" fill="#0B0016"/>
<path d="M44.4383 26.8381C43.1749 26.1055 41.8785 25.4258 40.5558 24.8121C40.4111 24.7461 40.2334 24.7725 40.1478 24.9177C40.0755 25.0496 40.1084 25.2608 40.2531 25.3268C41.5758 25.9406 42.8722 26.6203 44.1356 27.3528C44.4712 27.5442 44.7673 27.0294 44.4383 26.8381Z" fill="#0B0016"/>
<path d="M82.1379 84.8726C81.5983 87.123 80.3678 88.984 79.0056 90.8186C78.3344 91.7227 77.6566 92.6268 77.0841 93.6035C76.4919 94.6132 76.0312 95.6889 75.6825 96.8042C74.9718 99.048 74.6756 101.397 74.4256 103.733C73.8728 108.907 73.3135 114.108 73.353 119.321C73.3596 120.628 73.4122 121.934 73.5043 123.235C73.5965 124.495 73.8004 125.749 73.8991 127.003C73.9189 127.247 73.9255 127.491 73.9189 127.735C74.1032 129.92 74.215 132.111 74.1492 134.282C73.7544 134.282 73.3661 134.282 72.9713 134.282C69.0559 134.288 65.1471 134.282 61.2383 134.275C59.4813 134.275 57.7243 134.262 55.9673 134.255C54.6249 134.255 53.2825 134.242 51.9401 134.236C51.6045 134.236 51.2689 134.236 50.9333 134.236C50.8148 134.236 50.703 134.236 50.5779 134.236C50.4595 134.236 50.341 134.236 50.2226 134.236C49.7225 134.236 49.2158 134.236 48.7156 134.229C48.3011 134.229 47.8865 134.229 47.4654 134.222C47.2548 134.222 47.0442 134.222 46.8336 134.222C46.2085 134.222 45.5833 134.216 44.9582 134.209C44.7871 134.209 44.616 134.209 44.4449 134.209C43.5171 134.209 42.5826 134.196 41.6548 134.189C38.0487 134.163 34.4492 134.137 30.843 134.117C30.4745 134.117 30.1126 134.117 29.7441 134.11C29.369 134.11 28.9874 134.11 28.6123 134.104C25.7827 134.084 22.9465 134.071 20.1103 134.057C22.1831 127.221 24.8153 120.78 26.013 113.83C26.0525 113.599 26.0919 113.368 26.1248 113.138C26.1775 112.814 26.2236 112.491 26.2696 112.167C26.3025 111.91 26.3288 111.659 26.3552 111.409C26.4341 110.683 26.4934 109.963 26.5526 109.244C26.625 108.228 26.6908 107.205 26.7434 106.182C26.3617 106.855 25.9866 107.535 25.6379 108.214C25.1838 108.993 24.7166 109.838 24.2297 110.702C21.7883 115.012 18.7481 119.724 13.4706 118.523C10.1079 117.849 8.19302 115.777 7.25859 113.098C6.98879 112.319 6.79797 111.488 6.67294 110.63C6.6532 110.504 6.64003 110.372 6.62687 110.247C6.27153 101.727 10.1014 94.1183 12.8059 85.9615C13.1481 84.9452 13.464 83.9157 13.7601 82.873C14.6616 80.1937 14.9051 77.4351 15.2605 74.6832C15.8856 69.9911 17.5044 65.5761 20.0379 61.6693C20.4854 60.818 21.0579 60.0393 21.7225 59.3332C21.8475 59.1946 21.9791 59.0626 22.1173 58.9306C23.7361 57.3732 25.8221 56.2183 28.0134 55.565C28.8886 55.2416 29.777 54.9446 30.6522 54.6344C31.534 54.3243 32.4092 54.0009 33.2647 53.6314C34.9624 52.8856 36.5878 51.9287 37.8381 50.5297C37.8776 50.4835 37.9237 50.4637 37.9631 50.4505C38.1803 50.1931 38.3974 49.9357 38.6146 49.6783C38.7659 49.4936 38.9173 49.3088 39.0686 49.1306C40.5229 47.3488 41.8917 45.5076 43.1815 43.607C43.2999 43.4288 43.5894 43.3958 43.7013 43.607C44.2738 44.7025 44.8792 45.7781 45.5241 46.8274C46.5243 48.4707 47.6167 50.0611 48.788 51.5856C48.9065 51.7439 49.0315 51.9023 49.1565 52.0607C49.1894 52.1003 49.2158 52.1399 49.2487 52.1795C50.3344 53.5522 51.486 54.872 52.7034 56.1391C53.0522 55.5386 53.3944 54.938 53.7431 54.3441C54.1775 53.5918 54.6118 52.8394 55.0461 52.0871C55.1514 51.9089 55.2501 51.7373 55.3488 51.5592C56.4345 49.685 57.5269 47.8107 58.6127 45.9365C58.7443 45.7056 59.0799 45.7649 59.1589 46.0091C59.7643 47.8305 60.3697 49.6586 60.9751 51.48C61.1593 51.612 61.3502 51.7373 61.541 51.8495C61.7055 51.9551 61.8832 52.0541 62.0543 52.1465C63.3111 52.8262 64.7062 53.2816 66.0618 53.6709C68.2268 54.2913 70.4312 54.7796 72.458 55.7827C73.2937 56.1985 74.0966 56.7066 74.7941 57.327C77.2815 58.2839 78.9266 60.7982 79.7294 63.3126C80.0256 64.3289 80.2691 65.3716 80.4928 66.4209C80.7692 67.5427 80.96 68.6514 81.1969 69.7403C81.1311 69.7601 81.0587 69.7799 80.9929 69.7997C81.6049 72.5186 82.0721 75.2706 82.3682 78.0291C82.6117 80.319 82.6578 82.6618 82.1182 84.9188L82.1379 84.8726Z" fill="#0B0016"/>
<path d="M44.0896 59.155C43.8461 59.3463 43.5894 59.5245 43.3328 59.6961C42.5102 60.2373 41.6285 60.6728 40.7006 61.0028C40.6809 61.0754 40.6611 61.1414 40.6414 61.214C40.4506 61.9333 40.365 62.6658 40.3716 63.4115C40.3716 63.4907 40.3716 63.5699 40.3716 63.6491C39.2134 64.573 38.2198 65.6949 37.2393 66.8036C36.0153 68.196 34.8637 69.6479 33.7385 71.1195C32.6856 72.4856 31.6459 73.8583 30.5667 75.2045C30.5009 75.1055 30.4285 75.0066 30.3627 74.9142C30.0666 74.505 29.8494 74.0563 29.7309 73.5613C29.4743 72.5054 29.5664 71.3769 29.5796 70.2946C29.5928 69.0936 29.6059 67.8991 29.6191 66.698C29.6257 66.0975 29.6322 65.4903 29.6388 64.8898C29.6388 64.3882 29.5993 63.8405 29.8362 63.3785C30.0994 62.8704 30.5535 62.7516 31.047 62.7978C31.0536 62.1841 31.0799 61.5769 31.2839 60.9896C31.4485 60.521 31.7117 60.0921 32.1131 59.7885C32.5605 59.4453 33.1265 59.3463 33.6792 59.3529C34.0083 59.3529 34.3307 59.3859 34.6597 59.4321C34.7716 59.2804 34.9098 59.1484 35.0545 59.023C35.5941 58.5742 36.2654 58.3432 36.9563 58.2443C37.6341 58.1453 38.3251 58.1585 39.0094 58.1387C39.7004 58.1189 40.3584 58.0331 41.0099 57.8087C41.6219 57.5975 42.2075 57.3137 42.7998 57.063C43.3262 56.8386 44.0106 56.535 44.5436 56.9112C45.0372 57.261 45.0569 57.9605 44.7673 58.4488C44.5963 58.7326 44.3462 58.9504 44.083 59.155H44.0896Z" fill="white"/>
<path d="M46.8994 60.5344C45.7807 60.871 44.6752 61.2537 43.6091 61.7289C43.6881 61.4517 43.7736 61.1811 43.8789 60.9172C44.1158 60.277 44.4185 59.6303 44.8594 59.1089C45.0832 58.845 45.3924 58.614 45.7478 58.6008C46.0571 58.5942 46.3269 58.746 46.5111 58.9836C46.8402 59.4125 46.8928 59.9998 46.8994 60.541V60.5344Z" fill="white"/>
<path d="M46.5112 58.9768C46.3269 58.7392 46.0506 58.5808 45.7479 58.594C45.3859 58.6072 45.0767 58.8316 44.8595 59.1022C44.4186 59.6301 44.1225 60.2768 43.879 60.9104C43.7803 61.181 43.6882 61.4515 43.6092 61.7221C43.8461 61.6165 44.083 61.5175 44.3199 61.4185C44.5371 60.7586 44.82 60.1251 45.2346 59.5707C45.3728 59.3925 45.6031 59.122 45.8597 59.2012C45.9255 59.221 45.9913 59.2738 46.0374 59.3331C46.1098 59.4321 46.1624 59.5443 46.1953 59.6631C46.2809 59.9535 46.2941 60.2505 46.3006 60.554C46.3006 60.6068 46.3006 60.6662 46.3006 60.719C46.498 60.653 46.6954 60.5936 46.8994 60.5342C46.8994 59.9931 46.8402 59.4057 46.5112 58.9768ZM44.774 58.4488C45.0701 57.9605 45.0438 57.261 44.5502 56.9112C44.0172 56.535 43.3328 56.8386 42.8064 57.063C42.2141 57.3137 41.6285 57.6041 41.0165 57.8087C40.365 58.0331 39.7004 58.1189 39.016 58.1387C38.3317 58.1585 37.6473 58.1453 36.9629 58.2443C36.272 58.3432 35.6008 58.5742 35.0612 59.023C34.9164 59.1484 34.7848 59.2804 34.6663 59.4321C34.3373 59.3859 34.0149 59.3595 33.6858 59.3529C33.1331 59.3463 32.5671 59.4453 32.1197 59.7885C31.7183 60.0921 31.455 60.521 31.2905 60.9896C31.08 61.5769 31.0602 62.1907 31.0536 62.7978C30.5601 62.7516 30.0995 62.8704 29.8428 63.3785C29.6059 63.8339 29.652 64.3882 29.6454 64.8898C29.6388 65.4903 29.6322 66.0975 29.6257 66.698C29.6125 67.8991 29.5993 69.0936 29.5862 70.2946C29.573 71.3769 29.4809 72.5054 29.7375 73.5613C29.856 74.0563 30.0797 74.4984 30.3693 74.9142C30.4416 75.0132 30.5075 75.1055 30.5733 75.2045C30.7049 75.0396 30.8299 74.8812 30.9615 74.7162C30.9483 74.6964 30.9352 74.6832 30.9286 74.6634C30.6588 74.2872 30.4417 73.9045 30.3298 73.4491C30.2113 72.9806 30.1784 72.5054 30.1719 72.0237C30.1521 70.9348 30.1916 69.8393 30.2048 68.7504L30.2442 65.3649C30.2442 65.0812 30.2508 64.7908 30.2574 64.5004C30.2574 64.2958 30.2574 64.0847 30.3035 63.8801C30.3429 63.7085 30.4219 63.5435 30.5798 63.4577C30.7246 63.3851 30.8957 63.3785 31.0536 63.3917C31.0602 63.3917 31.0734 63.3917 31.08 63.3917C31.2708 63.4115 31.455 63.4577 31.6459 63.5171C31.9288 63.6095 32.2052 63.7217 32.4684 63.8207C32.9159 63.9791 33.3634 64.1375 33.8043 64.2892C33.8964 64.3222 33.982 64.3486 34.0741 64.3816L34.3636 64.4872L35.6797 64.9492C35.8113 64.9954 36.1338 65.0482 36.1864 65.2066C36.2325 65.3517 36.0746 65.4969 35.9758 65.5629C35.581 65.8137 35.0677 65.9457 34.6137 66.0447C34.1201 66.1502 33.6134 66.1898 33.1067 66.1635C32.8699 66.1503 32.6264 66.1239 32.3961 66.0843C32.2052 66.0513 32.021 66.1634 32.0144 66.3746C32.0012 67.1533 31.9815 67.9321 31.9683 68.7108C31.9618 69.0936 32.5606 69.0936 32.5671 68.7108C32.5803 68.0443 32.5935 67.3843 32.6066 66.7178C33.574 66.8366 34.5676 66.7442 35.4955 66.4274C35.9693 66.2624 36.5418 66.0645 36.7392 65.5563C36.8313 65.3187 36.8116 65.0416 36.6668 64.8304C36.5023 64.606 36.2456 64.5136 35.989 64.4278C35.5152 64.2628 35.0414 64.0979 34.5676 63.9263C34.7255 63.3719 34.8177 62.7978 34.8374 62.2237C35.3902 62.25 35.9364 62.25 36.4891 62.2237C36.8116 62.2039 37.134 62.1775 37.4565 62.1379C37.7592 62.0983 38.0553 62.0653 38.3382 61.9399C38.8384 61.7155 39.1871 61.0754 38.8186 60.5804C38.5027 60.1515 37.8579 60.0591 37.3775 59.9403C36.7655 59.7885 36.1404 59.6631 35.5152 59.5575C35.4823 59.5575 35.4494 59.5443 35.4165 59.5377C35.6139 59.3661 35.8508 59.221 36.0943 59.1154C36.3378 59.0032 36.601 58.924 36.8445 58.8778C38.0618 58.6336 39.3187 58.8514 40.5361 58.5808C41.1349 58.4422 41.7074 58.2113 42.2734 57.9605C42.5432 57.8417 42.813 57.7163 43.0894 57.6041C43.3328 57.4985 43.5829 57.3863 43.8461 57.3467C44.0172 57.3203 44.2146 57.3335 44.3199 57.4853C44.4318 57.6371 44.4186 57.8549 44.3528 58.0265C44.2672 58.2509 44.0764 58.4356 43.8922 58.5874C43.675 58.7656 43.4447 58.9306 43.2078 59.089C42.5037 59.5641 41.7601 59.9601 40.9836 60.2768C40.8651 60.323 40.7401 60.3758 40.6217 60.4154C40.4966 60.4616 40.3782 60.5012 40.2532 60.5474C40.1742 60.7784 40.1084 61.0028 40.0557 61.2404C39.8254 62.1907 39.753 63.174 39.8386 64.1441C40.0228 63.9791 40.2137 63.8207 40.4045 63.6623C40.4045 63.5831 40.4045 63.5039 40.4045 63.4247C40.3979 62.6856 40.4901 61.9465 40.6743 61.2271C40.694 61.1546 40.7138 61.0886 40.7335 61.016C41.6548 60.686 42.5432 60.2439 43.3657 59.7093C43.6289 59.5377 43.879 59.3595 44.1225 59.1682C44.3857 58.9702 44.6358 58.7524 44.8068 58.462L44.774 58.4488ZM36.2588 60.3032C36.8116 60.4154 37.3643 60.5408 37.9039 60.7058C38.0421 60.7454 38.2198 60.8048 38.3053 60.9236C38.404 61.0622 38.3053 61.2271 38.1869 61.3195C37.9895 61.4779 37.6999 61.4977 37.4565 61.5307C37.134 61.5703 36.8116 61.6033 36.4891 61.6231C35.8311 61.6627 35.173 61.6561 34.515 61.6165C34.357 61.6033 34.2123 61.7617 34.2189 61.9135C34.232 62.5272 34.1531 63.1476 33.982 63.7349C33.5082 63.5699 33.0344 63.3983 32.554 63.2333C32.2908 63.141 31.9683 63.0156 31.6327 62.9232C31.6327 62.5404 31.6327 62.1643 31.6985 61.7881C31.7709 61.3855 31.8894 60.983 32.1197 60.6398C32.3566 60.29 32.7053 60.0789 33.1067 59.9997C33.5016 59.9205 33.9227 59.9535 34.3307 59.9997L34.9361 60.0789C35.377 60.1383 35.8113 60.2175 36.2457 60.3032H36.2588Z" fill="#0B0016"/>
<path d="M32.1723 102.335C32.0604 102.552 31.9485 102.77 31.8367 102.988C31.4221 103.78 31.0009 104.572 30.56 105.357C30.1586 106.222 29.7046 107.139 29.2045 108.076C28.7043 109.013 28.1516 109.963 27.5593 110.907C27.2698 111.442 26.9474 111.976 26.592 112.504C26.4538 112.715 26.3091 112.92 26.1577 113.124C25.8287 113.58 25.4799 114.022 25.1114 114.458C21.7093 118.43 16.6094 121.281 11.5819 118.391C8.64703 116.754 6.9032 113.831 6.6992 110.61C6.67946 110.293 6.67289 109.97 6.68605 109.64C6.8045 102.453 12.6611 97.2993 17.3201 92.4752C18.0835 91.6766 18.8336 90.8781 19.5377 90.0466C19.8404 89.7562 20.1563 89.3933 20.4787 89.0039C20.4919 89.0435 20.5051 89.0831 20.5182 89.1227C21.0315 90.5349 21.9067 91.7822 22.7951 92.9767C23.2228 93.5574 23.6637 94.125 24.0849 94.7123C24.4534 95.2271 24.7824 95.755 25.1246 96.2896C25.8813 97.484 26.6973 98.6521 27.6515 99.6948C28.5793 100.718 29.6914 101.681 31.0207 102.123C31.0733 102.143 31.126 102.156 31.1786 102.17C31.2313 102.183 31.2839 102.203 31.3365 102.209C31.3892 102.222 31.4353 102.236 31.4879 102.242C31.58 102.262 31.6722 102.275 31.7577 102.288C31.7972 102.288 31.8432 102.302 31.8827 102.302H31.8893C31.9288 102.302 31.9683 102.308 32.0143 102.315C32.0275 102.315 32.0406 102.315 32.0538 102.315C32.0933 102.315 32.1394 102.315 32.1788 102.315L32.1723 102.335Z" fill="#0B0016"/>
<path d="M92.3574 62.4018C92.002 62.184 91.6533 61.9596 91.3177 61.7221C91.2387 61.887 91.1532 62.0586 91.0676 62.2236C90.9295 62.1312 90.7979 62.0322 90.6597 61.9398C90.6333 61.92 90.607 61.9068 90.5807 61.887C88.7974 60.6662 86.9877 59.4849 85.1781 58.3036C83.3356 57.0959 81.493 55.8882 79.6768 54.641C78.6898 53.9612 77.7027 53.2617 76.7419 52.549C76.7288 52.5424 76.7222 52.5358 76.709 52.5226C76.5972 52.4368 76.4853 52.3576 76.3734 52.2718C76.301 52.2982 76.2352 52.3246 76.1694 52.3444C76.1563 52.351 76.1365 52.3576 76.1234 52.3642C74.9389 52.8064 73.7478 53.2287 72.5436 53.6247C70.4576 54.3242 68.3518 54.9709 66.246 55.6177C64.1534 56.2644 62.0543 56.9045 59.9749 57.5975C59.455 57.7691 58.9417 57.9406 58.4284 58.1254C58.2376 58.1914 58.0533 58.2574 57.8625 58.3234C57.8099 58.132 57.7506 57.9406 57.698 57.7493C57.8888 57.6833 58.0731 57.6173 58.2639 57.5513C59.0272 57.2873 59.7972 57.0233 60.5671 56.7792C62.6531 56.0994 64.7523 55.4593 66.8449 54.8191C68.9375 54.1724 71.0301 53.5191 73.1029 52.813C74.0045 52.5028 74.906 52.186 75.7943 51.8494C75.9391 51.7967 76.0839 51.7439 76.2287 51.6845C76.2418 51.5855 76.2615 51.4931 76.2747 51.3941C76.2747 51.3941 76.2747 51.3809 76.2747 51.3743C76.3931 50.49 76.5379 49.6123 76.7748 48.7478C76.8669 48.4112 76.9657 48.0746 77.0907 47.7447C77.3144 47.1177 77.5908 46.5106 77.933 45.943C78.0646 45.7253 78.2094 45.5075 78.3673 45.3029C78.624 44.9597 78.9003 44.6364 79.1964 44.3262C79.6702 43.8247 80.1769 43.3429 80.6244 42.815C81.0061 42.3662 81.3285 41.8713 81.6049 41.3499C82.6446 39.3437 82.8684 36.5588 81.2035 34.7968C81.0522 34.6384 80.9008 34.4998 80.7363 34.3876C79.3281 33.3845 77.4526 33.8663 76.051 34.8694C75.6167 35.1795 75.2284 35.5359 74.9191 35.9187C73.3332 37.8325 73.1885 40.6306 74.4914 42.7292C74.6822 43.0393 74.2413 43.3231 74.0176 43.0855C73.9978 43.0723 73.9847 43.0525 73.9715 43.0327C73.7938 42.749 73.6425 42.4454 73.5109 42.1352C72.9911 40.8946 72.866 39.4955 73.1555 38.1822C73.4253 36.968 74.0702 35.8527 74.9586 34.9882C75.1494 34.8034 75.3535 34.6252 75.5706 34.4602C76.3669 33.8531 77.3079 33.4241 78.2884 33.2789C79.0188 33.1733 79.7624 33.2327 80.4401 33.5231C80.6705 33.6221 80.8876 33.7475 81.0916 33.8993C81.3943 34.117 81.6641 34.3876 81.8879 34.6846C83.5001 36.7502 83.2171 39.6671 82.0063 41.8515C81.6904 42.419 81.3022 42.9469 80.8679 43.4353C80.3941 43.9632 79.8743 44.4516 79.3939 44.9795C79.203 45.1841 79.0253 45.4019 78.8674 45.6263C78.2225 46.4974 77.7685 47.4807 77.4526 48.53C77.4066 48.695 77.3605 48.8534 77.3144 49.0183C77.1236 49.7509 76.992 50.49 76.8867 51.2357H76.8998C76.8735 51.3809 76.8472 51.5195 76.8275 51.6647C76.8209 51.7241 76.8143 51.7901 76.8012 51.8494C76.8735 51.9022 76.9459 51.955 77.0183 52.0078C77.7816 52.5754 78.5581 53.1297 79.3412 53.6775C81.1377 54.9313 82.9671 56.1456 84.803 57.3467C86.639 58.5478 88.4749 59.7423 90.2912 60.9763C90.4688 61.0951 90.6465 61.2205 90.8242 61.3393C90.9887 61.4515 91.1532 61.5637 91.3111 61.6759C91.6533 61.9134 91.9955 62.151 92.3377 62.3886L92.3574 62.4018Z" fill="white"/>
<path d="M54.8157 22.6806C54.9539 23.9608 54.3617 25.0629 53.4996 25.1421C52.6376 25.2213 51.8282 24.2446 51.69 22.9643C51.5518 21.6841 52.1441 20.582 53.0061 20.5028C53.8681 20.4236 54.6775 21.4003 54.8157 22.6806Z" fill="#0B0016"/>
<path d="M65.4235 22.5155C65.5353 23.7694 64.976 24.911 64.1666 25.0694C63.3572 25.2278 62.6136 24.3435 62.5017 23.0896C62.3899 21.8357 62.9492 20.6941 63.7586 20.5357C64.568 20.3773 65.3116 21.2616 65.4235 22.5155Z" fill="#0B0016"/>
<path d="M60.3894 18.9254C60.646 19.5788 61.2778 19.9549 61.9424 20.0803C62.7584 20.2387 63.6007 20.0407 64.4101 19.9021C64.8181 19.8295 65.226 19.7701 65.634 19.691C65.9499 19.6316 66.2921 19.5392 66.5092 19.2884C66.9238 18.8132 66.7067 18.0807 66.2789 17.698C66.0881 17.5264 65.8578 17.401 65.6143 17.3086C65.5946 17.2954 65.5748 17.2888 65.5551 17.2822C65.1931 17.1304 64.7983 17.0446 64.4167 16.9786C64.0152 16.906 63.6138 16.8664 63.2124 16.8532C62.7978 16.84 62.3833 16.8532 61.9753 16.8994C61.6068 16.9456 61.2449 17.038 60.929 17.236C60.6526 17.4142 60.4289 17.6716 60.3302 17.9883C60.238 18.2919 60.2709 18.6285 60.3828 18.9188L60.3894 18.9254Z" fill="#0B0016"/>
<path d="M56.632 18.1731C56.5069 18.9189 55.9147 19.4534 55.2435 19.7306C54.4143 20.0738 53.4865 20.054 52.6047 20.087C52.1572 20.1002 51.7163 20.1265 51.2689 20.1331C50.9201 20.1397 50.545 20.1199 50.2555 19.9022C49.7159 19.493 49.7817 18.6747 50.1502 18.1731C50.3147 17.9488 50.5319 17.7706 50.7622 17.6188C50.7819 17.6056 50.8017 17.5858 50.8214 17.5726C51.1702 17.3284 51.565 17.1568 51.9532 17.0051C52.3612 16.8467 52.7758 16.7147 53.1969 16.6091C53.6247 16.5035 54.0656 16.4243 54.5065 16.3913C54.9013 16.3583 55.3093 16.3781 55.6844 16.5167C56.0134 16.6421 56.3095 16.8665 56.4806 17.1832C56.6451 17.4802 56.6846 17.8432 56.6254 18.1731H56.632Z" fill="#0B0016"/>
<path d="M117.969 96.6458C117.64 97.3321 117.1 97.893 116.574 98.4276C116.034 98.9819 115.461 99.5033 114.876 100.011C113.698 101.034 112.467 101.998 111.296 103.027C110.243 103.958 109.302 104.981 108.322 105.984C107.46 106.868 106.492 107.772 105.308 108.188C104.077 108.624 102.866 108.234 101.958 107.337C99.9842 105.39 99.5696 102.427 97.7665 100.348C97.2664 99.7673 96.7729 99.1865 96.2662 98.6124C96.1938 98.9687 96.1477 99.3251 96.1017 99.6947C95.9437 101.067 95.845 102.447 95.6542 103.813C95.2857 106.505 94.3381 109.066 93.5419 111.653C93.1405 112.953 92.7522 114.273 92.5482 115.625C92.3376 117.018 92.3113 118.43 92.2916 119.836C92.2653 121.142 92.2653 122.462 92.1008 123.756C91.9823 124.686 91.7586 125.623 91.3111 126.455C90.8899 127.247 90.2319 127.907 89.3633 128.191C88.2182 128.56 87.0009 128.197 85.8954 127.854C83.3685 127.062 80.7363 126.765 78.1238 126.369C76.7551 126.165 75.3929 125.94 74.0505 125.61C72.8068 125.307 71.5828 124.944 70.3522 124.581C67.8714 123.848 65.3708 123.116 62.7847 122.905C60.6263 122.726 58.4876 123.063 56.3424 123.3C53.6049 123.597 50.8608 123.868 48.1036 123.914C46.7546 123.941 45.399 123.914 44.0566 123.762C42.9116 123.644 41.7534 123.446 40.6677 123.036C39.7925 122.707 38.9436 122.225 38.3645 121.466C37.8183 120.747 37.6209 119.842 37.7064 118.952C37.7986 118.014 38.1079 117.097 38.3711 116.193C38.733 114.959 39.1344 113.731 39.5161 112.504C39.9175 111.237 40.2992 109.957 40.615 108.663C40.9309 107.363 41.1415 106.05 41.3191 104.73C41.51 103.37 41.6613 102.011 41.7337 100.645C41.7929 99.5759 41.7798 98.5068 41.8258 97.4377C41.8653 96.4544 41.9048 95.4645 41.8522 94.4746C41.839 94.2964 41.8324 94.1116 41.8127 93.9268C40.6743 94.5274 39.5885 95.1873 38.7528 96.197C37.259 97.9854 36.364 100.361 34.3504 101.681C33.3436 102.341 32.1525 102.486 31.0141 102.11C29.6848 101.668 28.5728 100.698 27.6449 99.6749C26.6907 98.6322 25.8748 97.4575 25.118 96.2696C24.7824 95.7351 24.4534 95.2071 24.0783 94.699C23.6571 94.1182 23.2162 93.5441 22.7885 92.9633C21.9067 91.7689 21.0249 90.515 20.5117 89.1093C20.2945 88.5022 20.1497 87.8489 20.1826 87.1955C20.209 86.6016 20.4261 86.0406 20.7222 85.5259C21.4066 84.3446 22.4595 83.3943 23.4794 82.51C24.506 81.6125 25.5589 80.7612 26.5196 79.7911C29.1781 77.1117 31.4287 74.0893 33.7253 71.1064C34.8571 69.6347 36.0087 68.1828 37.2327 66.7904C38.4106 65.4441 39.628 64.0913 41.1152 63.075C43.7671 61.2667 46.9652 60.4814 50.012 59.6433C51.5386 59.221 53.0719 58.792 54.5656 58.2574C55.5593 57.9011 56.5464 57.4919 57.4677 56.9706C57.6453 56.8716 57.823 56.766 58.0007 56.6538C58.0599 56.8518 58.1191 57.0498 58.1783 57.2477C58.2112 57.3467 58.2375 57.4457 58.2639 57.5447C58.3165 57.7361 58.3692 57.9275 58.4284 58.1189C58.7113 59.1022 59.0009 60.0789 59.3957 61.0226C60.0604 62.5932 61.0606 63.9593 62.278 65.1472C63.4625 66.302 64.8181 67.2589 66.2658 68.0509C67.6279 68.7966 69.069 69.3971 70.5628 69.7997C73.4845 70.5916 76.6169 70.717 79.5847 70.1098C81.0521 69.8129 82.4932 69.3311 83.8291 68.6382C85.1781 67.9387 86.3889 67.0214 87.4747 65.9523C88.6657 64.7842 89.7647 63.4049 90.5609 61.8871C90.653 61.7155 90.732 61.5505 90.8176 61.3789C90.8176 61.3723 90.8241 61.3591 90.8307 61.3525C90.9163 61.1744 90.9952 60.9962 91.0676 60.818C91.2255 60.9368 91.39 61.0556 91.5546 61.1744C91.6927 61.2733 91.8375 61.3657 91.9757 61.4581C93.2918 62.3358 94.6803 63.1344 96.0819 63.8735C98.7076 65.2593 101.563 66.533 103.393 68.9814C104.255 70.1297 104.9 71.4297 105.551 72.7034C106.288 74.1354 107.091 75.5279 107.92 76.9072C108.802 78.3788 109.71 79.8373 110.552 81.3353C111.309 82.675 112.013 84.041 112.777 85.3807C113.547 86.727 114.369 88.0534 115.356 89.2545C116.264 90.3632 117.232 91.4389 117.83 92.7588C118.396 94.006 118.561 95.3787 117.949 96.6458H117.969Z" fill="#8AB946"/>
<path d="M117.844 92.7588C117.245 91.4389 116.277 90.3632 115.369 89.2545C114.382 88.0534 113.56 86.727 112.79 85.3807C112.026 84.041 111.322 82.675 110.566 81.3353C109.723 79.8373 108.815 78.3788 107.933 76.9072C107.104 75.5279 106.301 74.1354 105.564 72.7034C104.913 71.4297 104.261 70.1362 103.406 68.9814C101.577 66.533 98.7273 65.2593 96.0951 63.8735C94.6935 63.1344 93.3115 62.3358 91.9889 61.4581C91.8441 61.3657 91.7059 61.2667 91.5677 61.1678C91.4032 61.0556 91.2387 60.9368 91.0808 60.818C91.0084 60.9962 90.9294 61.1744 90.8439 61.3525C90.8439 61.3591 90.8373 61.3723 90.8307 61.3789C90.7518 61.5505 90.6662 61.7221 90.5741 61.8871C89.7779 63.4049 88.6789 64.7842 87.4878 65.9523C86.4021 67.0148 85.1912 67.9387 83.8422 68.6382C82.5064 69.3311 81.0719 69.8129 79.5978 70.1098C76.6301 70.717 73.4977 70.5916 70.576 69.7997C69.0756 69.3971 67.6411 68.7966 66.2724 68.0509C64.8247 67.2589 63.4691 66.302 62.2846 65.1472C61.0672 63.9659 60.067 62.5932 59.4023 61.0226C59.0075 60.0789 58.7114 59.1022 58.435 58.1189C58.3823 57.9275 58.3231 57.7361 58.2705 57.5447C58.2442 57.4457 58.2113 57.3467 58.1849 57.2477C58.1257 57.0498 58.0731 56.8518 58.0073 56.6538C57.8296 56.766 57.6585 56.8716 57.4743 56.9706C56.553 57.4919 55.5659 57.9011 54.5723 58.2574C53.0785 58.7986 51.5518 59.2276 50.0186 59.6433C46.9718 60.4814 43.7737 61.2733 41.1217 63.075C39.6346 64.0913 38.4237 65.4441 37.2393 66.7904C36.0153 68.1828 34.8637 69.6347 33.7384 71.1064C31.4418 74.0958 29.1913 77.1117 26.5328 79.7911C25.5721 80.7612 24.5192 81.6125 23.4861 82.51C22.4661 83.3943 21.4132 84.3446 20.7288 85.5259C20.4327 86.034 20.209 86.6016 20.1892 87.1955C20.1563 87.8423 20.3011 88.5022 20.5248 89.1093C21.0381 90.5216 21.9133 91.7689 22.8017 92.9633C23.2294 93.5441 23.6703 94.1116 24.0915 94.699C24.46 95.2137 24.789 95.7417 25.1312 96.2762C25.8879 97.4707 26.7039 98.6388 27.6581 99.6815C28.5859 100.704 29.698 101.668 31.0273 102.11C32.1657 102.493 33.3568 102.341 34.3636 101.688C36.3772 100.368 37.2722 97.9986 38.7659 96.2036C39.6082 95.1939 40.694 94.534 41.8324 93.9334C41.8522 94.1182 41.8588 94.303 41.8719 94.4812C41.9246 95.4711 41.8851 96.461 41.8456 97.4443C41.7995 98.5134 41.8127 99.5825 41.7535 100.652C41.6811 102.018 41.5297 103.377 41.3389 104.737C41.1547 106.063 40.9441 107.376 40.6348 108.676C40.3189 109.97 39.9373 111.243 39.5359 112.517C39.1476 113.745 38.7528 114.966 38.3908 116.206C38.1276 117.104 37.8249 118.028 37.7262 118.965C37.6341 119.856 37.8381 120.76 38.3843 121.479C38.9634 122.238 39.8122 122.713 40.6874 123.05C41.7732 123.459 42.9314 123.657 44.0764 123.776C45.4188 123.921 46.7744 123.947 48.1234 123.927C50.874 123.881 53.6247 123.611 56.3622 123.314C58.5074 123.076 60.646 122.74 62.8044 122.918C65.3906 123.129 67.8912 123.861 70.372 124.594C71.596 124.957 72.8265 125.32 74.0702 125.623C75.4126 125.953 76.7748 126.178 78.1435 126.382C80.756 126.772 83.3882 127.075 85.9151 127.867C87.014 128.21 88.238 128.573 89.383 128.204C90.2451 127.927 90.9031 127.26 91.3308 126.468C91.7783 125.637 92.002 124.7 92.1205 123.769C92.285 122.469 92.2916 121.156 92.3113 119.842C92.3377 118.437 92.3574 117.025 92.568 115.632C92.7719 114.279 93.1602 112.959 93.5616 111.659C94.3644 109.072 95.3055 106.512 95.6805 103.819C95.8714 102.447 95.9701 101.074 96.128 99.7012C96.1675 99.3317 96.2201 98.9753 96.2925 98.619C96.7992 99.1865 97.2927 99.7738 97.7929 100.355C99.5893 102.433 100.004 105.396 101.985 107.343C102.893 108.241 104.104 108.63 105.334 108.195C106.519 107.772 107.479 106.875 108.341 105.99C109.322 104.987 110.263 103.964 111.316 103.034C112.487 102.004 113.718 101.041 114.896 100.018C115.481 99.5099 116.054 98.9885 116.593 98.4342C117.12 97.893 117.659 97.3387 117.988 96.6524C118.6 95.3853 118.436 94.0126 117.863 92.7654L117.844 92.7588ZM117.449 96.3422C117.113 97.0351 116.567 97.5829 116.027 98.124C113.882 100.282 111.329 101.991 109.203 104.176C108.335 105.067 107.539 106.03 106.551 106.796C105.683 107.475 104.577 108.043 103.465 107.64C102.235 107.198 101.452 105.852 100.886 104.75C100.267 103.549 99.7868 102.268 99.0695 101.114C98.7273 100.559 98.3193 100.077 97.8982 99.5825C97.4639 99.0809 97.0361 98.5728 96.5887 98.0778C96.5426 98.025 96.4965 97.9722 96.4439 97.9194C96.615 97.3849 96.8255 96.8701 97.023 96.3488C97.3915 95.3919 97.7665 94.3492 97.6283 93.3065C97.5757 92.9303 96.9835 92.9237 97.0295 93.3065C97.1677 94.3822 96.7334 95.4315 96.3583 96.4148C96.2267 96.7514 96.0951 97.0879 95.9766 97.4245C95.9569 97.4773 95.9372 97.5367 95.924 97.5895C95.878 97.7215 95.8385 97.8534 95.799 97.9854C95.7924 98.0184 95.7792 98.0448 95.7727 98.0778C95.6279 98.6124 95.5621 99.1535 95.5029 99.7012C95.3384 101.094 95.2528 102.499 95.0422 103.892C94.8514 105.205 94.5158 106.492 94.1407 107.766C93.3708 110.333 92.3508 112.874 91.956 115.533C91.5611 118.206 91.8178 120.912 91.5151 123.591C91.3243 125.293 90.6136 127.59 88.5934 127.748C87.4089 127.841 86.2705 127.333 85.1518 127.016C83.8883 126.66 82.5722 126.448 81.2759 126.25C78.6239 125.841 75.9654 125.524 73.3661 124.838C70.9116 124.191 68.5031 123.353 66.0157 122.819C64.2653 122.443 62.436 122.172 60.6395 122.284C59.7314 122.337 58.8298 122.443 57.9217 122.542C55.3356 122.825 52.7429 123.122 50.137 123.261C47.5443 123.399 44.8595 123.465 42.3062 122.911C40.6282 122.548 38.6409 121.789 38.3119 119.935C38.2395 119.532 38.2592 119.057 38.3448 118.628C38.5553 117.5 38.9239 116.391 39.2595 115.295C40.0162 112.841 40.8651 110.412 41.3981 107.891C41.6745 106.584 41.8522 105.264 42.0167 103.938C42.1878 102.605 42.3128 101.272 42.3523 99.9322C42.3852 98.9489 42.3984 97.9722 42.4313 96.9889C42.4708 95.999 42.4971 94.9959 42.4049 94.006C42.3918 93.8872 42.3852 93.7685 42.372 93.6497C42.3655 93.5771 42.3523 93.5045 42.3457 93.4319C42.3391 93.3725 42.326 93.3065 42.3194 93.2471C42.3062 93.1745 42.2931 93.1019 42.2799 93.0293C42.1812 92.5278 42.0299 92.0328 41.7732 91.5907C41.5758 91.2607 41.0625 91.5577 41.2599 91.8942C41.51 92.3232 41.6548 92.8116 41.7337 93.3131C41.0823 93.6497 40.444 93.9994 39.8517 94.4152C39.299 94.8045 38.7791 95.2467 38.3448 95.7615C37.996 96.1772 37.6867 96.626 37.384 97.0747C36.7194 98.0646 36.1074 99.1007 35.3243 100.005C34.6334 100.803 33.7648 101.569 32.679 101.714C31.4484 101.879 30.2574 101.232 29.3361 100.48C28.2306 99.5759 27.3225 98.454 26.5065 97.2859C25.7695 96.2366 25.1378 95.1279 24.3744 94.0984C23.5058 92.9237 22.5911 91.7755 21.8475 90.5084C21.4922 89.9078 21.1763 89.2743 20.9723 88.6078C20.8078 88.06 20.6959 87.4463 20.8144 86.8788C21.0644 85.6777 22.0318 84.6812 22.8806 83.8629C23.8216 82.9587 24.8614 82.1602 25.8353 81.2891C27.1251 80.1408 28.2898 78.8408 29.4085 77.5407C30.6061 76.1548 31.738 74.7096 32.8435 73.2511C35.048 70.3474 37.259 67.3711 39.8912 64.8304C42.2141 62.5932 45.3464 61.5703 48.3734 60.7124C50.1633 60.2043 51.9927 59.7555 53.7629 59.1682C53.7629 59.1682 53.7694 59.1682 53.776 59.1682C54.4999 58.9306 55.2171 58.6666 55.9212 58.3696C55.9212 58.3696 55.9212 58.3696 55.9278 58.3696C56.3095 58.2113 56.6846 58.0397 57.0531 57.8549C57.2505 57.7559 57.4414 57.6569 57.6322 57.5513C57.6519 57.6107 57.6651 57.6767 57.6848 57.7361C57.7374 57.9275 57.7967 58.1189 57.8493 58.3102C58.027 58.9174 58.2047 59.5179 58.4087 60.1119C58.6982 60.9632 59.047 61.8013 59.4944 62.5866C59.9288 63.3521 60.4684 64.0649 61.0541 64.7248C62.1793 65.9985 63.5217 67.0808 64.9629 67.9717C66.3513 68.8362 67.8451 69.5489 69.3915 70.0571C72.3725 71.0404 75.5903 71.3043 78.6897 70.8556C80.2362 70.6312 81.7496 70.2088 83.1842 69.5885C84.6187 68.9616 85.9217 68.1169 87.1062 67.094C88.3894 65.9787 89.5278 64.6852 90.4425 63.2465C90.6596 62.91 90.8636 62.5602 91.0479 62.2038C91.1334 62.0389 91.219 61.8739 91.2979 61.7023C91.6401 61.9399 91.9889 62.1643 92.3377 62.382C92.7588 62.646 93.1865 62.8968 93.6077 63.141C94.9172 63.9131 96.2596 64.606 97.602 65.3121C98.9445 66.0183 100.267 66.7706 101.438 67.7407C103.63 69.5687 104.656 72.3866 106.025 74.8152C107.637 77.6793 109.421 80.4444 110.987 83.3349C111.711 84.668 112.428 86.0076 113.237 87.2879C113.645 87.928 114.073 88.555 114.534 89.1489C114.975 89.7165 115.455 90.2444 115.896 90.8054C116.725 91.848 117.561 93.0821 117.725 94.4416C117.804 95.0751 117.712 95.7285 117.429 96.3092L117.449 96.3422Z" fill="#0B0016"/>
<path d="M69.1283 16.0746C69.1612 16.6488 68.3518 21.0637 67.4766 19.9418C66.9962 17.9092 66.3974 15.8371 65.101 14.1608C64.0482 12.8608 62.7123 11.7983 61.3041 10.9008C60.4289 10.419 59.4945 10.0032 58.7838 9.28391C58.7246 9.22452 58.6653 9.16513 58.6127 9.09913C58.4482 9.4291 58.2705 9.73927 58.0863 10.0362C54.3288 16.1076 47.1495 15.7645 46.1295 21.5785C45.9255 22.113 44.6621 24.7791 43.8658 23.9476C40.0952 18.3514 37.6473 26.7391 37.9631 15.1441C37.996 10.188 43.1881 3.17293 47.9655 1.77388C52.3678 0.308824 56.2043 0.381415 60.1854 3.40391C60.2578 3.4633 60.3368 3.5161 60.4092 3.57549C60.5276 3.57549 60.6461 3.56889 60.7579 3.56889C66.6672 3.54909 69.7863 10.716 69.1217 16.068L69.1283 16.0746Z" fill="#F49B62"/>
<path d="M61.1132 23.8882C60.9224 23.578 60.7053 23.281 60.4947 22.9841C60.0933 22.4165 59.705 21.8424 59.4484 21.189C59.3036 20.8261 59.2115 20.4499 59.1523 20.0672C59.093 19.691 59.0404 19.3148 58.9285 18.9519C58.8101 18.5889 58.2376 18.7407 58.3494 19.1103C58.5403 19.7108 58.5469 20.3443 58.7311 20.9449C58.9219 21.5718 59.2181 22.1723 59.58 22.7135C59.7642 22.9973 59.9617 23.2678 60.1591 23.545C60.3433 23.809 60.5671 24.0862 60.7053 24.3831C60.929 24.8847 60.6197 25.3532 60.2446 25.6766C59.988 25.901 59.7182 26.1055 59.4089 26.2507C59.2641 26.3167 59.1325 26.3959 58.9943 26.4685C58.8891 26.5279 58.7508 26.6005 58.639 26.6071C58.481 26.6203 58.3428 26.7391 58.3428 26.9041C58.3428 27.0559 58.481 27.2142 58.639 27.201C58.9614 27.1746 59.2378 27.0097 59.5142 26.8579C59.7972 26.7061 60.0669 26.5675 60.3236 26.3695C60.8369 25.9736 61.3304 25.4918 61.3765 24.8055C61.3962 24.4755 61.2843 24.1587 61.1132 23.8882Z" fill="#0B0016"/>
<path d="M106.229 62.8507C106.111 63.3126 105.65 63.5832 105.295 63.8472C104.446 64.4873 103.597 65.1209 102.748 65.7544C102.537 65.9128 102.327 66.0712 102.116 66.2296C101.925 66.3681 101.721 66.5001 101.491 66.5397C101.011 66.6189 100.55 66.3021 100.576 65.7808C100.576 65.662 100.609 65.5432 100.642 65.4244C100.59 65.4706 100.544 65.5234 100.491 65.5696C99.9315 66.1108 99.3656 66.6519 98.8063 67.193C98.3588 67.622 97.7929 68.0576 97.1414 67.8332C96.8519 67.7342 96.615 67.5164 96.536 67.2128C96.4965 67.0545 96.5031 66.8961 96.536 66.7377C96.0556 67.2392 95.2331 68.0708 94.529 67.4306C93.8709 66.8301 94.3578 65.8138 94.6276 65.1473C94.9435 64.3751 95.3186 63.6294 95.7595 62.9233H95.7397C95.4699 62.9101 95.233 62.7517 95.1146 62.5075C94.9106 62.0786 95.0488 61.5836 95.187 61.1613C95.3515 60.6597 95.5687 60.1846 95.8253 59.7226C96.3386 58.8119 96.9901 57.987 97.6415 57.1753C97.9376 56.8057 98.2601 56.4295 98.7076 56.2448C99.1682 56.0534 99.6683 56.1458 100.05 56.4559C100.418 56.7595 100.622 57.2281 100.642 57.7098C100.655 58.0068 100.596 58.3038 100.497 58.5809C100.846 58.5941 101.202 58.7459 101.452 59.0099C101.761 59.3398 101.899 59.749 101.919 60.178C102.333 59.9668 102.84 59.9536 103.274 60.211C103.748 60.4947 103.979 61.0095 103.959 61.511C104.551 61.2998 105.229 61.3196 105.742 61.6958C106.104 61.9598 106.367 62.3755 106.249 62.8375L106.229 62.8507Z" fill="white"/>
<path d="M105.722 61.7089C105.209 61.3327 104.531 61.3129 103.939 61.5241C103.965 61.0225 103.728 60.5078 103.255 60.224C102.82 59.96 102.307 59.9798 101.899 60.191C101.879 59.7687 101.741 59.3529 101.432 59.0229C101.182 58.759 100.833 58.6072 100.484 58.594C100.583 58.3102 100.642 58.0198 100.629 57.7229C100.609 57.2477 100.412 56.7792 100.037 56.4756C99.6552 56.1588 99.1551 56.0664 98.6944 56.2644C98.2469 56.4492 97.9245 56.8254 97.6284 57.1949C96.9769 58.0066 96.3254 58.8316 95.8122 59.7423C95.5555 60.1976 95.3318 60.6794 95.1739 61.1809C95.0357 61.6033 94.8975 62.0982 95.1015 62.5272C95.2199 62.7714 95.4569 62.9297 95.7267 62.9429C95.7332 62.9429 95.7398 62.9429 95.7464 62.9429C95.3055 63.6491 94.9304 64.3948 94.6146 65.1669C94.3448 65.8335 93.8578 66.8497 94.5158 67.4503C95.2134 68.0904 96.0359 67.2589 96.5229 66.7574C96.49 66.9157 96.4768 67.0741 96.5229 67.2325C96.6018 67.5361 96.8387 67.7539 97.1283 67.8528C97.7797 68.0772 98.3523 67.6417 98.7931 67.2127C99.3525 66.6716 99.9184 66.1304 100.478 65.5893C100.53 65.5431 100.576 65.4903 100.629 65.4441C100.596 65.5629 100.57 65.6817 100.563 65.8005C100.544 66.3152 100.998 66.632 101.478 66.5594C101.715 66.5198 101.919 66.3878 102.103 66.2492C102.314 66.0908 102.524 65.9324 102.735 65.7741C103.584 65.1405 104.433 64.5004 105.281 63.8669C105.637 63.6029 106.097 63.3323 106.216 62.8703C106.334 62.4084 106.071 61.9926 105.709 61.7287L105.722 61.7089ZM105.663 62.6526C105.65 62.7978 105.532 62.9099 105.433 62.9957C105.288 63.1211 105.124 63.2333 104.972 63.3521C104.275 63.8735 103.571 64.4014 102.873 64.9227C102.524 65.1801 102.182 65.4441 101.833 65.7015C101.735 65.7741 101.261 66.1502 101.169 65.873C101.123 65.7345 101.234 65.5299 101.294 65.4111C101.386 65.2131 101.491 65.0217 101.596 64.8303C101.82 64.4542 102.077 64.0978 102.36 63.7679C102.61 63.4775 102.215 63.0749 101.939 63.3455C100.938 64.309 99.9447 65.2659 98.9445 66.2294C98.7142 66.4538 98.4838 66.6782 98.247 66.9025C98.0627 67.0741 97.8324 67.2787 97.5692 67.3051C97.4244 67.3249 97.2138 67.2853 97.1283 67.1467C97.0032 66.9553 97.1875 66.632 97.2731 66.4472C97.5889 65.7741 97.9311 65.1141 98.3128 64.474C98.5102 64.1374 98.0035 63.847 97.7995 64.1704C97.3981 64.7974 96.9572 65.3913 96.4571 65.9456C96.2136 66.2162 95.9569 66.4802 95.6937 66.731C95.5358 66.8761 95.2265 67.1665 94.9831 67.0411C94.7198 66.9091 94.779 66.5264 94.8383 66.302C94.937 65.9522 95.0752 65.6025 95.2134 65.2659C95.4766 64.6192 95.799 63.9988 96.1609 63.3983C96.3649 63.0617 96.5821 62.7318 96.8124 62.415C97.1283 62.118 97.3783 61.7551 97.6218 61.3921C97.8061 61.1083 97.3783 60.7718 97.1546 61.0291C96.8782 61.3459 96.615 61.6759 96.3715 62.019C96.2465 62.1312 96.0951 62.2368 95.9372 62.2962C95.8648 62.3226 95.7727 62.3556 95.7003 62.316C95.6806 62.3094 95.6608 62.283 95.6477 62.2434C95.6082 62.151 95.6016 61.9926 95.6213 61.8673C95.6411 61.6891 95.7069 61.5043 95.7661 61.3261C95.8977 60.9169 96.0754 60.521 96.286 60.1448C96.7071 59.3793 97.227 58.6732 97.7666 57.9868C98.0166 57.6701 98.2601 57.3335 98.5628 57.0563C98.7997 56.8386 99.1222 56.667 99.4446 56.7858C99.7605 56.9046 99.9776 57.2477 100.03 57.5777C100.096 58 99.9513 58.4224 99.7539 58.7986C99.6881 58.8448 99.6289 58.891 99.5762 58.9503C99.3393 59.1945 99.6354 59.5509 99.8921 59.4453C99.9908 59.4519 100.096 59.4189 100.162 59.3001C100.175 59.2803 100.188 59.2539 100.201 59.2341C100.497 59.1087 100.866 59.2341 101.07 59.4981C101.425 59.9468 101.353 60.5606 101.182 61.0621C101.07 61.4317 101.636 61.5835 101.761 61.2205C101.912 60.7058 102.511 60.4616 102.972 60.7388C103.459 61.0291 103.492 61.6891 103.09 62.0652C102.82 62.3424 103.228 62.7516 103.511 62.4876C103.926 62.052 104.63 61.8409 105.203 62.0784C105.413 62.1642 105.703 62.382 105.676 62.6394L105.663 62.6526Z" fill="#0B0016"/>
<path d="M17.1359 91.6369C15.2868 92.8643 13.6351 94.3888 12.2663 96.1442C11.8781 96.6392 11.5162 97.1539 11.174 97.6819C10.9634 98.0052 11.4833 98.3088 11.6873 97.9854C12.852 96.1772 14.3063 94.567 15.9777 93.2207C16.4449 92.8445 16.9385 92.4882 17.4386 92.1516C17.7545 91.9404 17.4583 91.4191 17.1359 91.6369Z" fill="white"/>
<path d="M49.1763 52.0343C48.5182 52.6481 47.8273 53.2288 47.1034 53.7766C46.6099 54.1461 46.1097 54.5025 45.5899 54.8325C45.0766 55.1624 44.5633 55.4924 44.0172 55.7564C43.4776 56.0137 42.8853 56.2249 42.2799 56.2051C41.714 56.1853 41.1744 55.9412 40.7993 55.5122C40.444 55.1096 40.2334 54.6147 40.0623 54.1197C39.8517 53.506 39.6674 52.8857 39.4766 52.2719C39.2002 51.4008 38.9239 50.5297 38.6541 49.6586C38.8054 49.4738 38.9568 49.289 39.1081 49.1108C39.4569 50.2129 39.8056 51.3216 40.1544 52.4237C40.3321 52.9913 40.4966 53.572 40.7072 54.1263C40.8651 54.5487 41.0691 54.971 41.4113 55.268C42.2602 56.0137 43.5039 55.4 44.3199 54.9249C45.9452 53.9812 47.4588 52.8527 48.8275 51.5658C48.9525 51.7242 49.071 51.8826 49.196 52.0409L49.1763 52.0343Z" fill="white"/>
<path d="M62.0806 52.1135C61.9622 52.3312 61.8437 52.549 61.7187 52.7668C61.4949 53.1562 61.2778 53.5587 61.008 53.9151C60.7579 54.245 60.4618 54.5684 60.0735 54.7334C59.6261 54.9248 59.1457 54.9116 58.6982 54.7268C58.2442 54.542 57.8559 54.2516 57.4611 53.9679C57.0465 53.6643 56.6386 53.3541 56.2371 53.0374C55.8423 52.7206 55.4475 52.3906 55.0658 52.0541C55.1645 51.8759 55.2698 51.7043 55.3685 51.5261C55.8357 51.9419 56.3161 52.3444 56.8096 52.7338C57.1781 53.0242 57.5532 53.3079 57.9415 53.5785C58.2902 53.8293 58.6522 54.1065 59.0733 54.2252C59.4353 54.3308 59.784 54.2648 60.0867 54.0339C60.3697 53.8161 60.5802 53.5059 60.7711 53.2024C61.0474 52.7536 61.3173 52.285 61.5673 51.8165C61.7318 51.9221 61.9095 52.0145 62.0806 52.1135Z" fill="white"/>
<path d="M60.7908 3.46993C60.7842 3.50293 60.7711 3.53592 60.7645 3.56892C60.317 5.08677 59.5076 6.47263 59.0733 7.99707C58.9549 8.41943 58.8562 8.84838 58.7904 9.28394C58.7311 9.22455 58.6719 9.16515 58.6193 9.09916C58.4548 9.42913 58.2771 9.7393 58.0928 10.0363C58.1652 9.25754 58.31 8.48542 58.5337 7.7331C58.7772 6.89498 59.126 6.09646 59.4747 5.29795C59.7379 4.69081 60.0012 4.05727 60.192 3.40394C60.2052 3.37094 60.2117 3.33134 60.2249 3.29175C60.2907 3.38414 60.3565 3.47653 60.4157 3.57552C60.4947 3.54912 60.5737 3.52272 60.6592 3.50293C60.7053 3.48973 60.7513 3.47653 60.7974 3.46993H60.7908Z" fill="white"/>
<path d="M53.4141 9.04629C53.3154 9.29047 53.2101 9.53464 53.0851 9.76562C52.098 11.62 50.2621 12.8607 48.4129 13.745C46.3796 14.7151 44.1883 15.3025 42.2075 16.3847C41.26 16.9061 40.3913 17.533 39.6543 18.325C39.0094 19.0179 38.4698 19.8098 38.0092 20.6413C37.0484 22.3571 36.3904 24.2116 35.6271 26.0132C35.298 26.7919 34.9427 27.564 34.5347 28.3031C34.5808 28.0656 34.6137 27.8214 34.6334 27.5706C34.6531 27.3066 34.5018 27.333 34.2649 27.5508C34.686 26.7259 35.048 25.868 35.3967 25.0167C36.1403 23.2151 36.8313 21.3606 37.8644 19.6976C38.3777 18.8793 38.9699 18.1072 39.6741 17.4472C40.4835 16.6817 41.431 16.0812 42.4247 15.5862C44.4186 14.5897 46.5901 14.009 48.5774 12.9861C50.341 12.082 52.0783 10.7951 52.8284 8.88131C52.8877 8.72952 53.0258 8.62393 53.1969 8.67013C53.3417 8.70973 53.4667 8.88791 53.4075 9.03969L53.4141 9.04629Z" fill="#0B0016"/>
<path d="M55.5396 7.99699C55.3751 7.9508 55.2237 8.04979 55.1711 8.20817C54.3814 10.4717 52.835 12.4581 50.8608 13.7978C50.2883 14.1872 49.6764 14.5237 49.0446 14.8009C48.8999 14.8669 48.8604 15.0847 48.9393 15.2101C49.0315 15.3618 49.2026 15.3816 49.3473 15.3157C51.6571 14.306 53.6115 12.5175 54.8618 10.3266C55.2171 9.69962 55.5133 9.04628 55.7502 8.36655C55.8028 8.21477 55.6909 8.03659 55.5396 7.99699Z" fill="#0B0016"/>
<path d="M37.7263 43.1121C37.4762 43.5872 37.2196 44.0624 36.9432 44.5243C36.4628 45.3294 35.9364 46.1082 35.3704 46.8539C35.2388 46.8803 35.1072 46.9067 34.969 46.9331C34.8111 46.9661 34.6532 46.9925 34.4886 47.0189C35.5284 45.7122 36.4365 44.2933 37.2064 42.8085C37.3841 42.4653 37.8973 42.7689 37.7197 43.1121H37.7263Z" fill="#0B0016"/>
<path d="M40.2663 32.0647C40.0425 33.7409 39.6411 35.3973 39.0752 36.9944C38.0618 39.8717 36.5351 42.551 34.6005 44.907C33.9622 45.6857 33.2778 46.4248 32.5539 47.1178C32.3039 47.098 32.0538 47.0584 31.8038 46.999C33.8635 45.0918 35.5941 42.8348 36.9234 40.36C38.3382 37.7335 39.2858 34.8628 39.6872 31.8997C39.7069 31.7347 39.9175 31.6489 40.0557 31.6885C40.2268 31.7347 40.286 31.8997 40.2663 32.0581V32.0647Z" fill="#0B0016"/>
<path d="M83.5527 86.8326C83.0987 88.6606 82.1708 90.3369 81.2627 91.9603C80.3283 93.6167 79.3412 95.2468 78.2883 96.8306C77.242 98.421 76.1365 99.9719 74.9717 101.477C73.8465 102.942 72.6818 104.407 71.4183 105.753C70.2141 107.04 68.8387 108.247 67.2134 108.98C65.6275 109.693 63.7981 109.996 62.1003 109.508C60.6592 109.099 59.4813 108.129 58.639 106.901C57.8098 105.693 57.29 104.288 56.882 102.889C56.4082 101.252 56.0528 99.5825 55.6778 97.9261C55.2303 95.9595 54.8421 93.9665 54.7631 91.9471C54.6973 90.2313 54.8684 88.489 55.3948 86.8524C55.9015 85.2686 56.7504 83.7573 57.9941 82.6288C59.1457 81.5861 60.6066 80.8338 62.153 80.616C63.6994 80.3983 65.2853 80.7216 66.5619 81.6389C67.7859 82.5166 68.694 83.8299 69.023 85.3016C69.1085 85.0904 69.2007 84.8726 69.2994 84.668C69.9574 83.269 70.8655 81.9623 72.0303 80.9328C73.1358 79.9561 74.4848 79.1972 75.9456 78.9464C77.2946 78.7154 78.716 78.8606 79.9861 79.3754C81.2298 79.8769 82.3485 80.7216 83.046 81.8897C83.9344 83.3812 83.9673 85.1762 83.5527 86.8194V86.8326Z" fill="white"/>
<path d="M77.4592 75.9305C75.6693 75.9767 73.8794 75.8051 72.129 75.4289C70.3851 75.0593 68.6808 74.4984 67.062 73.7593C65.4235 73.0136 63.8573 72.0897 62.4096 71.014C60.9751 69.9515 59.659 68.7306 58.4876 67.3843C57.3097 66.0315 56.2898 64.5466 55.4541 62.9628C55.3488 62.7648 55.25 62.5668 55.1513 62.3688C55.079 62.2236 54.875 62.1841 54.7433 62.2632C54.5986 62.349 54.5657 62.5272 54.6381 62.6724C55.4475 64.3222 56.4543 65.8665 57.6256 67.2919C58.7838 68.7042 60.0999 69.9779 61.541 71.1064C62.9821 72.2348 64.5351 73.2115 66.1868 74.0167C67.8385 74.8218 69.5692 75.4487 71.3525 75.8843C73.1358 76.3132 74.9652 76.5442 76.8011 76.5508C77.0249 76.5508 77.242 76.5508 77.4658 76.5442C77.8475 76.5376 77.854 75.9371 77.4658 75.9437L77.4592 75.9305Z" fill="#0B0016"/>
<path d="M41.5429 74.1949C41.3981 74.1553 41.2073 74.2411 41.1744 74.4061C40.5953 77.5605 40.365 80.781 40.4966 83.9883C40.5361 84.899 40.6019 85.8097 40.7006 86.7138C40.7203 86.8722 40.8256 87.0108 40.9967 87.0108C41.1481 87.0108 41.3126 86.8722 41.2928 86.7138C40.9572 83.5527 40.9704 80.3521 41.3455 77.191C41.4508 76.3133 41.5824 75.4355 41.7469 74.5644C41.7732 74.406 41.7008 74.2411 41.5363 74.1949H41.5429Z" fill="#0B0016"/>
<path d="M91.9165 70.2154C91.8112 70.1098 91.6006 70.09 91.4953 70.2154C89.7252 72.3338 87.4155 73.9837 84.8425 74.9604C84.1055 75.2375 83.3553 75.4619 82.5854 75.6335C82.2103 75.7193 82.3682 76.2934 82.7433 76.2142C85.5203 75.6005 88.1196 74.2608 90.2451 72.3668C90.8439 71.8323 91.4032 71.2581 91.9165 70.6378C92.0218 70.5124 92.035 70.3342 91.9165 70.2154Z" fill="#0B0016"/>
<path d="M63.9231 119.222C62.3899 117.407 60.9093 115.546 59.501 113.633C58.0862 111.712 56.7307 109.752 55.4475 107.746C54.717 106.611 54.0129 105.463 53.3286 104.301C53.1311 103.971 52.6179 104.268 52.8153 104.605C54.0327 106.677 55.3224 108.703 56.678 110.689C58.0336 112.682 59.4616 114.622 60.9487 116.516C61.7845 117.579 62.6334 118.622 63.5086 119.651C63.6138 119.777 63.8244 119.757 63.9297 119.651C64.0548 119.526 64.035 119.354 63.9297 119.229L63.9231 119.222Z" fill="#0B0016"/>
</svg>
