<svg width="124" height="153" viewBox="0 0 124 153" fill="none" xmlns="http://www.w3.org/2000/svg">
<path d="M116.649 53.5421C116.649 53.6741 116.649 53.7995 116.649 53.9315C116.649 54.0239 116.649 54.1229 116.649 54.2153C116.649 54.7036 116.636 55.192 116.63 55.6803C116.61 56.7164 116.597 57.7525 116.57 58.7886C116.564 59.1912 116.551 59.5937 116.544 60.0029C116.498 62.0751 116.445 64.1473 116.38 66.2194C116.353 67.1302 116.32 68.0343 116.294 68.945C116.294 69.077 116.287 69.2023 116.281 69.3343C116.268 69.8029 116.248 70.2714 116.235 70.74C116.235 70.7862 116.235 70.839 116.235 70.8852C116.162 73.063 116.077 75.2473 115.991 77.4251C115.939 78.8308 115.879 80.2364 115.82 81.6487C115.781 82.6254 115.741 83.6021 115.695 84.5788C115.695 84.7108 115.689 84.8362 115.682 84.9682C115.675 85.1199 115.669 85.2717 115.662 85.4235C115.616 86.4728 115.577 87.5155 115.531 88.5648C115.504 89.1917 115.478 89.8253 115.452 90.4588C115.386 92.0426 115.32 93.6265 115.254 95.2037C115.254 95.2499 115.254 95.2961 115.254 95.3423C115.254 95.4479 115.248 95.5601 115.241 95.6723C115.221 96.1738 115.202 96.6754 115.182 97.1769C115.182 97.3089 115.169 97.4343 115.162 97.5663C115.09 99.3613 115.024 101.15 114.952 102.945C114.952 103.077 114.945 103.202 114.938 103.334C114.754 108.488 114.596 113.642 114.504 118.796C114.504 118.922 114.504 119.047 114.498 119.179C114.484 120.123 114.465 121.073 114.458 122.017C114.458 122.248 114.458 122.472 114.451 122.703C114.451 122.822 114.451 122.934 114.451 123.053C114.451 123.185 114.451 123.317 114.451 123.449C114.451 123.541 114.451 123.64 114.451 123.733C114.451 124.003 114.451 124.28 114.445 124.551C114.419 125.006 114.399 125.462 114.379 125.917C114.379 126.042 114.366 126.161 114.366 126.287C114.313 127.507 114.274 128.728 114.221 129.949C114.208 130.325 114.188 130.708 114.175 131.084C114.109 132.629 114.037 134.173 113.918 135.71C113.918 135.803 113.918 135.902 113.918 135.994C113.918 136.12 113.918 136.252 113.905 136.377C113.886 137.03 113.859 137.657 113.82 138.258C113.807 138.443 113.793 138.621 113.78 138.799C113.767 138.937 113.76 139.069 113.747 139.208C113.649 140.363 113.504 141.412 113.313 142.376C113.287 142.521 113.26 142.66 113.227 142.791C112.721 145.134 111.938 146.923 110.826 148.282C109.24 150.222 106.989 151.305 103.949 151.918C102.666 152.176 101.251 152.354 99.6783 152.479C99.4545 152.499 99.2374 152.512 99.007 152.532C97.6975 152.618 96.2959 152.677 94.7889 152.723C89.643 152.816 84.5169 152.875 79.4038 152.902C79.2722 152.902 79.1405 152.902 79.0155 152.902C78.976 152.902 78.93 152.902 78.8905 152.902C78.2785 152.902 77.6665 152.908 77.0611 152.915C75.6463 152.915 74.2316 152.928 72.8233 152.928C69.3686 152.935 65.9204 152.935 62.4788 152.928C62.0247 152.928 61.5707 152.928 61.1166 152.928C59.3662 152.928 57.6092 152.915 55.8588 152.908C54.5164 152.908 53.1806 152.895 51.8382 152.888C51.5026 152.888 51.1735 152.888 50.8379 152.888C50.7195 152.888 50.601 152.888 50.4891 152.888C50.3707 152.888 50.2522 152.888 50.1338 152.888C49.6337 152.888 49.1336 152.882 48.6335 152.882C48.2189 152.882 47.8043 152.882 47.3898 152.875C47.1792 152.875 46.9686 152.875 46.758 152.875C46.2579 152.875 45.7512 152.875 45.2511 152.869C45.1327 152.869 45.0076 152.869 44.8891 152.869C44.7181 152.869 44.5469 152.869 44.3758 152.869C43.448 152.869 42.5202 152.855 41.5923 152.849C38.1836 152.822 34.7749 152.796 31.3728 152.776C31.182 152.776 30.9911 152.776 30.8069 152.776C30.445 152.776 30.0765 152.776 29.7146 152.776C29.6751 152.776 29.6356 152.776 29.5961 152.776C29.2605 152.776 28.9249 152.776 28.5893 152.77C25.253 152.75 21.9167 152.73 18.5738 152.717C18.4619 152.717 18.3501 152.717 18.2448 152.717C16.6655 152.684 15.2178 152.598 13.8885 152.446C13.2436 152.374 12.6251 152.288 12.0328 152.189C11.6775 152.13 11.3287 152.064 10.9865 151.998C10.8285 151.965 10.664 151.932 10.5061 151.892C8.99261 151.549 7.68968 151.1 6.56441 150.559C5.93269 150.249 5.35359 149.912 4.82716 149.543C3.70189 148.744 2.82014 147.807 2.14235 146.731C1.80016 146.197 1.51064 145.623 1.26058 145.015C0.92498 144.191 0.6683 143.306 0.477466 142.363C0.451144 142.217 0.418244 142.072 0.398503 141.927C-0.0160676 139.564 -0.0489378 136.839 0.102413 133.783C0.102413 133.651 0.115513 133.513 0.122094 133.381C0.21422 131.625 0.365575 129.764 0.536667 127.804C0.56957 127.415 0.602488 127.019 0.635391 126.63C0.648552 126.498 0.655164 126.366 0.668325 126.227C0.924964 123.066 1.14865 119.997 1.35264 117.021C1.35264 116.995 1.35264 116.962 1.35264 116.935C1.35922 116.803 1.37241 116.678 1.37899 116.546C1.68169 112.039 1.93177 107.742 2.13576 103.644C2.13576 103.512 2.14894 103.38 2.15552 103.248C2.17526 102.839 2.19498 102.43 2.21472 102.027C2.22788 101.77 2.241 101.519 2.25416 101.269C2.27391 100.807 2.30029 100.351 2.32003 99.8892C2.33977 99.4735 2.35949 99.0643 2.37924 98.6618C2.37924 98.5298 2.39242 98.4044 2.399 98.2724C2.49112 96.2266 2.57009 94.2402 2.64247 92.3C2.70828 90.5446 2.76751 88.8288 2.82016 87.1591C2.8728 85.5819 2.91884 84.0442 2.95832 82.5462C2.97148 82.1568 2.97801 81.7741 2.99117 81.3979C2.99117 81.3055 2.99118 81.2197 2.99776 81.1273C3.03724 79.7613 3.07017 78.4216 3.10307 77.1149C3.11623 76.5804 3.12943 76.0459 3.14259 75.5245C3.14259 75.5047 3.14259 75.4849 3.14259 75.4651C3.14259 75.4519 3.14259 75.4321 3.14259 75.4189C3.14259 75.1747 3.15569 74.9372 3.16227 74.6996C3.16885 74.396 3.17545 74.0925 3.18203 73.7889C3.1952 73.2015 3.2084 72.6208 3.22814 72.0467C3.24788 71.2085 3.27419 70.3902 3.29393 69.5851C3.30051 69.3409 3.30711 69.0968 3.31369 68.8526C3.36634 66.9256 3.41897 65.0778 3.47162 63.3091C3.49136 62.801 3.50449 62.306 3.52423 61.8111C3.6032 59.4815 3.70187 57.284 3.82032 55.2184C3.86639 54.3274 3.92561 53.4629 3.98483 52.6182C4.00458 52.3344 4.02438 52.0507 4.04412 51.7735C4.09018 51.1994 4.13622 50.6384 4.18228 50.0841C4.3797 47.8469 4.62318 45.7879 4.92588 43.8939C6.97899 31.1308 11.8946 25.7721 25.1148 23.8187C25.2464 23.7989 25.378 23.7791 25.5097 23.7593C27.5167 23.4756 29.708 23.271 32.1033 23.1258C32.2349 23.1192 32.3599 23.106 32.4915 23.0994C33.064 23.0664 33.6497 23.04 34.2485 23.0136C34.9197 22.9806 35.6106 22.9608 36.3148 22.9344C36.8346 22.9212 37.3677 22.908 37.9007 22.8948C38.4205 22.8816 38.9404 22.875 39.4734 22.8684C41.2238 22.842 43.0598 22.842 44.9879 22.8486C45.1195 22.8486 45.2445 22.8486 45.3761 22.8486C46.0012 22.8486 46.633 22.8618 47.2779 22.8684C49.4034 22.8948 51.6342 22.9344 53.9702 22.9872C54.1413 22.9872 54.3059 22.9938 54.477 23.0004C55.8654 23.0334 57.2933 23.073 58.7674 23.1126C58.899 23.1126 59.0241 23.1192 59.1557 23.1258C60.7021 23.172 62.288 23.2182 63.9199 23.2644C65.4729 23.3106 67.0654 23.3634 68.6974 23.4162C69.8621 23.4558 71.0465 23.4954 72.2574 23.5284C72.389 23.5284 72.5141 23.535 72.6457 23.5416C76.6269 23.6736 80.8318 23.8055 85.2933 23.9375C85.4249 23.9375 85.5499 23.9441 85.6816 23.9507C86.3923 23.9705 87.1095 23.9903 87.8334 24.0101C88.0045 24.0101 88.169 24.0167 88.3401 24.0233C91.8278 24.1223 95.4536 24.2147 99.2373 24.3005C99.3689 24.3005 99.494 24.3005 99.6256 24.3071C100.29 24.3203 100.955 24.3401 101.633 24.3533C105.252 24.3269 109.839 25.2178 112.991 27.4616C113.116 27.554 113.241 27.6464 113.366 27.7387C115.498 29.3886 116.867 31.7181 116.663 34.8726C116.557 36.0209 116.544 37.1758 116.57 38.3307C116.57 38.4627 116.57 38.588 116.577 38.72C116.597 39.4592 116.63 40.2049 116.663 40.944C116.669 41.1816 116.682 41.4258 116.695 41.6633C116.695 41.8877 116.695 42.1187 116.702 42.3431C116.748 46.0849 116.741 49.8333 116.702 53.5751L116.649 53.5421Z" fill="#336137"/>
<path d="M64.9136 109.557C66.6837 108.469 68.7829 107.894 70.9676 107.894C72.3758 107.894 73.7643 108.132 75.0738 108.581C76.1464 105.901 77.4494 103.031 79.2261 100.444C81.6148 96.9527 84.5102 94.4318 87.8465 92.9535C89.9918 92.0032 92.2488 91.5016 94.3809 91.5016C96.0919 91.5016 97.7173 91.8184 99.2045 92.4454C101.731 93.5012 103.85 95.5734 105.133 98.0746C107.483 95.5734 110.207 93.3956 113.148 91.6864C113.833 91.2839 114.603 90.8681 115.432 90.4589C115.458 89.832 115.485 89.1985 115.511 88.5649C114.32 89.1193 113.247 89.6868 112.306 90.2346C109.832 91.6732 107.529 93.4089 105.43 95.3953C103.962 93.3957 102.008 91.8052 99.8362 90.9011C98.1384 90.1884 96.3025 89.832 94.3678 89.832C92.0054 89.832 89.5114 90.3864 87.1622 91.429C83.5429 93.0327 80.404 95.7516 77.8442 99.5C76.2122 101.882 75.008 104.41 74.0933 106.568C73.0733 106.337 72.027 106.225 70.9676 106.225C68.4736 106.225 66.0783 106.885 64.0383 108.139C60.4059 110.376 58.3199 114.144 58.6094 117.985C58.7081 119.311 59.0438 120.605 59.6163 121.839C59.6886 122.057 59.761 122.261 59.8466 122.459C61.1627 125.686 64.0186 128.088 67.6839 129.052C69.1514 129.441 70.7439 129.633 72.5469 129.633C74.0012 129.633 75.4095 129.514 76.8506 129.382C80.1342 129.072 83.4113 128.722 86.5897 128.333C93.1307 127.527 99.6914 126.531 106.081 125.363C108.851 124.855 111.628 124.314 114.412 123.726C114.412 123.634 114.412 123.535 114.412 123.442C114.412 123.31 114.412 123.178 114.412 123.046C114.412 122.928 114.412 122.815 114.412 122.697C114.412 122.466 114.412 122.241 114.419 122.01C111.536 122.618 108.647 123.185 105.772 123.713C99.4216 124.874 92.9004 125.871 86.3791 126.669C83.1876 127.059 79.9237 127.415 76.6861 127.719C75.2844 127.851 73.9222 127.963 72.5403 127.963C70.8821 127.963 69.4278 127.791 68.1051 127.442C64.953 126.61 62.4985 124.564 61.3864 121.832C61.3075 121.641 61.235 121.443 61.1627 121.225C60.6494 120.149 60.3467 119.021 60.2611 117.866C60.0242 114.659 61.801 111.478 64.9004 109.571L64.9136 109.557Z" fill="white"/>
<path d="M42.2372 53.1529C41.1053 50.9883 39.3023 49.2131 37.0189 48.0054C34.9723 46.9231 32.577 46.316 30.1028 46.25C29.9119 46.25 29.7277 46.2434 29.5369 46.2434C24.2527 46.2434 19.7319 48.2298 16.8694 49.8994C14.4939 51.2853 12.2959 53.0407 10.4008 55.0601C9.36763 53.0407 7.65019 51.3711 5.61682 50.5198C5.13645 50.3218 4.64291 50.1568 4.12963 50.038C4.08357 50.5924 4.03745 51.1533 3.99138 51.7275C4.32699 51.8198 4.64943 51.932 4.97187 52.064C7.5251 53.1331 9.40053 55.7332 9.73613 58.439C11.888 55.5749 14.6123 53.1529 17.7052 51.3513C21.3968 49.1999 25.753 47.814 30.0567 47.9328C34.3537 48.0516 38.6969 49.9852 40.7565 53.9448C41.7041 55.7662 42.02 57.812 41.5989 59.8248C41.1646 61.8904 39.9867 63.7712 38.5127 65.2495C35.1895 68.5756 30.4318 69.737 26.0228 70.8193C20.923 72.0666 15.7902 73.1687 10.6312 74.1124C8.12399 74.5743 5.61677 74.9901 3.09645 75.3795C3.09645 75.3927 3.09645 75.4125 3.09645 75.4257C3.09645 75.4455 3.09645 75.4653 3.09645 75.485C3.08329 76.013 3.07017 76.5409 3.05701 77.0755C5.70894 76.6729 8.34112 76.2308 10.9338 75.7556C16.0995 74.8119 21.3113 73.6966 26.4243 72.4428H26.4506C30.9516 71.3341 36.0581 70.0802 39.7037 66.4308C40.9935 65.1439 42.6517 63.0057 43.244 60.168C43.7441 57.7922 43.4019 55.3703 42.2503 53.1661L42.2372 53.1529Z" fill="white"/>
<path d="M59.5965 96.2334C58.4251 97.3288 56.9051 97.9426 55.3521 98.2594C54.523 98.4243 53.6806 98.5233 52.8383 98.5893C52.0355 98.6487 51.1866 98.5893 50.3904 98.7213C50.3246 98.7345 50.2653 98.7477 50.2061 98.7675C50.4101 98.8467 50.6207 98.9259 50.8247 99.0117C52.687 99.764 54.5032 100.615 56.2734 101.572C57.0433 101.988 58.0632 102.404 58.5502 103.169C59.0174 103.908 58.9055 104.819 58.3659 105.486C57.7868 106.212 56.8788 106.449 56.0036 106.581C55.0494 106.72 54.0821 106.766 53.1213 106.68C51.4564 106.535 49.8508 106.08 48.3636 105.327C48.0412 105.677 47.6924 106 47.3042 106.284C47.6135 106.416 47.9227 106.548 48.232 106.687C49.3572 107.168 50.522 107.604 51.6078 108.178C53.5095 109.188 54.3979 111.016 55.306 112.87C55.8061 113.887 56.2865 114.923 56.7076 115.972C57.0367 116.803 57.1946 117.8 56.5958 118.552C55.4047 120.044 52.812 119.404 51.4696 118.5C50.6997 117.978 50.0877 117.312 49.5942 116.566C49.5942 116.586 49.5942 116.605 49.5942 116.632C49.7126 118.216 49.9956 119.892 49.8113 121.476C49.6468 122.928 48.8834 124.538 47.2515 124.683C46.2249 124.775 45.409 124.281 44.7378 123.614C44.1718 125.468 44.185 127.534 43.8428 129.408C43.4414 131.573 42.836 133.691 42.1319 135.777C41.4344 137.842 40.7039 139.908 39.809 141.894C38.3152 145.214 35.9067 147.867 32.6099 149.325C32.3467 150.031 32.0769 150.731 31.8137 151.43C31.6492 151.866 31.4847 152.301 31.3136 152.73C31.1227 152.73 30.9319 152.73 30.7477 152.73C30.3857 152.73 30.0172 152.73 29.6553 152.73C29.6158 152.73 29.5763 152.73 29.5369 152.73C29.2013 152.73 28.8656 152.73 28.53 152.724C25.1937 152.704 21.8574 152.684 18.5146 152.671C18.4027 152.671 18.2908 152.671 18.1855 152.671C16.6062 152.638 15.1585 152.552 13.8293 152.4C13.1844 152.328 12.5658 152.242 11.9735 152.143C13.6581 149.734 15.3428 147.325 17.0274 144.917L17.0997 143.267C17.2379 140.079 17.3827 136.892 17.5209 133.698C17.5867 132.173 17.6525 130.649 17.7183 129.131C17.8959 125.132 18.0671 121.133 18.2447 117.133C18.3369 114.962 18.429 112.784 18.5277 110.613C18.5738 109.637 18.6856 108.686 19.1594 107.815C19.574 107.056 20.1925 106.423 20.844 105.862C23.9829 103.156 27.418 100.767 30.774 98.3451C32.4323 97.1507 34.0708 95.7912 35.9463 94.9597C37.5058 94.2668 39.1904 93.9038 40.8619 93.5936C41.1711 93.5342 41.487 93.4814 41.7963 93.422C42.3425 93.3231 42.8821 93.2241 43.4283 93.1383C43.7375 93.0855 44.0468 93.0393 44.3561 92.9931C44.9221 92.9073 45.4814 92.8215 46.0473 92.7489C48.8111 92.3727 51.6012 92.1352 54.3914 92.023C55.4311 91.9834 56.4708 91.9636 57.5039 91.957C58.3725 91.957 59.5176 91.7722 60.2348 92.3728C61.5444 93.4616 60.5375 95.3424 59.5636 96.2466L59.5965 96.2334Z" fill="white"/>
<path d="M38.0322 95.9561C38.4205 95.8373 38.8153 95.7317 39.2102 95.6328C40.059 95.4216 40.9277 95.25 41.7897 95.0916C41.8226 95.0454 41.8621 95.0058 41.9016 94.9596C42.224 94.5769 42.5531 94.2007 42.8821 93.8245C42.9874 93.7057 43.2111 93.389 43.4611 93.1184C42.915 93.2108 42.3688 93.3032 41.8292 93.4022C41.5199 93.4616 41.2041 93.5144 40.8948 93.5738C39.2168 93.8905 37.5321 94.2469 35.9791 94.9398C34.1037 95.7713 32.4652 97.1308 30.8069 98.3253C27.4508 100.747 24.0158 103.143 20.8769 105.842C20.2255 106.403 19.607 107.036 19.1924 107.795C18.7186 108.666 18.6067 109.617 18.5606 110.593C18.4553 112.765 18.3698 114.942 18.2777 117.114C18.1 121.113 17.9289 125.112 17.7512 129.111C17.6854 130.636 17.6196 132.16 17.5538 133.678C17.4156 136.865 17.2709 140.053 17.1327 143.247L17.0602 144.897C15.3756 147.306 13.6911 149.714 12.0065 152.123C12.5987 152.222 13.2107 152.308 13.8621 152.38C15.0466 150.684 16.2311 148.995 17.4156 147.299C17.4617 147.233 17.5078 147.174 17.5473 147.108C17.9355 146.553 18.3171 146.005 18.7054 145.451C18.7514 144.415 18.7975 143.386 18.8436 142.349C19.0344 138.06 19.2187 133.77 19.4095 129.481C19.4687 128.207 19.5214 126.933 19.5806 125.66C19.6398 124.393 19.6925 123.126 19.7451 121.858L20.0149 115.682L20.1531 112.593C20.1992 111.623 20.1597 110.613 20.3176 109.65C20.594 107.901 22.272 106.832 23.5618 105.816C25.1279 104.575 26.7204 103.38 28.326 102.192C29.9251 101.011 31.5439 99.8497 33.1562 98.6882C34.7026 97.5795 36.216 96.4973 38.0586 95.9429L38.0322 95.9561Z" fill="#336137"/>
<path d="M60.2677 92.353C59.5438 91.7524 58.4054 91.9372 57.5368 91.9372C56.4971 91.9372 55.4574 91.9636 54.4242 92.0032C51.6341 92.1088 48.8506 92.353 46.0802 92.7291C45.5143 92.8017 44.9483 92.8875 44.389 92.9733C44.4416 93.1053 44.4746 93.2439 44.4943 93.3165C44.5996 93.7388 44.5996 94.1942 44.5601 94.6297C45.1194 94.544 45.6854 94.4582 46.2447 94.3856C47.3963 94.2272 48.5479 94.0952 49.7061 93.9896C51.7 93.8048 53.6938 93.686 55.6943 93.6398C56.6945 93.6134 57.6947 93.6068 58.6949 93.62C58.8989 93.62 59.149 93.5607 59.2148 93.7058C59.3004 93.8906 59.0832 94.2734 58.9845 94.4186C58.2409 95.5932 56.7077 96.207 55.4245 96.5237C53.9307 96.8933 52.4106 96.9329 50.8839 96.9989C49.989 97.0385 49.1993 97.2299 48.5084 97.8304C48.4294 97.903 48.3504 97.969 48.2715 98.0416C47.7911 98.4772 47.3371 98.9325 46.7975 99.3153C46.7514 99.3483 46.7054 99.3813 46.6527 99.4143C45.9552 99.863 45.2445 100.18 44.5075 100.411C43.8626 100.609 43.2045 100.741 42.5136 100.84C42.2503 101.44 41.9674 102.028 41.6778 102.615C42.2898 102.503 42.9413 102.503 43.5336 102.404C43.5665 102.404 43.6059 102.391 43.6388 102.384C44.5008 102.232 45.3366 101.955 46.1394 101.592C46.9422 101.229 47.6858 100.761 48.3768 100.213C48.4755 100.134 48.5742 100.048 48.6663 99.9554C51.0616 100.833 53.3846 101.882 55.6285 103.11C56.0233 103.328 57.6224 103.915 57.017 104.502C56.4247 105.076 55.0099 105.037 54.2531 105.043C52.2592 105.063 50.318 104.535 48.5939 103.545C48.1662 103.301 47.7253 103.479 47.4489 103.842C46.9225 104.535 46.2052 105.103 45.409 105.459C45.33 105.499 45.2445 105.532 45.1655 105.565C44.5733 105.796 43.935 105.855 43.3427 106.047C43.0005 106.159 42.6715 106.317 42.382 106.575C41.5068 107.366 40.7961 108.449 40.0525 109.359C40.013 109.412 39.9669 109.458 39.9274 109.511C39.2299 110.356 38.539 111.201 37.8414 112.045C37.8085 112.521 37.7888 112.989 37.7822 113.464C38.0784 113.748 38.5323 113.827 38.8679 113.418C39.0785 113.161 39.2891 112.91 39.4931 112.653C40.0985 111.92 40.7039 111.187 41.3028 110.448C41.6976 109.967 42.0924 109.491 42.4872 109.01C42.836 108.587 43.2111 107.921 43.7047 107.67C44.1061 107.465 44.6391 107.465 45.08 107.347C45.1853 107.32 45.2905 107.287 45.3958 107.248C47.0212 107.934 48.6466 108.614 50.2456 109.353C51.1472 109.775 51.9171 110.264 52.4764 111.108C53.095 112.052 53.582 113.095 54.0689 114.111C54.319 114.626 54.5559 115.154 54.7928 115.675C54.9902 116.124 55.2994 116.652 55.3389 117.153C55.4047 117.991 53.957 117.734 53.4635 117.595C51.5025 117.028 50.4825 115.048 49.8508 113.26C49.7587 112.989 49.5612 112.785 49.3112 112.692C49.1664 112.639 48.9953 112.626 48.8242 112.672C48.436 112.778 48.0412 112.831 47.653 112.831C46.7843 112.837 45.9354 112.606 45.1655 112.144C44.8431 111.953 44.4153 112.019 44.1521 112.276C42.9676 113.438 41.6844 114.487 40.3091 115.411C39.4207 116.005 40.2565 117.457 41.1514 116.856C42.4741 115.965 43.7244 114.975 44.8825 113.887C45.7906 114.316 46.7777 114.52 47.7714 114.494C47.8898 116.124 48.0149 117.76 48.1333 119.39C48.2057 120.42 48.3833 121.799 47.6726 122.67C46.8435 123.693 45.6788 122.208 45.205 121.568C45.1523 121.502 45.0931 121.436 45.0273 121.383C44.843 120.407 44.7048 119.423 44.6259 118.434C44.5403 117.364 42.8689 117.358 42.9545 118.434C43.0532 119.694 43.2308 120.954 43.4875 122.195C42.8294 123.858 42.7044 125.627 42.4806 127.402C42.2108 129.507 41.6975 131.579 41.079 133.605C40.4736 135.585 39.7695 137.539 39.0193 139.466C38.3086 141.294 37.4795 143.141 36.1963 144.639C35.4132 145.55 34.5051 146.336 33.4917 146.969C32.8074 147.398 32.0769 147.754 31.3136 148.032L30.7937 149.404C30.3791 150.5 29.958 151.602 29.5369 152.697C29.5763 152.697 29.6158 152.697 29.6553 152.697C30.0172 152.697 30.3857 152.697 30.7477 152.697C30.9385 152.697 31.1293 152.697 31.3136 152.697C31.4781 152.262 31.6492 151.826 31.8137 151.397C32.0769 150.698 32.3467 149.992 32.6099 149.292C35.9067 147.834 38.3086 145.187 39.809 141.861C40.7039 139.875 41.4344 137.809 42.1319 135.744C42.836 133.658 43.448 131.54 43.8428 129.375C44.185 127.494 44.1718 125.429 44.7378 123.581C45.4156 124.254 46.2249 124.743 47.2515 124.65C48.8769 124.505 49.6402 122.895 49.8113 121.443C49.989 119.859 49.706 118.183 49.5942 116.599C49.5942 116.579 49.5942 116.559 49.5942 116.533C50.0877 117.285 50.6997 117.952 51.4696 118.467C52.8054 119.371 55.4047 120.011 56.5958 118.519C57.1946 117.767 57.0432 116.771 56.7076 115.939C56.2865 114.883 55.8061 113.854 55.306 112.837C54.3979 110.976 53.5095 109.148 51.6078 108.145C50.522 107.571 49.3572 107.135 48.232 106.654C47.9227 106.522 47.6135 106.39 47.3042 106.251C47.6858 105.974 48.0412 105.651 48.3636 105.294C49.8508 106.047 51.4564 106.502 53.1213 106.647C54.0886 106.733 55.0494 106.687 56.0036 106.548C56.8788 106.416 57.7868 106.179 58.3659 105.453C58.8989 104.786 59.0174 103.875 58.5502 103.136C58.0567 102.364 57.0433 101.955 56.2734 101.539C54.5098 100.582 52.687 99.731 50.8247 98.9787C50.6207 98.8929 50.4167 98.8137 50.2061 98.7345C50.2653 98.7147 50.3312 98.7015 50.3904 98.6883C51.1866 98.5563 52.0289 98.6157 52.8383 98.5563C53.6806 98.4904 54.5229 98.398 55.3521 98.2264C56.9051 97.9096 58.4251 97.2959 59.5965 96.2004C60.5704 95.2963 61.5772 93.4089 60.2677 92.3266V92.353Z" fill="#336137"/>
<path d="M29.8593 113.966C30.2937 113.352 30.7082 112.732 31.1031 112.085L30.6687 109.485L30.2015 106.66C30.0239 105.598 28.4182 106.046 28.5893 107.102C28.8459 108.647 29.1026 110.184 29.3592 111.728C29.4579 112.336 29.5632 112.943 29.6619 113.55C29.6948 113.728 29.7606 113.867 29.8593 113.966Z" fill="#336137"/>
<path d="M117.472 21.8918C116.663 25.4489 117.854 28.8211 118.689 32.2462C119.137 34.0874 119.499 36.0078 119.361 37.9084C119.209 39.9608 118.492 41.8284 117.689 43.7026C115.972 47.6952 114.228 51.6812 112.497 55.6738L107.285 67.6912C106.522 69.4532 105.936 71.5452 103.804 72.0006C101.797 72.4295 99.6059 72.4163 97.566 72.3371C95.4734 72.2579 93.4136 71.928 91.3474 71.6244C89.4917 71.3538 87.5307 71.1492 85.6882 71.598C83.9575 72.0269 82.5098 73.0696 81.0884 74.1123C79.5881 75.221 78.0943 76.2307 76.3571 76.9435C74.5606 77.6892 72.6128 78.0851 70.6715 78.1379C68.6447 78.1973 66.6574 77.7882 64.6964 77.3064C62.7617 76.8379 60.8403 76.3495 58.8332 76.3825C56.7999 76.4155 54.8191 76.8709 52.8779 77.4516C50.884 78.0455 48.9098 78.7055 46.9423 79.3918C47.245 78.4151 47.5477 77.4384 47.8438 76.4617C49.2059 71.961 50.476 67.4338 51.6539 62.8737C53.4635 55.885 55.1613 48.8699 57.1222 41.9208C58.1488 38.2978 59.2412 34.6879 60.4652 31.1177C60.7876 30.174 61.1167 29.2369 61.4588 28.2998C66.2165 27.1515 71.0598 26.287 75.5082 24.2016C78.8445 22.6375 81.7531 20.3674 84.5695 18.0114C87.4978 15.5565 90.3932 13.0685 93.6177 10.9963C100.02 6.88494 107.246 4.19902 114.576 2.29181C116.419 1.81006 118.275 1.3811 120.137 0.99174C121.15 0.780562 122.203 0.615579 123.026 1.4141C123.658 2.02784 123.862 2.95174 123.888 3.80306C123.98 7.07633 122.618 10.244 121.21 13.1279C119.815 15.9722 118.183 18.7637 117.472 21.8852V21.8918Z" fill="#8AB946"/>
<path d="M70.9874 55.6607C69.3949 56.0764 67.8945 55.9048 66.5258 55.1525C64.624 54.1032 63.5316 52.0904 63.2881 49.1669C63.275 48.9887 63.2685 46.8506 63.2751 46.7186C63.2816 46.6064 63.2882 46.5008 63.3013 46.3952C63.6238 42.4224 65.4137 39.2745 68.0919 37.9745C68.3946 37.8227 68.7236 37.7039 69.0658 37.6181C70.5333 37.2353 71.9415 37.5059 72.8364 38.3374C73.6787 39.1227 74.271 40.6076 72.3166 43.2341C70.5991 45.5307 68.2959 47.3455 65.644 48.4872C65.7493 50.5792 66.381 53.0341 68.6908 53.4037C69.3357 53.5093 69.9608 53.4763 70.6188 53.3047C72.4614 52.8229 74.0933 51.3249 75.4028 50.1172C75.5542 49.9786 75.7187 49.8862 75.8898 49.8401C76.3702 49.7147 76.8901 49.972 77.1533 50.4604C77.4362 50.9817 77.3441 51.5691 76.9164 51.965C75.5082 53.2585 73.3629 55.0535 70.9939 55.6739L70.9874 55.6607ZM69.6779 39.9081C69.033 40.073 68.3552 40.5086 67.7695 41.1223C66.4995 42.4554 65.973 44.2768 65.7624 45.7551C67.5984 44.7718 69.1975 43.4057 70.4083 41.7757C70.4412 41.7295 70.4807 41.6767 70.5202 41.6305C70.836 41.2147 71.2243 40.7066 71.244 40.2446C71.244 40.139 71.2572 39.9411 70.5991 39.8421C70.303 39.7959 69.9937 39.8157 69.6779 39.9015V39.9081Z" fill="white"/>
<path d="M100.764 35.3279C100.363 33.7705 97.9081 34.2589 98.3096 35.8295C98.8886 38.0733 98.8952 40.449 98.1845 42.673C97.6317 44.402 96.5394 46.197 94.6047 46.494C92.4792 46.8174 91.5909 44.633 91.2487 42.904C90.8341 40.812 91.1566 38.5616 92.2094 36.694C93.0057 35.2818 95.3615 32.1339 97.2501 33.5395C98.5465 34.503 99.9218 32.4044 98.632 31.4475C95.9077 29.4281 92.7161 31.8105 91.0051 33.9949C89.1955 36.298 88.3927 39.2414 88.623 42.1451C88.8402 44.897 90.0971 48.2692 93.1044 48.9094C95.9537 49.5165 98.5661 47.7017 99.8296 45.2335C101.369 42.2242 101.613 38.588 100.771 35.3345L100.764 35.3279Z" fill="white"/>
<path d="M82.9704 34.1864C80.404 34.358 78.4496 36.219 77.4691 38.5024C76.9887 39.6243 76.7189 40.7989 76.5412 42C76.3307 43.3991 76.232 44.7717 76.436 46.1774C76.7848 48.606 78.2983 50.8497 80.7133 51.5691C83.4245 52.3742 86.3198 51.0147 87.6359 48.5466C88.3993 47.1211 86.2409 45.8474 85.4776 47.2729C84.7669 48.5994 83.4179 49.4771 81.8846 49.2659C80.3513 49.0547 79.384 47.7744 79.0155 46.349C78.568 44.6002 78.8642 42.6006 79.3051 40.8715C79.6999 39.3207 80.4764 37.6709 82.0031 36.9581C83.26 36.3708 85.2868 36.7733 85.3131 38.4628C85.3328 40.0796 87.8399 40.1192 87.8136 38.5024C87.7807 35.9352 85.4907 34.0082 82.9836 34.1798L82.9704 34.1864Z" fill="white"/>
<path d="M65.0847 19.4368C63.7555 22.3471 62.5578 25.3102 61.4654 28.3129C61.1233 29.25 60.7942 30.1871 60.4718 31.1308C59.2478 34.6944 58.1554 38.3043 57.1289 41.9339C55.1679 48.883 53.4701 55.8981 51.6605 62.8868C50.476 67.4469 49.206 71.9741 47.8504 76.4748C47.5543 77.4515 47.2581 78.4282 46.9489 79.4049C46.4619 80.969 45.9684 82.5264 45.4617 84.0839C44.6786 86.4926 43.889 88.908 43.0993 91.3167C42.6979 92.531 42.303 93.7519 41.9016 94.9661C40.1841 96.9987 38.5982 99.1369 37.1505 101.374C37.7362 99.5857 38.3285 97.8039 38.9207 96.0154C40.625 90.8482 42.3294 85.6809 43.9942 80.5004C44.0008 80.4806 44.0074 80.4542 44.014 80.4278C44.3299 79.4445 44.6326 78.4678 44.9353 77.4845C46.7778 71.5121 48.4163 65.4935 49.9627 59.4353C52.3119 50.2425 54.5756 40.9902 57.5632 31.9887C57.8856 31.012 58.2212 30.0419 58.5568 29.0718C59.8532 25.3828 61.2943 21.7466 62.9263 18.1763C63.2093 17.556 64.0976 17.4108 64.6372 17.7276C65.2624 18.0971 65.3677 18.8297 65.0847 19.4434V19.4368Z" fill="#0B0016"/>
<path d="M46.2447 94.3855C46.2184 95.0058 46.1131 95.6129 45.9947 96.1211C45.6525 97.5796 45.1063 99.0182 44.5206 100.404C44.3561 100.787 44.1916 101.17 44.0271 101.546C43.9021 101.823 43.777 102.107 43.6454 102.384C42.9479 103.869 42.1582 105.314 41.3094 106.72C40.8356 107.505 40.342 108.297 40.0459 109.168C40.0064 109.28 39.9735 109.392 39.9406 109.511C39.7037 110.329 39.5984 111.168 39.5458 112.019C39.5326 112.23 39.5194 112.441 39.5128 112.652C39.3286 116.421 39.6708 120.195 39.6642 123.964C39.6577 127.758 39.2365 131.56 37.7953 135.097C36.499 138.264 34.571 141.129 32.1033 143.498C31.3268 144.243 30.1423 143.056 30.9253 142.316C33.5641 139.795 35.5843 136.661 36.7359 133.183C38.0322 129.283 38.0783 125.165 37.9598 121.093C37.9006 119.173 37.8151 117.259 37.8019 115.338C37.8019 114.718 37.8019 114.091 37.8085 113.464C37.8151 112.989 37.8348 112.514 37.8677 112.045C37.9203 111.253 38.0191 110.468 38.1836 109.696C38.5521 107.974 39.5063 106.541 40.3815 105.043C40.8421 104.251 41.283 103.44 41.6976 102.615C41.9937 102.028 42.2701 101.44 42.5333 100.84C42.6452 100.589 42.7505 100.345 42.8558 100.094C43.5533 98.4375 44.3561 96.6094 44.5535 94.8012C44.5535 94.7484 44.5667 94.689 44.5667 94.6362C44.6062 94.2007 44.6062 93.7453 44.5009 93.323C44.4811 93.2438 44.4482 93.1052 44.3956 92.9798C44.3363 92.8412 44.2574 92.7092 44.1521 92.6829C43.9744 92.6367 43.7112 92.861 43.4677 93.125C43.2176 93.3956 42.9873 93.7123 42.8886 93.8311C42.5596 94.2073 42.2306 94.5835 41.9081 94.9662C41.8686 95.0124 41.8358 95.052 41.7963 95.0982C40.1249 97.0912 38.5718 99.1898 37.157 101.374C36.9267 101.724 36.703 102.08 36.4792 102.443C35.7093 103.684 35.0053 104.964 34.3143 106.251C33.7813 107.248 33.2614 108.251 32.7218 109.247C32.2414 110.138 31.7479 111.022 31.228 111.894C31.1885 111.96 31.1491 112.025 31.1096 112.091C30.7148 112.732 30.3002 113.359 29.8659 113.972C28.2471 116.262 26.398 118.381 24.7463 120.644C22.7063 123.436 20.9164 126.399 19.4029 129.494C18.7317 130.867 18.1132 132.266 17.5472 133.691C17.613 132.167 17.6788 130.642 17.7446 129.124C18.3171 127.956 18.9225 126.808 19.5674 125.68C21.2915 122.644 23.2722 119.747 25.4701 116.988C26.648 115.51 27.8457 114.038 28.8986 112.461C29.0565 112.223 29.2144 111.986 29.3658 111.742C29.8264 111.009 30.2607 110.257 30.6753 109.498C30.6753 109.491 30.6885 109.478 30.695 109.465C30.9517 108.996 31.2083 108.521 31.4517 108.046C31.5636 107.842 31.6689 107.63 31.7808 107.426C33.5443 104.047 35.433 100.767 37.6769 97.6785C38.0849 97.1176 38.4995 96.5633 38.9206 96.0221C39.0194 95.8967 39.118 95.7713 39.2167 95.6459C39.7629 94.9464 40.3223 94.2601 40.9014 93.587C40.9803 93.4946 41.0593 93.3956 41.1448 93.3032C41.6647 92.7027 42.3359 91.8051 43.1058 91.33C43.7178 90.9472 44.3955 90.835 45.1128 91.33C45.6195 91.6798 45.9223 92.1813 46.0868 92.7488C46.2381 93.2636 46.2776 93.8377 46.2513 94.4053L46.2447 94.3855Z" fill="#336137"/>
<path d="M106.443 10.3033C102.797 13.8802 100.073 18.3215 98.5135 23.1918C98.1845 24.2213 99.7968 24.6569 100.126 23.634C101.6 19.0342 104.186 14.8635 107.627 11.4846C108.397 10.7323 107.213 9.54439 106.45 10.3033H106.443Z" fill="#0B0016"/>
<path d="M103.304 45.6164C101.889 48.652 100.251 51.6217 98.1055 54.2021C97.0198 55.5087 95.8155 56.7032 94.4929 57.7657C93.2294 58.782 91.8805 59.6993 90.5907 60.676C89.1167 61.7979 87.7018 62.9858 86.5503 64.4442C86.2673 64.8006 86.2081 65.2758 86.5503 65.6255C86.8398 65.9225 87.4517 65.9819 87.7281 65.6255C89.801 63.0056 92.6898 61.2832 95.2891 59.2506C97.9805 57.1388 100.178 54.5254 101.988 51.6217C103.021 49.9653 103.923 48.2297 104.745 46.4611C105.199 45.491 103.758 44.6396 103.304 45.6164Z" fill="#0B0016"/>
<path d="M83.4375 58.6501C78.41 61.3228 74.1328 65.2956 71.0663 70.0999C70.4872 71.0106 71.9283 71.8488 72.5074 70.9446C75.4225 66.3713 79.4958 62.6361 84.2799 60.0953C85.2274 59.5938 84.3851 58.1485 83.4375 58.6501Z" fill="#0B0016"/>
</svg>
