<svg width="136" height="136" viewBox="0 0 136 136" fill="none" xmlns="http://www.w3.org/2000/svg">
<path d="M117.155 27.1838C117.155 29.0514 117.142 30.919 117.123 32.78C117.123 32.912 117.123 33.0374 117.123 33.1693C117.063 38.1716 116.932 43.1739 116.767 48.1828C116.767 48.3148 116.761 48.4402 116.754 48.5722C116.734 49.0869 116.721 49.6083 116.701 50.123C116.576 53.7065 116.432 57.2965 116.287 60.8865C116.267 61.2825 116.254 61.6785 116.234 62.0678C116.208 62.6486 116.188 63.2293 116.162 63.8166C116.162 63.9486 116.149 64.074 116.149 64.206C115.977 68.2712 115.8 72.343 115.635 76.4082C115.635 76.5402 115.622 76.6655 115.622 76.7975C115.55 78.5925 115.484 80.3876 115.412 82.176C115.412 82.2816 115.405 82.3938 115.398 82.506V82.5323C115.398 82.5323 115.398 82.5587 115.398 82.5719C115.293 85.5087 115.194 88.4453 115.115 91.382C115.056 93.5994 115.004 95.8168 114.964 98.0342C114.964 98.1596 114.964 98.2915 114.958 98.4169C114.938 99.7038 114.918 100.997 114.905 102.284C114.905 102.416 114.905 102.548 114.905 102.68C114.905 103.05 114.898 103.413 114.898 103.782C114.872 104.238 114.852 104.693 114.832 105.148C114.832 105.267 114.819 105.392 114.819 105.518C114.747 107.115 114.701 108.718 114.635 110.322C114.596 111.279 114.55 112.236 114.497 113.199C114.464 113.754 114.431 114.315 114.385 114.869C114.385 114.895 114.385 114.928 114.385 114.955C114.385 115.047 114.385 115.14 114.385 115.232C114.385 115.364 114.385 115.489 114.372 115.615C114.346 116.466 114.306 117.271 114.247 118.037C114.234 118.175 114.227 118.307 114.214 118.446C114.115 119.601 113.97 120.65 113.78 121.614C113.753 121.752 113.727 121.897 113.694 122.029C112.687 126.735 110.542 129.176 106.916 130.47C106.153 130.74 105.317 130.965 104.416 131.15C102.955 131.447 101.316 131.631 99.4802 131.763C98.1707 131.856 96.7691 131.909 95.2556 131.955C93.8078 131.981 92.3601 132.001 90.9124 132.027C90.0635 132.041 89.2147 132.047 88.3724 132.06C88.2013 132.06 88.0368 132.06 87.8657 132.06C87.2866 132.067 86.7075 132.074 86.1284 132.08C85.9573 132.08 85.7928 132.08 85.6217 132.08C84.7399 132.087 83.8647 132.1 82.9895 132.107C81.8182 132.113 80.6534 132.126 79.4821 132.133C78.8306 132.133 78.1792 132.14 77.5277 132.146C71.1644 132.179 64.8208 132.166 58.4904 132.146C56.4307 132.14 54.371 132.126 52.3113 132.113C52.0678 132.113 51.8309 132.113 51.5875 132.113C51.4953 132.113 51.4032 132.113 51.3111 132.113C51.1926 132.113 51.0742 132.113 50.9623 132.113C50.3438 132.113 49.7252 132.107 49.1066 132.1C48.692 132.1 48.2775 132.1 47.8629 132.093C47.6523 132.093 47.4418 132.093 47.2312 132.093C46.9614 132.093 46.685 132.093 46.4086 132.093C46.2441 132.093 46.073 132.093 45.9085 132.093C45.3294 132.093 44.7503 132.093 44.1778 132.08C44.0067 132.08 43.8422 132.08 43.6777 132.08C43.1381 132.08 42.6051 132.074 42.0655 132.067C41.8088 132.067 41.5522 132.067 41.3022 132.067C38.7687 132.047 36.2417 132.034 33.7083 132.014C32.8989 132.014 32.0829 132.001 31.2735 131.994C30.9116 131.994 30.5431 131.994 30.1811 131.988C29.806 131.988 29.4309 131.988 29.0559 131.981C25.7195 131.961 22.3767 131.942 19.0404 131.928C18.9285 131.928 18.8166 131.928 18.7114 131.928C18.639 131.928 18.5666 131.928 18.4942 131.928C16.191 131.876 14.1708 131.691 12.3941 131.387C12.0782 131.334 11.7623 131.275 11.4596 131.209C10.8345 131.077 10.2488 130.932 9.6895 130.773C8.709 130.49 7.82724 130.153 7.03758 129.77C6.40585 129.46 5.82676 129.124 5.30032 128.747C4.17506 127.956 3.29326 127.012 2.61547 125.936C2.27329 125.402 1.98377 124.827 1.73371 124.22C1.58236 123.844 1.44417 123.461 1.32572 123.059C1.2336 122.755 1.14805 122.452 1.07566 122.135C1.0296 121.95 0.990115 121.759 0.950632 121.567C0.92431 121.422 0.891405 121.277 0.865083 121.132C0.707151 120.215 0.60187 119.251 0.542645 118.228C0.536065 118.096 0.529465 117.958 0.522885 117.826C0.503143 117.383 0.48999 116.928 0.48999 116.466C0.48999 116.354 0.48999 116.242 0.48999 116.123C0.48999 115.12 0.522896 114.077 0.57554 112.988C0.57554 112.856 0.58868 112.718 0.59526 112.586C0.687387 110.83 0.838741 108.969 1.00983 107.009C1.04274 106.62 1.07565 106.231 1.10856 105.835C1.12172 105.703 1.12829 105.571 1.14145 105.432C1.14145 105.366 1.15463 105.3 1.16121 105.227C1.41127 102.106 1.63498 99.0769 1.83239 96.1402C1.83898 96.0082 1.85216 95.8828 1.85874 95.7508C2.00351 93.5466 2.1417 91.4018 2.26673 89.2967C2.39834 87.0925 2.51019 84.9477 2.61547 82.8491C2.61547 82.7171 2.62865 82.5851 2.63523 82.4532C2.65498 82.044 2.6747 81.6348 2.69444 81.2257C2.7076 80.9749 2.72076 80.7175 2.73392 80.4668C2.7734 79.589 2.81292 78.7179 2.8524 77.86C2.8524 77.728 2.86554 77.6027 2.87212 77.4707C2.94451 75.7878 3.01031 74.138 3.07612 72.5278C3.13534 71.0561 3.1814 69.6175 3.23404 68.2052C3.31959 65.7304 3.39199 63.3415 3.4578 61.0449C3.51702 58.8407 3.57625 56.7158 3.62889 54.67C3.68812 52.3668 3.74077 50.1692 3.79999 48.0574C3.80657 47.7605 3.81314 47.4569 3.8263 47.1665C3.87236 45.4441 3.91841 43.7943 3.97105 42.1972C3.99079 41.6231 4.01055 41.0621 4.03029 40.5078C4.129 37.7493 4.24745 35.1887 4.40539 32.7998C4.44487 32.1596 4.49094 31.5261 4.537 30.9058C4.66861 29.1833 4.81994 27.5665 5.00419 26.0421C5.01735 25.9101 5.0371 25.7847 5.05026 25.6527C5.07658 25.4217 5.10949 25.1973 5.13581 24.973C5.14897 24.8608 5.16872 24.7486 5.18188 24.6364C5.22794 24.2998 5.27399 23.9765 5.32663 23.6531C5.33979 23.5475 5.35954 23.4353 5.3727 23.3297C5.41876 23.013 5.47143 22.7094 5.52408 22.3992C5.91233 20.1423 6.39925 18.1229 7.01782 16.3212C7.26788 15.5953 7.53771 14.9024 7.82725 14.2491C10.4134 8.42844 14.7959 5.22777 22.4359 3.58454C23.4361 3.36676 24.489 3.18198 25.6011 3.01699C25.7327 2.9972 25.8643 2.9774 25.9894 2.9576C26.6803 2.85861 27.391 2.77282 28.128 2.69363C29.2796 2.56824 30.4904 2.46265 31.7539 2.37686C31.925 2.36366 32.096 2.35706 32.2671 2.34386C32.3 2.34386 32.3395 2.34386 32.3724 2.33726C32.4448 2.33726 32.5106 2.33066 32.583 2.32406C32.6423 2.32406 32.7015 2.31747 32.7673 2.31087C32.8396 2.31087 32.9055 2.30427 32.9778 2.29767C33.3266 2.27787 33.6754 2.25807 34.0373 2.24487C34.2084 2.23827 34.3729 2.22507 34.5506 2.21848C35.5574 2.17228 36.5971 2.13928 37.6697 2.11289C38.183 2.09969 38.7095 2.08649 39.2425 2.07989C41.2035 2.04689 43.2829 2.04029 45.4742 2.05349C45.6058 2.05349 45.7308 2.05349 45.8624 2.05349C49.916 2.07989 54.3644 2.17888 59.2537 2.31746C59.3853 2.31746 59.5104 2.32406 59.642 2.33066C63.7021 2.44285 68.0584 2.58804 72.7437 2.73982C72.8753 2.73982 73.0004 2.74642 73.132 2.75302C75.093 2.81901 77.1066 2.88501 79.1794 2.9444C79.3439 2.9444 79.5085 2.9576 79.6796 2.9576C80.2455 2.9774 80.8246 2.9906 81.4036 3.0104C81.5682 3.0104 81.7327 3.02359 81.9038 3.02359C83.1738 3.06319 84.4701 3.10278 85.7796 3.14238C85.9112 3.14238 86.0363 3.14898 86.1679 3.15558C90.4584 3.28097 94.9726 3.40635 99.7237 3.51194C99.8553 3.51194 99.9803 3.51194 100.112 3.51854C100.777 3.53174 101.441 3.55154 102.119 3.56474C105.738 3.53834 110.325 4.42925 113.477 6.67302C113.602 6.76542 113.727 6.8578 113.852 6.9502C115.984 8.60003 117.359 10.9296 117.149 14.0841C117.044 15.2324 117.03 16.3872 117.057 17.5421C117.057 17.6279 117.057 17.7137 117.057 17.7995C117.057 17.8457 117.057 17.8853 117.057 17.9315C117.07 18.433 117.09 18.928 117.109 19.4229C117.129 19.9113 117.155 20.393 117.175 20.8748C117.195 22.3728 117.208 23.8709 117.215 25.3689C117.215 25.9761 117.215 26.5832 117.215 27.1969L117.155 27.1838Z" fill="#8AB946"/>
<path d="M114.477 113.186C114.444 113.74 114.411 114.301 114.365 114.856C107.962 114.823 101.553 115.14 95.1831 115.806C90.4781 116.294 85.7927 116.987 81.1403 117.852C76.7709 118.664 72.3225 119.568 67.8609 119.271C65.6565 119.126 63.4915 118.683 61.4384 117.852C59.4708 117.053 57.6283 116.011 55.7463 115.034C51.9691 113.074 47.9286 111.734 43.7434 110.982C35.3007 109.464 26.5815 110.302 18.2967 112.328C12.2229 113.813 6.32683 115.912 0.509686 118.188C0.503106 118.056 0.496506 117.918 0.489926 117.786C0.470184 117.344 0.457031 116.888 0.457031 116.426C7.21519 113.793 14.0852 111.411 21.1987 109.966C29.5428 108.27 38.2685 107.9 46.5994 109.867C50.7451 110.843 54.5486 112.5 58.2995 114.486C60.2341 115.509 62.1885 116.492 64.314 117.04C66.4856 117.595 68.723 117.72 70.9538 117.621C75.5338 117.416 80.0282 116.308 84.5424 115.562C89.1554 114.803 93.8012 114.222 98.4601 113.82C103.784 113.364 109.134 113.153 114.477 113.186Z" fill="#336137"/>
<path d="M69.3415 128.972C68.8875 129.308 68.2887 129.473 67.7556 129.625C67.1502 129.803 66.5382 129.929 65.9131 130.034C65.2813 130.14 64.6496 130.219 64.0179 130.305C63.3927 130.384 62.761 130.463 62.1227 130.47C61.5041 130.47 60.8724 130.397 60.2868 130.199C59.7143 130.001 59.1878 129.711 58.668 129.401C58.1613 129.097 57.6612 128.793 57.1347 128.53C56.6083 128.272 56.0621 128.048 55.5027 127.863C54.3775 127.493 53.2062 127.269 52.0217 127.21C51.4294 127.183 50.8372 127.196 50.2515 127.243C49.7514 127.282 49.2382 127.322 48.7446 127.21C48.2511 127.104 47.7905 126.8 47.5601 126.339C47.3298 125.877 47.3364 125.355 47.4614 124.867C47.5799 124.372 47.8168 123.91 48.0866 123.481C48.3958 123.006 48.7249 122.544 49.0671 122.089C49.758 121.171 50.5016 120.294 51.2254 119.403C51.9295 118.538 52.6073 117.654 53.1996 116.703C53.8116 115.72 54.2854 114.684 54.6539 113.589C55.1343 112.176 55.483 110.718 55.9568 109.312C56.0292 109.101 56.1016 108.89 56.1806 108.685C56.3319 108.844 56.4833 109.002 56.6412 109.16C56.6807 109.207 56.7267 109.246 56.7662 109.286C57.9244 110.454 59.1549 111.543 60.4579 112.553C60.6158 112.678 60.7803 112.803 60.9382 112.922C60.8461 113.1 60.7474 113.278 60.6553 113.457C60.1749 114.374 59.6945 115.291 59.2207 116.209C58.918 116.796 58.6219 117.377 58.3258 117.964C58.0626 118.479 57.7401 119.033 57.7401 119.634C57.7401 120.221 58.1152 120.755 58.4048 121.237C58.7272 121.765 59.0628 122.293 59.4181 122.801C59.7735 123.316 60.142 123.818 60.5237 124.306C60.8724 124.755 61.2409 125.19 61.6818 125.553C62.6163 126.339 63.86 126.477 65.0247 126.629C65.6762 126.715 66.3342 126.781 66.9923 126.827C67.5648 126.873 68.157 126.853 68.723 126.972C69.1309 127.058 69.585 127.243 69.7758 127.645C70.0193 128.16 69.7561 128.661 69.3349 128.972H69.3415Z" fill="white"/>
<path d="M28.6807 133.446C28.8716 133.868 28.8847 134.357 28.7005 134.786C28.4899 135.274 28.049 135.512 27.5292 135.518C26.9106 135.518 26.2854 135.459 25.6669 135.426C25.0154 135.393 24.364 135.353 23.7059 135.32C22.4227 135.248 21.1329 135.182 19.8431 135.116C18.7771 135.056 17.6124 134.984 16.8754 134.099C16.2371 133.334 16.0528 132.324 15.8685 131.367C15.6711 130.311 15.4737 129.255 15.1118 128.239C14.9407 127.757 14.7235 127.295 14.4603 126.86C14.1642 126.385 13.7891 125.969 13.3943 125.573C12.5914 124.768 11.7228 123.917 11.5846 122.722C11.453 121.62 12.1835 120.723 13.0455 120.148C13.9668 119.535 15.0657 119.231 15.8883 118.466C16.6582 117.746 17.178 116.816 17.6782 115.905C18.6126 114.196 19.547 112.487 20.4749 110.771C20.5867 110.566 20.6986 110.362 20.8105 110.164C20.8171 110.177 20.8302 110.19 20.8368 110.21C20.9421 110.395 21.0539 110.579 21.1658 110.764C21.2448 110.896 21.3238 111.028 21.4027 111.167C22.3043 112.685 23.2189 114.196 24.1534 115.7C24.2587 115.872 24.3639 116.037 24.4692 116.209C24.3179 116.334 24.1599 116.466 24.0152 116.605C23.5282 117.033 23.0544 117.476 22.6003 117.938C22.1989 118.34 21.8173 118.749 21.4422 119.172C21.0737 119.594 20.6789 120.016 20.3827 120.498C20.08 121 20.0208 121.528 20.0998 122.108C20.1853 122.729 20.3235 123.349 20.4486 123.969C20.6986 125.217 20.9816 126.451 21.2974 127.685C21.3698 127.969 21.4356 128.259 21.5212 128.536C21.587 128.754 21.6594 128.985 21.8041 129.17C22.12 129.579 22.7451 129.632 23.1992 129.783C24.2916 130.146 25.3049 130.707 26.2591 131.341C26.7197 131.644 27.1738 131.961 27.6147 132.298C28.0359 132.621 28.457 132.984 28.6807 133.479V133.446Z" fill="white"/>
<path d="M27.6147 132.265C27.1738 131.928 26.7197 131.618 26.2591 131.308C25.3049 130.674 24.2916 130.113 23.1992 129.75C22.7386 129.599 22.12 129.546 21.8041 129.137C21.6594 128.952 21.587 128.728 21.5212 128.503C21.4422 128.219 21.3698 127.936 21.2974 127.652C20.9881 126.424 20.7052 125.184 20.4486 123.936C20.3235 123.323 20.1853 122.702 20.0998 122.075C20.0208 121.501 20.08 120.967 20.3827 120.465C20.6723 119.983 21.0671 119.561 21.4422 119.139C21.8173 118.716 22.1989 118.301 22.6003 117.905C23.0544 117.443 23.5282 117.001 24.0152 116.572C24.1665 116.44 24.3179 116.308 24.4692 116.176C24.3639 116.004 24.2587 115.839 24.1534 115.667C23.2189 114.169 22.2977 112.658 21.4027 111.134C21.3238 111.002 21.2448 110.87 21.1658 110.731C21.0605 110.546 20.9487 110.362 20.8368 110.177C20.8302 110.164 20.8171 110.15 20.8105 110.131C20.6986 110.335 20.5867 110.54 20.4749 110.738C19.5404 112.447 18.6126 114.163 17.6782 115.872C17.178 116.783 16.6582 117.72 15.8883 118.433C15.0657 119.198 13.9668 119.502 13.0455 120.115C12.1835 120.69 11.453 121.587 11.5846 122.689C11.7228 123.884 12.5914 124.735 13.3943 125.54C13.7891 125.936 14.1642 126.345 14.4603 126.827C14.7301 127.262 14.9407 127.724 15.1118 128.206C15.4737 129.216 15.6711 130.278 15.8685 131.334C16.0462 132.291 16.2305 133.301 16.8754 134.066C17.6124 134.951 18.7771 135.03 19.8431 135.083C21.1263 135.155 22.4161 135.221 23.7059 135.287C24.3574 135.32 25.0088 135.36 25.6669 135.393C26.2854 135.426 26.9106 135.492 27.5292 135.485C28.049 135.485 28.4899 135.241 28.7005 134.753C28.8847 134.324 28.8716 133.835 28.6807 133.413C28.457 132.918 28.0359 132.555 27.6147 132.232V132.265ZM27.6937 134.911C27.4107 134.951 27.108 134.905 26.825 134.891C26.5092 134.872 26.1933 134.858 25.8775 134.839C24.6074 134.773 23.344 134.707 22.0739 134.634L20.1721 134.535C19.626 134.502 19.0666 134.502 18.527 134.383C18.0467 134.278 17.6321 134.066 17.3097 133.69C17.0267 133.354 16.8556 132.931 16.7306 132.516C16.441 131.539 16.3357 130.516 16.1054 129.526C15.8685 128.503 15.5395 127.48 14.9868 126.583C14.6972 126.108 14.3353 125.685 13.947 125.289C13.5522 124.887 13.1311 124.511 12.7889 124.062C12.4796 123.659 12.2098 123.164 12.1703 122.65C12.1308 122.174 12.2756 121.732 12.5717 121.363C13.2363 120.518 14.2958 120.181 15.2039 119.68C16.1712 119.145 16.8885 118.353 17.4742 117.429C18.0993 116.459 18.6192 115.417 19.1654 114.4C19.7181 113.384 20.2709 112.374 20.8237 111.358C21.1 111.827 21.3764 112.289 21.6528 112.757C22.3174 113.866 22.9952 114.975 23.6861 116.077C22.778 116.869 21.916 117.713 21.1132 118.611C20.3696 119.442 19.4812 120.333 19.4615 121.528C19.4483 122.141 19.5997 122.755 19.7181 123.356C19.8366 123.969 19.9616 124.583 20.0932 125.19C20.2248 125.804 20.363 126.411 20.5143 127.018C20.6525 127.599 20.7841 128.186 20.9618 128.761C21.1263 129.282 21.4027 129.737 21.916 129.975C22.1595 130.087 22.4161 130.153 22.6728 130.226C22.9491 130.305 23.2255 130.397 23.4953 130.503C24.535 130.905 25.4892 131.506 26.4039 132.139C26.8316 132.436 27.2791 132.727 27.6607 133.083C27.97 133.38 28.2399 133.743 28.2267 134.179C28.2201 134.522 28.0424 134.858 27.6805 134.911H27.6937Z" fill="#0B0016"/>
<path d="M69.789 127.645C69.5981 127.249 69.1441 127.058 68.7361 126.972C68.1702 126.853 67.5779 126.873 67.0054 126.827C66.3474 126.774 65.6893 126.708 65.0379 126.629C63.8665 126.484 62.6294 126.339 61.695 125.553C61.2607 125.19 60.8921 124.748 60.5368 124.306C60.1486 123.818 59.7866 123.316 59.4313 122.801C59.0759 122.293 58.7403 121.765 58.4179 121.237C58.1218 120.755 57.7533 120.221 57.7533 119.634C57.7533 119.033 58.0757 118.479 58.3389 117.964C58.635 117.377 58.9312 116.789 59.2339 116.209C59.7077 115.291 60.1815 114.367 60.6684 113.457C60.7605 113.278 60.8527 113.1 60.9514 112.922C60.7934 112.803 60.6289 112.678 60.471 112.553C59.1747 111.543 57.9441 110.454 56.7793 109.286C56.7398 109.246 56.6938 109.2 56.6543 109.16C56.4964 109.002 56.345 108.85 56.1937 108.685C56.1147 108.896 56.0423 109.101 55.9699 109.312C55.4962 110.725 55.1408 112.183 54.667 113.589C54.2985 114.684 53.8247 115.72 53.2127 116.703C52.6205 117.647 51.9361 118.532 51.2386 119.403C50.5147 120.294 49.7777 121.171 49.0802 122.089C48.738 122.544 48.4024 123.006 48.0997 123.481C47.8299 123.903 47.593 124.372 47.4746 124.867C47.3561 125.355 47.3429 125.877 47.5732 126.339C47.8036 126.8 48.2642 127.097 48.7577 127.21C49.2513 127.315 49.7646 127.282 50.2647 127.243C50.8503 127.196 51.4426 127.183 52.0348 127.21C53.2193 127.269 54.3906 127.493 55.5159 127.863C56.0752 128.048 56.6214 128.272 57.1478 128.529C57.6743 128.787 58.181 129.097 58.6811 129.401C59.201 129.711 59.7274 130.001 60.2999 130.199C60.8856 130.404 61.5173 130.476 62.1359 130.47C62.7676 130.47 63.3993 130.391 64.031 130.305C64.6628 130.226 65.2945 130.14 65.9262 130.034C66.5448 129.929 67.1633 129.803 67.7687 129.625C68.3018 129.467 68.9006 129.302 69.3547 128.972C69.7758 128.661 70.0456 128.153 69.7955 127.645H69.789ZM69.2691 128.173C69.2428 128.252 69.1901 128.318 69.1243 128.384C68.9796 128.529 68.7822 128.628 68.5979 128.708C68.3084 128.833 68.0122 128.932 67.7095 129.018C66.5448 129.368 65.3406 129.533 64.1363 129.691C62.9255 129.849 61.662 130.028 60.4776 129.625C59.938 129.44 59.4444 129.156 58.9575 128.859C58.4508 128.556 57.9507 128.252 57.4177 127.995C56.3582 127.48 55.2395 127.097 54.0879 126.86C52.9364 126.629 51.7519 126.536 50.5805 126.609C49.7974 126.655 48.4879 126.926 48.0734 126.009C47.8957 125.619 47.9878 125.151 48.1194 124.761C48.2774 124.28 48.5538 123.857 48.8301 123.441C49.4421 122.531 50.133 121.679 50.824 120.835C52.2322 119.112 53.6997 117.377 54.621 115.324C55.4172 113.542 55.8318 111.635 56.4306 109.787C57.6085 110.962 58.8588 112.064 60.1749 113.087C59.3852 114.579 58.6153 116.077 57.852 117.581C57.5756 118.129 57.2597 118.69 57.1742 119.304C57.0821 119.937 57.2992 120.505 57.6085 121.046C58.2139 122.115 58.9049 123.138 59.6419 124.121C60.3197 125.025 61.0435 126.002 62.0767 126.523C62.6097 126.794 63.1887 126.946 63.7744 127.045C64.4127 127.157 65.0576 127.236 65.7091 127.302C66.3671 127.375 67.0186 127.427 67.6766 127.467C68.1109 127.493 68.5913 127.474 68.9796 127.665C69.1309 127.744 69.2362 127.83 69.2757 127.955C69.2889 128.002 69.2954 128.087 69.2691 128.167V128.173Z" fill="#0B0016"/>
<path d="M111.154 129.434C111.154 130.067 110.957 130.694 110.595 131.209C109.805 132.337 108.502 132.898 107.173 133.07C106.39 133.169 105.6 133.149 104.817 133.11C104.001 133.07 103.185 133.024 102.369 132.997C100.704 132.945 99.0393 132.938 97.3744 132.978C95.7096 133.017 94.0447 133.103 92.3864 133.235C90.8203 133.36 89.2541 133.552 87.688 133.704C84.7202 134.001 81.5879 134.146 78.7583 133.004C78.1792 132.773 77.4882 132.423 77.4356 131.717C77.3829 130.965 78.1463 130.47 78.6464 130.048C79.2189 129.566 79.7914 129.084 80.3705 128.602C81.7721 126.721 82.5684 124.445 83.9042 122.524C84.628 121.482 85.4901 120.511 86.5693 119.825C87.0957 119.495 87.6748 119.238 88.2802 119.093C89.0304 118.914 89.7871 118.934 90.5505 118.974C91.3335 119.013 92.1101 119.033 92.8734 118.809C93.5972 118.598 94.2619 118.248 94.9462 117.944C96.3545 117.317 97.9074 116.842 99.467 116.994C100.757 117.119 102.066 117.667 102.902 118.69C103.804 119.799 103.902 121.29 104.712 122.445C105.455 123.494 106.607 124.168 107.666 124.841C108.805 125.573 109.917 126.385 110.614 127.579C110.943 128.14 111.161 128.78 111.161 129.434H111.154Z" fill="#0B0016"/>
<path d="M98.0917 86.9275C98.0127 87.0133 97.914 87.0793 97.8087 87.1255C97.6969 87.1783 97.5784 87.2113 97.4731 87.2707C97.3349 87.3367 97.2099 87.4224 97.0783 87.5082C96.8348 87.6666 96.5979 87.8448 96.3742 88.0362C96.3281 89.0327 96.2886 90.0292 96.2557 91.0323C95.9136 100.502 95.9004 109.986 95.9267 119.462C95.9267 120.643 95.9333 121.818 95.9398 122.999C95.9398 124.075 97.6113 124.075 97.6113 122.999C97.5784 113.562 97.5455 104.125 97.8087 94.6883C97.8811 92.1014 97.9732 89.5144 98.0983 86.9341L98.0917 86.9275Z" fill="#0B0016"/>
<path d="M51.923 17.0736C50.7912 14.909 48.9882 13.1338 46.7047 11.9261C44.6582 10.8438 42.2629 10.2367 39.7887 10.1707C39.5978 10.1707 39.4136 10.1641 39.2227 10.1641C33.9386 10.1641 29.4178 12.1505 26.5553 13.8201C24.1797 15.206 21.9819 16.9614 20.0867 18.9808C19.0536 16.9614 17.336 15.2917 15.3027 14.4404C14.0984 13.9389 12.7889 13.6815 11.407 13.6815C10.2226 13.6815 8.9854 13.8729 7.76801 14.2424C7.47847 14.9024 7.20869 15.5887 6.95863 16.3146C9.37367 15.2785 12.1835 14.942 14.6578 15.9781C17.211 17.0472 19.0865 19.6473 19.4221 22.353C21.5739 19.4889 24.2982 17.067 27.391 15.2653C31.0827 13.114 35.439 11.7281 39.7426 11.8469C44.0397 11.9657 48.3762 13.8993 50.4424 17.8589C51.39 19.6803 51.7059 21.7261 51.2848 23.7389C50.8504 25.8045 49.6725 27.6853 48.1985 29.1635C44.8754 32.4896 40.1177 33.6511 35.7088 34.7334C30.6089 35.9806 25.4761 37.0827 20.317 38.0264C15.1579 38.9701 9.97247 39.7555 4.76073 40.3956C4.49751 40.4286 4.22773 40.4616 3.96452 40.488C3.94477 41.0423 3.92501 41.6099 3.90527 42.1774C4.26062 42.1378 4.60937 42.0916 4.95813 42.052C10.2225 41.4053 15.4869 40.6002 20.6065 39.6631C25.7722 38.7194 30.984 37.6041 36.097 36.3502H36.1233C40.6244 35.2415 45.7308 33.9877 49.3764 30.3382C50.6662 29.0514 52.3245 26.9132 52.9167 24.0755C53.4168 21.6997 53.0746 19.2777 51.923 17.0736Z" fill="white"/>
<path d="M86.4771 82.9545C86.4047 83.918 86.0428 84.8222 85.5888 85.6669C85.1347 86.5116 84.6083 87.3233 84.0884 88.135C83.0289 89.7716 81.8971 91.3555 80.7061 92.8931C79.515 94.4176 78.2647 95.8958 76.942 97.3147C75.6062 98.7533 74.1585 100.093 72.8358 101.545C71.5065 103.003 70.4339 104.627 69.46 106.343C68.4795 108.065 67.5582 109.827 66.4988 111.51C65.9592 112.368 65.3932 113.219 64.801 114.044C64.3009 114.75 63.8008 115.535 63.0835 116.044C62.3202 116.585 61.4252 116.519 60.629 116.096C60.2078 115.872 59.8196 115.568 59.4313 115.285C59.0168 114.974 58.6022 114.664 58.1876 114.354C56.5162 113.094 54.8316 111.833 53.2259 110.48C52.9035 110.21 52.6205 109.867 52.6271 109.424C52.6271 108.976 52.9167 108.58 53.1536 108.217C53.6339 107.464 54.1472 106.725 54.6605 105.993C55.9832 104.112 57.3782 102.231 58.464 100.199C58.3258 100.271 58.1876 100.344 58.0495 100.416C57.6086 100.647 57.1677 100.865 56.7202 101.083C56.661 101.109 56.6017 101.142 56.5359 101.169C54.6605 102.066 52.7192 102.845 50.7451 103.498C49.4487 103.927 48.1326 104.297 46.8034 104.614C46.5994 104.66 46.3954 104.706 46.1914 104.752C46.119 105.043 46.0466 105.333 45.9677 105.623C45.8755 105.953 45.7768 106.277 45.6584 106.593C45.4281 107.194 45.1056 107.728 44.6384 108.177C44.1844 108.613 43.6513 108.969 43.1249 109.312C42.5721 109.675 42.0062 110.012 41.4337 110.335C40.269 110.982 39.0582 111.543 37.8145 112.031C36.6037 112.506 35.3665 112.929 34.1952 113.509C33.1028 114.051 32.0894 114.744 31.201 115.582C30.7667 115.997 30.3522 116.446 29.9837 116.921C29.602 117.41 29.2664 117.931 28.9111 118.439C28.2201 119.442 27.437 120.439 26.3183 120.993C25.2984 121.495 24.1007 121.567 23.1268 120.927C22.2714 120.373 21.7317 119.462 21.3369 118.551C20.8302 117.383 20.4551 116.149 20.034 114.948C19.7971 114.275 19.5668 113.602 19.3299 112.922C19.1061 112.282 18.8824 111.629 18.7903 110.949C18.6981 110.263 18.7639 109.589 19.0337 108.949C19.2838 108.369 19.6523 107.841 20.0076 107.319C20.2248 107.009 20.4419 106.699 20.6657 106.389C20.5407 106.428 20.4222 106.461 20.2972 106.494C19.876 106.613 19.4483 106.719 19.014 106.805C17.3097 107.161 15.5658 107.299 13.8286 107.207C12.4204 107.128 11.0056 106.904 9.70261 106.349C8.39968 105.795 7.32707 104.897 6.55058 103.709C5.76092 102.502 5.28713 101.096 4.95152 99.697C4.58302 98.1726 4.40534 96.5954 4.41192 95.0313C4.41192 91.9692 5.10944 88.9401 6.33341 86.1354C7.22178 84.1094 8.37994 82.2088 9.7421 80.4732C10.1501 79.7407 10.5252 78.9949 10.8608 78.2294C11.0253 77.8665 11.1767 77.5035 11.3214 77.1339C11.453 76.8106 11.5452 76.4278 11.7689 76.1506C11.9992 75.8669 12.3545 75.8141 12.6638 76.0054C12.9863 76.2034 13.2824 76.4476 13.5917 76.6654C16.0593 78.4142 18.6587 80.0838 21.5475 81.0341C23.0084 81.5159 24.5219 81.7865 26.0617 81.8128C27.6805 81.8392 29.2927 81.6083 30.8654 81.2255C32.4448 80.8361 33.978 80.2884 35.4784 79.6615C36.2351 79.3447 36.9787 78.9553 37.7618 78.698C38.5646 78.434 39.4135 78.3812 40.2492 78.2954L43.2894 77.972C44.2896 77.7675 45.2899 77.5827 46.2967 77.4177C50.3832 76.7314 54.5091 76.2958 58.6351 75.8801C62.7874 75.4577 66.9463 75.0617 71.0788 74.4414C72.1054 74.2896 73.1253 74.118 74.1453 73.9333C75.1258 73.7551 76.0997 73.5439 77.0802 73.3921C78.8701 73.1149 80.7521 73.1347 82.2788 74.2368C83.5422 75.1409 84.3714 76.5004 85.0031 77.8994C85.3255 78.6188 85.6085 79.3579 85.8783 80.097C86.2139 81.0209 86.5364 81.9778 86.4574 82.9743L86.4771 82.9545Z" fill="#F49B62"/>
<path d="M73.2503 81.5159C73.0529 81.6083 72.8489 81.7007 72.6581 81.7997C71.3617 82.4662 70.1904 83.3505 69.1375 84.3536C68.9533 84.5318 68.7756 84.71 68.5979 84.8882C68.5584 84.9278 68.519 84.9674 68.4795 85.0136C67.3147 86.2344 66.3079 87.5939 65.3801 88.9995C64.3864 90.5108 63.4915 92.088 62.5899 93.6521C61.6621 95.2491 60.7211 96.8462 59.655 98.3508C59.1549 99.0569 58.6219 99.7499 58.056 100.403C57.6151 100.634 57.1742 100.852 56.7268 101.07C56.6675 101.096 56.6083 101.129 56.5425 101.156C57.6875 100.007 58.6811 98.727 59.5892 97.3873C60.629 95.8497 61.5568 94.2328 62.4847 92.6292C63.3796 91.0717 64.2877 89.5209 65.3011 88.0426C66.2684 86.6304 67.3345 85.2775 68.5585 84.0765C68.7032 82.7698 68.9204 81.4763 69.2297 80.196C69.3218 79.8199 69.8943 79.9783 69.8088 80.3544C69.5653 81.3773 69.3745 82.4068 69.2363 83.4429C70.3484 82.453 71.592 81.6083 72.9476 80.9946C73.0924 80.9286 73.2701 80.9484 73.3556 81.1002C73.4346 81.2321 73.3951 81.4433 73.2503 81.5093V81.5159Z" fill="#0B0016"/>
<path d="M48.9486 99.5321C48.7906 100.172 48.5735 100.799 48.3168 101.413C48.0668 102.007 47.7575 102.574 47.468 103.155C47.2311 103.617 46.9942 104.105 46.8165 104.607C46.6125 104.653 46.4085 104.699 46.2045 104.746C46.1321 105.036 46.0597 105.326 45.9808 105.617C46.0861 104.449 46.6849 103.373 47.2113 102.35C47.5009 101.789 47.7707 101.228 47.9878 100.641C48.2115 100.034 48.3827 99.4133 48.5077 98.7798C48.7577 97.5325 48.8104 96.2457 48.6656 94.9786C48.5406 93.8369 48.2642 92.6754 47.7377 91.6525C47.2574 90.7088 46.5401 89.8575 45.553 89.4285C44.3751 88.9204 43.0393 89.0524 41.789 89.026C39.2621 88.9732 36.8536 88.1813 34.4517 87.4817C32.1354 86.802 29.7007 86.1685 27.2725 86.5578C27.1145 86.5842 26.95 86.5182 26.9039 86.3467C26.8645 86.2015 26.95 86.0035 27.1145 85.9771C27.4304 85.9243 27.7463 85.8847 28.0621 85.8649C30.5824 85.6867 33.0567 86.439 35.4454 87.1452C36.6562 87.5015 37.867 87.8645 39.0976 88.1153C39.7161 88.2407 40.3413 88.3331 40.9664 88.3858C41.6113 88.4386 42.2562 88.4254 42.9011 88.432C44.1646 88.4386 45.4806 88.5508 46.5467 89.3098C47.4811 89.9763 48.1129 90.953 48.5406 91.9957C49.0144 93.144 49.2381 94.3978 49.3105 95.6319C49.3829 96.9386 49.2578 98.2585 48.942 99.5255L48.9486 99.5321Z" fill="#0B0016"/>
<path d="M29.3784 96.4503C28.6808 96.9585 28.0557 97.559 27.4766 98.2057C27.2923 98.4037 27.1212 98.6083 26.9502 98.8195C26.9041 98.8789 26.858 98.9317 26.8054 98.9911C26.2131 99.717 25.6669 100.476 25.1076 101.228C24.4693 102.08 23.8112 102.911 23.1071 103.71C22.2319 104.699 21.2975 105.63 20.3104 106.501C19.8893 106.62 19.4615 106.725 19.0272 106.811C19.6392 106.31 20.238 105.782 20.8105 105.234C21.587 104.488 22.3306 103.71 23.0348 102.891C23.7125 102.106 24.3311 101.281 24.9497 100.45C25.5748 99.6048 26.2066 98.7535 26.9041 97.9682C27.0752 96.6021 27.391 95.2492 27.8648 93.9558C27.924 93.804 28.0688 93.6984 28.2333 93.7446C28.3781 93.7842 28.4965 93.9624 28.4439 94.1142C28.2596 94.6223 28.1017 95.1305 27.9635 95.6518C27.8253 96.1665 27.7135 96.6813 27.6279 97.2026C28.0754 96.7473 28.5624 96.3249 29.0822 95.9488C29.2138 95.8564 29.4178 95.929 29.4902 96.0544C29.5758 96.2061 29.5165 96.3711 29.3849 96.4635L29.3784 96.4503Z" fill="#0B0016"/>
<path d="M76.3103 58.8803C76.2906 59.4677 76.0668 60.0616 75.7378 60.5434C75.3759 61.0713 74.9021 61.5069 74.4546 61.949C73.9874 62.411 73.5926 62.8927 73.257 63.4537C72.928 64.0014 72.645 64.5822 72.2896 65.1167C71.9475 65.6381 71.5395 66.1066 71.0525 66.496C70.5655 66.8787 70.0325 67.1823 69.4469 67.3935C68.9731 67.5651 68.4466 67.697 67.9334 67.6706C67.8149 67.6706 67.6965 67.6508 67.578 67.6244C67.3082 67.565 67.0713 67.4463 66.8673 67.2813C66.6896 67.1361 66.5383 66.9513 66.4199 66.7533C66.3672 66.6609 66.3146 66.562 66.2751 66.4564C66.1501 66.1528 66.104 65.8294 66.104 65.5061C66.104 65.1563 66.1698 64.8065 66.2553 64.4766C66.2882 64.3644 66.3212 64.2522 66.3541 64.14C66.3935 63.6186 66.4922 63.0973 66.591 62.5826C66.7226 61.916 66.8542 61.2495 67.0384 60.5962C67.374 59.3951 67.9005 58.2204 68.8086 57.3361C69.6969 56.4716 70.8485 55.9898 72.0988 56.102C72.7503 56.1614 73.4018 56.3264 74.0335 56.5046C74.0664 56.5112 74.1058 56.5244 74.1388 56.5376C74.6783 56.6894 75.218 56.8939 75.6457 57.2635C75.6457 57.2635 75.6588 57.2701 75.6654 57.2767C75.7641 57.3625 75.8431 57.4483 75.9221 57.5473C76.2248 57.9366 76.3432 58.4052 76.3235 58.8803H76.3103Z" fill="#0B0016"/>
<path d="M103.382 84.4527C103.277 84.8091 103.132 85.1457 103.021 85.502C102.81 86.195 102.665 86.9143 102.507 87.6204C102.428 87.9834 102.343 88.3463 102.244 88.7093C102.165 89.0063 102.06 89.3296 101.836 89.5474C101.599 89.7718 101.29 89.8444 100.967 89.8444C100.836 89.8444 100.698 89.8312 100.553 89.8312C100.467 89.8312 100.388 89.8312 100.309 89.8576C100.27 89.8774 100.224 89.8906 100.184 89.9038C100.184 89.9038 100.178 89.9038 100.171 89.9038C100.125 89.9302 100.079 89.9368 100.033 89.9368C99.5855 90.0292 99.1315 89.9632 98.684 89.9368C98.2826 89.917 97.8877 89.9368 97.4929 89.983C97.1902 90.3195 96.9073 90.6627 96.5453 90.9399C96.0716 91.3028 95.5188 91.5338 94.9528 91.7252C94.512 91.8704 93.8473 91.8968 93.696 91.3292C93.6236 91.0521 93.7486 90.7419 93.8473 90.4911C93.946 90.2404 94.0645 90.0028 94.2027 89.7784C94.4922 89.323 94.8607 88.9271 95.295 88.6037C95.5056 88.4519 95.7491 88.3331 95.9202 88.1352C96.0847 87.9504 96.1242 87.6864 96.19 87.4488C96.0518 87.363 95.9268 87.2575 95.8149 87.1387C95.295 86.6041 95.0647 85.865 94.5646 85.3173C94.1237 84.8355 93.4854 84.6441 92.8866 84.4461C92.2351 84.2284 91.5573 83.971 91.0901 83.4364C90.1096 82.308 90.2741 80.8165 90.307 79.4108C89.8135 79.2657 89.3134 79.1337 88.8198 78.9951C85.0755 77.992 81.2128 77.1407 77.8699 75.0817C76.3301 74.1314 74.9548 72.9435 73.8822 71.4785C73.2768 70.6535 72.7634 69.7692 72.2041 68.9179C71.6711 68.0996 71.0788 67.3275 70.4405 66.5883C69.1639 65.1233 67.7228 63.81 66.2685 62.5232C64.7419 61.1703 63.2152 59.8042 61.5832 58.5834C60.0631 57.4483 58.3325 56.5706 57.0888 55.1121C56.0227 53.8582 55.2988 52.3536 54.858 50.7697C54.4105 49.1595 54.2394 47.4635 54.2855 45.7938C54.3315 44.1176 54.5224 42.217 55.9503 41.1215C57.1348 40.2108 58.7931 40.1184 60.1816 40.5276C61.8201 41.0159 63.1099 42.2566 64.1365 43.5765C64.6958 44.2892 65.1959 45.0415 65.7026 45.7938C66.308 46.698 66.9134 47.6021 67.5188 48.5062C68.7362 50.3276 69.9536 52.1424 71.171 53.9638C72.316 55.6796 73.4412 57.4219 74.6323 59.1047C75.6589 60.5566 76.817 61.982 78.2976 62.9983C79.1136 63.5527 80.0152 63.9552 80.9035 64.3644C81.7722 64.7603 82.6276 65.1827 83.4304 65.704C85.036 66.7335 86.4048 68.0402 87.563 69.558C88.1815 70.3632 88.754 71.2079 89.3726 72.0064C89.9846 72.7917 90.6426 73.544 91.3402 74.2634C92.2022 75.1609 93.1037 76.0056 94.025 76.8371C94.4001 76.9493 94.7686 77.0615 95.1437 77.1671C95.782 77.3585 96.4269 77.5498 97.0652 77.7346C97.6969 77.9194 98.3286 78.0976 98.9669 78.2692C99.4736 78.4077 100 78.5265 100.467 78.7707C100.908 79.0017 101.277 79.3845 101.356 79.8926C101.369 79.9718 101.375 80.0576 101.375 80.1368C101.375 80.2622 101.362 80.3941 101.342 80.5195C101.481 80.5789 101.619 80.6317 101.757 80.6911C102.237 80.9023 102.738 81.1333 102.928 81.6678C103.047 81.9912 103.001 82.341 102.915 82.6775C103.146 82.8491 103.33 83.0669 103.435 83.3573C103.56 83.7004 103.501 84.0832 103.396 84.4263L103.382 84.4527Z" fill="white"/>
<path d="M103.422 83.3836C103.317 83.0932 103.132 82.8755 102.902 82.7105C102.988 82.3739 103.034 82.0241 102.915 81.7008C102.724 81.1728 102.224 80.9353 101.744 80.7241C101.606 80.6647 101.468 80.6053 101.329 80.5525C101.362 80.3479 101.382 80.1367 101.349 79.9255C101.27 79.4174 100.902 79.0346 100.461 78.8037C99.9935 78.5595 99.467 78.4407 98.9603 78.3021C98.322 78.1305 97.6903 77.9524 97.0586 77.7676C96.4137 77.5828 95.7754 77.3914 95.1371 77.2C94.7686 77.0878 94.3935 76.9823 94.0184 76.8701C93.0971 76.0386 92.1956 75.1938 91.3336 74.2963C90.6426 73.577 89.9846 72.8313 89.366 72.0394C88.7409 71.2408 88.1749 70.3961 87.5564 69.591C86.3982 68.0732 85.0295 66.7665 83.4239 65.737C82.621 65.2222 81.7656 64.7933 80.8969 64.3973C80.002 63.9882 79.1004 63.5922 78.291 63.0313C76.8039 62.0216 75.6523 60.5961 74.6257 59.1377C73.4346 57.4482 72.316 55.7126 71.1644 53.9968C69.947 52.1754 68.7296 50.3539 67.5122 48.5391C66.9068 47.635 66.3014 46.7309 65.696 45.8268C65.1893 45.0745 64.6892 44.3222 64.1299 43.6094C63.1033 42.2896 61.8135 41.0489 60.175 40.5605C58.7799 40.1514 57.1282 40.2438 55.9437 41.1545C54.5158 42.25 54.3249 44.1572 54.2789 45.8268C54.2328 47.4964 54.4039 49.1925 54.8514 50.8027C55.2923 52.3799 56.0161 53.8912 57.0822 55.1451C58.3259 56.6101 60.0565 57.4878 61.5766 58.6163C63.2152 59.8372 64.7353 61.2033 66.2619 62.5561C67.7162 63.843 69.1573 65.1497 70.4339 66.6213C71.0723 67.3538 71.6645 68.1326 72.1976 68.9509C72.7569 69.8022 73.2702 70.6865 73.8756 71.5114C74.9482 72.9699 76.3235 74.1643 77.8633 75.1146C81.2062 77.1736 85.069 78.0249 88.8133 79.028C89.3134 79.16 89.8069 79.2986 90.3004 79.4438C90.2675 80.8429 90.103 82.3409 91.0835 83.4694C91.5507 84.0039 92.222 84.2613 92.88 84.4791C93.4788 84.6837 94.1105 84.875 94.558 85.3502C95.0581 85.8913 95.2884 86.6371 95.8083 87.1716C95.9202 87.2904 96.0452 87.396 96.1834 87.4818C96.1176 87.7128 96.0781 87.9833 95.9136 88.1681C95.7425 88.3661 95.4924 88.4783 95.2884 88.6367C94.8541 88.96 94.4856 89.3494 94.1961 89.8114C94.0513 90.0357 93.9394 90.2733 93.8407 90.5241C93.742 90.7749 93.617 91.085 93.6894 91.3622C93.8407 91.9297 94.4988 91.9033 94.9462 91.7582C95.5056 91.5668 96.065 91.3358 96.5388 90.9728C96.8941 90.6957 97.1836 90.3459 97.4863 90.0159C97.8812 89.9631 98.276 89.9433 98.6774 89.9697C99.1249 89.9961 99.5789 90.0621 100.026 89.9697C100.072 89.9697 100.119 89.9565 100.165 89.9367C100.165 89.9367 100.171 89.9367 100.178 89.9367C100.224 89.9235 100.263 89.9103 100.303 89.8905C100.513 89.8443 100.757 89.8839 100.961 89.8839C101.277 89.8839 101.593 89.8113 101.829 89.587C102.06 89.3626 102.159 89.0458 102.237 88.7489C102.336 88.3859 102.422 88.0229 102.501 87.66C102.659 86.9472 102.803 86.2345 103.014 85.5416C103.119 85.1852 103.264 84.8487 103.376 84.4923C103.481 84.1491 103.54 83.7664 103.415 83.4232L103.422 83.3836ZM95.7557 90.7551C95.5188 90.887 95.2687 90.9926 95.0187 91.085C94.8147 91.1576 94.6107 91.2434 94.4001 91.2368C94.354 91.2368 94.3474 91.2368 94.308 91.2236L94.2882 91.2104C94.2882 91.1972 94.2817 91.184 94.2817 91.1774C94.2817 91.118 94.3014 91.0586 94.3211 90.9992C94.3869 90.7683 94.479 90.5505 94.5909 90.3459C94.8278 89.9103 95.1437 89.5276 95.5253 89.2174C95.7162 89.0656 95.9268 88.9468 96.1242 88.7951C96.3611 88.6103 96.5322 88.3991 96.6374 88.1219C96.6901 87.9833 96.7296 87.8382 96.7691 87.6996C96.7691 87.6996 96.7757 87.6996 96.7822 87.6996C97.1705 87.759 97.5653 87.627 97.8549 87.3564C98.355 86.8879 98.322 86.1685 98.0654 85.5812C98.0654 85.5416 98.0654 85.502 98.0588 85.4624C98.0127 85.1786 97.8943 84.9081 97.8351 84.6309C97.7759 84.3471 97.743 84.0633 97.7364 83.7796C97.7364 83.4958 97.743 83.2054 97.789 82.9217C97.8153 82.7633 97.7495 82.5983 97.5784 82.5521C97.4337 82.5125 97.2363 82.5983 97.2099 82.7633C97.1244 83.3044 97.1112 83.8456 97.1836 84.3801C97.1573 84.3471 97.131 84.3207 97.1047 84.2877C96.848 83.9775 96.6243 83.6344 96.4334 83.278C96.2097 82.8689 96.032 82.4465 95.7359 82.0769C95.4793 81.7602 95.1766 81.4896 95.0121 81.1134C94.7028 80.3875 94.7554 79.5494 94.2619 78.8961C94.1632 78.7641 94.0053 78.6981 93.8539 78.7905C93.7289 78.8631 93.6499 79.0676 93.7486 79.1996C94.1435 79.721 94.1698 80.4007 94.3474 81.0078C94.4527 81.3642 94.6172 81.681 94.8476 81.9648C95.0713 82.2419 95.3214 82.4795 95.499 82.7897C95.6964 83.1262 95.8478 83.4826 96.0452 83.8192C96.2426 84.1491 96.4664 84.4593 96.7099 84.7563C96.9402 85.0334 97.2429 85.337 97.4403 85.6736C97.5587 85.8782 97.6377 86.0959 97.6443 86.3269C97.6443 86.3863 97.6443 86.4457 97.6377 86.5051C97.5982 86.8021 97.381 87.0462 97.0849 87.1056C97.052 87.1056 97.0191 87.1188 96.9928 87.1188C96.7888 87.1254 96.5914 87.0396 96.4269 86.9142C96.4005 86.8945 96.3676 86.868 96.3479 86.8483C95.8412 86.3929 95.6043 85.7132 95.1963 85.1786C94.7752 84.6243 94.2027 84.3141 93.5578 84.0831C92.9853 83.872 92.3667 83.7268 91.86 83.3638C91.2743 82.948 91.0045 82.2221 90.9124 81.5292C90.8269 80.9023 90.873 80.2621 90.8993 79.6286C90.9059 79.424 90.9124 79.2128 90.9124 79.0082C90.715 78.9488 90.511 78.8895 90.3136 78.8367C87.0168 77.893 83.6212 77.233 80.4758 75.8208C78.8833 75.108 77.3566 74.2105 76.0537 73.0424C75.3957 72.4485 74.8034 71.7886 74.2836 71.0692C73.7045 70.2575 73.2043 69.3996 72.6582 68.5681C71.6053 66.9711 70.3221 65.5456 68.9468 64.2191C67.5386 62.8597 66.0514 61.5794 64.5708 60.3057C63.7943 59.6326 62.998 58.9793 62.182 58.3523C61.3924 57.7518 60.5698 57.2041 59.7407 56.6497C58.9905 56.1482 58.2864 55.6136 57.681 54.9405C57.1545 54.3531 56.7071 53.6998 56.3386 53.0003C55.5884 51.5814 55.1606 49.9844 54.9764 48.3939C54.8843 47.5888 54.8448 46.7771 54.8645 45.9654C54.8843 45.1075 54.9238 44.2298 55.1607 43.4048C55.3778 42.6525 55.7858 41.9662 56.4504 41.5306C57.0229 41.1545 57.7007 40.9697 58.3851 40.9433C59.9841 40.8839 61.3924 41.623 62.5176 42.7119C63.8337 43.979 64.7945 45.5826 65.8079 47.0939C67.0055 48.8757 68.1966 50.6641 69.3943 52.4525L72.9543 57.7782C73.9479 59.263 74.9416 60.7611 76.1919 62.048C76.817 62.6881 77.5014 63.2754 78.2647 63.7572C79.0873 64.2785 79.9823 64.6547 80.864 65.0573C82.5486 65.836 84.1214 66.8259 85.4572 68.1193C86.8654 69.4854 87.8854 71.1616 89.1028 72.6861C90.1096 73.9466 91.2283 75.108 92.3996 76.2101C92.6628 76.4543 92.9261 76.6985 93.1893 76.9427C93.3604 77.0944 93.5249 77.2528 93.696 77.4046C93.696 77.4046 93.7157 77.4046 93.7223 77.4112C94.1632 77.5498 94.6107 77.6818 95.0581 77.8138C95.2227 77.8666 95.3938 77.9128 95.5583 77.9656C96.7625 78.3219 97.9733 78.6717 99.1841 79.0016C99.5987 79.1138 100.053 79.226 100.401 79.49C100.533 79.589 100.645 79.721 100.704 79.8794C100.763 80.0245 100.763 80.1829 100.75 80.3413C100.737 80.4667 100.704 80.5921 100.678 80.7175C100.658 80.7901 100.645 80.8627 100.625 80.9353C100.369 82.0571 100.211 83.1988 100.197 84.3537C100.197 84.6573 100.204 84.9608 100.217 85.2644C100.23 85.5548 100.257 85.8518 100.204 86.1355C100.112 86.6569 99.7632 87.0858 99.4012 87.4554C98.7037 88.1747 97.868 88.7291 97.1705 89.4484C97.1047 89.5144 97.0389 89.587 96.973 89.6596C96.8941 89.7454 96.8151 89.8377 96.7362 89.9169C96.44 90.2469 96.1242 90.5439 95.7293 90.7617L95.7557 90.7551ZM98.6511 89.3428C98.4866 89.3362 98.3155 89.3362 98.1509 89.3428C98.4602 89.0722 98.7761 88.8149 99.092 88.5509C99.5329 88.1813 99.9606 87.792 100.309 87.3234C100.684 86.8219 100.862 86.2675 100.849 85.6406C100.842 84.9938 100.796 84.3537 100.829 83.707C100.862 83.08 100.935 82.4531 101.053 81.8328C101.099 81.6018 101.145 81.3708 101.204 81.1398C101.204 81.1398 101.25 81.1596 101.277 81.1728C101.474 81.2586 101.678 81.3444 101.876 81.4434C102.027 81.5226 102.191 81.615 102.29 81.7668C102.415 81.9581 102.415 82.1891 102.369 82.4201C102.362 82.4597 102.349 82.5059 102.336 82.5455C102.31 82.6379 102.277 82.7303 102.251 82.8227C102.237 82.8623 102.224 82.8953 102.211 82.9282C102.205 82.948 102.198 82.9678 102.191 82.9876C102.04 83.443 101.889 83.8984 101.75 84.3537C101.454 85.3304 101.198 86.3203 100.981 87.3168C100.888 87.7392 100.823 88.1747 100.684 88.5773C100.579 88.894 100.388 89.1976 100.059 89.3164C100.059 89.3164 100.046 89.3164 100.04 89.323C99.5986 89.4682 99.1051 89.3692 98.6511 89.3428ZM102.777 84.3999C102.672 84.7167 102.547 85.0268 102.448 85.3436C102.257 85.9771 102.119 86.6239 101.974 87.2706C101.902 87.6006 101.829 87.9239 101.744 88.2539C101.678 88.5179 101.632 88.828 101.474 89.0524C101.362 89.2108 101.185 89.2438 101.007 89.2504C101.257 88.8479 101.375 88.3397 101.474 87.8646C101.691 86.7955 101.961 85.7396 102.264 84.6969C102.402 84.2349 102.547 83.773 102.705 83.311C102.757 83.3704 102.803 83.443 102.836 83.5156C102.961 83.7994 102.863 84.1161 102.77 84.3933L102.777 84.3999Z" fill="#0B0016"/>
<path d="M56.1411 81.8129C56.1411 81.8788 56.1279 81.9382 56.1147 82.0042C55.9831 82.7368 55.562 83.3769 55.0224 83.8652C54.4433 84.3932 53.7589 84.7628 53.0877 85.1587C52.4165 85.5547 51.7782 85.9902 51.153 86.4522C49.9291 87.3497 48.7512 88.3198 47.4548 89.1117C46.8033 89.5077 46.1321 89.8574 45.4215 90.1214C44.6844 90.4052 43.8619 90.6164 43.0722 90.4382C43.0459 90.4382 43.0261 90.425 42.9998 90.4184C42.6379 90.326 42.3089 90.1346 42.0522 89.8706C41.8943 89.7123 41.7627 89.5275 41.6574 89.3229C41.6377 89.2899 41.6245 89.2503 41.6047 89.2173C41.5126 89.0061 41.4468 88.5706 41.4073 88.1878C41.3744 87.838 41.3613 87.5411 41.3679 87.5147C41.3744 87.4421 41.3876 87.3761 41.3942 87.3035C41.46 86.9009 41.5916 86.5314 41.7693 86.1816C42.5392 83.6277 43.342 80.2554 46.1848 79.4041C46.981 79.1665 47.8233 79.1533 48.6459 79.1533C49.554 79.1533 50.4621 79.1665 51.3702 79.1731C52.1467 79.1731 52.9364 79.1401 53.7129 79.2391C53.8181 79.2523 53.9168 79.2655 54.0221 79.2853C54.5354 79.3777 55.0421 79.5493 55.4435 79.8925C55.4896 79.932 55.5357 79.9716 55.5751 80.0112C55.6738 80.1102 55.7594 80.2224 55.8317 80.3412C56.1015 80.7702 56.1937 81.2849 56.1345 81.7997L56.1411 81.8129Z" fill="#0B0016"/>
<path d="M58.2074 62.9783C57.8586 65.6379 56.7136 67.0633 55.1869 68.1192C53.5681 69.2411 51.515 69.9472 49.5211 71.2935C49.3566 71.4057 49.1921 71.5179 49.0342 71.6366C47.4417 72.8047 45.9084 74.4414 44.6976 77.0811C43.625 78.302 42.4537 79.3711 40.9797 80.1894C40.7428 80.3082 40.6243 80.6645 40.598 80.8559C39.4991 82.6113 38.0777 84.0566 36.4523 85.1851C36.2878 85.2973 36.1233 85.4095 35.9588 85.515C31.7012 88.234 26.1604 88.8807 21.2185 87.4487C17.0991 86.3598 13.7628 83.621 10.8542 80.6183C10.387 80.1564 9.87374 79.6812 9.72239 79.0081C9.45259 77.5628 10.4396 76.3024 11.0187 75.0683C11.4925 74.1246 11.9334 73.1677 12.3611 72.2042C16.5463 62.0214 21.0737 51.3767 30.0495 44.553C31.0431 43.8073 32.0828 43.1143 33.1752 42.494C34.2676 41.8737 35.406 41.3193 36.6037 40.8376C37.7355 40.3954 38.9002 40.0061 40.0847 39.6893C41.2824 39.3527 42.5064 39.0689 43.7303 38.8446C44.7766 38.7126 45.8163 38.6598 46.8561 38.6994C49.9686 38.8314 53.022 39.8411 55.8845 42.1706C58.0297 44.0844 58.5101 47.1927 57.8257 49.8127C57.6546 51.0797 57.4967 52.3336 57.5559 52.8088C57.5559 53.6469 57.6151 54.485 57.7007 55.3231C57.9573 57.8374 58.4377 60.3716 58.2271 62.9717L58.2074 62.9783Z" fill="#336137"/>
<path d="M75.6588 57.2766C71.875 54.9008 68.157 56.1415 67.0384 60.596C66.7686 62.1601 65.6301 65.4532 66.4198 66.7466C64.9129 64.9978 63.248 63.3942 61.6687 61.7179C60.7672 61.0118 59.7933 60.3651 58.8193 59.7183C58.6022 59.5731 58.3916 59.4346 58.1744 59.2894C55.8186 57.7055 53.5352 56.0095 52.3178 53.3302C50.6727 49.8325 50.1792 45.8135 51.4229 42.0783C53.8379 37.0628 60.6158 39.0558 63.4718 42.6459C65.3143 44.4871 66.5119 46.7176 67.9136 48.869C69.335 50.4991 70.9998 51.9377 72.0856 53.8647C73.1714 55.1054 74.5533 56.0491 75.6588 57.27V57.2766Z" fill="#336137"/>
<path d="M54.3841 49.232C54.3644 49.3112 54.338 49.3838 54.3183 49.463C54.2854 49.5818 54.2525 49.7006 54.213 49.8194C54.1735 49.9448 54.1274 50.0702 54.0814 50.1955C53.9893 50.4331 53.8906 50.6707 53.7721 50.9017C53.6076 51.2316 53.4167 51.5484 53.2062 51.852C52.4757 53.0267 51.4163 53.8384 50.2186 54.3135C50.0015 54.3993 49.7843 54.4719 49.5606 54.5379C47.1982 55.2044 44.4344 54.6435 42.5721 52.9409C42.3747 52.7693 42.1904 52.5779 42.0193 52.3733C41.4863 51.7332 41.0915 51.0007 40.8283 50.2153C40.598 49.5356 40.4664 48.8163 40.4203 48.097C40.4071 47.8462 40.4005 47.5954 40.4071 47.3446C40.4071 47.3116 40.4071 47.2786 40.4071 47.2456C40.4137 46.9619 40.4335 46.6781 40.4664 46.3943C40.4664 45.9588 40.4992 45.5232 40.5716 45.1075C40.644 44.6917 40.7427 44.2891 40.8678 43.8998C40.9796 43.5368 41.1244 43.1871 41.2889 42.8505C41.4534 42.5139 41.6509 42.1971 41.868 41.9002C42.3221 41.1941 42.9077 40.6199 43.5789 40.1844C43.8158 40.026 44.0659 39.894 44.3225 39.7752C44.4278 39.729 44.5331 39.6828 44.6384 39.6366C44.7174 39.6036 44.7963 39.5706 44.8753 39.5442C45.2372 39.4056 45.6057 39.3066 45.9676 39.2473C46.3954 39.1945 46.8231 39.1879 47.2377 39.2209C47.6588 39.2538 48.0734 39.3264 48.4748 39.4386C52.5481 40.4945 55.4962 45.1273 54.3775 49.2386L54.3841 49.232Z" fill="white"/>
<path d="M75.9089 46.0576C75.9089 46.0576 75.9089 46.117 75.9089 46.1434C75.9089 46.216 75.9023 46.2886 75.8957 46.3612C75.8957 46.4206 75.8891 46.4866 75.8826 46.546C75.8694 46.7044 75.8562 46.8561 75.8299 47.0145V47.0277C75.8167 47.1069 75.8036 47.1861 75.7904 47.2653C75.6851 47.8922 75.4943 48.4994 75.1784 49.0471C75.0666 49.2451 74.9349 49.4365 74.7902 49.6213C74.7046 49.7269 74.6191 49.8324 74.5204 49.9314C73.2306 51.2711 71.2894 51.7793 69.4863 51.8386C68.2689 51.8782 67.0515 51.7463 65.8407 51.6605C64.6562 51.5747 63.4783 51.5615 62.2938 51.7067C61.1291 51.8452 59.9841 52.1092 58.8654 52.4392C57.7731 52.756 56.6939 53.1123 55.562 53.2707C54.4368 53.4225 53.3247 53.3235 52.2455 52.9737C51.6927 52.7955 51.1597 52.5646 50.6464 52.3006C50.4622 52.2082 50.2779 52.1092 50.1002 52.0036C49.8502 51.865 49.6067 51.7133 49.3632 51.5615C48.5077 51.0137 47.7049 50.3736 47.0929 49.5619C46.4875 48.7568 46.1322 47.8064 45.9282 46.8232C45.7176 45.8003 45.6452 44.751 45.54 43.7149C45.4478 42.8372 45.303 41.9726 45.0727 41.1213C45.0332 40.9695 44.9872 40.8178 44.9411 40.6726C44.6055 39.5969 44.1646 38.5674 43.704 37.5379C43.6118 37.3333 43.5197 37.1353 43.4342 36.9308C43.2763 36.5744 43.1118 36.2114 42.9538 35.8551C42.7959 35.4789 42.6379 35.1027 42.4866 34.7266C41.9799 33.4331 41.618 32.0934 41.4337 30.7208C41.4008 30.4898 41.3745 30.2588 41.3547 30.0279C41.335 29.8497 41.3218 29.6649 41.3153 29.4867C41.2955 29.1237 41.2824 28.7674 41.2889 28.4044C41.2889 27.9755 41.3021 27.5465 41.3153 27.1043C41.3547 25.8571 41.46 24.5042 41.6969 23.1777C41.7759 22.7356 41.868 22.2934 41.9799 21.8645C42.1576 20.9538 42.4668 20.1157 42.8748 19.3435C43.0788 18.9608 43.3092 18.5978 43.5658 18.248C43.8224 17.9049 44.0988 17.5749 44.395 17.2713C44.4476 17.2119 44.5002 17.1592 44.5595 17.0998C44.6319 17.0272 44.7042 16.9612 44.7766 16.8886C44.8358 16.8292 44.8951 16.7764 44.9609 16.7236C44.974 16.7104 44.9872 16.7038 45.0003 16.6906C45.0596 16.6444 45.1188 16.5916 45.178 16.5454C45.2372 16.4992 45.2965 16.4464 45.3623 16.4002C45.3754 16.3936 45.3886 16.3804 45.4017 16.3672C45.4544 16.3276 45.5004 16.288 45.5531 16.255C45.6321 16.1957 45.7176 16.1363 45.8031 16.0835C45.8755 16.0373 45.9479 15.9911 46.0203 15.9449C46.2046 15.8261 46.3954 15.7139 46.5928 15.6083C46.652 15.5753 46.7113 15.5489 46.7705 15.5159C46.8166 15.4961 46.8561 15.4697 46.9021 15.4499C47.0469 15.3773 47.1982 15.3047 47.3496 15.2387C47.422 15.2058 47.4878 15.1794 47.5602 15.1464C47.5799 15.1398 47.593 15.1332 47.6128 15.1266C47.6917 15.0936 47.7707 15.0606 47.8497 15.0342C47.9221 15.0078 47.9944 14.9814 48.0668 14.955C48.08 14.955 48.0997 14.9418 48.1129 14.9418C48.1919 14.9154 48.2708 14.8824 48.3564 14.856C48.3761 14.8494 48.3959 14.8428 48.4156 14.8362C48.488 14.8098 48.567 14.79 48.6459 14.7636C48.7315 14.7372 48.8236 14.7108 48.9157 14.6844C48.9815 14.6646 49.0474 14.6448 49.1197 14.625C49.1461 14.625 49.1724 14.6118 49.1987 14.6052C49.3698 14.559 49.5409 14.5128 49.712 14.4732C49.7185 14.4732 49.7317 14.4732 49.7383 14.4666C50.1134 14.3808 50.4885 14.3016 50.8701 14.2357C52.1928 14.0047 53.5418 13.8859 54.8513 13.7605C61.4384 13.9387 67.3542 18.8156 68.644 25.6855C69.0981 28.2988 68.9007 30.8066 69.8088 33.1625C69.8219 33.2087 69.8417 33.2549 69.8614 33.2945C69.8943 33.3737 69.9206 33.4529 69.9535 33.5255C70.1246 33.9347 70.3221 34.3306 70.5458 34.72C70.8288 35.2149 71.1578 35.6901 71.5197 36.1256C72.1843 36.9374 72.9871 37.6171 73.6978 38.3826C74.4151 39.1613 74.9679 40.0258 75.3035 41.0289C75.6391 42.0386 75.7772 43.1077 75.8628 44.1636C75.9154 44.784 75.9484 45.4307 75.9352 46.0642L75.9089 46.0576Z" fill="#0B0016"/>
<path d="M65.1893 33.9216C64.6957 36.6933 63.9587 39.4254 62.9585 42.0585C62.1754 44.1241 61.1554 46.1963 59.5498 47.7472C58.7667 48.4995 57.8454 49.1066 56.8189 49.4696C55.9831 49.7666 55.0948 49.8721 54.213 49.8259C53.9959 49.8127 53.7787 49.7929 53.5616 49.76C52.7522 49.6478 51.969 49.4036 51.232 49.0538C50.9425 50.8158 50.6069 52.5713 50.2252 54.3135C47.7312 55.2968 44.6187 54.8018 42.5787 52.9342C42.3813 52.7626 42.197 52.5713 42.0259 52.3667C41.0323 51.1656 40.519 49.6412 40.4335 48.0903C40.4203 47.8395 40.4137 47.5888 40.4203 47.338C40.5453 47.2456 40.6704 47.1532 40.7954 47.0608C41.0586 46.8694 41.3218 46.6715 41.5851 46.4801C41.9272 46.2293 42.2694 45.9785 42.605 45.7278C42.888 45.5166 43.2499 45.3318 43.3947 44.9886C43.546 44.6323 43.6316 44.2363 43.7369 43.8601C43.8553 43.4576 43.9606 43.0616 44.0725 42.6591C44.2567 41.9661 44.4278 41.2666 44.5858 40.5671C44.5002 40.3031 44.4147 40.0325 44.3291 39.7686C44.3094 39.696 44.2831 39.63 44.2633 39.564C43.9935 38.7193 43.7566 37.8614 43.5855 36.9968C43.1709 36.8121 42.7893 36.5349 42.4734 36.2115C41.7956 35.5054 41.3153 34.6013 40.9402 33.6972C40.5651 32.7865 40.2558 31.757 40.6704 30.8067C40.9862 30.0873 41.6772 29.7178 42.4142 29.6914C42.559 27.2298 43.0591 24.7551 44.2633 22.5839C45.3754 20.5711 47.0732 18.8553 49.2184 17.9842C50.4819 17.4694 51.8572 17.2912 53.2128 17.2516C54.3907 17.2186 55.5752 17.2978 56.7333 17.4958C58.9576 17.8786 61.1554 18.7761 62.7808 20.3731C64.4654 22.0296 65.3011 24.2799 65.5841 26.5897C65.8868 29.0315 65.6038 31.5128 65.1761 33.9216H65.1893Z" fill="white"/>
<path d="M65.3801 32.7667C65.3209 33.156 65.2551 33.5388 65.1893 33.9215C65.1564 34.1063 65.1234 34.2845 65.0905 34.4627C64.6036 37.0496 63.8929 39.597 62.9585 42.0585C62.1754 44.1241 61.1554 46.1963 59.5498 47.7471C58.7667 48.4995 57.8454 49.1066 56.8189 49.4696C55.9831 49.7665 55.0948 49.8721 54.213 49.8259C53.9959 49.8127 53.7787 49.7929 53.5616 49.7599C52.7522 49.6478 51.9691 49.4036 51.232 49.0538C50.9425 50.8158 50.6069 52.5713 50.2252 54.3135C50.0081 54.3993 49.7909 54.4719 49.5672 54.5379C49.9883 52.6241 50.3634 50.7036 50.6793 48.77C49.633 48.1827 48.7117 47.371 47.9813 46.4207C47.8826 46.2887 47.9616 46.0841 48.0866 46.0115C48.2379 45.9257 48.3959 45.9917 48.4946 46.1171C48.8039 46.5197 49.1592 46.8892 49.5343 47.2258C49.916 47.569 50.3371 47.8725 50.778 48.1365C50.9557 48.2421 51.1399 48.3477 51.3308 48.4401C52.2849 48.9152 53.3247 49.199 54.3841 49.2386C54.6802 49.2518 54.9763 49.2386 55.2725 49.2122C57.3519 49.0076 59.0694 47.6614 60.2671 46.0115C61.6095 44.1505 62.4254 41.9595 63.123 39.795C63.8534 37.5182 64.4193 35.1688 64.7813 32.7997C64.8273 32.4895 64.8734 32.1793 64.9129 31.8692C64.9458 31.6382 64.9721 31.4072 64.9919 31.1762C65.209 29.1568 65.2156 27.078 64.7286 25.1048C64.4654 24.0291 64.0443 23.0063 63.4323 22.0823C62.84 21.1914 62.0635 20.4259 61.1752 19.8254C59.359 18.6045 57.1676 18.0436 55.0092 17.8918C52.6139 17.7268 50.0805 17.9446 48.0273 19.2908C46.198 20.4919 44.8621 22.3793 44.0856 24.4053C43.4342 26.1145 43.1315 27.9228 43.0196 29.7442C43.0064 29.9421 42.9999 30.1467 42.9867 30.3447C42.8485 30.3117 42.7103 30.2919 42.5656 30.2853C42.5063 30.2853 42.4537 30.2853 42.3945 30.2853C42.1181 30.2985 41.8417 30.3777 41.6114 30.5493C41.3284 30.7605 41.1705 31.097 41.1047 31.4402C41.0257 31.8296 41.0915 32.2387 41.1968 32.6149C41.3152 33.0438 41.4798 33.4596 41.664 33.8622C42.0194 34.6211 42.4537 35.3932 43.0788 35.9607C43.1973 36.0663 43.3223 36.1719 43.4605 36.2577C43.6645 36.3897 43.8816 36.4887 44.1119 36.5547C44.4739 36.6537 44.8556 36.6603 45.2306 36.5151C45.382 36.4557 45.5597 36.5811 45.5991 36.7263C45.6452 36.8912 45.5399 37.0364 45.3886 37.0958C45.0069 37.241 44.6186 37.2608 44.237 37.1948C44.2765 37.3796 44.3225 37.5578 44.3686 37.736C44.5068 38.2969 44.6713 38.8512 44.8424 39.4056C44.8556 39.4518 44.8687 39.498 44.8885 39.5442C44.9872 39.8543 45.0859 40.1579 45.1912 40.4681C45.2043 40.5143 45.2109 40.5605 45.1977 40.6067C45.1846 40.6727 45.1714 40.7321 45.1583 40.798C45.1451 40.8442 45.1385 40.8904 45.1254 40.93C45.0925 41.0752 44.8885 41.1016 44.8227 40.9696C44.7963 40.9168 44.77 40.864 44.7437 40.8178C44.6252 40.5869 44.5265 40.3493 44.4476 40.0985C44.4147 39.9929 44.3752 39.8873 44.3423 39.7752C44.3225 39.7026 44.2962 39.6366 44.2765 39.5706C44.0067 38.7259 43.7698 37.8679 43.5987 37.0034C43.1841 36.8187 42.8025 36.5415 42.4866 36.2181C41.8088 35.512 41.3284 34.6079 40.9533 33.7038C40.5782 32.7931 40.269 31.7636 40.6835 30.8133C40.9994 30.0939 41.6903 29.7244 42.4273 29.698C42.5721 27.2364 43.0722 24.7617 44.2765 22.5905C45.3886 20.5777 47.0863 18.8619 49.2316 17.9908C50.495 17.476 51.8704 17.2978 53.2259 17.2582C54.4038 17.2252 55.5883 17.3044 56.7465 17.5024C58.9707 17.8852 61.1686 18.7827 62.794 20.3797C64.4786 22.0361 65.3143 24.2865 65.5972 26.5963C65.8539 28.6487 65.6894 30.7275 65.3801 32.7733V32.7667Z" fill="#0B0016"/>
<path d="M98.5852 117.627C98.4207 118.017 97.96 118.254 97.5915 118.4C96.7689 118.736 95.8608 118.677 95.0054 118.558C94.5316 118.492 94.0578 118.4 93.5774 118.353C93.3274 118.334 93.0773 118.32 92.8207 118.334C93.0773 118.637 93.3208 118.954 93.5379 119.29C93.7025 119.541 93.8604 119.799 94.0512 120.03C94.2355 120.247 94.4395 120.445 94.65 120.637C95.0778 121.026 95.5318 121.382 95.9069 121.818C96.2622 122.227 96.5978 122.742 96.5584 123.309C96.5123 123.89 96.0319 124.293 95.4528 124.26C95.4331 124.26 95.4134 124.26 95.4002 124.26C95.6173 124.577 95.7884 124.926 95.7358 125.316C95.6634 125.837 95.1962 126.141 94.6961 126.147C94.1631 126.154 93.7288 125.824 93.3734 125.454C93.3669 125.441 93.3537 125.434 93.3405 125.421C93.3076 125.632 93.2286 125.83 93.097 125.989C92.8206 126.325 92.3666 126.405 91.9652 126.306C91.5375 126.207 91.1953 125.896 90.8728 125.619C90.2542 125.085 89.6159 124.57 88.9447 124.095C88.0827 123.494 87.168 122.96 86.1875 122.59C86.7666 123.356 87.4707 124.022 88.2604 124.57C88.517 124.748 88.8066 124.92 88.9513 125.203C89.1158 125.527 89.0435 125.89 88.8066 126.16C88.6026 126.391 88.2801 126.53 87.9708 126.537C87.5892 126.537 87.2338 126.372 86.9114 126.18C86.2797 125.811 85.6413 125.454 84.9701 125.17C84.3055 124.887 83.608 124.662 82.9039 124.484C82.2326 124.313 81.5022 124.26 80.8836 123.936C80.2717 123.613 79.89 123.006 79.6794 122.366C79.4425 121.646 79.4228 120.881 79.2385 120.148C79.1267 119.693 78.9556 119.251 78.7384 118.842C78.1593 118.34 77.5803 117.839 77.0012 117.344C74.8823 115.542 72.7041 113.793 70.4009 112.223C68.2228 110.738 65.8801 109.537 63.6494 108.138C62.5636 107.458 61.5107 106.719 60.55 105.867C59.5761 105.003 58.7403 104.006 57.977 102.951C57.1742 101.848 56.4306 100.7 55.6343 99.5981C54.8644 98.529 54.0616 97.4863 53.2259 96.47C51.5413 94.4242 49.7382 92.4774 47.8167 90.656C45.8491 88.7818 43.75 87.0725 41.585 85.4293C37.4788 82.3078 33.0501 79.0543 30.8983 74.184C29.9244 71.9865 29.523 69.5777 29.8981 67.1888C30.2666 64.8724 31.4576 62.622 33.4252 61.2889C35.4125 59.9361 37.8604 60.0285 39.9991 60.9524C42.243 61.9225 44.0527 63.6845 45.4346 65.6775C46.1782 66.7532 46.7836 67.9081 47.2706 69.1223C47.7838 70.4026 48.1655 71.7357 48.6064 73.0424C49.0407 74.3094 49.5606 75.5303 50.2318 76.6918C50.8372 77.7477 51.5281 78.7574 52.2519 79.7341C53.7326 81.7337 55.358 83.6277 56.753 85.6867C57.4637 86.736 58.0757 87.8315 58.6548 88.9599C59.247 90.1082 59.8327 91.2763 60.6487 92.286C61.4975 93.3353 62.5767 94.1272 63.6559 94.9125C64.7286 95.6913 65.7551 96.5162 66.7356 97.4071C68.7097 99.2021 70.4865 101.208 72.1777 103.267C73.9807 105.465 75.7311 107.709 77.4947 109.939L82.3906 116.123C84.0489 116.044 85.6019 115.311 87.2272 115.047C88.0959 114.909 88.9645 114.902 89.8134 115.133C90.2674 115.258 90.7083 115.423 91.1624 115.555C91.6164 115.687 92.0837 115.799 92.5509 115.892C93.4853 116.077 94.4395 116.189 95.3871 116.301C95.8609 116.354 96.3346 116.407 96.8084 116.459C97.0585 116.492 97.3085 116.519 97.5586 116.552C97.7363 116.578 97.9074 116.598 98.0785 116.664C98.4667 116.816 98.7694 117.172 98.5852 117.608V117.627Z" fill="white"/>
<path d="M98.0785 116.684C97.9074 116.618 97.7363 116.591 97.5586 116.572C97.3085 116.539 97.0585 116.506 96.8084 116.479C96.3346 116.42 95.8609 116.374 95.3871 116.321C94.4395 116.215 93.4919 116.096 92.5509 115.912C92.0837 115.819 91.623 115.707 91.1624 115.575C90.7149 115.443 90.2674 115.278 89.8134 115.153C88.9579 114.922 88.0959 114.928 87.2272 115.067C85.5953 115.331 84.0489 116.063 82.3906 116.143L77.4947 109.959C75.7311 107.729 73.9873 105.485 72.1777 103.287C70.4865 101.228 68.7097 99.222 66.7356 97.427C65.7551 96.5361 64.722 95.7111 63.6559 94.9324C62.5767 94.1471 61.491 93.3552 60.6487 92.3059C59.8327 91.2962 59.247 90.1281 58.6548 88.9798C58.0757 87.8579 57.4637 86.7558 56.753 85.7066C55.358 83.641 53.7326 81.7536 52.2519 79.754C51.5281 78.7773 50.8372 77.7676 50.2318 76.7117C49.5671 75.5502 49.0407 74.3293 48.6064 73.0622C48.1589 71.7556 47.7773 70.4291 47.2706 69.1422C46.7902 67.928 46.1782 66.7731 45.4346 65.6974C44.0527 63.7044 42.243 61.9424 39.9991 60.9723C37.8604 60.0484 35.4125 59.9626 33.4252 61.3088C31.4576 62.6419 30.2666 64.8923 29.8981 67.2086C29.523 69.591 29.9244 72.0063 30.8983 74.2039C33.0501 79.0742 37.4788 82.3277 41.585 85.4492C43.75 87.0924 45.8426 88.8016 47.8167 90.6759C49.7382 92.4973 51.5479 94.4441 53.2259 96.4899C54.0616 97.5062 54.8644 98.5489 55.6343 99.618C56.4306 100.727 57.1742 101.868 57.977 102.97C58.7403 104.02 59.5761 105.023 60.55 105.887C61.5107 106.739 62.5636 107.478 63.6494 108.157C65.8801 109.557 68.2228 110.758 70.4009 112.242C72.7041 113.807 74.8757 115.562 77.0012 117.364C77.5868 117.859 78.1593 118.36 78.7384 118.862C78.9556 119.277 79.1267 119.713 79.2385 120.168C79.4228 120.901 79.4425 121.666 79.6794 122.386C79.89 123.026 80.2717 123.64 80.8836 123.956C81.5088 124.28 82.2326 124.339 82.9039 124.504C83.608 124.682 84.2989 124.907 84.9701 125.19C85.6479 125.474 86.2797 125.83 86.9114 126.2C87.2338 126.385 87.5892 126.556 87.9708 126.556C88.2801 126.556 88.596 126.418 88.8066 126.18C89.0435 125.91 89.1093 125.547 88.9513 125.223C88.8066 124.933 88.517 124.761 88.2604 124.59C87.4707 124.049 86.7666 123.376 86.1875 122.61C87.168 122.98 88.0827 123.508 88.9447 124.115C89.6159 124.583 90.2477 125.105 90.8728 125.639C91.1953 125.916 91.5375 126.226 91.9652 126.325C92.3666 126.418 92.8272 126.339 93.097 126.009C93.2286 125.844 93.3076 125.646 93.3405 125.441C93.3471 125.454 93.3603 125.461 93.3734 125.474C93.7288 125.837 94.1631 126.174 94.6961 126.167C95.1962 126.167 95.6634 125.857 95.7358 125.336C95.7884 124.946 95.6239 124.596 95.4002 124.28C95.4199 124.28 95.4331 124.28 95.4528 124.28C96.0319 124.313 96.5123 123.91 96.5584 123.329C96.6044 122.762 96.2622 122.247 95.9069 121.838C95.5252 121.402 95.0712 121.046 94.65 120.657C94.4395 120.465 94.2355 120.267 94.0512 120.049C93.8604 119.819 93.6959 119.561 93.5379 119.31C93.3208 118.974 93.0773 118.657 92.8207 118.353C93.0707 118.347 93.3208 118.353 93.5774 118.373C94.0578 118.419 94.525 118.505 95.0054 118.578C95.8608 118.697 96.7689 118.756 97.5915 118.419C97.96 118.268 98.4207 118.037 98.5852 117.647C98.7694 117.212 98.4601 116.855 98.0785 116.704V116.684ZM98.0456 117.383C97.9732 117.522 97.8284 117.608 97.6968 117.687C97.0256 118.089 96.203 118.096 95.4528 118.017C94.9396 117.957 94.4329 117.858 93.9196 117.793C93.3931 117.727 92.8667 117.707 92.3403 117.76C92.3271 117.76 92.3074 117.76 92.2942 117.76C92.1824 117.773 92.0771 117.786 91.9652 117.799C91.7941 117.819 91.7283 118.037 91.8533 118.155C91.9323 118.228 92.0113 118.307 92.0836 118.38C92.3205 118.617 92.5377 118.868 92.7351 119.139C93.0773 119.614 93.3602 120.129 93.7551 120.571C94.117 120.967 94.5382 121.303 94.933 121.666C95.2949 121.99 95.7029 122.359 95.8872 122.821C96.0188 123.151 96.0188 123.633 95.5582 123.653C95.0515 123.679 94.7027 123.224 94.3934 122.881C94.2684 122.735 94.1367 122.597 93.9985 122.458C93.7485 122.194 93.4787 121.943 93.2089 121.699C92.8009 121.336 92.3666 120.993 91.9125 120.683C91.3203 120.274 90.7017 119.904 90.0503 119.588C89.9055 119.515 89.7278 119.548 89.6423 119.693C89.5633 119.825 89.6028 120.03 89.7476 120.102C90.8202 120.63 91.8204 121.29 92.7219 122.075C93.0181 122.333 93.301 122.603 93.5708 122.881L94.1631 123.633C94.3473 123.864 94.5316 124.095 94.7093 124.326C94.8474 124.497 94.9856 124.682 95.0712 124.893C95.137 125.052 95.1699 125.25 95.058 125.388C94.9659 125.501 94.8079 125.54 94.6566 125.54C94.2289 125.54 93.8999 125.151 93.6235 124.86C93.3405 124.557 93.051 124.26 92.7483 123.976C92.643 123.864 92.5245 123.752 92.4127 123.646C92.3863 123.62 92.3534 123.6 92.3205 123.587C91.6164 122.973 90.8531 122.412 90.0568 121.93C89.5699 121.633 89.0698 121.376 88.5631 121.112C88.0564 120.848 87.5562 120.571 87.1285 120.181C86.8456 119.924 86.4244 120.346 86.7074 120.604C87.5234 121.356 88.5828 121.752 89.5304 122.306C90.4846 122.867 91.3795 123.527 92.1955 124.273C92.2679 124.339 92.3337 124.398 92.3995 124.464C92.5179 124.596 92.6166 124.735 92.6824 124.9C92.768 125.118 92.7812 125.428 92.6035 125.613C92.3797 125.844 92.0047 125.718 91.7744 125.58C91.4519 125.382 91.1755 125.105 90.8926 124.86C89.7147 123.877 88.4644 122.947 87.0627 122.306C86.5955 122.095 86.1086 121.91 85.615 121.772C85.5163 121.746 85.4176 121.719 85.3123 121.693C85.1215 121.647 84.9636 121.851 85.0689 122.023C85.1215 122.115 85.1741 122.201 85.2334 122.293C85.7664 123.125 86.4244 123.877 87.1812 124.511C87.4247 124.715 87.6813 124.907 87.9445 125.091C88.109 125.204 88.4446 125.362 88.4315 125.6C88.4249 125.784 88.1748 125.923 88.0037 125.943C87.7142 125.976 87.4181 125.797 87.1812 125.659C85.9704 124.953 84.7201 124.365 83.3645 123.996C83.0289 123.903 82.6933 123.824 82.3511 123.758C82.0353 123.692 81.7194 123.64 81.4101 123.534C80.8508 123.336 80.4822 122.894 80.2783 122.346C80.0019 121.6 79.9887 120.789 79.7979 120.023C79.7716 119.917 79.7452 119.819 79.7123 119.72C79.5807 119.291 79.4096 118.875 79.1925 118.479C78.9424 118.261 78.6924 118.043 78.4357 117.826C74.9744 114.856 71.4275 111.998 67.4661 109.708C65.2945 108.448 63.044 107.267 61.1291 105.623C59.1154 103.888 57.773 101.618 56.2398 99.4794C53.1996 95.236 49.6461 91.3556 45.6715 87.9701C41.6574 84.5451 36.9721 81.7931 33.6555 77.6158C32.142 75.7152 30.9509 73.5044 30.5035 71.0956C30.0823 68.7991 30.339 66.3045 31.5037 64.2587C32.0959 63.2226 32.9119 62.2987 33.9319 61.6718C34.9256 61.0647 36.0706 60.8007 37.2287 60.8799C39.5319 61.0316 41.6771 62.3845 43.2433 64.008C45.099 65.9218 46.3361 68.2315 47.1784 70.7393C47.6193 72.0459 48.001 73.3724 48.5208 74.6527C48.9815 75.7944 49.5606 76.8766 50.2186 77.9193C51.5215 79.9783 53.0943 81.8459 54.5749 83.7796C55.3119 84.7365 56.0292 85.7197 56.6741 86.7426C57.3518 87.8051 57.9112 88.9336 58.4969 90.0489C59.0825 91.1642 59.7208 92.2663 60.5829 93.1902C61.4712 94.1537 62.5636 94.8994 63.6099 95.6715C65.7354 97.2356 67.6437 99.0702 69.4139 101.03C71.1774 102.984 72.8094 105.056 74.448 107.121C76.2839 109.438 78.1199 111.754 79.9558 114.077C80.502 114.77 81.0482 115.456 81.5943 116.149L82.0747 116.763C82.3182 116.763 82.5551 116.743 82.7986 116.717C84.0226 116.578 85.2202 116.149 86.4113 115.852C87.1746 115.661 87.9511 115.529 88.7342 115.582C89.6094 115.648 90.4188 116.017 91.2611 116.242C93.0444 116.717 94.8869 116.855 96.7163 117.073C96.94 117.1 97.1638 117.126 97.3809 117.159C97.5389 117.179 97.71 117.199 97.8613 117.265C97.9074 117.284 97.9468 117.311 97.9797 117.337C98.0126 117.37 97.9995 117.337 98.0127 117.377V117.39L98.0456 117.383Z" fill="#0B0016"/>
<path d="M55.4436 79.8991C55.0422 79.5559 54.5355 79.3843 54.0222 79.2919C53.9169 79.2721 53.8116 79.2589 53.7129 79.2457C52.9364 79.1533 52.1468 79.1863 51.3703 79.1797C50.4622 79.1797 49.5541 79.1665 48.6459 79.1599C47.8234 79.1599 46.9811 79.1665 46.1849 79.4107C43.3421 80.2686 42.5392 83.6343 41.7693 86.1882C41.5917 86.538 41.46 86.9076 41.3942 87.3101C41.3811 87.3827 41.3745 87.4487 41.3679 87.5213C41.3614 87.5477 41.3679 87.8447 41.4074 88.1944C41.4469 88.5706 41.5061 89.0128 41.6048 89.2239C41.6246 89.2635 41.6377 89.2965 41.6575 89.3295C41.085 88.6234 40.3611 88.036 39.6636 87.4685C38.7292 86.7162 37.8211 85.9573 36.9853 85.0993C35.2284 83.2911 33.7675 81.2255 32.3724 79.1335C32.0237 78.6122 31.6815 78.0909 31.3393 77.5629C30.9774 77.0086 30.6154 76.4476 30.3324 75.8471C29.7599 74.6196 29.4573 73.2667 29.2138 71.9403C28.7466 69.3995 28.6742 66.6872 29.6218 64.2389C30.4049 62.2063 31.8394 60.365 33.8464 59.4411C35.0375 58.8934 36.3405 58.6756 37.6434 58.6624C38.9003 58.6492 40.2229 58.7944 41.3482 59.4015C42.3616 59.9493 43.1249 60.8534 43.7369 61.8103C44.4081 62.8728 44.9609 64.0079 45.5531 65.1166C46.8955 67.6507 48.2445 70.1783 49.587 72.7124C50.1924 73.8541 50.7714 75.0354 51.6006 76.0385C52.252 76.837 53.0154 77.5365 53.7722 78.2426C54.3447 78.7706 54.9237 79.3117 55.4502 79.8991H55.4436Z" fill="#336137"/>
<path d="M58.8128 59.7249C58.5956 59.5797 58.385 59.4411 58.1679 59.296C57.9112 57.0588 57.6414 54.782 58.2863 52.6108C58.4772 52.5514 58.6746 52.4986 58.8654 52.4392C58.9049 52.4261 58.9378 52.4194 58.9773 52.4062C58.7272 53.1124 58.5824 53.8581 58.5232 54.6038C58.385 56.3197 58.6153 58.0223 58.8128 59.7249Z" fill="#0B0016"/>
<path d="M45.5991 65.2553C45.0727 64.1862 44.6581 63.0709 44.158 61.9886C43.2104 59.9362 41.7298 58.1676 39.8215 56.9533C38.8475 56.333 37.7552 55.871 36.6102 55.7126C36.0311 55.6335 35.452 55.6335 34.8729 55.7324C34.2544 55.838 33.6687 56.0558 33.0962 56.3066C31.2207 57.1117 29.4506 58.3788 28.3714 60.154C28.2398 60.3718 28.1214 60.5895 28.0161 60.8205C27.9437 60.9657 27.9766 61.1439 28.1213 61.2297C28.2529 61.3089 28.4569 61.2693 28.5293 61.1241C29.3914 59.3027 30.997 57.996 32.7672 57.1183C33.7608 56.6233 34.8203 56.2274 35.9455 56.2604C37.0576 56.2934 38.1368 56.6827 39.0976 57.2239C40.9664 58.2864 42.4668 59.9296 43.4276 61.8434C43.9606 62.9125 44.3686 64.041 44.8753 65.1233C45.3491 66.1264 45.8755 67.1031 46.4546 68.0534C47.2245 69.3073 48.0865 70.5149 49.0276 71.6434C49.1921 71.5246 49.3566 71.4059 49.5145 71.3003C48.7051 70.3302 47.9549 69.3139 47.2771 68.2514C46.6586 67.2879 46.0992 66.2914 45.5991 65.2619V65.2553Z" fill="#0B0016"/>
<path d="M36.4392 85.1853C36.2747 85.2974 36.1102 85.4096 35.9457 85.5152C35.8864 85.436 35.8272 85.3568 35.768 85.2843C34.952 84.1888 34.1887 83.0471 33.4846 81.8658C32.787 80.6911 32.1817 79.4636 31.5631 78.2428C31.2604 77.6488 30.9379 77.0549 30.5234 76.5401C30.1351 76.0518 29.6613 75.636 29.1612 75.2665C28.1478 74.5141 27.0291 73.8938 26.1473 72.9765C25.8775 72.6993 26.2987 72.277 26.5685 72.5541C27.5556 73.577 28.8453 74.2238 29.9443 75.1213C30.451 75.537 30.8985 76.0122 31.2735 76.5467C31.6618 77.1011 31.971 77.7016 32.2672 78.3088C32.8726 79.5362 33.5043 80.7439 34.2216 81.9186C34.906 83.0405 35.6496 84.136 36.4458 85.1787L36.4392 85.1853Z" fill="#0B0016"/>
<path d="M23.4361 82.8491C21.4291 82.4201 19.5602 81.4236 18.0928 79.9784C17.6519 79.5428 17.2241 79.0743 16.678 78.7641C16.3424 78.5727 16.0463 79.0875 16.3753 79.2789C16.8491 79.5494 17.2176 79.9454 17.5927 80.3281C17.9743 80.7109 18.3758 81.0607 18.8101 81.384C19.659 82.0242 20.5934 82.5389 21.5804 82.9217C22.1332 83.1329 22.6991 83.3045 23.2782 83.4298C23.6533 83.509 23.8112 82.9349 23.4361 82.8557V82.8491Z" fill="#0B0016"/>
<path d="M27.5358 82.3805C25.634 81.9779 23.7915 81.3312 22.0608 80.4469C21.7187 80.2753 21.4159 80.7901 21.7581 80.9616C23.5349 81.8723 25.4234 82.5455 27.3779 82.9612C27.7529 83.0404 27.9109 82.4663 27.5358 82.3871V82.3805Z" fill="#0B0016"/>
<path d="M52.943 56.4451C50.4161 57.8838 47.1982 58.2599 44.52 57.0192C41.8878 55.805 40.0716 53.3698 38.9529 50.7565C38.2357 49.0802 37.775 47.2918 37.3934 45.51C37.3144 45.1338 36.7353 45.2922 36.8209 45.6684C37.4986 48.8361 38.4725 52.0433 40.5454 54.5907C41.4535 55.706 42.5656 56.6761 43.8422 57.3426C45.1978 58.0487 46.7179 58.3853 48.238 58.3523C49.9884 58.3127 51.719 57.8178 53.2391 56.9532C53.5747 56.7619 53.2721 56.2471 52.9365 56.4385L52.943 56.4451Z" fill="#0B0016"/>
<path d="M75.9089 46.0577C75.9089 46.0577 75.9089 46.1171 75.9089 46.1435C75.9089 46.2161 75.9023 46.2886 75.8957 46.3612C75.8957 46.4206 75.8891 46.4866 75.8826 46.546C75.8694 46.7044 75.8562 46.8562 75.8299 47.0146V47.0278C75.8167 47.107 75.8036 47.1862 75.7904 47.2654C75.7773 47.3445 75.7641 47.4237 75.7444 47.5029C75.593 47.1862 75.4088 46.8892 75.1784 46.6054C74.2638 45.4835 73.0003 44.6982 71.8948 43.7875C69.6969 41.9925 67.6438 39.8345 66.4791 37.208C66.1895 36.5612 65.9592 35.8881 65.7947 35.2018C65.7618 30.2127 64.926 23.7585 59.326 22.0823C56.4635 21.1254 53.601 21.4818 50.8635 20.2873C50.2647 20.0497 50.1463 21.0066 49.6988 21.1254C49.0145 21.8183 48.3893 22.5772 47.8365 23.3758C47.2838 24.1809 46.7968 25.0322 46.3888 25.9165C45.9808 26.8074 45.665 27.7313 45.4149 28.675C45.2307 29.3614 45.053 30.0609 44.7898 30.7208C44.7108 30.9122 44.6318 31.1036 44.5331 31.2884C44.3818 31.1498 44.2304 31.0178 44.0659 30.8924C43.7369 30.6416 43.3816 30.4305 42.9867 30.3315C42.8485 30.2985 42.7103 30.2787 42.5656 30.2721C42.5063 30.2721 42.4537 30.2721 42.3945 30.2721C42.1181 30.2853 41.8417 30.3645 41.6114 30.536C41.5456 30.5822 41.4929 30.635 41.4403 30.6944C41.4074 30.4635 41.3811 30.2325 41.3613 30.0015C41.3416 29.8233 41.3284 29.6385 41.3218 29.4604C41.3021 29.0974 41.289 28.741 41.2955 28.3781C41.2955 27.9491 41.3087 27.5201 41.3218 27.078C41.3613 25.8307 41.4666 24.4779 41.7035 23.1514C41.7825 22.7092 41.8746 22.2671 41.9865 21.8381C42.1642 20.9274 42.4734 20.0893 42.8814 19.3172C43.0854 18.9344 43.3158 18.5715 43.5724 18.2217C43.829 17.8785 44.1054 17.5486 44.4015 17.245C44.4541 17.1856 44.5068 17.1328 44.566 17.0734C44.6384 17.0008 44.7108 16.9348 44.7832 16.8622C44.8424 16.8028 44.9017 16.75 44.9675 16.6972C44.9806 16.684 44.9938 16.6774 45.0069 16.6642C45.0662 16.6181 45.1254 16.5653 45.1846 16.5191C45.2438 16.4729 45.3031 16.4201 45.3689 16.3739C45.382 16.3673 45.3952 16.3541 45.4083 16.3409C45.461 16.3013 45.507 16.2617 45.5597 16.2287C45.6386 16.1693 45.7242 16.1099 45.8097 16.0571C45.8821 16.0109 45.9545 15.9647 46.0269 15.9185C46.2112 15.7997 46.402 15.6875 46.5994 15.582C46.6586 15.549 46.7179 15.5226 46.7771 15.4896C46.8232 15.4698 46.8626 15.4434 46.9087 15.4236C47.0534 15.351 47.2048 15.2784 47.3562 15.2124C47.4286 15.1794 47.4943 15.153 47.5667 15.12C47.5865 15.1134 47.5996 15.1068 47.6194 15.1002C47.6983 15.0672 47.7773 15.0342 47.8563 15.0078C47.9286 14.9814 48.001 14.955 48.0734 14.9286C48.0866 14.9286 48.1063 14.9154 48.1195 14.9154C48.1985 14.889 48.2774 14.856 48.363 14.8296C48.3827 14.823 48.4025 14.8164 48.4222 14.8098C48.4946 14.7834 48.5735 14.7636 48.6525 14.7372C48.7381 14.7108 48.8302 14.6844 48.9223 14.658C48.9881 14.6383 49.0539 14.6185 49.1263 14.5987C49.1526 14.5987 49.179 14.5855 49.2053 14.5789C49.3764 14.5327 49.5475 14.4931 49.7185 14.4469C49.7251 14.4469 49.7383 14.4469 49.7449 14.4403C50.1068 14.3545 50.4753 14.2819 50.8438 14.2225C50.857 14.2225 50.8701 14.2159 50.8833 14.2159C52.2191 13.8529 53.555 13.7011 54.8645 13.7407C61.4516 13.9189 67.3674 18.7958 68.6572 25.6657C69.1113 28.2791 68.9138 30.7868 69.8219 33.1428C69.8351 33.189 69.8548 33.2352 69.8746 33.2748C69.9075 33.354 69.9404 33.4265 69.9733 33.5057C70.1444 33.9149 70.3352 34.3175 70.5589 34.7002C70.8419 35.1952 71.1709 35.6703 71.5329 36.1059C72.1975 36.9176 73.0003 37.5973 73.711 38.3628C74.4283 39.1416 74.981 40.0061 75.3166 41.0092C75.6523 42.0189 75.7904 43.088 75.876 44.1439C75.9286 44.7642 75.9615 45.4109 75.9483 46.0445L75.9089 46.0577Z" fill="#0B0016"/>
<path d="M29.194 134.825C28.9374 135.558 28.1806 135.749 27.4897 135.829C25.7327 136.033 23.9494 136.02 22.1858 135.954C20.7973 135.901 19.3628 135.809 18.073 135.235C17.461 134.964 16.9016 134.561 16.4805 134.04C16.0462 133.506 15.7501 132.885 15.5263 132.232C15.0854 130.965 14.9012 129.592 14.1905 128.431C13.4206 127.17 12.2361 126.253 11.2556 125.164C10.999 124.874 10.7489 124.563 10.6436 124.181C10.5317 123.772 10.6107 123.336 10.7621 122.947C11.0187 122.273 11.4004 121.653 11.8347 121.086C12.4927 120.228 13.3153 119.502 14.2432 118.954C14.4077 118.763 14.5787 118.571 14.7432 118.373C14.9407 118.149 15.1315 117.885 15.4079 117.746C15.6908 117.608 16.0133 117.628 16.2699 117.819C16.4805 117.984 16.6187 118.222 16.724 118.466C16.8687 118.789 17.0069 119.119 17.1451 119.449C17.3755 119.99 17.6123 120.525 17.8427 121.066C18.0269 120.848 18.2572 120.663 18.5336 120.538C18.9482 120.34 19.4088 120.287 19.8497 120.426C20.284 120.564 20.6525 120.848 20.9289 121.204C21.5606 122.023 21.6264 123.092 21.7054 124.082C21.791 125.164 21.8962 126.391 22.3174 127.441C22.37 127.5 22.4161 127.553 22.4688 127.606C23.5282 128.708 24.7193 129.619 26.0156 130.417C27.0751 131.07 28.253 131.77 28.8847 132.892C29.194 133.446 29.4243 134.192 29.2072 134.812L29.194 134.825Z" fill="#0B0016"/>
<path d="M70.4076 128.233C70.4405 128.945 69.9075 129.572 69.3086 129.882C68.6309 130.232 67.8412 130.338 67.1042 130.49C66.3145 130.655 65.5183 130.8 64.7154 130.912C63.123 131.123 61.491 131.163 59.9249 130.747C58.4377 130.351 57.1018 129.559 55.6673 129.011C54.1998 128.45 52.6469 128.167 51.0939 127.975C50.3437 127.883 49.5869 127.823 48.8368 127.725C48.2511 127.645 47.6457 127.507 47.1851 127.111C46.9745 126.933 46.8165 126.682 46.7507 126.418C46.652 126.009 46.7573 125.6 46.9021 125.217C47.1324 124.59 47.4351 123.989 47.797 123.435C47.9747 123.158 48.1721 122.894 48.3827 122.636C48.7578 122.036 49.1329 121.435 49.508 120.841C49.7383 120.472 49.9686 120.102 50.1989 119.733C50.3832 119.436 50.574 119.132 50.8438 118.908C51.1268 118.67 51.5019 118.545 51.8638 118.677C52.206 118.802 52.4297 119.079 52.6469 119.357C53.2983 120.195 54.0551 120.947 54.8842 121.607C55.6015 120.894 56.3517 120.214 57.1348 119.581C57.4835 119.297 57.8388 118.961 58.2995 118.908C58.714 118.862 59.1155 119.04 59.4248 119.31C59.734 119.581 59.938 119.957 60.1026 120.327C60.2934 120.749 60.4776 121.171 60.6751 121.587C61.0172 122.313 61.3726 123.026 61.7477 123.739C61.8069 123.778 61.8595 123.824 61.9187 123.864C63.1032 124.682 64.3996 125.342 65.7618 125.817C66.4527 126.055 67.1634 126.246 67.8872 126.391C68.4466 126.504 69.0191 126.636 69.5126 126.926C70.0062 127.21 70.3747 127.672 70.401 128.252L70.4076 128.233Z" fill="#0B0016"/>
<path d="M54.1604 32.4433C53.9828 33.5784 53.2326 34.4495 52.4824 34.3901C51.7322 34.3373 51.2716 33.3672 51.4559 32.2387C51.6335 31.1036 52.3837 30.2325 53.1339 30.2919C53.8841 30.3447 54.3447 31.3148 54.1604 32.4433Z" fill="#0B0016"/>
<path d="M63.452 32.9647C63.3665 34.047 62.7216 34.9445 62.0043 34.9643C61.287 34.9841 60.7737 34.1262 60.8593 33.0439C60.9448 31.9616 61.5897 31.0641 62.307 31.0443C63.0243 31.0245 63.5375 31.8824 63.452 32.9647Z" fill="#0B0016"/>
<path d="M59.655 29.2691C59.7932 29.8499 60.2802 30.2524 60.8264 30.4372C61.4976 30.6748 62.2346 30.6088 62.9321 30.5956C63.2875 30.589 63.6428 30.5824 63.9916 30.5692C64.268 30.556 64.5641 30.523 64.7813 30.3382C65.1892 29.9885 65.0971 29.3417 64.7813 28.9656C64.6431 28.794 64.4588 28.662 64.268 28.5498C64.2548 28.5366 64.2351 28.53 64.2219 28.5168C63.9389 28.3386 63.6099 28.2264 63.2941 28.1208C62.965 28.0153 62.6294 27.9295 62.2938 27.8635C61.9451 27.7975 61.5963 27.7579 61.241 27.7513C60.9251 27.7447 60.6026 27.7777 60.3131 27.9097C60.0564 28.0285 59.8327 28.2132 59.7143 28.4706C59.5958 28.7148 59.5827 29.0052 59.6419 29.2625L59.655 29.2691Z" fill="#0B0016"/>
<path d="M56.0161 28.5695C55.8187 29.1833 55.2528 29.566 54.6474 29.7112C53.9038 29.896 53.1207 29.764 52.3706 29.6848C51.9955 29.6452 51.6138 29.6056 51.2321 29.5594C50.936 29.5198 50.6201 29.4604 50.403 29.2361C49.995 28.8203 50.1529 28.134 50.528 27.7578C50.6925 27.5862 50.9031 27.4608 51.1137 27.3619C51.1334 27.3487 51.1532 27.3421 51.1663 27.3355C51.4888 27.1705 51.8441 27.0781 52.1929 26.9989C52.5548 26.9131 52.9233 26.8537 53.2918 26.8207C53.6669 26.7877 54.0486 26.7745 54.4303 26.8009C54.7659 26.8207 55.108 26.8867 55.4107 27.0583C55.674 27.2101 55.8977 27.4344 56.003 27.7182C56.1017 27.9888 56.0951 28.299 56.003 28.5761L56.0161 28.5695Z" fill="#0B0016"/>
<path d="M44.7042 34.5089C44.0067 33.5058 43.2104 32.5753 42.3155 31.7371C42.0325 31.4732 41.6113 31.8955 41.8943 32.1595C42.7498 32.958 43.5197 33.8489 44.1909 34.8124C44.283 34.9444 44.4541 35.0038 44.5989 34.918C44.7305 34.8388 44.7963 34.6408 44.7042 34.5089Z" fill="#0B0016"/>
<path d="M58.51 37.7756C58.4705 37.6304 58.2929 37.5117 58.1415 37.5645C56.6148 38.1056 54.9632 37.2807 54.2064 35.908C54.0222 35.5715 53.5089 35.875 53.6931 36.2116C54.5683 37.802 56.5293 38.7721 58.2994 38.1452C58.4508 38.0924 58.5495 37.9406 58.51 37.7756Z" fill="#0B0016"/>
<path d="M45.4676 47.9055C44.5463 46.0775 44.0002 44.0581 43.8949 42.0123C43.8883 41.8539 43.7764 41.7087 43.6053 41.7087C43.454 41.7087 43.2895 41.8407 43.3026 41.9991C43.4211 44.1571 43.9804 46.2755 44.9543 48.2025C45.1254 48.5457 45.6453 48.2553 45.4742 47.9055H45.4676Z" fill="#0B0016"/>
<path d="M58.6088 32.5291C58.4114 32.0209 58.2732 31.4798 58.214 30.9386C58.1416 30.3183 58.1547 29.6848 58.2666 29.0644C58.2929 28.906 58.2205 28.7411 58.056 28.6949C57.9112 28.6553 57.7204 28.7411 57.6875 28.906C57.4967 29.9751 57.5427 31.0706 57.8389 32.1199C57.9902 32.6545 58.2271 33.1362 58.464 33.6312C58.6482 34.0205 58.5298 34.4363 58.2403 34.7399C57.8454 35.1556 57.24 35.2678 56.7004 35.3536C56.5425 35.38 56.4503 35.578 56.4898 35.7232C56.5359 35.8947 56.6938 35.9541 56.8583 35.9343C57.3979 35.8551 57.9507 35.7232 58.3982 35.3932C58.8259 35.0764 59.1418 34.5947 59.155 34.0535C59.1747 33.5058 58.793 33.024 58.6022 32.5357L58.6088 32.5291Z" fill="#0B0016"/>
<path d="M50.8306 20.3467C50.7648 20.3203 50.699 20.2873 50.6332 20.2609C50.5147 20.3665 50.3963 20.4721 50.2844 20.5777C50.0014 19.9178 49.6593 19.2776 49.2381 18.6903C48.7578 18.0238 48.1589 17.4562 47.5009 16.9613C47.0205 16.5983 46.5204 16.2683 46.0203 15.9318C46.2045 15.813 46.3953 15.7008 46.5928 15.5952C47.1521 15.9648 47.7049 16.3475 48.2247 16.7699C48.8893 17.3176 49.475 17.9446 49.9488 18.6705C50.2976 19.1985 50.5871 19.766 50.8372 20.3467H50.8306Z" fill="white"/>
<path d="M75.1784 49.0539C75.0665 49.2518 74.9349 49.4432 74.7901 49.628C74.3427 48.5193 73.5793 47.5162 72.7765 46.6583C71.4604 45.2658 69.8877 44.1506 68.5584 42.7779C67.8938 42.0982 67.2884 41.3524 66.8212 40.5209C66.3869 39.7554 66.0776 38.9239 65.8341 38.0792C65.4985 36.8913 65.3011 35.677 65.0905 34.4627C64.9984 33.9414 64.9128 33.4266 64.8076 32.9119C64.801 32.8723 64.7944 32.8327 64.7812 32.7931C64.8273 32.4829 64.8734 32.1728 64.9129 31.8626C64.9458 31.6316 64.9721 31.4007 64.9918 31.1697C65.1498 31.6976 65.2748 32.2322 65.3801 32.7601C65.413 32.9317 65.4525 33.1033 65.4788 33.2749C65.8078 35.0105 66.0184 36.7857 66.5711 38.4685C66.8475 39.3133 67.2226 40.1118 67.7227 40.8509C68.2557 41.6362 68.9138 42.3225 69.6048 42.9693C71.013 44.2891 72.5857 45.4374 73.8162 46.9355C74.3427 47.5756 74.8231 48.2883 75.1784 49.0473V49.0539Z" fill="#8AB946"/>
<path d="M74.0729 44.1044C73.3425 41.8672 71.3157 40.5011 69.8153 38.8183C69.3942 38.3497 69.0191 37.8482 68.723 37.2939C68.5388 36.9573 68.0255 37.2543 68.2097 37.5974C69.2955 39.6102 71.3092 40.8311 72.645 42.6459C73.0069 43.1409 73.3162 43.682 73.507 44.2627C73.6255 44.6257 74.2046 44.4739 74.0795 44.1044H74.0729Z" fill="#8AB946"/>
<path d="M75.7377 64.7997C74.5862 64.4302 73.3819 64.2388 72.1711 64.219C71.7895 64.219 71.7895 64.8129 72.1711 64.8195C73.3293 64.8393 74.4743 65.0307 75.5798 65.3805C75.9483 65.4993 76.1063 64.9185 75.7377 64.8063V64.7997Z" fill="#0B0016"/>
<path d="M58.2733 96.0014C58.0429 96.3578 57.806 96.7538 57.4112 96.9386C57.2533 97.0111 57.0756 97.0375 56.9177 96.9979C56.7203 96.9451 56.5558 96.8066 56.4044 96.6812C56.2794 96.5822 56.1017 96.5558 55.9833 96.6812C55.878 96.7868 55.8582 97.0045 55.9833 97.1035C56.2136 97.2949 56.4504 97.4797 56.74 97.5655C57.0098 97.6447 57.3125 97.6183 57.5691 97.5127C58.1285 97.2817 58.4707 96.8 58.7865 96.305C58.9905 95.9816 58.4772 95.6781 58.2733 96.0014Z" fill="#0B0016"/>
<path d="M90.3662 117.086C89.616 116.934 88.8724 116.789 88.1223 116.637C87.9643 116.604 87.7998 116.684 87.7537 116.849C87.7143 116.994 87.8064 117.185 87.9643 117.218C88.7145 117.37 89.4581 117.515 90.2083 117.667C90.3662 117.7 90.5307 117.621 90.5768 117.456C90.6163 117.311 90.5242 117.119 90.3662 117.086Z" fill="#0B0016"/>
<path d="M97.46 57.1117C97.3152 58.1609 97.1441 59.2102 96.9533 60.2529C96.9138 60.4707 96.8743 60.6819 96.8348 60.8997C96.6966 61.6652 96.5453 62.4175 96.3939 63.183C96.3873 63.2292 96.3742 63.2754 96.3676 63.3216C96.032 62.7475 95.6766 62.1799 95.3213 61.619C94.7554 60.7347 94.1631 59.8768 93.5512 59.0189C91.985 56.8213 90.3333 54.6897 88.754 52.5053C87.2273 50.3869 85.6941 48.2092 84.5622 45.84C83.5093 43.6358 82.825 41.1611 83.3514 38.7193C83.6344 37.4192 84.2529 36.1654 85.1808 35.2415C85.4045 35.0171 85.6414 34.8125 85.9046 34.6343C86.102 34.4957 86.3126 34.3704 86.5298 34.2582C86.8127 34.113 87.1089 34.0008 87.4181 33.9084C87.4313 33.9084 87.4379 33.9018 87.4511 33.8952C89.5042 33.3211 91.781 34.0602 93.3998 35.3603C95.295 36.8781 96.3808 39.1879 97.0257 41.491C97.7166 43.979 97.9798 46.6055 98.0127 49.1859C98.0522 51.8322 97.8153 54.4785 97.4468 57.1051L97.46 57.1117Z" fill="#336137"/>
<path d="M134.804 14.9353C134.331 17.6608 133.468 20.3005 132.31 22.8083C129.974 27.8832 126.519 32.3707 122.696 36.4029C118.814 40.4945 114.477 44.1109 110.206 47.7802C107.133 50.4199 104.067 53.0926 101.211 55.9699C101.02 56.1679 100.823 56.3593 100.632 56.5573C100.494 56.7025 100.355 56.8411 100.217 56.9862C100.046 56.2471 99.9013 55.5014 99.7763 54.7491C99.7105 54.3465 99.6513 53.9439 99.5921 53.5414C99.5724 53.4226 99.5592 53.3038 99.546 53.185C98.9011 48.0507 99.2236 42.8505 100.217 37.7822C101.342 32.0342 103.304 26.4841 105.594 21.1057C106.679 18.5583 107.811 16.0242 109.081 13.5626C110.075 11.6422 111.174 9.76142 112.483 8.03239C112.746 7.68263 113.016 7.34606 113.293 7.0095C113.549 6.69933 113.819 6.39576 114.095 6.09879C114.26 5.92061 114.424 5.74242 114.596 5.57084C115.227 4.93071 115.905 4.32357 116.616 3.77582C117.359 3.20828 118.142 2.70673 118.978 2.29097C120.86 1.35387 122.966 0.885315 125.065 0.891914C126.079 0.891914 127.098 1.0107 128.079 1.25488C128.125 1.26808 128.171 1.28128 128.224 1.28788C128.724 1.41986 129.217 1.58485 129.698 1.78283C129.731 1.79602 129.77 1.81582 129.803 1.82902C130.198 2.0006 130.586 2.19858 130.955 2.41636C132.712 3.46565 133.982 5.09569 134.627 7.02269C134.653 7.10849 134.686 7.19428 134.712 7.28007C134.725 7.32626 134.738 7.37246 134.752 7.41865C134.87 7.82781 134.956 8.23697 135.021 8.65273C135.041 8.78472 135.061 8.9233 135.081 9.05529C135.331 11.0021 135.133 13.0215 134.804 14.9287V14.9353Z" fill="#336137"/>
<path d="M134.752 7.41863C134.738 7.37243 134.725 7.32624 134.712 7.28004C134.686 7.19425 134.659 7.10846 134.627 7.02267C131.869 7.99937 128.987 8.61971 126.065 8.85728C127.434 6.58051 128.697 4.24435 129.803 1.8224C129.77 1.8092 129.731 1.7894 129.698 1.7762C129.224 1.57822 128.73 1.41324 128.224 1.28125C127.006 3.93418 125.585 6.48152 124.052 8.96287C123.703 9.53041 123.348 10.0914 122.986 10.6457C121.341 13.193 119.59 15.681 117.833 18.1359C117.03 19.2512 116.227 20.3665 115.425 21.4884C114.655 16.3871 114.214 11.2396 114.102 6.08557C113.826 6.38254 113.556 6.6861 113.299 6.99627C113.023 7.33284 112.753 7.66941 112.49 8.01917C112.687 13.1798 113.207 18.3207 114.043 23.4154C110.845 27.903 107.758 32.4697 105.291 37.406C103.428 41.1214 101.987 45.0084 100.987 49.0472C100.52 50.928 100.125 52.822 99.7763 54.7358C99.2959 57.402 98.9011 60.0813 98.5392 62.7606C98.4997 63.051 98.4602 63.3414 98.4207 63.6317C97.8745 62.5363 97.3942 61.4012 96.9533 60.2397C94.4659 53.6866 93.3801 46.3019 90.2873 40.1579C89.2344 38.0659 87.9709 36.0861 86.5364 34.2449C86.3192 34.3571 86.1086 34.4825 85.9112 34.6211C85.6546 34.7993 85.4111 35.0038 85.1874 35.2282C86.4443 36.8319 87.5563 38.5477 88.5105 40.3559C89.9516 43.0814 90.9453 45.9983 91.8139 48.9482C93.2156 53.7195 94.3408 58.6294 96.3939 63.1698C96.7822 64.0277 97.2033 64.8724 97.6639 65.6973C97.7956 65.9349 97.9337 66.1725 98.0719 66.4035C97.381 72.1977 96.9006 78.0117 96.5716 83.8389C96.7164 84.0171 96.8546 84.1953 96.9928 84.3734C97.3415 84.8354 97.6573 85.3105 97.9732 85.7923C98.0193 85.8649 98.0786 85.9441 98.1246 86.0233C98.4142 80.1895 98.8419 74.3557 99.4868 68.5482C99.5591 67.8619 99.6447 67.169 99.7236 66.4827C99.7434 66.3441 99.7565 66.1989 99.7763 66.0603C100.178 62.7078 100.612 59.3224 101.204 55.9633C102.145 50.5717 103.494 45.2526 105.751 40.2899C108.101 35.1292 111.187 30.3711 114.438 25.7384C114.885 25.0982 115.339 24.4647 115.787 23.8312C116.478 22.8611 117.175 21.891 117.873 20.9209C120.307 17.5354 122.749 14.1367 124.98 10.6061C128.395 10.4411 131.784 9.78119 135.008 8.65271C134.942 8.23695 134.85 7.82119 134.738 7.41863H134.752Z" fill="#0B0016"/>
</svg>
