<svg width="124" height="143" viewBox="0 0 124 143" fill="none" xmlns="http://www.w3.org/2000/svg">
<path d="M122.289 38.8203C122.289 39.0513 122.289 39.2823 122.283 39.5133C122.283 39.6453 122.283 39.7838 122.283 39.9158C122.283 40.2458 122.276 40.5824 122.269 40.9123C122.256 42.0078 122.236 43.1033 122.217 44.1988C122.217 44.3308 122.217 44.4694 122.21 44.6014C122.204 45.0369 122.19 45.4791 122.184 45.9146C122.171 46.5284 122.158 47.1421 122.138 47.7558C122.079 50.3164 122 52.8769 121.914 55.4441C121.914 55.576 121.907 55.7146 121.901 55.8466C121.894 56.17 121.881 56.4868 121.868 56.8101C121.861 57.0213 121.855 57.2391 121.848 57.4503C121.835 57.8726 121.822 58.2884 121.802 58.7107C121.782 59.2651 121.763 59.8128 121.743 60.3672C121.743 60.4992 121.736 60.6377 121.73 60.7697C121.703 61.5023 121.677 62.2348 121.644 62.9673C121.605 64.0298 121.559 65.0989 121.519 66.1614C121.486 66.9665 121.453 67.7782 121.42 68.5833C121.381 69.593 121.335 70.6027 121.295 71.6124C121.295 71.7444 121.282 71.883 121.276 72.015C121.256 72.4769 121.236 72.9323 121.216 73.3876C121.216 73.5196 121.203 73.6582 121.197 73.7902C121.118 75.6446 121.039 77.499 120.96 79.36C120.96 79.492 120.947 79.624 120.94 79.7626C120.874 81.386 120.802 83.0161 120.736 84.6461C120.736 84.7781 120.723 84.9167 120.723 85.0487C120.651 86.9031 120.578 88.7575 120.506 90.6185C120.506 90.7505 120.499 90.8825 120.493 91.0211C120.414 93.1922 120.341 95.37 120.275 97.5412C120.196 100.108 120.131 102.669 120.078 105.236C120.078 105.467 120.071 105.698 120.065 105.929C120.019 108.166 119.986 110.397 119.973 112.634C119.973 112.746 119.973 112.858 119.973 112.964C119.953 113.327 119.933 113.696 119.92 114.059C119.835 115.947 119.775 117.834 119.696 119.728C119.631 121.325 119.552 122.922 119.433 124.513C119.137 139.982 113.82 141.691 99.6391 142.1C99.5996 142.1 99.5601 142.1 99.5207 142.1C98.5994 142.113 97.6847 142.133 96.7634 142.146C90.8344 142.238 84.9251 142.291 79.0356 142.311C78.1538 142.311 77.2786 142.311 76.3968 142.311C75.5019 142.311 74.6135 142.311 73.7185 142.311C73.5145 142.311 73.3106 142.311 73.1066 142.311C67.9212 142.311 62.7423 142.298 57.5701 142.271H57.5437C53.2269 142.252 48.9167 142.219 44.6065 142.192C44.4748 142.192 44.3433 142.192 44.2182 142.192C43.0601 142.186 41.8953 142.179 40.7371 142.166C40.316 142.166 39.8949 142.166 39.4737 142.159C38.3748 142.153 37.2758 142.146 36.1703 142.133C34.6107 142.12 33.0512 142.113 31.485 142.1C31.1033 142.1 30.7151 142.1 30.3334 142.093C28.8923 142.08 27.4577 142.073 26.0166 142.067C25.4638 142.067 24.9176 142.067 24.3649 142.06C23.1672 142.06 21.9696 142.047 20.772 142.047C0.490912 141.75 0.754154 132.293 2.12289 116.264C2.85333 107.374 3.37317 99.191 3.75484 91.6744C3.99832 86.8965 4.18916 82.3891 4.33393 78.126C4.33393 78.027 4.34052 77.928 4.3471 77.8224C4.38 76.9249 4.40634 76.0406 4.43924 75.1629C4.56427 71.4408 4.65637 67.9168 4.74191 64.5841C4.76166 63.7526 4.78796 62.9343 4.8077 62.1292C4.86693 59.7732 4.92616 57.5163 4.9788 55.3517C4.9788 55.3319 4.9788 55.3055 4.9788 55.2857C4.99196 54.7841 5.00516 54.2826 5.01832 53.7876C5.15651 48.6665 5.31442 44.0998 5.57106 40.0214C5.72241 37.5467 5.91325 35.2567 6.15015 33.1317C7.94004 17.2669 12.6517 10.892 27.5367 8.69439C27.6683 8.6746 27.8065 8.6548 27.9447 8.635C28.2408 8.5954 28.5435 8.55581 28.8462 8.51621C28.9778 8.49641 29.116 8.48321 29.2542 8.46342C30.9651 8.25884 32.8011 8.10045 34.7753 7.98167C34.9069 7.97507 35.045 7.96847 35.1767 7.95527C35.4728 7.93547 35.7689 7.92227 36.0716 7.90907C36.2098 7.90247 36.3414 7.89587 36.473 7.88928C39.9409 7.72429 43.7971 7.6781 48.1007 7.69789C48.2323 7.69789 48.3705 7.69789 48.5021 7.69789C48.7983 7.69789 49.0944 7.69789 49.3905 7.69789C49.5221 7.69789 49.6603 7.69789 49.7919 7.69789C53.6349 7.73749 57.8069 7.82988 62.354 7.95527C62.4856 7.95527 62.6239 7.95527 62.7555 7.96847C63.0516 7.97507 63.3477 7.98827 63.6438 7.99486C63.7754 7.99486 63.9136 8.00146 64.0452 8.00806C67.8751 8.12025 71.955 8.25224 76.3047 8.39083C76.4363 8.39083 76.5679 8.39742 76.7061 8.40402C77.0022 8.41062 77.2983 8.42382 77.5944 8.43042C77.726 8.43042 77.8576 8.43702 77.9958 8.44362C79.9239 8.50301 81.8981 8.56901 83.9314 8.6284C85.8332 8.68779 87.7876 8.74719 89.7881 8.80658C89.9197 8.80658 90.0579 8.81318 90.1895 8.81978C90.4856 8.82638 90.7817 8.83958 91.0778 8.84618C91.2094 8.84618 91.3476 8.84618 91.4792 8.85938C93.7956 8.92537 96.1712 8.99136 98.6125 9.05736C98.7573 9.05736 98.8954 9.05736 99.0402 9.07056C100.738 9.11015 102.462 9.15635 104.219 9.19594C104.351 9.19594 104.489 9.19594 104.621 9.20254C104.917 9.20914 105.213 9.21574 105.509 9.22234C105.64 9.22234 105.779 9.22234 105.91 9.22894C106.167 9.22894 106.43 9.24214 106.693 9.24874C110.24 9.22234 114.682 10.0473 117.92 12.1128C118.097 12.225 118.275 12.3438 118.446 12.4626C118.578 12.555 118.703 12.6474 118.834 12.7464C118.88 12.786 118.926 12.819 118.979 12.8586C119.223 13.0566 119.46 13.2611 119.683 13.4789C119.815 13.6043 119.94 13.7297 120.065 13.8617C121.546 15.4587 122.421 17.5177 122.243 20.1244C122.138 21.3123 122.118 22.5134 122.144 23.7013C122.144 23.8333 122.144 23.9718 122.157 24.1038C122.184 25.1201 122.236 26.1364 122.283 27.1527C122.283 27.5157 122.289 27.8721 122.296 28.235C122.296 28.367 122.296 28.5056 122.296 28.6376C122.329 32.023 122.322 35.4019 122.296 38.7873L122.289 38.8203Z" fill="#336137"/>
<path d="M58.7216 37.1178C58.261 39.322 57.0041 41.3216 55.4314 42.8988C51.8911 46.4493 46.8175 47.6833 42.1125 48.8382C36.677 50.1713 31.202 51.346 25.7007 52.3491C20.1994 53.3588 14.6718 54.1969 9.11791 54.8766C7.73601 55.0416 6.36066 55.2066 4.97876 55.3518C4.97876 55.332 4.97876 55.3056 4.97876 55.2858C4.99192 54.7842 5.00512 54.2827 5.01828 53.7877C5.15647 48.6666 5.31438 44.0999 5.57102 40.0215C5.72237 37.5468 5.91321 35.2568 6.15011 33.1318C7.58465 31.5084 9.29554 30.1555 11.296 29.2646C13.9085 28.1097 16.9684 27.7138 19.6664 28.8422C22.3841 29.9773 24.3846 32.749 24.7466 35.6395C27.0366 32.5841 29.9451 30.0037 33.2419 28.0833C37.1836 25.7933 41.8229 24.3085 46.4095 24.4339C50.9895 24.5593 55.6156 26.6249 57.8201 30.8418C58.8335 32.782 59.1691 34.9664 58.715 37.1112L58.7216 37.1178Z" fill="white"/>
<path d="M122.263 40.9124C122.25 42.0079 122.23 43.1033 122.21 44.1988C122.21 44.3308 122.21 44.4694 122.204 44.6014C122.197 45.037 122.184 45.4791 122.177 45.9147C122.164 46.5284 122.151 47.1421 122.131 47.7559C122.072 50.3164 121.993 52.877 121.907 55.4441C121.907 55.5761 121.901 55.7147 121.894 55.8467C121.888 56.17 121.875 56.4868 121.861 56.8102C121.855 57.0213 121.848 57.2391 121.842 57.4503C121.828 57.8727 121.815 58.2884 121.796 58.7108C121.776 59.2651 121.756 59.8129 121.736 60.3672C121.736 60.4992 121.73 60.6378 121.723 60.7698C121.697 61.5023 121.671 62.2348 121.638 62.9673C119.986 63.3039 118.334 63.6207 116.676 63.9176C111.175 64.9273 105.647 65.7655 100.093 66.4452C97.3359 66.7818 94.5721 67.0787 91.8017 67.3361C89.5577 67.5407 87.2349 67.7321 85.0304 67.1513C83.0168 66.6168 81.2466 65.3431 80.4438 63.3699C80.378 63.2049 80.3188 63.0333 80.2661 62.8617C79.9042 62.1226 79.6673 61.3241 79.6081 60.4992C79.437 58.2026 80.8715 56.1766 82.7535 55.0151C85.3923 53.3917 88.8932 53.5105 91.5451 55.0481C92.6506 52.1378 93.8482 49.2275 95.6052 46.6538C97.303 44.1724 99.5074 42.0541 102.271 40.8332C104.884 39.6783 107.944 39.2823 110.642 40.4108C113.359 41.5459 115.36 44.3176 115.722 47.2081C117.551 44.773 119.769 42.6414 122.256 40.8992L122.263 40.9124Z" fill="white"/>
<path d="M105.088 15.6896C104.95 17.1283 104.456 18.5274 103.686 19.7482C102.89 21.0087 101.804 22.058 100.606 22.9357C99.3824 23.8332 98.0335 24.5393 96.6516 25.1465C95.1052 25.8262 93.5126 26.4004 91.8938 26.8755C88.5246 27.872 85.0435 28.4198 81.5362 28.5649C77.8774 28.7167 74.2121 28.4659 70.5731 28.103C70.356 28.0832 70.1387 28.0568 69.9216 28.037C68.7042 27.9446 67.4934 27.8192 66.2826 27.641C65.947 27.6014 65.6114 27.5618 65.2758 27.5222C63.7689 27.3375 62.2487 27.1197 60.7945 26.6643C59.6429 26.3014 58.5703 25.78 57.6029 25.0739C56.7672 24.6713 55.9579 24.2226 55.1814 23.7276C54.0758 23.0215 53.0361 22.2098 52.0951 21.2991C51.1277 20.362 50.2196 19.3127 49.555 18.1314C48.9233 17.0161 48.535 15.7688 48.5745 14.482C48.6074 13.3337 48.9431 12.2118 49.4958 11.2153C50.0552 10.2056 50.8448 9.32788 51.7792 8.65475C52.8453 7.88923 54.0955 7.49327 55.3853 7.31509C58.307 6.91253 61.3209 7.24909 64.2164 7.71105C64.7691 7.79684 65.3219 7.88923 65.8746 7.98822C66.0852 8.02782 66.2958 8.06081 66.5063 8.10041C68.6582 8.49637 70.8034 8.93192 72.9683 9.25529C73.3895 9.31468 73.8173 9.37408 74.2384 9.42687C76.5153 9.53906 78.7987 9.49287 81.069 9.33448C83.4708 9.1695 85.8464 8.86593 88.2219 8.51617C88.4259 8.48977 88.6365 8.45677 88.8471 8.42378C89.7946 8.28519 90.7489 8.14 91.6965 7.99482C94.9012 7.51307 98.3032 7.26229 101.271 8.81973C102.488 9.45987 103.568 10.397 104.265 11.5981C104.976 12.8255 105.233 14.2774 105.101 15.683L105.088 15.6896Z" fill="#0B0016"/>
<path d="M93.9799 56.4472C93.8943 56.6386 93.8088 56.83 93.7232 57.0214C92.5585 59.5951 91.2161 62.0831 89.571 64.3796C87.406 67.3823 84.7212 70.0683 81.4967 71.9161C79.7726 72.8994 77.8972 73.6451 75.9231 73.9091C74.0147 74.1599 72.1063 73.8827 70.3559 73.071C66.809 71.4277 64.4862 68.0951 62.67 64.7558C61.0577 61.8059 59.6363 58.7504 58.3795 55.6289C58.3005 55.4375 58.2216 55.2462 58.1492 55.0482C58.3532 54.9954 58.5505 54.9492 58.7479 54.903C60.0904 54.573 61.4328 54.2431 62.7818 53.9131C64.1703 53.5699 65.5654 53.2532 66.9473 52.8704C68.1186 52.547 69.2767 52.1247 70.277 51.4119C70.3428 50.3165 70.4086 49.221 70.4744 48.1321C70.6126 45.8025 70.7508 43.4664 70.889 41.1368C70.4415 40.787 70.0269 40.3911 69.6453 39.9621C68.6713 38.8666 67.8751 37.6127 67.1776 36.3259C66.6511 35.3492 66.1839 34.3395 65.7891 33.3034C65.3943 32.2673 65.0653 31.2048 64.8086 30.1225C64.3348 29.8453 63.9004 29.5022 63.5056 29.1194C62.8147 28.4463 62.2553 27.6346 61.8737 26.7502C61.4459 25.7603 61.1564 24.6319 61.2946 23.543C61.4262 22.5069 62.025 21.4906 63.0582 21.1408C63.3082 21.055 63.5715 21.0286 63.8281 21.0484C63.8084 20.8372 63.7886 20.6327 63.7754 20.4215C63.5451 17.0558 64.2097 13.5846 65.9733 10.6809C67.5658 8.05434 69.994 5.98215 72.9289 5.01204C75.9888 4.00235 79.4173 4.18053 82.4048 5.34861C83.9447 5.95575 85.3923 6.81366 86.5571 8.00814C87.656 9.13003 88.4852 10.4895 89.084 11.9347C90.3475 14.9638 90.5317 18.2899 90.4856 21.5434C90.8278 21.4708 91.1832 21.4774 91.5451 21.583C92.6243 21.8997 93.2428 22.9556 93.3679 24.0181C93.4929 25.0608 93.2166 26.1431 92.7625 27.0736C92.065 28.5057 90.8212 29.6737 89.3472 30.2743C88.8273 32.6039 88.0048 34.8806 86.715 36.8934C85.6226 38.6026 84.1815 40.1403 82.4706 41.2424C82.6417 44.1065 82.8128 46.9706 82.9773 49.8281C83.0431 50.9236 83.1089 52.0191 83.1747 53.108C84.1749 53.8207 85.3265 54.2365 86.5045 54.5664C87.8798 54.9492 89.2814 55.266 90.6699 55.6091C91.5846 55.8335 92.4993 56.0579 93.4074 56.2823C93.6114 56.3284 93.8088 56.3812 94.0128 56.4274L93.9799 56.4472Z" fill="white"/>
<path d="M93.3744 56.302C92.4597 56.0777 91.5451 55.8533 90.637 55.6289C89.2485 55.2857 87.8534 54.969 86.4715 54.5862C85.3002 54.2628 84.142 53.8405 83.1418 53.1278C83.076 52.0323 83.0102 50.9368 82.9444 49.8479C82.7733 46.9838 82.6022 44.1197 82.4377 41.2622C84.1486 40.1601 85.5832 38.6224 86.6821 36.9132C87.9719 34.9004 88.7944 32.6236 89.3143 30.2941C90.7883 29.6869 92.0254 28.5188 92.7295 27.0934C93.1836 26.1629 93.46 25.074 93.335 24.0379C93.2099 22.9754 92.5914 21.9195 91.5122 21.6027C91.1502 21.4972 90.7949 21.4972 90.4527 21.5631C90.5054 18.3097 90.3211 14.9902 89.0511 11.9545C88.4457 10.5093 87.6165 9.1498 86.5242 8.02792C85.3594 6.83344 83.9183 5.96892 82.3719 5.36839C79.3843 4.2003 75.9559 4.02212 72.896 5.03182C69.9676 5.99532 67.5395 8.06751 65.9404 10.7006C64.1768 13.5978 63.5188 17.069 63.7426 20.4413C63.7557 20.6524 63.7754 20.857 63.7952 21.0682C63.5385 21.0484 63.2753 21.0682 63.0252 21.1606C61.9921 21.5104 61.3933 22.5201 61.2617 23.5627C61.1235 24.645 61.4131 25.7801 61.8408 26.77C62.2225 27.6543 62.7884 28.466 63.4727 29.1392C63.8676 29.5219 64.3019 29.8585 64.7757 30.1423C65.0323 31.2246 65.3613 32.2871 65.7561 33.3232C66.151 34.3592 66.6182 35.3689 67.1446 36.3456C67.8421 37.6325 68.6384 38.893 69.6123 39.9819C69.994 40.4108 70.4085 40.8068 70.856 41.1566C70.7178 43.4861 70.5796 45.8223 70.4414 48.1519C70.3756 49.2473 70.3099 50.3428 70.2441 51.4317C69.2438 52.1445 68.0922 52.5602 66.9143 52.8902C65.539 53.2729 64.1374 53.5897 62.7489 53.9329C61.4065 54.2628 60.0641 54.5928 58.7151 54.9228C58.5111 54.969 58.3136 55.0218 58.1162 55.068C58.1886 55.2593 58.2675 55.4507 58.3465 55.6487C59.6034 58.7702 61.0314 61.8257 62.637 64.7756C64.4532 68.1148 66.7762 71.4409 70.323 73.0907C72.0734 73.9025 73.9818 74.1796 75.8901 73.9288C77.8643 73.6649 79.7462 72.9192 81.4638 71.9359C84.6882 70.088 87.373 67.4087 89.538 64.3994C91.1897 62.1094 92.5256 59.6149 93.6903 57.0412C93.7759 56.8498 93.8614 56.6584 93.9469 56.467C93.7429 56.4208 93.5456 56.368 93.3416 56.3218L93.3744 56.302ZM70.6717 40.1403C69.6649 39.1768 68.8621 38.0153 68.158 36.8142C66.9933 34.841 66.1049 32.7028 65.5258 30.4854L65.335 29.7067C65.2692 29.6737 65.21 29.6407 65.1442 29.6011C65.085 29.5615 65.0192 29.5285 64.9599 29.4889C64.8349 29.4097 64.7164 29.3306 64.6046 29.2448C64.2097 28.9544 63.8478 28.6112 63.5253 28.2351C63.2029 27.8589 62.9199 27.4497 62.683 27.0142C62.2619 26.2421 61.9658 25.371 61.8868 24.4932C61.8013 23.5825 61.979 22.5596 62.7489 21.9789C63.0713 21.7347 63.4793 21.6027 63.8807 21.6753C63.8939 21.6753 63.907 21.6753 63.9267 21.6819C64.1044 21.7215 64.2821 21.7941 64.4335 21.8997L64.4466 21.2068C64.1044 18.0721 64.5124 14.8186 65.9338 11.9875C67.2499 9.36758 69.3886 7.1634 72.0866 5.98212C74.9162 4.74805 78.1932 4.68866 81.1281 5.57297C82.6351 6.02832 84.0959 6.72785 85.3133 7.73095C86.4781 8.69445 87.3928 9.92192 88.0772 11.2682C89.6038 14.2841 89.8736 17.7289 89.8473 21.0616C89.8473 21.2926 89.8473 21.5236 89.8341 21.7545C89.8341 21.9591 89.8276 22.1637 89.821 22.3683C89.821 22.3947 89.821 22.4145 89.821 22.4343C90.0184 22.3221 90.2224 22.2297 90.4395 22.1769C90.6633 22.1175 90.8936 22.0977 91.1239 22.1307C92.032 22.2561 92.5848 23.147 92.7098 23.9917C92.8414 24.8892 92.6177 25.8527 92.236 26.6644C91.8741 27.4432 91.3411 28.1361 90.6962 28.7036C90.3211 29.027 89.9065 29.3108 89.4656 29.5285C89.3538 29.5813 89.2419 29.6341 89.13 29.6869C89.0182 29.7331 88.8997 29.7793 88.7812 29.8189C88.7286 30.0499 88.676 30.2809 88.6233 30.5184C88.189 32.3333 87.5573 34.1019 86.6492 35.7385C85.6029 37.6193 84.1618 39.3153 82.385 40.5428C82.1942 40.6748 81.9968 40.8068 81.7928 40.9256C81.6677 41.0048 81.5362 41.0774 81.4046 41.15C79.1672 42.384 76.4758 42.7866 74.0015 42.0739C73.0934 41.8099 72.2511 41.3941 71.5009 40.8464C71.2969 40.7012 71.0995 40.5428 70.9086 40.3778C70.8231 40.3052 70.7376 40.2261 70.6587 40.1469L70.6717 40.1403ZM89.9066 62.7958C87.9258 65.8249 85.4449 68.59 82.4311 70.6094C79.3448 72.675 75.4492 74.14 71.751 72.9587C68.158 71.8105 65.6641 68.7154 63.8281 65.5609C62.8016 63.7989 61.8869 61.9709 61.0182 60.1296C60.2944 58.5986 59.61 57.0478 58.9783 55.4771C60.6761 55.0614 62.3804 54.639 64.0782 54.2232C65.2166 53.9395 66.3616 53.6887 67.4868 53.3521C68.5331 53.042 69.5663 52.6394 70.4678 52.0257C70.5731 51.9531 70.6981 51.8805 70.7836 51.7947C70.9153 51.6627 70.8824 51.4119 70.8955 51.2403C70.9153 50.9236 70.935 50.6068 70.9547 50.29C70.9942 49.6565 71.0337 49.0164 71.0666 48.3828L71.2904 44.5684C71.3496 43.5719 71.4088 42.5688 71.468 41.5723C71.9418 41.8891 72.4419 42.1597 72.9749 42.3774C75.4821 43.4069 78.3841 43.2222 80.8452 42.1333C81.1874 41.9815 81.523 41.8165 81.8455 41.6317C81.9376 43.1826 82.0297 44.74 82.1218 46.2908L82.3455 50.1053C82.385 50.7388 82.4179 51.3789 82.4574 52.0125C82.4772 52.3292 82.4969 52.646 82.5166 52.9628C82.5298 53.1344 82.4969 53.3917 82.6285 53.5237C82.7206 53.6161 82.8391 53.6821 82.9444 53.7547C83.8459 54.375 84.8856 54.771 85.9253 55.0812C87.0506 55.4177 88.1956 55.6685 89.334 55.9523C90.5974 56.2624 91.8543 56.5726 93.1178 56.8828C92.1833 58.9286 91.1371 60.9216 89.9066 62.809V62.7958Z" fill="#0B0016"/>
<path d="M91.1174 24.7374C91.0384 24.6054 90.8344 24.5262 90.6962 24.6252C89.7486 25.305 88.9458 26.1497 88.3141 27.1264C88.222 27.265 88.2878 27.4695 88.426 27.5487C88.5773 27.6345 88.7549 27.5817 88.8471 27.4366C89.4196 26.5522 90.1566 25.7669 91.0121 25.1532C91.1503 25.0542 91.2095 24.8826 91.124 24.7308L91.1174 24.7374Z" fill="#0B0016"/>
<path d="M65.8746 27.0142C65.0981 25.9385 64.1965 24.9618 63.1897 24.1039C63.0646 23.9983 62.8804 23.9785 62.7554 24.1039C62.6435 24.2161 62.6304 24.4338 62.7554 24.5394C63.7227 25.3643 64.5979 26.2948 65.3415 27.3243C65.4402 27.4563 65.6113 27.5223 65.7627 27.4365C65.8943 27.3573 65.9733 27.1462 65.8746 27.0142Z" fill="#0B0016"/>
<path d="M79.1605 24.0379C78.8446 23.4571 78.5617 22.85 78.3313 22.2297C78.0615 21.5169 77.8444 20.7778 77.6799 20.0321C77.5943 19.6427 77.0021 19.8077 77.0876 20.1971C77.364 21.4443 77.7852 22.6586 78.3511 23.8003C78.4893 24.0841 78.6407 24.3612 78.792 24.6384C78.9368 24.8958 79.0881 25.1532 79.1737 25.4369C79.325 25.9517 79.1276 26.4598 78.7657 26.836C78.3116 27.3177 77.6734 27.5619 77.0745 27.7995C76.9166 27.8589 76.8113 28.0041 76.8573 28.1823C76.8968 28.334 77.0811 28.4594 77.239 28.4C77.8576 28.1625 78.4761 27.9117 78.9894 27.4827C79.4632 27.0868 79.8054 26.5192 79.8449 25.8923C79.8844 25.206 79.4829 24.612 79.1671 24.0379H79.1605Z" fill="#0B0016"/>
<path d="M80.4042 30.1554C78.8644 30.5382 77.2061 30.2346 75.8769 29.3767C75.4952 29.1325 75.1531 28.8421 74.8438 28.5188C74.5674 28.2284 74.1331 28.6706 74.4094 28.9543C75.6137 30.228 77.3575 30.9473 79.1013 30.9341C79.5949 30.9341 80.0884 30.8681 80.5688 30.7493C80.9504 30.6504 80.7925 30.0564 80.4042 30.1554Z" fill="#0B0016"/>
<path d="M73.1197 23.1074C73.1197 24.3349 72.4419 25.3974 71.6193 25.4832C70.7968 25.5624 70.1321 24.6319 70.1387 23.4044C70.1387 22.1769 70.8165 21.1144 71.6391 21.0286C72.4617 20.9494 73.1263 21.8799 73.1197 23.1074Z" fill="#0B0016"/>
<path d="M84.3985 23.0479C84.3985 24.2753 83.7208 25.3378 82.8983 25.4236C82.0757 25.5028 81.4111 24.5723 81.4177 23.3448C81.4177 22.1174 82.0954 21.0549 82.9179 20.9691C83.7405 20.8833 84.4051 21.8204 84.3985 23.0479Z" fill="#0B0016"/>
<path d="M73.7448 18.8773C73.6461 19.5834 73.1065 20.1047 72.4813 20.3885C71.7114 20.7383 70.8297 20.7449 70.0006 20.8043C69.5794 20.8307 69.1582 20.8637 68.7437 20.8901C68.4147 20.9099 68.0593 20.8967 67.7829 20.6987C67.2564 20.3291 67.2959 19.5504 67.6315 19.0686C67.7829 18.8509 67.9803 18.6727 68.1974 18.5275C68.2172 18.5143 68.2304 18.4945 68.2501 18.4879C68.5726 18.2503 68.9411 18.0721 69.303 17.9204C69.6781 17.7554 70.0663 17.6168 70.4612 17.5112C70.8626 17.399 71.2772 17.3132 71.6917 17.267C72.0668 17.2274 72.4484 17.2274 72.8038 17.3528C73.1196 17.465 73.4026 17.663 73.5737 17.9533C73.7382 18.2305 73.7843 18.5671 73.7448 18.8839V18.8773Z" fill="#0B0016"/>
<path d="M80.786 18.8773C80.8847 19.5834 81.4243 20.1047 82.0495 20.3885C82.8194 20.7383 83.7012 20.7449 84.5303 20.8043C84.9515 20.8307 85.3727 20.8637 85.7872 20.8901C86.1162 20.9099 86.4716 20.8967 86.7479 20.6987C87.2744 20.3291 87.2349 19.5504 86.8993 19.0686C86.7479 18.8509 86.5505 18.6727 86.3334 18.5275C86.3136 18.5143 86.3005 18.4945 86.2808 18.4879C85.9583 18.2503 85.5897 18.0721 85.2278 17.9204C84.8527 17.7554 84.4645 17.6168 84.0696 17.5112C83.6682 17.399 83.2537 17.3132 82.8391 17.267C82.464 17.2274 82.0824 17.2274 81.727 17.3528C81.4112 17.465 81.1282 17.663 80.9571 17.9533C80.7926 18.2305 80.7465 18.5671 80.786 18.8839V18.8773Z" fill="#0B0016"/>
<path d="M114.103 71.8763C114.083 73.6384 113.945 75.4004 113.695 77.1426C113.412 79.1356 112.971 81.0956 112.385 83.016C112.267 84.4217 112.004 85.8207 111.622 87.1802C110.984 89.457 110.043 91.6347 108.964 93.7333C107.904 95.7989 106.693 97.7853 105.489 99.7651C104.403 101.554 103.324 103.349 102.344 105.196C102.251 105.381 102.153 105.559 102.061 105.744C101.817 106.213 101.587 106.688 101.363 107.163C101.317 107.552 101.271 107.942 101.218 108.331C100.955 110.482 100.705 112.627 100.481 114.779C100.165 117.748 99.9022 120.725 99.7245 123.701C99.5468 126.684 99.4547 129.673 99.4876 132.663C99.5205 135.501 99.6521 138.332 99.56 141.169C99.5468 141.479 99.5403 141.783 99.5206 142.093C98.5993 142.106 97.6846 142.126 96.7633 142.139C90.8343 142.232 84.925 142.285 79.0355 142.304C78.1537 142.304 77.2785 142.304 76.3967 142.304C75.5018 142.304 74.6134 142.304 73.7184 142.304C73.5144 142.304 73.3105 142.304 73.1065 142.304C67.9211 142.304 62.7422 142.291 57.57 142.265H57.5436C53.2268 142.245 48.9166 142.212 44.6064 142.186C44.4748 142.186 44.3432 142.186 44.2181 142.186C43.06 142.179 41.8952 142.172 40.737 142.159C40.7765 141.882 40.8226 141.611 40.8687 141.341C41.1977 139.513 41.5135 137.685 41.7241 135.837C42.5796 128.221 42.1782 120.54 41.4938 112.931C40.8489 105.79 40.0658 98.6564 39.3222 91.5226C38.8353 89.4306 38.2562 87.365 37.7034 85.2862C37.1375 83.1414 36.5979 80.99 36.236 78.799C35.8741 76.6476 35.6635 74.4567 35.7425 72.2723C35.7688 71.4408 35.8477 70.6093 35.9662 69.7909C36.0452 68.2005 36.3281 66.6233 36.8677 65.112C37.7824 62.5713 39.3814 60.3077 41.632 58.7965C43.8364 57.305 46.4621 56.5923 49.0548 56.1567C51.7265 55.7146 54.4376 55.5694 57.1093 55.1074C58.9847 54.7841 60.8602 54.2957 62.5645 53.4642C62.7685 53.3652 62.966 53.2596 63.1634 53.154L63.1765 53.1408C63.3805 52.9363 63.5911 52.7383 63.7951 52.5271C65.3152 50.996 66.7826 49.4056 68.1777 47.7624C68.2896 47.6106 68.4015 47.4522 68.5199 47.3004C68.5989 47.1948 68.6844 47.0892 68.7634 46.9837C68.8292 46.8913 68.9016 46.8055 68.9937 46.7329C69.1911 46.5811 69.4477 46.5877 69.6846 46.5745C69.9675 46.5679 70.2439 46.5547 70.5269 46.5481C70.5598 46.5481 70.5927 46.5745 70.5861 46.6075C70.5795 46.7527 70.573 46.8979 70.5664 47.0496C70.5204 48.2309 70.5401 49.4188 70.5401 50.6001V51.0752C70.8954 51.92 71.3166 52.7383 71.7904 53.5236C72.0536 53.9591 72.3366 54.3815 72.6327 54.7907C72.9288 55.1998 73.2512 55.5892 73.5407 56.0049C73.7513 56.3085 73.9422 56.6253 74.0804 56.9618C74.133 57.0872 74.1791 57.2126 74.2185 57.3446C74.2514 57.4502 74.2712 57.5624 74.2909 57.668C74.3567 58.0837 74.3436 58.5061 74.2712 58.9284C74.0936 59.9975 73.5868 60.9742 73.3434 62.0301C73.0999 63.086 73.067 64.1815 73.1525 65.2638C73.317 67.2172 73.8829 69.098 74.4686 70.959C74.541 71.19 74.6134 71.4276 74.6923 71.6586C74.8305 71.0976 75.0148 70.5565 75.2254 70.0153C75.5083 69.2762 75.8439 68.5569 76.1861 67.8507C77.035 66.0821 77.9563 64.2871 78.2195 62.3205C78.3511 61.357 78.2721 60.4265 78.0155 59.4894C77.9036 59.067 77.7786 58.6513 77.7194 58.2223C77.7128 58.1629 77.7062 58.0969 77.6996 58.0375C77.6865 57.8792 77.6799 57.7274 77.6996 57.569C77.7194 57.2588 77.7852 56.9486 77.9036 56.6583C78.2655 55.7608 78.95 55.0216 79.5422 54.2693C80.2068 53.4378 80.8648 52.5997 81.5295 51.7682C81.9901 51.1874 82.4573 50.6001 82.9179 50.0193C82.9377 48.9964 82.9179 47.967 82.839 46.9441C82.839 46.9177 82.8588 46.8913 82.8851 46.8847C83.8853 46.7197 84.8921 46.6273 85.9055 46.6141C85.9318 46.6141 85.9581 46.6339 85.9647 46.6603C85.9844 46.7065 85.9911 46.7527 85.9976 46.7989C86.0108 46.8253 86.024 46.8451 86.0372 46.8715L86.6754 48.7457C87.1953 50.2701 87.7152 51.7946 88.235 53.3124C88.3008 53.4972 88.3601 53.682 88.4259 53.8668C88.518 53.8932 88.6167 53.9196 88.7088 53.9394C88.8338 53.9723 88.9654 54.0053 89.0904 54.0383L99.9812 56.9354C101.639 57.3776 103.317 57.7934 104.963 58.2817C106.417 58.7107 107.865 59.2254 109.167 60.0041C110.444 60.7697 111.53 61.7992 112.306 63.0794C113.076 64.3531 113.537 65.7984 113.794 67.2568C114.063 68.7747 114.136 70.3123 114.116 71.8499L114.103 71.8763Z" fill="#8AB946"/>
<path d="M51.5949 74.3511C50.371 77.2218 48.0613 79.4062 46.1266 81.7819C45.1132 83.0226 44.2446 84.3359 43.5668 85.7943C43.2049 86.5797 42.8692 87.3848 42.4481 88.1437C42.0335 88.8894 41.5202 89.5758 40.928 90.1895C39.7304 91.4236 38.276 92.4069 36.8612 93.3704C35.3872 94.3735 33.8738 95.3238 32.3208 96.2081C30.3269 97.3498 28.2737 98.3925 26.1811 99.3296C26.01 100.372 25.6613 101.382 25.1546 102.312C24.2202 104.048 22.7527 105.441 21.0286 106.378C19.2519 107.348 17.2514 107.849 15.2378 107.968C13.3689 108.074 11.3553 107.882 9.69705 106.945C8.86132 106.477 8.16375 105.804 7.68338 104.979C7.1701 104.094 6.88711 103.104 6.4199 102.2C6.20274 101.785 5.94614 101.408 5.63686 101.065C5.34732 100.748 5.03802 100.458 4.71557 100.168C4.09043 99.5935 3.43236 99.026 2.97173 98.3001C2.47161 97.5081 2.34001 96.5776 2.56374 95.6735C2.8138 94.6836 3.39289 93.8191 3.88643 92.948C4.13649 92.5059 4.35364 92.0571 4.54448 91.582C4.74189 91.0804 4.92617 90.5788 5.14991 90.0905C5.57764 89.1732 6.21596 88.4209 7.05827 87.8665C7.8545 87.3386 8.76918 87.002 9.67729 86.7182C10.6446 86.4213 11.6251 86.1639 12.6056 85.9527C12.8293 85.9065 13.0662 85.8603 13.2966 85.8141C13.9875 85.405 14.6587 84.9562 15.3036 84.4811C16.7907 83.3922 18.1858 82.1779 19.6006 80.99C21.0944 79.7295 22.5948 78.4625 24.0886 77.202C26.6813 75.011 29.3595 72.787 31.1758 69.8701C32.1102 68.3655 32.7813 66.7091 33.7421 65.2176C34.6173 63.8582 35.736 62.6967 37.0061 61.7068C38.2827 60.7169 39.6842 59.9052 41.132 59.2122C42.6191 58.4995 44.2051 57.7208 45.8897 58.0705C47.3374 58.3675 48.5614 59.3706 49.476 60.4991C50.4829 61.7332 51.2001 63.1916 51.7134 64.6963C52.7795 67.8046 52.8781 71.2956 51.5818 74.3511H51.5949Z" fill="#8AB946"/>
<path d="M44.0208 88.1306C43.9286 88.1768 43.8366 88.2164 43.751 88.256C42.3691 88.8829 40.9082 89.3053 39.4078 89.5099C38.7103 89.6023 38.0325 89.6023 37.5324 89.0281C37.0718 88.487 36.7691 87.7808 36.4335 87.1605C34.9069 84.3294 33.446 81.4653 32.0641 78.5616C31.3666 77.0965 30.6887 75.6183 30.0307 74.1334C29.3924 72.6948 28.787 71.2363 28.096 69.8241C27.4577 68.5174 26.7405 67.2569 25.885 66.0822C25.4178 65.4421 24.9177 64.835 24.3978 64.241C24.0556 63.8517 23.7069 63.4689 23.3515 63.0927C21.5616 61.1987 19.6401 59.4367 17.9292 57.4635C17.0935 56.5 16.3104 55.4837 15.6391 54.4014C14.9285 53.2531 14.3954 52.0191 13.9085 50.7652C13.4149 49.4915 12.9478 48.198 12.2568 47.0168C11.9081 46.4162 11.4869 45.8949 11.0394 45.3669C10.6446 44.8918 10.2169 44.3308 10.2629 43.6775C10.309 42.9714 10.8815 42.549 11.4277 42.1927C12.0134 41.8165 12.6319 41.4535 13.3163 41.2951C13.4676 41.2622 13.619 41.2424 13.7769 41.2292C14.1257 41.2094 14.481 41.249 14.81 41.3545C14.81 41.3545 14.8166 41.3545 14.8232 41.3545C14.6455 40.9916 14.4613 40.6286 14.2836 40.2723C14.0862 39.8763 13.8098 39.4473 13.869 38.9854C13.9217 38.6092 14.1849 38.3518 14.4876 38.1539C15.2772 37.6193 16.1196 37.1574 16.9356 36.6624C17.7844 36.1477 18.6333 35.6329 19.4822 35.1182C19.5941 35.0522 19.7717 35.0654 19.8573 35.1644C21.8051 37.4939 23.2725 40.1667 24.5426 42.9186C25.6876 45.3933 26.6944 47.9341 27.8394 50.4154C29.0502 53.0486 30.6098 55.5431 31.3073 58.3874C31.6034 59.5885 31.8008 60.816 32.0838 62.0171C32.1496 62.2876 32.2154 62.5582 32.2878 62.8222C32.6958 64.2938 33.288 65.7061 33.9066 67.0985C34.3804 68.1544 34.8542 69.2103 35.328 70.2662C35.7426 70.9262 36.1571 71.5927 36.5717 72.2592C38.2629 75.0045 39.908 77.7829 41.4939 80.5876C42.198 81.8282 42.889 83.0689 43.5668 84.3162C43.6655 84.501 43.7707 84.6792 43.8694 84.8639C44.0669 85.2269 44.2643 85.5965 44.4617 85.966C44.6196 86.263 44.8368 86.5732 44.9026 86.9097C45.0342 87.5433 44.5209 87.893 44.0274 88.1372L44.0208 88.1306Z" fill="#8AB946"/>
<path d="M44.0207 88.1306C43.9286 88.1768 43.8365 88.2163 43.751 88.2559C42.3691 88.8829 40.9081 89.3052 39.4078 89.5098C38.7103 89.6022 38.0325 89.6022 37.5324 89.0281C37.0717 88.4869 36.7691 87.7808 36.4335 87.1605C34.9068 84.3294 33.4459 81.4652 32.064 78.5615C31.3665 77.0965 30.6886 75.6182 30.0306 74.1334C29.3923 72.6947 28.7869 71.2363 28.096 69.824C27.4577 68.5173 26.7404 67.2569 25.8849 66.0822C25.4177 65.4421 24.9176 64.8349 24.3977 64.241C24.3977 63.9836 24.3977 63.7262 24.3977 63.4755C24.3977 62.6835 24.3846 61.8718 24.4899 61.0865C24.5623 60.5058 24.7202 59.9118 25.0821 59.4433C25.4441 58.9813 26.0165 58.7635 26.589 58.8955C27.1352 59.0275 27.5235 59.4763 27.8393 59.9118C28.1815 60.387 28.4579 60.9215 28.8922 61.3175C29.3726 61.753 30.0109 61.9906 30.6426 62.0764C31.1296 62.1424 31.6099 62.1094 32.0837 62.0236C32.1495 62.2942 32.2154 62.5648 32.2877 62.8287C32.6957 64.3004 33.2879 65.7126 33.9065 67.1051C34.3803 68.161 34.8541 69.2169 35.3279 70.2728C35.7425 70.9327 36.1571 71.5992 36.5716 72.2658C38.2628 75.0111 39.9079 77.7894 41.4938 80.5941C42.1979 81.8348 42.8889 83.0755 43.5667 84.3228C43.6193 84.7121 43.672 85.0949 43.7246 85.4842C43.8431 86.3619 43.9549 87.2463 44.0273 88.1372L44.0207 88.1306Z" fill="white"/>
<path d="M36.0716 88.7575C35.8676 89.1601 35.3346 89.391 34.9529 89.5758C34.4988 89.8002 33.9987 89.985 33.4854 89.9586C32.9721 89.9322 32.5378 89.6946 32.1825 89.3317C31.8074 88.9555 31.4652 88.5331 31.1164 88.1306C30.7282 87.6884 30.3399 87.2463 29.9583 86.7975C29.2212 85.9462 28.4908 85.0949 27.767 84.2304C26.3522 82.541 24.9966 80.8119 23.7002 79.0301C22.6144 77.5453 21.5353 76.0472 20.3179 74.6679C19.1532 73.3415 17.8436 72.1206 16.3169 71.2231C16.2774 71.1967 16.238 71.1769 16.2051 71.1571C15.3562 70.6688 14.4546 70.319 13.5202 70.0352C12.4937 69.725 11.4539 69.4611 10.4603 69.0387C8.49929 68.2072 6.93315 66.7092 5.37358 65.2969C3.82716 63.8912 2.30053 62.446 1.05682 60.7632C0.602766 60.1494 -0.443592 58.8757 0.582963 58.2752C0.892246 58.0904 1.26078 58.1036 1.59638 58.0376C1.73457 58.0112 1.89907 57.9716 1.9912 57.8528C2.09648 57.7077 2.07018 57.5031 2.01096 57.3513C1.85303 56.9223 1.39238 56.6716 1.09626 56.3482C0.8133 56.0446 0.602763 55.6817 0.477733 55.2923C0.207934 54.4806 0.3922 53.6029 1.14896 53.1475C1.33321 53.0353 1.53718 52.9561 1.70169 52.8242C1.70169 52.8242 1.71487 52.8176 1.72145 52.811C1.87939 52.679 1.95833 52.4876 2.02413 52.2962C2.02413 52.2896 2.02414 52.283 2.03072 52.2698C2.15575 51.9003 2.28077 51.5505 2.51767 51.2403C2.92566 50.6992 3.51128 50.3428 4.12327 50.059C4.75499 49.7687 5.41966 49.5443 6.05138 49.2407C6.17641 49.1813 6.30799 49.1153 6.43302 49.0427C6.6107 48.9437 6.7884 48.8316 6.95291 48.7062C7.18981 48.5214 7.407 48.3036 7.56493 48.0462C7.80183 47.6701 8.08474 47.2807 8.59144 47.3929C9.09814 47.4985 9.43374 48.033 9.74303 48.4026C10.434 49.2341 11.1315 50.0722 11.8159 50.9169C13.2175 52.6394 14.5863 54.3882 15.8695 56.203C16.5012 57.1005 17.1131 58.0112 17.6922 58.9417C18.2581 59.8458 18.7649 60.7961 19.3571 61.6871C19.9428 62.5714 20.66 63.3039 21.4826 63.9638C21.6997 64.142 21.9235 64.3136 22.1472 64.4918C22.7395 64.9537 23.3252 65.4289 23.8385 65.9832C24.5491 66.7553 25.1151 67.6462 25.6481 68.5504C26.2337 69.5469 26.7997 70.55 27.3788 71.5531C28.5698 73.6252 29.7674 75.6908 30.9585 77.763C31.0243 77.8752 31.0111 77.9808 30.9585 78.0666C32.7287 81.0429 34.3474 84.1116 35.7951 87.2595C35.9991 87.7082 36.3414 88.256 36.0913 88.7575H36.0716Z" fill="#8AB946"/>
<path d="M36.0715 88.7575C35.8675 89.16 35.3345 89.391 34.9529 89.5758C34.4988 89.8002 33.9986 89.985 33.4854 89.9586C32.9721 89.9322 32.5378 89.6946 32.1824 89.3316C31.8073 88.9555 31.4652 88.5331 31.1164 88.1306C30.7281 87.6884 30.3399 87.2462 29.9582 86.7975C29.2212 85.9462 28.4908 85.0949 27.767 84.2303C26.3521 82.5409 24.9965 80.8119 23.7002 79.0301C22.6144 77.5452 21.5353 76.0472 20.3179 74.6679C19.1531 73.3414 17.8436 72.1206 16.3169 71.2231C16.5275 70.5037 16.7249 69.791 16.9684 69.0849C17.4685 67.6132 18.2055 66.1878 19.4953 65.2639C20.081 64.8415 20.7587 64.5841 21.476 64.5049C21.6931 64.4851 21.9103 64.4785 22.134 64.4851C22.7263 64.9471 23.312 65.4222 23.8252 65.9766C24.5359 66.7487 25.1019 67.6396 25.6349 68.5437C26.2205 69.5402 26.7865 70.5433 27.3656 71.5464C28.5566 73.6186 29.7542 75.6842 30.9453 77.7564C31.0111 77.8686 30.9979 77.9742 30.9453 78.06C32.7154 81.0363 34.3343 84.105 35.782 87.2528C35.986 87.7016 36.3282 88.2493 36.0781 88.7509L36.0715 88.7575Z" fill="white"/>
<path d="M29.07 87.4112C27.9447 88.8367 26.2799 89.7144 24.5032 89.9784C22.5817 90.2555 20.6338 89.8992 18.8834 89.0742C17.1922 88.2823 15.705 87.0812 14.4218 85.7284C13.0992 84.3293 11.8291 82.7389 11.2237 80.8911C10.6578 79.1687 10.7697 77.1097 11.9673 75.671C12.7504 74.7339 14.0204 74.1928 15.2312 74.3115C15.3826 74.3247 15.5274 74.3511 15.6721 74.3841C15.7182 74.2983 15.7643 74.2191 15.8169 74.14C15.8827 74.0278 15.9551 73.9222 16.0341 73.8166C16.3829 73.3414 16.8106 72.9455 17.3502 72.7079C17.3699 72.6947 17.3963 72.6881 17.416 72.6815C17.6002 72.6023 17.7911 72.5495 17.9885 72.5099C18.4689 72.4043 18.9624 72.3911 19.4493 72.3845C19.6665 72.3845 19.8902 72.3845 20.1074 72.3977C20.2982 72.4109 20.4956 72.4241 20.6865 72.4505C20.7391 72.3977 20.7852 72.3383 20.8378 72.2855C20.9234 72.1932 21.0155 72.1008 21.1076 72.015C21.7657 71.3946 22.5685 70.8865 23.4832 70.7677C24.3781 70.6489 25.2336 70.9789 25.9114 71.5662C27.4315 72.8993 27.6223 75.0507 28.1882 76.8655C28.4975 77.8686 28.8989 78.8387 29.353 79.7824C29.7873 80.6931 30.2479 81.6236 30.419 82.6267C30.7086 84.3425 30.1426 86.0584 29.0832 87.4046L29.07 87.4112Z" fill="#F49B62"/>
<path d="M24.2859 77.6047C24.3056 77.7697 24.128 77.9149 23.9766 77.9149C23.7924 77.9149 23.6871 77.7697 23.6674 77.6047C23.6015 77.1032 23.3843 76.628 23.1277 76.1991C22.6276 75.3609 21.9828 74.5954 21.3642 73.8497C20.9496 73.3547 20.5284 72.8664 20.0941 72.3912C20.285 72.4044 20.4824 72.4176 20.6732 72.444C20.7258 72.3912 20.7719 72.3318 20.8245 72.2791C20.8772 72.3384 20.9364 72.3978 20.9891 72.4638C21.6932 73.2624 22.371 74.0873 23.0093 74.9386C23.6147 75.7371 24.1477 76.5884 24.2793 77.5981L24.2859 77.6047Z" fill="#0B0016"/>
<path d="M20.4494 85.1345C18.7977 83.1481 17.4421 80.9043 16.4616 78.5154C16.1852 77.8356 15.9352 77.1493 15.718 76.4498C15.5996 76.0736 15.0008 76.232 15.1258 76.6148C15.9287 79.1621 17.1131 81.5841 18.6398 83.7684C19.0741 84.3888 19.5347 84.9893 20.0151 85.5767C20.1204 85.702 20.3441 85.6888 20.4494 85.5767C20.5745 85.4513 20.5547 85.2665 20.4494 85.1411V85.1345Z" fill="#0B0016"/>
<path d="M43.9353 83.3526C43.5339 85.306 42.4349 87.1076 40.9083 88.3747C40.1515 89.0016 39.3026 89.5032 38.3814 89.8464C37.2495 90.2621 36.0321 90.4271 34.8279 90.4403C33.7421 90.4535 32.6234 90.3743 31.5903 90.0179C31.0967 89.8464 30.6295 89.6154 30.215 89.3052C29.7675 88.9621 29.3924 88.5397 29.0831 88.0711C28.6488 87.4178 28.3066 86.6919 28.0566 85.9396C28.0171 85.9 27.9842 85.8538 27.9645 85.801C27.7802 85.3522 27.6354 84.8903 27.5236 84.4151C27.0761 82.4221 27.3064 80.3037 28.1355 78.4427C28.9515 76.6081 30.3992 75.1034 32.1759 74.1795C33.9395 73.2556 35.9729 72.8927 37.9405 73.2028C39.0526 73.3744 40.1318 73.777 41.0267 74.4699C41.8559 75.1166 42.5139 75.9746 43.0075 76.9051C44.0472 78.8651 44.3893 81.1814 43.9418 83.3592L43.9353 83.3526Z" fill="#8AB946"/>
<path d="M17.9753 72.5034C17.7779 72.543 17.5936 72.6023 17.4028 72.6749C17.383 72.6815 17.3567 72.6947 17.337 72.7013C16.7974 72.9389 16.3697 73.3349 16.0209 73.81C15.9419 73.9156 15.8695 74.0278 15.8037 74.1334C15.751 74.2126 15.705 74.2984 15.6589 74.3776C15.5142 74.3446 15.3629 74.3182 15.2181 74.305C15.1786 74.1928 15.1457 74.074 15.1062 73.9618C14.3165 71.5663 13.5137 69.0783 13.8756 66.5244C13.8954 66.3792 14.0533 66.3132 14.1717 66.3C14.9087 66.201 15.6523 66.102 16.3894 66.0096C16.567 65.9832 16.6855 66.168 16.6987 66.3198C16.7579 67.0325 16.2578 67.5605 16.0143 68.1874C15.7774 68.7879 15.9485 69.4347 16.2248 69.989C16.5144 70.583 16.896 71.1373 17.2909 71.6652C17.508 71.9556 17.7384 72.2328 17.9753 72.51V72.5034Z" fill="#0B0016"/>
<path d="M55.4839 79.558C55.2141 81.0165 54.2863 82.2901 53.1281 83.1745C50.3314 85.306 46.5147 84.7121 43.593 83.1745C42.1387 82.4089 40.7568 81.3728 40.1185 79.8022C39.5526 78.4097 39.6579 76.7797 40.2172 75.407C41.0595 73.3348 42.8362 71.982 44.8696 71.2693C44.9025 71.2429 44.9485 71.2165 45.0012 71.2033C45.067 71.1901 45.1328 71.1769 45.1986 71.1571C45.7645 70.9789 46.3436 70.8535 46.9293 70.7677C47.2912 70.6951 47.7123 70.6291 47.8768 70.2662C47.9755 70.0484 48.0282 69.8042 48.094 69.5732C48.1664 69.3225 48.2454 69.0651 48.3177 68.8143L49.2456 65.6796C49.2917 65.5212 49.4627 65.4157 49.6273 65.4618C49.772 65.5014 49.9168 65.5344 50.0616 65.574C50.259 65.6268 50.4564 65.6796 50.6539 65.7324C50.7657 65.7654 50.871 65.7984 50.9829 65.8314C51.2132 65.904 51.4237 66.0426 51.4961 66.2934C51.5553 66.4979 51.4961 66.7091 51.4369 66.9005C51.279 67.3823 51.1145 67.8574 50.9565 68.3326C50.7986 68.8011 50.6407 69.2697 50.4828 69.7382C50.4104 69.956 50.3314 70.1804 50.3314 70.4113C50.3314 70.5961 50.4169 70.7611 50.5288 70.9063C50.7986 71.2495 51.1342 71.5596 51.4435 71.8632C51.7725 72.1932 52.1147 72.5231 52.4437 72.8531C53.082 73.4932 53.7072 74.1532 54.227 74.8923C55.1878 76.2386 55.7998 77.8752 55.4905 79.5448L55.4839 79.558Z" fill="#F49B62"/>
<path d="M66.2102 82.9567C65.9404 84.4151 65.0125 85.6888 63.8544 86.5731C61.0577 88.7047 57.241 88.1108 54.3193 86.5731C52.865 85.8076 51.4831 84.7715 50.8447 83.2009C50.2788 81.8084 50.3775 80.1784 50.9369 78.8057C51.7858 76.7335 53.556 75.3807 55.5893 74.6679C55.6222 74.6415 55.6683 74.6151 55.7209 74.602C55.7867 74.5888 55.8525 74.5755 55.9184 74.5558C56.4843 74.3776 57.0634 74.2522 57.649 74.1664C58.011 74.0938 58.4321 74.0278 58.5966 73.6714C58.6953 73.4537 58.748 73.2095 58.8138 72.9785C58.8862 72.7277 58.9651 72.4704 59.0375 72.2196L59.9654 69.0849C60.0114 68.9265 60.1825 68.8275 60.347 68.8671C60.5247 68.9133 60.7023 68.9595 60.88 69.0057C61.0774 69.0585 61.2814 69.1113 61.4788 69.1707C61.5512 69.1905 61.6302 69.2169 61.7025 69.2433C61.9329 69.3225 62.1435 69.4611 62.2158 69.7052C62.2751 69.9098 62.2159 70.121 62.1566 70.3124C61.9987 70.7875 61.8342 71.2693 61.6763 71.7444C61.5183 72.213 61.3604 72.6749 61.209 73.1501C61.1366 73.3679 61.0577 73.5922 61.0577 73.8232C61.0577 74.008 61.1432 74.173 61.2551 74.3182C61.5249 74.6613 61.8605 74.9715 62.1698 75.2751C62.4988 75.605 62.841 75.935 63.1701 76.265C63.8084 76.9051 64.4335 77.565 64.9599 78.3042C65.9207 79.6504 66.5326 81.2871 66.2233 82.9567H66.2102Z" fill="white"/>
<path d="M54.8655 82.8972C54.6549 83.6693 54.3588 84.4348 53.9113 85.108C53.1019 86.3354 51.8714 87.2725 50.4697 87.6949C49.1405 88.0975 47.6664 88.0183 46.3767 87.5101C45.0606 86.9888 43.9418 86.0517 43.2706 84.7912C42.606 83.5439 42.3757 82.0789 42.6323 80.6864C43.0601 78.4096 44.9421 76.5948 47.1597 76.1065C47.8836 75.8095 48.647 75.6247 49.43 75.5785C50.8448 75.4993 52.2201 75.9481 53.3322 76.8258C54.3851 77.6639 55.1089 78.898 55.2142 80.2575C55.28 81.1418 55.0958 82.0459 54.8655 82.8906V82.8972Z" fill="#0B0016"/>
<path d="M123.993 116.019C123.967 118.421 123.513 121.008 121.749 122.777C121.717 122.81 121.684 122.843 121.651 122.869C121.407 123.107 121.137 123.312 120.861 123.496C120.15 123.972 119.361 124.321 118.591 124.678C117.42 125.225 116.228 125.74 114.998 126.143C113.78 126.545 112.517 126.829 111.24 126.921C110.596 126.968 109.938 126.968 109.299 126.822C108.694 126.684 108.134 126.387 107.621 126.031C105.68 124.684 104.239 122.698 103.522 120.447C102.732 117.979 102.745 115.32 102.758 112.753C102.758 112.159 102.758 111.558 102.771 110.958C102.771 110.859 102.771 110.753 102.771 110.654C102.758 110.634 102.745 110.621 102.739 110.595C102.673 110.463 102.594 110.331 102.515 110.205C102.311 109.882 102.067 109.585 101.837 109.275C101.765 109.182 101.699 109.09 101.626 108.991C101.468 108.773 101.33 108.542 101.205 108.311C100.297 106.595 100.205 104.55 100.159 102.636C99.9747 102.194 99.8102 101.745 99.6588 101.29C98.8955 98.9139 98.6191 96.3731 98.856 93.8918C98.9745 92.6511 99.2113 91.4236 99.5799 90.2357C99.9681 88.9819 100.514 87.7742 100.745 86.4675C101.205 83.8344 100.468 81.1749 100.06 78.5879C99.6325 75.8558 99.6983 73.0907 99.9286 70.3453C100.034 69.0981 100.225 67.8442 100.705 66.6827C101.106 65.7192 101.679 64.8349 102.383 64.0628C103.811 62.4987 105.825 61.3769 107.95 61.1855C109.194 61.0733 110.352 61.4165 111.3 62.2414C112.241 63.0597 112.938 64.1684 113.557 65.2375C114.215 66.366 114.814 67.5406 115.399 68.7087C115.985 69.8768 116.531 71.0713 116.933 72.312C117.762 74.8857 117.854 77.6244 117.591 80.3037C117.538 80.8119 117.479 81.3266 117.413 81.8348C117.433 83.5638 117.637 85.2862 118.032 86.9691C118.242 87.86 118.505 88.7377 118.815 89.6022C119.124 90.4535 119.499 91.2652 119.861 92.0902C120.229 92.9217 120.552 93.773 120.776 94.6573C120.999 95.5284 121.138 96.4193 121.223 97.3168C121.493 100.128 121.197 102.933 121.019 105.738C121.006 105.969 120.993 106.2 120.98 106.424C120.966 106.668 120.953 106.912 120.94 107.156C121.44 107.566 121.927 107.995 122.375 108.463C122.816 108.925 123.158 109.446 123.375 110.054C123.592 110.674 123.697 111.334 123.783 111.981C123.961 113.307 123.993 114.666 123.98 116L123.993 116.019Z" fill="#8AB946"/>
<path d="M74.2713 57.6812C73.9949 57.569 73.6921 57.5228 73.396 57.5426C72.5669 57.6086 71.8364 58.1366 71.2639 58.7041C69.9742 59.9712 69.1582 61.6474 67.8092 62.8617C67.1709 63.4358 66.4141 63.9176 65.5718 64.109C65.098 64.2211 64.5979 64.2079 64.1833 63.9176C63.8214 63.6668 63.5582 63.2972 63.3805 62.9013C62.9989 62.0368 62.966 61.0733 62.887 60.1428C62.8015 59.1067 62.7291 58.064 62.6765 57.0213C62.6107 55.84 62.5711 54.6521 62.5448 53.4708C62.7488 53.3718 62.9462 53.2663 63.1436 53.1607L63.1568 53.1475C63.1831 54.6983 63.2423 56.2425 63.341 57.7934C63.4068 58.8295 63.4793 59.8656 63.5714 60.9017C63.6438 61.7134 63.7424 62.6769 64.3544 63.2708C64.6769 63.581 65.0651 63.6008 65.4863 63.4952C65.8811 63.3896 66.2496 63.2246 66.5984 63.0069C67.3091 62.5647 67.8948 61.9378 68.4146 61.291C69.5201 59.9052 70.4479 58.1762 72.0733 57.3182C72.6853 56.9949 73.3829 56.8365 74.0541 56.9685C74.1067 57.0939 74.1528 57.2193 74.1923 57.3512C74.2252 57.4568 74.2449 57.569 74.2647 57.6746L74.2713 57.6812Z" fill="#0B0016"/>
<path d="M88.6825 53.9592C88.4193 55.0679 88.2351 56.1964 88.0706 57.3249C87.7876 59.2585 87.5836 61.2251 87.0637 63.1125C86.8137 64.0166 86.4057 64.9075 85.6029 65.4289C84.833 65.9304 83.8854 65.8908 83.1484 65.3431C82.4114 64.7953 81.9375 63.977 81.5361 63.1653C81.1084 62.3074 80.7531 61.4165 80.2793 60.5783C79.8516 59.8194 79.3053 59.1265 78.5683 58.6513C78.2985 58.4732 78.009 58.3346 77.7063 58.2356C77.6997 58.1762 77.6931 58.1102 77.6865 58.0508C77.6734 57.8924 77.6668 57.7406 77.6865 57.5822C78.213 57.7142 78.7131 57.9716 79.1474 58.295C79.8778 58.8493 80.4306 59.562 80.8781 60.3606C81.3387 61.1921 81.6875 62.0764 82.1152 62.9277C82.4903 63.6668 82.9377 64.4983 83.6616 64.9405C83.984 65.1385 84.3591 65.2309 84.7276 65.1451C85.1093 65.0593 85.445 64.8283 85.7082 64.5445C86.3267 63.8714 86.5109 62.8815 86.7018 62.0236C87.1163 60.123 87.3203 58.1828 87.623 56.2624C87.781 55.2791 87.9653 54.2958 88.2219 53.3323C88.2877 53.5171 88.3469 53.7018 88.4128 53.8866C88.5049 53.913 88.6035 53.9394 88.6957 53.9592H88.6825Z" fill="#0B0016"/>
<path d="M72.4879 133.917C72.9683 136.702 73.4355 139.5 73.7119 142.318C73.5079 142.318 73.3039 142.318 73.0999 142.318C72.7577 138.807 72.1063 135.316 71.5074 131.845C70.5993 126.565 69.757 121.187 70.2571 115.821C70.5138 113.056 71.1915 110.364 71.6522 107.632C72.1194 104.84 72.1589 102.049 71.9352 99.2306C71.4943 93.7928 70.3032 88.3153 71.2376 82.8577C71.9286 78.8255 73.804 75.0045 74.4555 70.9723C74.5279 71.2033 74.6003 71.4408 74.6793 71.6718C74.8175 71.1109 75.0017 70.5697 75.2122 70.0286C74.6726 75.0837 72.0668 79.6768 71.6127 84.7583C71.1126 90.3017 72.4748 95.7792 72.6788 101.303C72.7841 104.081 72.4682 106.78 71.9352 109.499C71.3956 112.264 70.8428 115.003 70.7507 117.834C70.5664 123.252 71.5732 128.611 72.4945 133.917H72.4879Z" fill="#0B0016"/>
<path d="M121.032 105.751C121.019 105.982 121.006 106.213 120.993 106.437C119.914 105.823 118.821 105.249 117.689 104.748C115.853 103.929 113.892 103.322 111.879 103.17C110.905 103.098 109.865 103.085 108.964 103.52C108.246 103.863 107.667 104.418 107.161 105.031C106.627 105.678 106.18 106.397 105.713 107.09C105.167 107.902 104.555 108.641 103.923 109.387C103.502 109.888 103.107 110.41 102.771 110.971C102.771 110.872 102.771 110.766 102.771 110.667C102.758 110.647 102.745 110.634 102.738 110.608C102.673 110.476 102.594 110.344 102.515 110.218C102.929 109.598 103.423 109.024 103.91 108.45C104.515 107.744 105.035 106.985 105.548 106.213C106.035 105.487 106.529 104.754 107.134 104.121C107.726 103.5 108.437 102.992 109.26 102.735C110.299 102.411 111.451 102.484 112.517 102.609C114.623 102.867 116.63 103.56 118.545 104.457C119.394 104.853 120.216 105.289 121.032 105.744V105.751Z" fill="#0B0016"/>
<path d="M121.651 122.876C121.407 123.113 121.137 123.318 120.861 123.503C120.907 123.358 120.947 123.212 120.98 123.061C121.394 121.345 121.263 119.504 120.96 117.781C120.387 114.521 118.973 111.413 116.867 108.859C116.762 108.727 116.742 108.549 116.867 108.423C116.979 108.311 117.196 108.298 117.301 108.423C118.518 109.902 119.525 111.545 120.269 113.313C120.933 114.891 121.407 116.541 121.644 118.23C121.861 119.754 121.954 121.351 121.644 122.869L121.651 122.876Z" fill="#0B0016"/>
<path d="M110.273 80.2706C110.247 80.5148 110.227 80.7656 110.194 81.0097C109.97 83.0357 109.635 85.0485 109.181 87.0349C108.733 89.0015 108.174 90.9483 107.509 92.8555C106.838 94.7759 106.055 96.6568 105.18 98.4848C104.291 100.352 103.331 102.187 102.659 104.154C102.1 105.797 101.732 107.552 101.837 109.301C101.765 109.209 101.699 109.116 101.626 109.017C101.468 108.8 101.33 108.569 101.205 108.338C101.258 106.661 101.672 105.005 102.251 103.447C102.982 101.487 103.956 99.6397 104.844 97.7522C105.706 95.9242 106.463 94.0434 107.108 92.123C107.753 90.2026 108.292 88.2426 108.72 86.2562C109.141 84.283 109.457 82.2834 109.648 80.2706C109.661 80.1056 109.773 79.9604 109.957 79.9604C110.109 79.9604 110.28 80.1056 110.267 80.2706H110.273Z" fill="#0B0016"/>
<path d="M67.467 83.6034C67.059 82.5937 66.2825 81.815 65.2691 81.4256C64.2031 81.0098 63.0252 81.1088 61.9197 81.2672C61.1761 81.3728 60.4325 81.5246 59.6823 81.6038C58.9058 81.2738 58.0964 81.0428 57.2673 80.9174C55.4774 80.6469 53.7072 80.8977 51.9963 81.4586C51.9502 81.4718 51.9108 81.485 51.8647 81.5048C50.6736 80.8383 49.3575 80.4159 47.9954 80.2641C45.9686 80.0397 43.9682 80.5149 42.0993 81.2672C41.8558 81.3662 41.6123 81.4718 41.3689 81.5774C40.4344 81.2672 39.4408 81.1022 38.4537 81.0692C36.6901 81.0098 34.9463 81.353 33.2617 81.8546C32.189 81.5444 31.0835 81.3596 29.9648 81.3068C28.3197 81.2276 26.6549 81.419 25.0624 81.8414C23.7463 81.32 22.3512 81.0362 20.9364 80.9834C19.3966 80.9307 17.8305 81.155 16.3696 81.6632C15.2049 81.6962 14.0533 81.4322 12.9017 81.2606C11.7962 81.1022 10.6182 81.0098 9.55216 81.419C8.53877 81.8084 7.75571 82.5871 7.3543 83.5968C7.32798 83.6562 7.30826 83.7156 7.28852 83.775C7.28194 83.8014 7.26875 83.8278 7.26217 83.8542C7.24901 83.8871 7.24248 83.9201 7.22931 83.9531C7.22273 83.9861 7.21613 84.0125 7.20297 84.0455C7.19639 84.0719 7.18979 84.1049 7.18321 84.1313C7.17663 84.1643 7.17003 84.1973 7.16345 84.2303C7.16345 84.2567 7.15035 84.2831 7.14376 84.3161C7.14376 84.3491 7.13059 84.3821 7.13059 84.4217C7.13059 84.4481 7.124 84.4745 7.11742 84.5009C7.11742 84.5339 7.11082 84.5735 7.10424 84.6065C7.10424 84.6329 7.10424 84.6593 7.09766 84.6857C7.09766 84.7187 7.09766 84.7583 7.09766 84.7913C7.09766 84.8177 7.09766 84.844 7.09766 84.8638C7.09766 84.8968 7.09766 84.9364 7.09766 84.9694C7.09766 84.9958 7.09766 85.0222 7.09766 85.042C7.09766 85.075 7.09766 85.1146 7.09766 85.1476C7.09766 85.174 7.09766 85.1938 7.09766 85.2202C7.09766 85.2532 7.10425 85.2928 7.11083 85.3258C7.11083 85.3522 7.11084 85.372 7.11742 85.3984C7.11742 85.4314 7.13059 85.471 7.13059 85.504C7.13059 85.5304 7.13718 85.5502 7.14376 85.5766C7.14376 85.6096 7.15686 85.6492 7.16345 85.6822C7.16345 85.7086 7.17004 85.7284 7.17662 85.7482C7.1832 85.7812 7.19639 85.8208 7.20297 85.8537C7.20297 85.8735 7.21615 85.8999 7.22273 85.9197C7.23589 85.9527 7.24242 85.9923 7.25558 86.0253C7.26216 86.0451 7.26876 86.0715 7.27534 86.0913C7.2885 86.1243 7.3017 86.1639 7.31486 86.1969C7.32144 86.2167 7.32797 86.2365 7.34113 86.2629C7.35429 86.2959 7.36749 86.3355 7.38065 86.3685C7.38723 86.3883 7.40034 86.4081 7.40692 86.4279C7.42008 86.4609 7.43987 86.4939 7.45303 86.5335C7.45961 86.5533 7.4728 86.5731 7.47938 86.5929C7.49912 86.6259 7.51225 86.6589 7.53199 86.6919C7.54515 86.7117 7.55176 86.7315 7.56493 86.7513C7.58467 86.7843 7.60439 86.8173 7.62413 86.8503C7.63729 86.8701 7.64382 86.8833 7.65698 86.903C7.67672 86.936 7.69653 86.969 7.72285 87.002C7.73601 87.0218 7.74254 87.035 7.7557 87.0548C7.77545 87.0878 7.80175 87.1208 7.82149 87.1538C7.83465 87.167 7.84785 87.1868 7.85443 87.2C7.88075 87.233 7.90048 87.266 7.9268 87.299C7.93996 87.3122 7.95316 87.3254 7.95974 87.3452C7.98606 87.3782 8.01238 87.4112 8.0387 87.4442C8.05186 87.4574 8.06497 87.4706 8.07156 87.4838C8.09788 87.5168 8.13078 87.5498 8.1571 87.5762C8.17027 87.5894 8.17688 87.596 8.19004 87.6092C8.22294 87.6422 8.25586 87.6752 8.28876 87.7016C8.30192 87.7082 8.30846 87.7214 8.32162 87.728C8.35452 87.761 8.38744 87.794 8.42693 87.8204C8.43351 87.827 8.44669 87.8335 8.45327 87.8467C8.49276 87.8797 8.52561 87.9127 8.56509 87.9391C8.57167 87.9391 8.57827 87.9523 8.58485 87.9589C8.62433 87.9919 8.67044 88.0249 8.70992 88.0513C8.70992 88.0513 8.71644 88.0513 8.72302 88.0579C8.76908 88.0909 8.8152 88.1239 8.86126 88.1503C9.06526 88.2757 9.27582 88.3879 9.50614 88.4737C9.50614 88.5859 9.50614 88.7047 9.50614 88.8234C9.50614 88.8696 9.50614 88.9158 9.50614 88.962C9.50614 88.9818 9.50614 89.0082 9.50614 89.028C9.50614 89.0478 9.50614 89.0676 9.50614 89.094C9.50614 89.2194 9.50615 89.3514 9.51931 89.4768C9.51931 89.5296 9.51931 89.5824 9.51931 89.6352C9.52589 89.7936 9.539 89.9519 9.55216 90.1169C9.75616 92.6379 10.4998 95.0796 10.7235 97.594C10.8354 98.8874 10.7564 100.174 10.7367 101.468C10.7169 102.755 10.8486 104.015 11.0986 105.276C11.3487 106.549 11.6513 107.816 11.7764 109.11C11.9014 110.403 11.9146 111.703 12.033 112.997C12.2568 115.511 13.1385 117.894 13.4215 120.395C13.5663 121.675 13.4478 122.909 13.257 124.183C13.0925 125.324 12.9609 126.486 13.2307 127.628C13.4874 128.716 14.119 129.581 15.0732 130.162C16.0866 130.782 17.2185 131.244 18.324 131.66C20.4956 132.478 22.7724 132.986 25.0822 133.164C25.2204 133.178 25.352 133.184 25.4902 133.191C25.6218 133.197 25.7599 133.204 25.8916 133.211C27.0629 133.263 28.2474 133.25 29.4187 133.25C30.7545 133.25 32.0838 133.25 33.4196 133.244C34.7423 133.244 36.065 133.244 37.3876 133.237C38.7103 133.237 40.033 133.237 41.3557 133.244C42.6915 133.244 44.0208 133.244 45.3566 133.25C46.5345 133.25 47.7124 133.27 48.8837 133.211C49.0153 133.211 49.1535 133.197 49.2851 133.191C49.4233 133.184 49.5549 133.171 49.6931 133.164C52.0029 132.986 54.2863 132.471 56.4513 131.66C57.5568 131.244 58.6887 130.775 59.7021 130.162C60.6563 129.581 61.2879 128.716 61.5446 127.628C61.8144 126.486 61.6828 125.331 61.5183 124.183C61.3341 122.909 61.2156 121.682 61.3538 120.395C61.6368 117.894 62.5185 115.511 62.7423 112.997C62.8607 111.703 62.8739 110.403 62.9989 109.11C63.1239 107.816 63.4332 106.549 63.6766 105.276C63.9201 104.009 64.0583 102.755 64.0386 101.468C64.0189 100.174 63.9333 98.8874 64.0452 97.594C64.2689 95.0796 65.0125 92.6379 65.2165 90.1169C65.2231 89.9981 65.2362 89.8727 65.2428 89.754C65.2428 89.6748 65.2494 89.5956 65.256 89.523C65.256 89.49 65.256 89.4636 65.256 89.4306C65.256 89.4174 65.256 89.4042 65.256 89.391C65.256 89.3382 65.256 89.2854 65.256 89.226C65.256 89.1336 65.256 89.0346 65.256 88.9422C65.256 88.9224 65.256 88.896 65.256 88.8762C65.256 88.8564 65.256 88.8366 65.256 88.8169C65.256 88.7113 65.256 88.5991 65.256 88.4935C67.1643 87.7478 68.2172 85.5304 67.4342 83.5836L67.467 83.6034Z" fill="#336137"/>
<path d="M27.4183 118.646C25.806 119.2 24.2465 119.134 22.7791 118.468C20.7391 117.531 19.4559 115.538 18.9755 112.542C18.9426 112.357 18.7781 110.153 18.7715 110.021C18.7715 109.908 18.7715 109.796 18.7715 109.684C18.7978 105.559 20.4035 102.174 23.062 100.623C23.3647 100.445 23.6937 100.3 24.0359 100.181C25.5165 99.6729 26.9905 99.8445 27.9776 100.63C28.9054 101.376 29.6359 102.86 27.8131 105.718C26.2206 108.226 23.9832 110.271 21.3313 111.657C21.6011 113.809 22.4368 116.29 24.8518 116.495C25.5231 116.554 26.1679 116.468 26.8326 116.244C28.7014 115.604 30.2676 113.934 31.5245 112.588C31.6692 112.436 31.8272 112.324 32.0114 112.264C32.4984 112.099 33.0512 112.317 33.3604 112.806C33.6895 113.32 33.6434 113.934 33.2289 114.376C31.8733 115.821 29.8004 117.841 27.4051 118.659L27.4183 118.646ZM24.8518 102.497C24.2004 102.722 23.5358 103.217 22.9764 103.896C21.7722 105.375 21.3642 107.289 21.2589 108.833C23.0751 107.678 24.6216 106.147 25.7469 104.372C25.7798 104.319 25.8126 104.266 25.8521 104.213C26.1416 103.764 26.5035 103.204 26.497 102.728C26.497 102.623 26.497 102.418 25.7995 102.365C25.4902 102.346 25.1743 102.385 24.8518 102.497Z" fill="white"/>
<path d="M56.5698 95.3701C56.0368 93.7928 53.5362 94.4924 54.0758 96.0762C54.8457 98.3464 55.0365 100.801 54.4706 103.144C54.0297 104.966 53.0427 106.906 51.0685 107.361C48.9035 107.856 47.8177 105.678 47.3308 103.916C46.7385 101.785 46.9031 99.4419 47.8441 97.4357C48.5613 95.9178 50.7461 92.4862 52.8058 93.7862C54.2206 94.6772 55.4774 92.407 54.0692 91.5161C51.1014 89.6419 47.9954 92.3476 46.3963 94.73C44.7051 97.2443 44.1064 100.339 44.567 103.322C45.0013 106.147 46.5608 109.526 49.7063 109.955C52.6938 110.364 55.2471 108.292 56.3592 105.639C57.7147 102.418 57.6885 98.6434 56.5698 95.3569V95.3701Z" fill="white"/>
<path d="M38.1312 95.568C35.499 95.9442 33.6236 98.0164 32.7879 100.452C32.3733 101.646 32.189 102.873 32.0969 104.134C31.9916 105.592 31.9916 107.018 32.3075 108.45C32.8537 110.925 34.5909 113.129 37.1376 113.677C40.0001 114.297 42.8757 112.667 44.0471 110.027C44.7249 108.503 42.4019 107.348 41.7241 108.885C41.099 110.304 39.7697 111.314 38.1707 111.215C36.5716 111.116 35.4727 109.869 34.9857 108.43C34.3869 106.661 34.5383 104.57 34.8607 102.755C35.1503 101.125 35.8215 99.3626 37.3416 98.5113C38.5985 97.8052 40.7174 98.0626 40.8687 99.8114C41.0135 101.474 43.5996 101.323 43.4548 99.653C43.2245 97.0133 40.7174 95.1985 38.1378 95.568H38.1312Z" fill="white"/>
<path d="M30.9519 127.845C30.6426 128.413 30.0109 128.644 29.3989 128.71C27.0629 128.961 25.1348 127.231 23.0685 126.459C21.8379 125.997 20.5153 125.879 19.2189 125.694C18.9557 125.654 18.6924 125.615 18.4292 125.568L18.449 125.938C18.4556 126.083 18.4621 126.235 18.5148 126.38C18.6069 126.631 18.8306 126.822 19.0083 127.014C19.4492 127.495 19.8573 128.017 20.2258 128.565C20.3969 128.822 20.5614 129.086 20.7193 129.356C20.8048 129.502 20.8772 129.647 20.9628 129.792C21.022 129.891 21.0812 129.997 21.1865 130.056C21.3115 130.129 21.4695 130.142 21.6142 130.168C21.7656 130.201 21.9103 130.234 22.0617 130.274C22.371 130.36 22.6802 130.472 22.9764 130.604C23.2725 130.729 23.5621 130.881 23.845 131.046C24.1083 131.204 24.3517 131.389 24.6083 131.554C24.8847 131.726 25.1611 131.851 25.4836 131.904C25.7994 131.957 26.1218 131.95 26.4377 131.97C26.7931 131.996 27.1418 132.036 27.4906 132.089C27.7801 132.135 28.0763 132.174 28.3526 132.267C28.833 132.425 29.3463 132.702 29.5306 133.204C29.7148 133.719 29.4384 134.227 29.0041 134.497C28.5303 134.794 27.9512 134.86 27.4182 134.946C26.0034 135.184 24.582 135.362 23.1541 135.487C22.4565 135.547 21.7655 135.599 21.068 135.626C20.4034 135.652 19.7322 135.599 19.1334 135.289C18.9557 135.197 18.7912 135.091 18.6333 134.966C18.3503 134.992 18.0607 134.992 17.7778 134.953C17.0013 134.854 16.3893 134.418 15.7444 134.002C14.606 133.27 13.4018 132.623 12.1647 132.082C11.5593 131.818 10.9407 131.594 10.4208 131.171C9.97336 130.802 9.65747 130.3 9.40741 129.785C9.13761 129.231 8.92704 128.65 8.67698 128.089C8.40718 127.476 8.11108 126.869 7.79522 126.275C7.40039 125.535 6.97921 124.816 6.52515 124.117C6.4067 123.971 6.28824 123.833 6.17637 123.681C5.07743 122.242 4.32067 120.56 3.8732 118.811C3.49811 117.359 3.33361 115.854 3.30729 114.356C3.28096 114.171 3.24806 113.987 3.22174 113.808C2.75452 110.667 2.67555 107.493 2.64265 104.325C2.62949 102.768 2.55712 101.191 2.82692 99.6529C3.08356 98.2274 3.68897 96.8746 4.55759 95.7197C5.37357 94.6308 6.3738 93.7003 7.43326 92.8556C7.91364 92.4728 8.52566 91.8459 9.20345 92.0769C9.74305 92.255 9.9997 92.8226 10.1116 93.3373C10.184 93.6739 10.2102 94.0303 10.2431 94.3734C10.2826 94.7628 10.3221 95.1587 10.355 95.5481C10.4208 96.3466 10.48 97.1385 10.5326 97.9371C10.6379 99.5077 10.7498 101.085 10.9538 102.642C11.0525 103.421 11.1973 104.193 11.2762 104.979C11.3486 105.744 11.3289 106.51 11.2302 107.269C11.0723 108.437 10.7498 109.572 10.3813 110.694C10.6182 110.885 10.8486 111.083 11.0789 111.288C11.6777 111.288 12.2831 111.268 12.8885 111.228C13.4215 111.195 13.9545 111.142 14.4875 111.07C15.0074 111.004 15.5207 110.918 16.0406 110.905C16.5604 110.892 17.0803 110.971 17.5738 111.149C18.0542 111.321 18.5148 111.551 18.9755 111.776L21.8775 113.188C22.6935 113.584 23.6871 113.96 23.9964 114.904C24.1411 115.339 24.0622 115.808 23.7727 116.164C23.516 116.481 23.108 116.653 22.7263 116.758C21.759 117.016 20.6995 117.075 19.7059 117.009C19.2058 116.976 18.7122 116.897 18.2647 116.666C17.8896 116.475 17.5738 116.197 17.2184 115.98C17.0539 115.881 16.8894 115.795 16.7051 115.755C16.4814 115.702 16.238 115.729 16.0142 115.762C15.9945 115.762 15.9682 115.762 15.9485 115.775C16.2051 116.204 16.4157 116.659 16.5933 117.128C16.8039 117.682 16.942 118.276 17.1987 118.811C17.4422 119.319 17.8041 119.728 18.2845 120.025C18.778 120.329 19.3242 120.513 19.877 120.659C20.5021 120.817 21.1404 120.929 21.7656 121.107C22.4105 121.292 23.0159 121.569 23.595 121.899C24.7992 122.586 25.9574 123.344 27.1353 124.07C27.7473 124.447 28.3592 124.823 28.9712 125.199C29.2673 125.384 29.5635 125.568 29.8596 125.747C30.1294 125.912 30.4058 126.07 30.6492 126.275C31.123 126.677 31.2546 127.297 30.9585 127.845H30.9519Z" fill="white"/>
<path d="M30.6427 126.275C30.3992 126.07 30.1229 125.912 29.8531 125.747C29.5569 125.562 29.2607 125.377 28.9646 125.199C28.3526 124.823 27.7407 124.447 27.1287 124.07C25.9508 123.345 24.7861 122.579 23.5884 121.899C23.0093 121.569 22.4039 121.292 21.759 121.107C21.1339 120.929 20.4956 120.817 19.8704 120.659C19.3177 120.513 18.7649 120.329 18.2779 120.025C17.7975 119.728 17.4357 119.319 17.1922 118.811C16.9356 118.27 16.7973 117.682 16.5868 117.128C16.4091 116.659 16.192 116.204 15.9419 115.775C15.9616 115.775 15.9879 115.775 16.0077 115.762C16.2314 115.729 16.4749 115.703 16.6987 115.755C16.8829 115.802 17.0474 115.881 17.2119 115.98C17.5672 116.197 17.8832 116.475 18.2582 116.666C18.7057 116.897 19.2058 116.976 19.6993 117.009C20.693 117.075 21.7524 117.016 22.7197 116.758C23.108 116.653 23.5095 116.488 23.7661 116.164C24.0556 115.808 24.128 115.34 23.9898 114.904C23.6805 113.96 22.6869 113.584 21.8709 113.188L18.9689 111.776C18.5083 111.552 18.0476 111.321 17.5673 111.149C17.0737 110.977 16.5605 110.892 16.034 110.905C15.5142 110.918 14.9942 111.004 14.481 111.07C13.9479 111.136 13.415 111.189 12.882 111.228C12.2831 111.268 11.6777 111.288 11.0723 111.288C10.842 111.083 10.6116 110.885 10.3748 110.694C10.7433 109.572 11.0657 108.437 11.2237 107.269C11.3224 106.51 11.3422 105.744 11.2698 104.979C11.1908 104.2 11.0525 103.421 10.9472 102.642C10.7433 101.078 10.638 99.5078 10.5262 97.9371C10.4735 97.1386 10.4143 96.3467 10.3485 95.5482C10.3156 95.1588 10.2826 94.7629 10.2366 94.3735C10.2037 94.0303 10.1774 93.6806 10.105 93.3374C9.99314 92.8227 9.72992 92.2551 9.1969 92.0769C8.51911 91.8525 7.90708 92.4729 7.42671 92.8556C6.36725 93.707 5.36702 94.6309 4.55104 95.7198C3.68241 96.8746 3.07701 98.2275 2.82037 99.653C2.54399 101.191 2.61635 102.768 2.63609 104.325C2.669 107.493 2.74797 110.667 3.21518 113.809C3.2415 113.993 3.26783 114.171 3.30073 114.356C3.32047 115.861 3.49163 117.359 3.86672 118.817C4.3142 120.566 5.07095 122.249 6.16989 123.688C6.28176 123.833 6.40015 123.978 6.5186 124.123C6.97265 124.823 7.40042 125.542 7.78867 126.281C8.10453 126.875 8.40063 127.482 8.67043 128.096C8.92049 128.657 9.13105 129.238 9.40085 129.792C9.65091 130.307 9.97338 130.815 10.4143 131.178C10.9341 131.6 11.5527 131.825 12.1581 132.089C13.4018 132.63 14.5994 133.27 15.7379 134.009C16.3827 134.425 16.9947 134.854 17.7712 134.959C18.0542 134.999 18.3437 134.999 18.6267 134.973C18.7846 135.091 18.9492 135.204 19.1268 135.296C19.7257 135.606 20.3968 135.652 21.0615 135.633C21.759 135.606 22.4565 135.553 23.1475 135.494C24.5755 135.369 25.9968 135.19 27.4116 134.953C27.9512 134.86 28.5303 134.801 28.9976 134.504C29.4319 134.227 29.7083 133.725 29.524 133.211C29.3398 132.709 28.8265 132.425 28.3461 132.273C28.0631 132.181 27.7736 132.141 27.484 132.095C27.1352 132.042 26.7799 132.003 26.4312 131.976C26.1153 131.957 25.7929 131.957 25.477 131.91C25.1546 131.858 24.8781 131.732 24.6018 131.561C24.3451 131.396 24.1017 131.211 23.8385 131.053C23.5621 130.888 23.2725 130.736 22.9698 130.61C22.6737 130.485 22.371 130.373 22.0551 130.28C21.9103 130.241 21.759 130.201 21.6077 130.175C21.4695 130.148 21.3115 130.129 21.1799 130.063C21.0746 130.003 21.0154 129.904 20.9562 129.799C20.8707 129.654 20.7983 129.508 20.7127 129.363C20.5614 129.093 20.3969 128.829 20.2192 128.571C19.8507 128.03 19.4427 127.509 19.0018 127.02C18.8242 126.829 18.6004 126.638 18.5083 126.387C18.4557 126.248 18.4556 126.096 18.4424 125.945L18.4228 125.575C18.686 125.621 18.9492 125.661 19.2124 125.701C20.5087 125.879 21.8248 126.004 23.0619 126.466C25.1282 127.238 27.0563 128.967 29.3924 128.716C30.0044 128.65 30.6361 128.419 30.9454 127.852C31.2415 127.304 31.1099 126.677 30.6361 126.281L30.6427 126.275ZM29.9188 127.964C29.4319 128.169 28.833 128.142 28.3263 128.056C27.8065 127.971 27.3063 127.806 26.826 127.595C25.7994 127.146 24.8453 126.552 23.8187 126.096C22.6606 125.588 21.4366 125.371 20.1929 125.206C19.594 125.126 18.9952 125.041 18.4096 124.928C18.199 124.889 17.995 124.849 17.7844 124.803C17.3172 124.704 16.8565 124.579 16.3959 124.433C16.0866 124.334 15.7839 124.229 15.4878 124.11C15.3299 124.051 15.1522 124.176 15.1062 124.328C15.0601 124.499 15.1654 124.651 15.3233 124.711C16.1393 125.027 16.975 125.265 17.8239 125.45C17.8436 125.767 17.8371 126.096 17.9029 126.413C17.9687 126.723 18.1529 126.981 18.3635 127.212C18.5675 127.436 18.7715 127.654 18.9689 127.892C19.3703 128.373 19.7257 128.881 20.0481 129.416C20.1995 129.673 20.331 129.944 20.489 130.195C20.6732 130.478 20.9167 130.65 21.2523 130.729C21.8446 130.861 22.417 131.013 22.9698 131.277C23.2462 131.409 23.5095 131.561 23.7661 131.732C24.0293 131.904 24.2793 132.095 24.5557 132.247C25.1546 132.564 25.8126 132.557 26.4707 132.603C27.0629 132.65 27.6946 132.702 28.254 132.9C28.4514 132.966 28.6553 133.065 28.8001 133.211C28.9251 133.336 28.9909 133.475 28.9646 133.626C28.9383 133.798 28.8133 133.91 28.6619 134.002C28.4711 134.115 28.2606 134.181 28.05 134.227C27.4051 134.372 26.7404 134.458 26.089 134.55C25.4046 134.649 24.7202 134.735 24.0358 134.801C23.3515 134.874 22.6671 134.926 21.9827 134.973C21.351 135.012 20.6864 135.091 20.0613 134.973C19.8968 134.94 19.7454 134.893 19.6006 134.834C19.3176 134.715 19.0742 134.544 18.8373 134.346C18.7452 134.266 18.6596 134.187 18.5741 134.101C18.1924 133.725 17.8437 133.323 17.5146 132.9C16.2051 131.257 15.1193 129.37 13.3689 128.149C13.1583 128.004 12.9412 127.865 12.7109 127.746C12.3621 127.562 12.0462 128.089 12.4016 128.281C14.3099 129.304 15.4549 131.224 16.7315 132.894C17.0671 133.329 17.4093 133.765 17.7844 134.167C17.8502 134.24 17.916 134.313 17.9818 134.379C17.3435 134.326 16.8302 133.996 16.3038 133.646C15.1983 132.914 14.0336 132.273 12.8228 131.726C12.2437 131.462 11.6251 131.257 11.0855 130.914C10.6183 130.617 10.2958 130.175 10.0457 129.693C9.77593 129.178 9.57197 128.624 9.34165 128.089C9.08501 127.496 8.81521 126.915 8.51909 126.334C8.42696 126.149 8.32821 125.971 8.22951 125.786C7.861 125.107 7.46622 124.44 7.04507 123.8C6.68972 123.378 6.36071 122.922 6.07117 122.454C5.86059 122.11 5.66317 121.761 5.4855 121.404C4.66294 119.761 4.20891 117.94 4.03123 116.118C3.99833 115.769 3.97194 115.425 3.95878 115.076C3.94562 114.831 3.9391 114.581 3.9391 114.336L3.68245 112.502C3.41923 110.251 3.33363 107.975 3.30073 105.711C3.28757 104.952 3.28104 104.2 3.27446 103.441C3.27446 102.682 3.25467 101.93 3.30073 101.171C3.3797 99.7322 3.72195 98.3397 4.43922 97.0858C5.07753 95.9639 5.95273 95.007 6.9069 94.1491C7.38728 93.7136 7.89392 93.2978 8.41378 92.915C8.61777 92.7633 8.86786 92.5917 9.10476 92.7039C9.14425 92.7171 9.21663 92.7831 9.26927 92.849C9.3285 92.915 9.3943 93.0338 9.43379 93.1394C9.51933 93.3374 9.57198 93.5948 9.5983 93.7927C9.64436 94.1755 9.6838 94.5583 9.7167 94.941C9.78909 95.6934 9.84175 96.4523 9.90098 97.2046C10.0063 98.7291 10.105 100.253 10.2695 101.765C10.3551 102.537 10.4603 103.302 10.5722 104.068C10.6841 104.814 10.763 105.553 10.7301 106.305C10.6775 107.671 10.3155 109.011 9.89439 110.304C9.86807 110.39 9.83516 110.482 9.80884 110.568C9.76936 110.687 9.72992 110.806 9.69043 110.931C9.84179 111.05 9.99309 111.169 10.1379 111.294C10.1576 111.314 10.1839 111.327 10.2037 111.347C10.4274 111.532 10.6511 111.73 10.8683 111.928C11.1644 111.928 11.4672 111.928 11.7633 111.921C12.8491 111.895 13.9348 111.802 15.0206 111.657C15.5076 111.591 16.0011 111.532 16.4946 111.571C16.9487 111.604 17.3962 111.75 17.8107 111.934C18.732 112.337 19.6269 112.805 20.5285 113.248C20.9891 113.472 21.4431 113.69 21.8972 113.914C22.2789 114.099 22.7001 114.27 23.0225 114.554C23.2857 114.785 23.5226 115.122 23.4765 115.491C23.437 115.815 23.1475 116.013 22.8646 116.118C22.4697 116.263 22.0354 116.329 21.6209 116.382C21.1273 116.442 20.6338 116.461 20.1402 116.448C19.6796 116.435 19.1992 116.409 18.7583 116.244C18.3964 116.105 18.0871 115.848 17.7712 115.623C17.429 115.386 17.0605 115.201 16.646 115.155C16.3038 115.115 15.9616 115.181 15.6195 115.241C15.4813 115.267 15.3431 115.287 15.2115 115.307C15.1193 115.32 15.0272 115.326 14.9351 115.333C15.0733 115.518 15.2048 115.709 15.3233 115.907C15.4746 116.151 15.6194 116.409 15.7444 116.666C16.0077 117.194 16.1788 117.748 16.3696 118.309C16.5605 118.877 16.7908 119.438 17.179 119.9C17.541 120.329 18.0279 120.645 18.5346 120.876C19.6664 121.385 20.9167 121.47 22.0749 121.886C22.6671 122.097 23.2199 122.407 23.7595 122.737C24.332 123.087 24.9045 123.444 25.477 123.793C26.6549 124.519 27.8328 125.252 29.0173 125.978C29.3069 126.156 29.5964 126.334 29.8793 126.512C30.0833 126.638 30.3136 126.77 30.4518 126.974C30.7348 127.39 30.3465 127.859 29.9583 128.017L29.9188 127.964Z" fill="#0B0016"/>
<path d="M87.1362 89.5692C86.8861 91.3378 86.1821 93.1328 84.7804 94.3075C83.9578 94.9939 82.9313 95.403 81.8784 95.4954C80.6873 95.9376 79.3779 96.0828 78.1407 95.7792C76.2126 95.304 74.936 93.6542 73.8436 92.1034C72.7644 90.5789 71.8629 88.7707 71.9945 86.8503C72.0537 86.0188 72.2774 85.1873 72.7183 84.4745C73.1855 83.7222 73.87 83.1679 74.686 82.8445C75.4625 82.5409 76.3179 82.4749 77.1537 82.5013C77.6011 82.2703 78.042 82.0328 78.4894 81.8018C78.9369 81.5708 79.3844 81.3398 79.8516 81.1617C80.7466 80.8251 81.7139 80.7393 82.6549 80.8779C84.3527 81.1353 85.8925 82.2637 86.6361 83.8212C87.0506 84.6923 87.2152 85.6492 87.2613 86.6061C87.3073 87.596 87.2612 88.5991 87.123 89.5758L87.1362 89.5692Z" fill="#F49B62"/>
<path d="M117.584 120.071C117.275 121.127 116.788 122.157 116.077 123.001C115.709 123.437 115.268 123.82 114.768 124.09C114.195 124.4 113.563 124.559 112.925 124.638C110.438 124.942 107.937 124.156 105.7 123.133C103.357 122.058 101.153 120.692 98.8757 119.477C96.4935 118.204 94.0786 117.003 91.624 115.874C89.6894 114.983 87.7415 114.139 85.7674 113.34C85.3199 113.327 84.8724 113.386 84.4249 113.452C83.6155 113.578 82.8194 113.703 82.0034 113.604C80.6017 113.439 79.3185 112.805 78.3248 111.802C77.7852 111.255 77.2917 110.647 76.7916 110.067C76.2586 109.446 75.7189 108.826 75.1859 108.212C74.6529 107.592 74.1199 106.972 73.5803 106.358C73.3303 106.068 73.067 105.784 72.8301 105.48C72.6196 105.203 72.4353 104.899 72.3892 104.55C72.2905 103.896 72.567 103.223 73.1197 102.86C73.1987 102.807 73.2842 102.761 73.3698 102.728C73.1658 102.438 73.0078 102.128 72.9289 101.771C72.7643 101.019 73.0341 100.32 73.6527 99.8773C73.9225 99.686 74.2186 99.5672 74.5279 99.488C74.5081 99.4682 74.4884 99.4484 74.4687 99.4286C74.1725 99.1382 73.8699 98.8413 73.6725 98.4783C73.4685 98.0955 73.3632 97.6798 73.3171 97.2508C73.2447 96.5513 73.2711 95.5284 74.0212 95.1852C74.3568 95.0334 74.7188 95.0664 75.0741 95.1258C75.0478 95.106 75.0281 95.0862 75.0017 95.0664C74.3437 94.5451 73.5738 94.0831 73.1131 93.3704C72.8828 93.0206 72.7446 92.5785 72.8565 92.1627C72.9684 91.7602 73.2908 91.483 73.6659 91.3444C74.0673 91.1992 74.5016 91.2388 74.903 91.3576C75.3768 91.4962 75.8308 91.7074 76.2915 91.8922C78.1406 92.6379 79.9897 93.3836 81.8389 94.1293C83.0365 94.6111 84.2473 95.0994 85.3923 95.6868C85.4975 95.205 85.6423 94.7299 85.8266 94.2679C86.0306 93.7532 86.2741 93.245 86.4123 92.7105C86.5439 92.1825 86.5176 91.681 86.3267 91.1728C86.1425 90.6845 85.8529 90.2423 85.6423 89.7672C85.4054 89.2392 85.2278 88.6849 85.1291 88.1107C85.0436 87.6224 84.9514 87.0812 85.0764 86.5863C85.1817 86.1705 85.491 85.768 85.9583 85.801C86.5176 85.8472 86.8268 86.4477 87.1229 86.8503C87.4849 87.3452 87.8468 87.8402 88.2087 88.3351C88.5509 88.8103 88.9194 89.2722 89.2287 89.7672C89.5314 90.2555 89.7157 90.7835 89.742 91.3576C89.7684 91.9516 89.6367 92.5389 89.5314 93.1196C89.3274 94.2811 89.4261 95.436 89.5972 96.5975C89.6893 97.198 89.788 97.792 89.8604 98.3925C89.9394 99.0062 89.9723 99.62 89.9855 100.234C90.025 101.785 89.9723 103.454 90.4461 104.939C92.894 105.513 95.342 106.101 97.7965 106.655C99.139 106.958 100.475 107.183 101.857 107.203C103.265 107.222 104.673 107.097 106.081 107.051C107.476 107.011 108.891 107.011 110.286 107.13C110.931 107.189 111.583 107.288 112.188 107.513C112.767 107.731 113.294 108.054 113.78 108.437C115.485 109.783 116.722 111.75 117.393 113.802C118.045 115.815 118.163 118.032 117.571 120.071H117.584Z" fill="white"/>
<path d="M117.406 113.802C116.735 111.75 115.498 109.783 113.794 108.437C113.307 108.054 112.78 107.731 112.201 107.513C111.589 107.282 110.944 107.183 110.299 107.13C108.904 107.005 107.496 107.005 106.095 107.051C104.686 107.097 103.278 107.222 101.87 107.203C100.495 107.183 99.1521 106.958 97.8096 106.655C95.3551 106.101 92.9072 105.513 90.4593 104.939C89.9789 103.448 90.0381 101.785 89.9986 100.234C89.9855 99.62 89.946 99.0063 89.8736 98.3925C89.8012 97.792 89.6959 97.1914 89.6104 96.5975C89.4393 95.436 89.3406 94.2811 89.5446 93.1197C89.6499 92.5389 89.7815 91.9516 89.7551 91.3576C89.7288 90.7835 89.5446 90.2556 89.2419 89.7672C88.9326 89.2723 88.5641 88.8103 88.2219 88.3352C87.86 87.8402 87.498 87.3453 87.1361 86.8503C86.84 86.4477 86.5307 85.8472 85.9714 85.801C85.4976 85.7614 85.1883 86.1706 85.0896 86.5863C84.9646 87.0813 85.0567 87.6158 85.1422 88.1108C85.2409 88.6849 85.4186 89.2327 85.6555 89.7672C85.8661 90.2424 86.1557 90.6845 86.3399 91.1729C86.5373 91.681 86.5636 92.1826 86.4255 92.7105C86.2873 93.2516 86.0438 93.7532 85.8398 94.2679C85.6555 94.7299 85.5107 95.2051 85.4054 95.6868C84.2539 95.0929 83.0496 94.6111 81.852 94.1294C80.0029 93.3836 78.1538 92.6379 76.3047 91.8922C75.8506 91.7074 75.39 91.4962 74.9162 91.3576C74.5148 91.2389 74.0805 91.1993 73.6791 91.3444C73.2974 91.483 72.9815 91.7668 72.8697 92.1628C72.7512 92.5785 72.896 93.0207 73.1263 93.3704C73.5935 94.0898 74.3634 94.5517 75.0149 95.0665C75.0412 95.0863 75.061 95.1061 75.0873 95.1259C74.7319 95.0665 74.37 95.0401 74.0344 95.1853C73.2842 95.5218 73.2579 96.5447 73.3303 97.2508C73.3763 97.6798 73.4751 98.1022 73.6856 98.4783C73.8896 98.8413 74.1857 99.1383 74.4819 99.4286C74.5016 99.4484 74.5213 99.4682 74.5411 99.488C74.2318 99.5606 73.9291 99.686 73.6659 99.8774C73.0473 100.326 72.7775 101.026 72.942 101.771C73.021 102.128 73.1789 102.438 73.3829 102.728C73.2973 102.768 73.2118 102.807 73.1328 102.86C72.5801 103.223 72.3037 103.903 72.4024 104.55C72.455 104.899 72.6327 105.203 72.8433 105.48C73.0802 105.784 73.3435 106.068 73.5935 106.358C74.1265 106.978 74.6595 107.599 75.1991 108.212C75.7321 108.833 76.2652 109.453 76.8048 110.067C77.3049 110.647 77.7984 111.255 78.338 111.802C79.3317 112.805 80.6148 113.439 82.0165 113.604C82.8325 113.703 83.6353 113.578 84.4381 113.452C84.879 113.386 85.3331 113.32 85.7806 113.34C87.7547 114.139 89.7025 114.983 91.6371 115.874C94.0851 117.003 96.5067 118.204 98.8889 119.477C101.166 120.692 103.364 122.058 105.713 123.133C107.95 124.156 110.451 124.948 112.938 124.638C113.583 124.559 114.208 124.4 114.781 124.09C115.281 123.82 115.728 123.437 116.09 123.001C116.801 122.157 117.288 121.127 117.597 120.071C118.189 118.032 118.078 115.815 117.42 113.802H117.406ZM117.281 118.474C117.163 119.471 116.873 120.454 116.419 121.345C115.926 122.322 115.222 123.232 114.195 123.681C113.103 124.163 111.793 124.137 110.628 124.005C109.437 123.866 108.273 123.523 107.161 123.094C104.838 122.19 102.706 120.87 100.534 119.682C98.2045 118.402 95.8356 117.194 93.4337 116.046C91.3674 115.062 89.2814 114.132 87.1756 113.254C86.8335 113.109 86.4978 112.97 86.1556 112.832C86.0635 112.792 85.9714 112.759 85.8727 112.72C85.4121 112.693 84.9449 112.753 84.4777 112.825C83.9381 112.904 83.3984 113.01 82.8588 113.023C81.6151 113.063 80.3714 112.667 79.3778 111.915C78.8316 111.505 78.3841 110.971 77.9432 110.456C77.4497 109.882 76.9561 109.308 76.456 108.734C75.4558 107.579 74.4555 106.424 73.4619 105.262C73.2513 105.018 73.0276 104.741 72.9815 104.405C72.9486 104.134 73.021 103.857 73.1658 103.632C73.3171 103.401 73.5474 103.263 73.7975 103.21C73.9093 103.329 74.0344 103.441 74.1528 103.553C74.4226 103.797 74.6924 104.042 74.949 104.306C75.1794 104.55 75.3965 104.8 75.6203 105.045C76.127 105.599 76.6864 106.107 77.4036 106.351C77.7787 106.477 77.9432 105.883 77.5681 105.757C77.0285 105.573 76.6008 105.19 76.2125 104.781C75.8045 104.352 75.4229 103.89 74.982 103.481C74.9557 103.454 74.9228 103.428 74.8964 103.401C74.6003 103.137 74.291 102.867 74.0344 102.563C73.8896 102.398 73.7646 102.214 73.6659 102.016C73.4158 101.507 73.3961 100.907 73.8238 100.491C74.1594 100.161 74.6069 100.036 75.0675 99.9764C75.5216 100.405 75.9822 100.828 76.456 101.237C77.2325 101.91 78.0287 102.557 78.8447 103.177C78.9763 103.276 79.1869 103.197 79.2659 103.065C79.358 102.906 79.2922 102.741 79.154 102.642C78.0287 101.785 76.943 100.88 75.9033 99.917C75.7388 99.7652 75.5742 99.6134 75.4163 99.455C75.3703 99.4154 75.3307 99.3692 75.2847 99.3296C74.7845 98.8677 74.2383 98.3925 74.0344 97.726C73.9291 97.3828 73.9028 97.0265 73.9094 96.6635C73.9094 96.3929 73.9291 96.0564 74.1068 95.832C74.3305 95.5482 74.7517 95.6472 75.0544 95.7C75.3242 95.7462 75.5939 95.7924 75.8637 95.8386C75.8769 95.8584 75.8967 95.8716 75.9099 95.8914C76.1928 96.2345 76.4429 96.6041 76.7324 96.9473C77.9564 98.3991 79.6871 99.29 81.3519 100.141C81.7073 100.32 82.0165 99.785 81.6612 99.6068C80.2661 98.8941 78.825 98.1682 77.6866 97.0661C77.4036 96.7955 77.147 96.4985 76.9035 96.1818C76.8377 96.0894 76.7653 95.997 76.6995 95.9112C76.535 95.6934 76.3638 95.469 76.1796 95.271C76.1401 95.2248 76.0941 95.1787 76.0546 95.1391C75.4887 94.5715 74.8043 94.1558 74.2054 93.6278C73.8304 93.2978 73.0275 92.4927 73.633 92.0044C73.9159 91.78 74.2976 91.7932 74.62 91.879C75.0543 91.9846 75.4689 92.1826 75.8835 92.3541C77.6537 93.0669 79.4304 93.7862 81.2005 94.4989C82.5692 95.0533 83.9578 95.5944 85.2673 96.2807C85.4647 96.3863 85.6555 96.4853 85.8464 96.5975L85.9517 95.9442C86.0043 95.6802 86.0701 95.4096 86.149 95.1523C86.307 94.6177 86.5373 94.1096 86.7413 93.5882C86.9387 93.0867 87.1033 92.5653 87.1098 92.0242C87.1164 91.4764 86.9321 90.9683 86.7018 90.4799C86.478 90.018 86.2149 89.5758 86.0372 89.0941C85.853 88.5925 85.7213 88.0712 85.6621 87.5432C85.6358 87.3188 85.6094 87.0747 85.6357 86.8437C85.6489 86.7183 85.7082 86.5335 85.774 86.4543C85.8135 86.4081 85.8397 86.3883 85.8792 86.3817C85.8792 86.3817 85.9385 86.3817 85.9517 86.3883C85.978 86.3949 86.0109 86.4213 86.0372 86.4345C86.2215 86.5797 86.3531 86.8107 86.4912 86.9955C87.1822 87.9392 87.8995 88.8631 88.5509 89.8332C88.8339 90.2555 89.0708 90.7109 89.1103 91.2323C89.1497 91.78 89.0313 92.3211 88.9392 92.8623C88.8339 93.443 88.7747 94.0172 88.7812 94.6045C88.7878 95.1853 88.8602 95.766 88.9392 96.3401C89.0971 97.495 89.3077 98.6367 89.3537 99.8048C89.4195 101.441 89.334 103.157 89.7551 104.748C89.8144 104.979 89.8868 105.21 89.9723 105.434C90.2224 105.493 90.4659 105.546 90.7159 105.606C92.3084 105.975 93.8943 106.345 95.4868 106.721C96.816 107.031 98.1453 107.381 99.5009 107.592C100.863 107.803 102.232 107.816 103.614 107.757C104.996 107.698 106.377 107.612 107.766 107.625C108.444 107.625 109.128 107.651 109.813 107.691C110.444 107.731 111.083 107.797 111.688 107.975C112.8 108.305 113.708 109.077 114.478 109.922C115.176 110.687 115.755 111.565 116.215 112.495C117.11 114.33 117.512 116.422 117.275 118.455L117.281 118.474Z" fill="#0B0016"/>
<path d="M105.101 14.4556C104.614 13.9144 104.107 13.3931 103.548 12.9179C102.719 12.2052 101.778 11.6509 100.731 11.3209C99.7114 10.9975 98.6388 10.8919 97.5662 10.9183C95.6776 10.9645 93.8482 11.4529 92.0583 12.027C91.8609 12.093 91.657 12.159 91.4595 12.225C91.2555 12.291 91.0581 12.3636 90.8541 12.4296C89.7223 12.8123 88.5904 13.1885 87.4454 13.5053C87.248 13.5581 87.0506 13.6109 86.8466 13.6637C85.899 13.9078 84.9383 14.1058 83.9512 14.2246C79.1672 14.8251 74.3371 13.9936 69.6781 12.9245C69.1385 12.7991 68.5989 12.6738 68.0659 12.5418C67.8619 12.489 67.6645 12.4428 67.467 12.3966C65.9075 12.0072 64.3479 11.6047 62.7752 11.2615C62.7093 11.2483 62.6502 11.2351 62.5844 11.2219C62.4462 11.1955 62.3146 11.1625 62.1764 11.1361C60.097 10.7204 57.9846 10.5884 55.8986 11.0965C53.9178 11.5783 52.0753 12.6078 50.8053 14.2246C50.042 15.1947 49.4892 16.3562 49.2655 17.5771C49.1141 17.2537 48.9825 16.9303 48.8772 16.5872C48.66 15.9008 48.5482 15.1881 48.5679 14.4688C48.6008 13.3205 48.9364 12.1986 49.4892 11.2021C50.0485 10.1924 50.8382 9.3147 51.7726 8.64157C52.8386 7.87604 54.0889 7.48009 55.3787 7.3019C58.3004 6.89934 61.3143 7.23591 64.2097 7.69786C64.7625 7.78365 65.3153 7.87605 65.868 7.97504C66.0786 8.01463 66.2892 8.04763 66.4997 8.08722C68.6515 8.48318 70.7968 8.91874 72.9618 9.24211C73.383 9.3015 73.8106 9.3609 74.2318 9.41369C76.5086 9.52588 78.7921 9.47968 81.0623 9.3213C83.4642 9.15632 85.8398 8.85275 88.2153 8.50298C88.4193 8.47658 88.6299 8.44359 88.8404 8.41059C89.788 8.27201 90.7423 8.12682 91.6898 7.98163C94.8945 7.49988 98.2966 7.24911 101.264 8.80655C102.482 9.44669 103.561 10.3838 104.259 11.5849C104.581 12.1392 104.811 12.7464 104.956 13.3667C105.035 13.7165 105.088 14.0794 105.114 14.4358L105.101 14.4556Z" fill="#F49B62"/>
<path d="M88.8339 8.4238C88.6365 8.4502 88.4391 8.48319 88.2351 8.50959C88.2285 8.50959 88.2153 8.50959 88.2087 8.50959C85.8332 8.85275 83.4576 9.16292 81.0558 9.32791C80.5227 9.3675 79.9898 9.3939 79.4568 9.4203H79.4436C77.7063 9.49949 75.9625 9.50609 74.2252 9.4203C73.7975 9.3675 73.3764 9.31471 72.9552 9.24871C72.0603 9.11673 71.1719 8.96494 70.2835 8.80656C69.257 8.62178 68.237 8.4238 67.2104 8.23242C66.9735 8.18622 66.7366 8.14663 66.4932 8.10043C66.2826 8.06083 66.072 8.02784 65.8615 7.98824C65.8746 7.96184 65.8877 7.94205 65.8943 7.91565C65.9864 7.73087 66.0786 7.53949 66.1707 7.3547C66.9999 5.71147 67.9475 4.14083 69.0135 2.64278C69.6387 1.76507 70.3098 0.860962 71.4022 0.577191C71.9615 0.432006 72.5472 0.432006 73.1197 0.425407C73.7646 0.412208 74.4095 0.405608 75.0544 0.405608C77.6076 0.39241 80.1608 0.451804 82.7075 0.583791C83.2734 0.610188 83.859 0.629986 84.3986 0.821367C84.8856 0.98635 85.3067 1.27672 85.6489 1.65948C86.353 2.4514 86.7347 3.4809 87.1493 4.4312C87.6363 5.54649 88.1101 6.66838 88.5641 7.79686C88.6431 7.98824 88.722 8.17962 88.7944 8.3776C88.801 8.3974 88.8076 8.4172 88.8208 8.437L88.8339 8.4238Z" fill="#F49B62"/>
<path d="M65.2956 88.8432C65.2956 89.0478 65.2956 89.2523 65.2824 89.4569C65.0784 89.4041 64.8744 89.3513 64.6704 89.2919C63.4267 88.929 62.2159 88.467 60.8866 88.6782C60.3865 88.7574 59.893 88.8762 59.3863 88.9422C58.873 89.0082 58.3531 89.0082 57.8398 88.962C56.787 88.8696 55.7604 88.6188 54.7273 88.4406C53.7205 88.2624 52.7202 88.2096 51.7069 88.3086C50.7527 88.401 49.8117 88.6122 48.8904 88.8498C47.0149 89.3381 45.1659 89.9651 43.2378 90.2092C42.3033 90.328 41.3623 90.3412 40.4213 90.2092C39.4211 90.0707 38.4472 89.7737 37.493 89.4569C36.5323 89.1402 35.5715 88.8036 34.5844 88.5792C33.6039 88.3614 32.6168 88.302 31.6166 88.3548C29.5767 88.467 27.5894 89.0148 25.5692 89.2985C24.6019 89.4371 23.6213 89.5229 22.6474 89.4701C21.6406 89.4173 20.6667 89.1863 19.6994 88.8894C18.7255 88.5924 17.7515 88.2426 16.7316 88.1173C15.6787 87.9853 14.6718 88.1898 13.6585 88.4538C12.6187 88.731 11.5791 88.9686 10.4999 89.0412C10.3814 89.0478 10.2629 89.0544 10.1445 89.061C9.9405 89.0676 9.72996 89.0742 9.52597 89.0676C9.52597 88.8828 9.52597 88.698 9.52597 88.5198C9.47332 88.5 9.42069 88.4736 9.36804 88.4538C9.62468 88.4538 9.88786 88.4538 10.1445 88.4406C10.8683 88.4142 11.5856 88.3218 12.2897 88.1634C13.3229 87.9325 14.3297 87.5827 15.3826 87.4771C17.4094 87.2725 19.2651 88.236 21.1997 88.6584C25.1875 89.5295 29.0897 87.4705 33.0841 87.7411C35.0977 87.8797 36.9468 88.6914 38.8683 89.2391C39.8159 89.5097 40.7833 89.6879 41.7703 89.6879C42.7377 89.6879 43.6984 89.5427 44.6394 89.3315C46.5149 88.9224 48.3311 88.269 50.2131 87.9061C51.1343 87.7279 52.0753 87.6157 53.0098 87.6355C54.0561 87.6619 55.0761 87.8797 56.0961 88.0777C57.1226 88.2756 58.1689 88.4538 59.2152 88.3416C60.2154 88.236 61.1695 87.9127 62.1895 88.0249C63.0187 88.1173 63.8412 88.4208 64.6638 88.6716C64.8678 88.7376 65.0718 88.797 65.2824 88.8432H65.2956Z" fill="#8AB946"/>
<path d="M78.1209 78.8453C77.9696 78.8057 77.7721 78.8981 77.7392 79.0631C77.4497 80.4885 77.3576 81.9536 77.4761 83.4054C77.4892 83.5704 77.6077 83.7156 77.7853 83.7156C77.9433 83.7156 78.1077 83.577 78.0946 83.4054C77.9761 82.0064 78.0551 80.6007 78.3315 79.2281C78.3644 79.0631 78.2854 78.8915 78.1143 78.8453H78.1209Z" fill="#0B0016"/>
<path d="M23.7266 57.6878C23.6476 57.8198 23.437 57.899 23.3054 57.8C22.0748 56.8893 21.6077 55.4242 21.305 53.979C21.1668 53.3256 21.0614 52.6723 20.9101 52.019C20.7456 51.3128 20.535 50.6133 20.2718 49.9402C19.7519 48.6005 19.0347 47.34 18.2187 46.1654C16.9487 44.3439 15.4154 42.7205 13.7834 41.2224C14.1322 41.2027 14.4875 41.2422 14.8165 41.3478C15.2903 41.7966 15.751 42.2585 16.1985 42.7337C18.1924 44.8521 19.9428 47.2608 20.9628 50.0062C21.2128 50.6859 21.4168 51.3722 21.5681 52.0784C21.7063 52.7317 21.8182 53.385 21.9564 54.0318C22.2197 55.2196 22.6013 56.5065 23.6212 57.2588C23.7528 57.3578 23.8253 57.5228 23.7331 57.6812L23.7266 57.6878Z" fill="#0B0016"/>
<path d="M31.4587 67.6594C30.2413 65.8644 29.5767 63.7856 29.0174 61.7134C28.4514 59.6214 27.9973 57.4832 27.1616 55.4704C26.6944 54.3354 26.1087 53.2597 25.352 52.2896C25.2467 52.1576 25.023 52.184 24.9177 52.2896C24.7861 52.4215 24.8124 52.5931 24.9177 52.7251C26.2207 54.4013 26.9511 56.4339 27.5236 58.4599C28.1158 60.5519 28.5501 62.6835 29.3069 64.7227C29.728 65.8578 30.2479 66.9665 30.9257 67.9696C31.1494 68.2995 31.6824 67.9894 31.4587 67.6594Z" fill="#0B0016"/>
<path d="M50.6474 65.7521C50.4829 66.3131 50.3446 66.8806 50.2064 67.4482C49.884 68.7878 49.5616 70.1473 48.8969 71.3616C48.3179 72.4241 47.4756 73.381 46.3569 73.8891C46.2055 73.9551 46.0278 73.9353 45.9357 73.7769C45.8568 73.6449 45.8963 73.4206 46.0476 73.3546C46.6333 73.0906 47.1333 72.7012 47.5611 72.2195C49.1799 70.3915 49.3971 67.8639 50.0617 65.5872C50.2591 65.64 50.4565 65.6927 50.654 65.7455L50.6474 65.7521Z" fill="#0B0016"/>
<path d="M51.0356 74.0345C50.7 73.4603 50.3709 72.8862 50.0353 72.312C49.9564 72.1734 49.7524 72.114 49.6142 72.1998C49.476 72.2922 49.4168 72.4704 49.5023 72.6222C49.8379 73.1963 50.167 73.7705 50.5026 74.3446C50.5816 74.4832 50.7855 74.5426 50.9237 74.4568C51.0619 74.3644 51.1211 74.1862 51.0356 74.0345Z" fill="#0B0016"/>
<path d="M61.4722 69.1706C61.3209 69.6523 61.1761 70.1407 61.0379 70.6357C60.7352 71.7377 60.4786 72.8464 60.2746 73.9683C60.1693 74.5227 60.0838 75.0836 59.9982 75.6379C59.9258 76.1593 59.8666 76.707 59.9719 77.2284C60.0048 77.3934 59.9258 77.565 59.7547 77.6111C59.6034 77.6507 59.406 77.5584 59.3731 77.3934C59.2415 76.7334 59.3138 76.0735 59.4125 75.4136C59.7218 73.2424 60.2153 71.0976 60.8734 69.0056C61.0708 69.0584 61.2748 69.1112 61.4722 69.1706Z" fill="#0B0016"/>
<path d="M61.8736 78.2843C61.7288 77.2482 61.4065 76.2517 60.9392 75.3212C60.8669 75.1694 60.6563 75.1298 60.5181 75.209C60.3667 75.2948 60.3338 75.4796 60.4062 75.6314C60.8537 76.5157 61.1432 77.4726 61.2814 78.4493C61.2222 78.6275 61.3143 78.8717 61.5578 78.8717C61.7815 78.8717 61.8803 78.6671 61.8474 78.4955C61.8737 78.4295 61.8802 78.3569 61.8736 78.2843Z" fill="#0B0016"/>
<path d="M34.5384 69.7513C34.5515 69.5863 34.387 69.4412 34.229 69.4412C34.0514 69.4412 33.9329 69.5863 33.9198 69.7513C33.8079 71.1372 33.8211 72.5296 33.9527 73.9155C33.9659 74.0805 34.0843 74.2257 34.262 74.2257C34.4133 74.2257 34.5844 74.0805 34.5712 73.9155C34.4396 72.5296 34.4265 71.1372 34.5384 69.7513Z" fill="#0B0016"/>
<path d="M80.1806 83.2537C78.6342 83.4451 77.0877 83.6299 75.5479 83.8213C75.3834 83.8411 75.2386 83.9466 75.2386 84.1314C75.2386 84.2832 75.3834 84.4614 75.5479 84.4416C77.0943 84.2502 78.6408 84.0654 80.1806 83.8741C80.3451 83.8543 80.4899 83.7487 80.4899 83.5639C80.4899 83.4121 80.3451 83.2339 80.1806 83.2537Z" fill="#336137"/>
<path d="M91.9991 17.2802C91.8148 18.9168 91.4858 20.5336 90.9922 22.1043C90.8146 22.6718 90.4592 23.3911 89.788 23.4505C88.9984 23.5231 88.6694 22.619 88.4917 22.0185C88.2614 21.253 88.1824 20.4544 88.0903 19.6691C87.9916 18.8574 87.8731 18.0523 87.7217 17.2538C87.498 16.0461 87.2085 14.8516 86.8597 13.6703C87.0572 13.6175 87.2611 13.5647 87.4585 13.5119C88.6035 13.1952 89.7288 12.819 90.8672 12.4363C91.0712 12.3703 91.2686 12.2977 91.4726 12.2317C91.67 12.1657 91.874 12.0997 92.0714 12.0337C92.2228 13.7825 92.2031 15.5379 92.0056 17.2802H91.9991Z" fill="#0B0016"/>
<path d="M67.4737 12.4033C67.6711 12.4495 67.8751 12.5023 68.0725 12.5485C67.375 14.2181 66.7564 15.9207 66.2234 17.6498C65.9865 18.4153 65.7628 19.1874 65.5653 19.9595C65.4601 20.3555 65.3614 20.7581 65.2693 21.154C65.1771 21.5302 65.1113 21.9129 64.9336 22.2561C64.7691 22.5795 64.4796 22.8632 64.1177 22.9622C63.7492 23.0612 63.3938 22.9358 63.1174 22.6785C62.6041 22.2165 62.3278 21.5104 62.183 20.8504C62.0185 20.1047 61.9725 19.3326 61.9264 18.5737C61.8738 17.7356 61.8474 16.8908 61.854 16.0461C61.854 14.4029 61.9659 12.7663 62.1765 11.1362C62.3146 11.1626 62.4463 11.189 62.5844 11.222C62.6503 11.2352 62.7094 11.2484 62.7752 11.2616C64.348 11.6048 65.9075 12.0073 67.4671 12.3967L67.4737 12.4033Z" fill="#0B0016"/>
<path d="M88.8142 8.36444C88.6233 8.41723 88.4325 8.46342 88.2417 8.50962C87.7087 8.64161 87.1756 8.7538 86.636 8.85939C84.8198 9.20255 82.9707 9.38073 81.1215 9.41373C80.5688 9.42033 80.016 9.42693 79.4633 9.42033H79.4502C78.088 9.42033 76.7258 9.37413 75.3636 9.30814C73.6593 9.22235 71.9681 9.06396 70.2901 8.80659C69.257 8.64821 68.237 8.46343 67.217 8.23245C66.7761 8.13346 66.3418 8.02787 65.9075 7.91568C65.9996 7.7309 66.0918 7.53952 66.1839 7.35474C67.5724 7.7177 68.9806 8.00807 70.402 8.21925C72.2774 8.50302 74.1726 8.64821 76.0612 8.7274C77.9695 8.80659 79.8844 8.84619 81.7928 8.78679C84.0828 8.7142 86.3662 8.37763 88.5773 7.79689C88.6563 7.98827 88.7352 8.17965 88.8076 8.37763L88.8142 8.36444Z" fill="#0B0016"/>
<path d="M8.7758 60.0834C8.99295 60.4199 8.4599 60.7301 8.24274 60.3935C7.7163 59.5752 7.157 58.7833 6.55159 58.0244C5.49871 56.6913 4.32741 55.477 3.1166 54.2826C2.63622 53.8074 2.14924 53.3323 1.69519 52.8307C1.69519 52.8307 1.70837 52.8241 1.71495 52.8175C1.87288 52.6855 1.95182 52.4941 2.01763 52.3028C2.01763 52.2962 2.01763 52.2896 2.02421 52.2764C2.0637 52.3226 2.10972 52.3688 2.14921 52.415C3.26131 53.6292 4.50502 54.7181 5.60396 55.9456C6.7687 57.2391 7.8282 58.6249 8.76921 60.0834H8.7758Z" fill="#0B0016"/>
<path d="M15.7511 61.7199C15.1062 60.5386 14.2705 59.4894 13.3755 58.4929C11.7567 56.6978 9.9405 55.0744 8.49938 53.1144C7.77552 52.1311 7.21618 51.0752 6.76871 49.9401C6.65684 49.6497 6.54495 49.3528 6.41992 49.0558C6.59759 48.9568 6.77529 48.8446 6.93981 48.7192C7.11748 49.135 7.27542 49.5574 7.43993 49.9731C8.34146 52.2301 9.95366 54.0317 11.6185 55.7541C13.3163 57.5096 15.0931 59.2452 16.2776 61.4032C16.4684 61.7529 15.9353 62.0631 15.7445 61.7133L15.7511 61.7199Z" fill="#0B0016"/>
<path d="M79.5292 68.9331C79.5292 69.3884 79.1606 69.758 78.7066 69.758C78.2525 69.758 77.884 69.3884 77.884 68.9331C77.884 68.4777 78.2525 68.1082 78.7066 68.1082C79.1606 68.1082 79.5292 68.4777 79.5292 68.9331Z" fill="#0B0016"/>
<path d="M74.9096 80.4489C74.9096 80.9043 74.5411 81.2739 74.0871 81.2739C73.633 81.2739 73.2645 80.9043 73.2645 80.4489C73.2645 79.9936 73.633 79.624 74.0871 79.624C74.5411 79.624 74.9096 79.9936 74.9096 80.4489Z" fill="#0B0016"/>
<path d="M72.659 114.653C73.1133 114.653 73.4815 114.284 73.4815 113.828C73.4815 113.373 73.1133 113.003 72.659 113.003C72.2047 113.003 71.8364 113.373 71.8364 113.828C71.8364 114.284 72.2047 114.653 72.659 114.653Z" fill="#0B0016"/>
<path d="M73.2645 128.433C73.7187 128.433 74.087 128.063 74.087 127.608C74.087 127.152 73.7187 126.783 73.2645 126.783C72.8102 126.783 72.4419 127.152 72.4419 127.608C72.4419 128.063 72.8102 128.433 73.2645 128.433Z" fill="#0B0016"/>
</svg>
